<?xml version="1.0" encoding="UTF-8"?>
<svg id="Layer_2" data-name="Layer 2" xmlns="http://www.w3.org/2000/svg" xmlns:xlink="http://www.w3.org/1999/xlink" viewBox="0 0 419.87 340.68">
  <defs>
    <style>
      .cls-1 {
        fill: #78c17c;
      }

      .cls-1, .cls-2, .cls-3, .cls-4, .cls-5, .cls-6, .cls-7, .cls-8, .cls-9, .cls-10, .cls-11, .cls-12, .cls-13, .cls-14, .cls-15, .cls-16, .cls-17, .cls-18, .cls-19, .cls-20, .cls-21, .cls-22, .cls-23 {
        fill-rule: evenodd;
      }

      .cls-2 {
        opacity: .3;
      }

      .cls-3 {
        fill: #fff;
      }

      .cls-4, .cls-24 {
        fill: #9f90f4;
      }

      .cls-5, .cls-25 {
        fill: #fff38e;
      }

      .cls-6, .cls-26 {
        fill: #9febff;
      }

      .cls-27, .cls-7, .cls-28 {
        fill: #bababa;
      }

      .cls-29, .cls-18 {
        opacity: .2;
      }

      .cls-8 {
        fill: url(#linear-gradient-2);
      }

      .cls-9 {
        fill: #f0582f;
      }

      .cls-10 {
        fill: url(#linear-gradient);
      }

      .cls-11 {
        fill: #e6e7e8;
      }

      .cls-12 {
        fill: #e1e4ea;
      }

      .cls-30, .cls-20 {
        fill: #8269ed;
      }

      .cls-31 {
        opacity: .4;
      }

      .cls-13 {
        fill: #666;
      }

      .cls-14, .cls-32 {
        fill: #b49cee;
      }

      .cls-15 {
        fill: #9b9b9b;
      }

      .cls-33 {
        clip-path: url(#clippath);
      }

      .cls-34 {
        clip-rule: evenodd;
        fill: none;
      }

      .cls-16 {
        fill: #a0e0a2;
      }

      .cls-28 {
        opacity: .5;
      }

      .cls-17 {
        fill: #777;
      }

      .cls-19 {
        fill: #515151;
      }

      .cls-21 {
        fill: #363636;
      }

      .cls-22 {
        fill: url(#linear-gradient-3);
      }
    </style>
    <clipPath id="clippath">
      <path class="cls-34" d="m79.94,225.25c5.26-6.65,11.68-10.47,19.72-11.37,2.69-.3,5.35.33,7.73,1.37,6.91,3,12.7,7.48,16.03,14.44,2.61,5.44,2.66,10.96.29,16.69-1.98,4.78-5.08,8.52-9,11.58-5.58,4.34-11.9,5.65-18.74,3.29-2.04-.7-4.05-1.48-6.03-2.34-4.42-1.91-7.7-5.13-9.97-9.31-1.29-2.38-2.45-4.88-3.29-7.44-1.58-4.83-1.48-9.59,1.5-13.99.72-1.05,1.32-2.18,1.75-2.91Z"/>
    </clipPath>
    <linearGradient id="linear-gradient" x1="294.5" y1="146.87" x2="399.7" y2="146.87" gradientUnits="userSpaceOnUse">
      <stop offset="0" stop-color="#ff003b"/>
      <stop offset="0" stop-color="#fe0a38"/>
      <stop offset=".03" stop-color="#fe432e"/>
      <stop offset=".06" stop-color="#fe7525"/>
      <stop offset=".09" stop-color="#fd9f1d"/>
      <stop offset=".12" stop-color="#fdc217"/>
      <stop offset=".15" stop-color="#fddc12"/>
      <stop offset=".18" stop-color="#fdef0e"/>
      <stop offset=".21" stop-color="#fdfb0c"/>
      <stop offset=".24" stop-color="#fdff0c"/>
      <stop offset=".46" stop-color="#00ff3f"/>
      <stop offset=".67" stop-color="#6afcff"/>
      <stop offset=".84" stop-color="#0000a9"/>
      <stop offset="1" stop-color="#e93eff"/>
    </linearGradient>
    <linearGradient id="linear-gradient-2" x1="337.01" y1="130.26" x2="399.36" y2="130.26" gradientUnits="userSpaceOnUse">
      <stop offset="0" stop-color="#000"/>
      <stop offset=".02" stop-color="#0a0a0a"/>
      <stop offset=".14" stop-color="#434343"/>
      <stop offset=".25" stop-color="#757575"/>
      <stop offset=".37" stop-color="#9f9f9f"/>
      <stop offset=".49" stop-color="#c2c2c2"/>
      <stop offset=".61" stop-color="#dcdcdc"/>
      <stop offset=".74" stop-color="#efefef"/>
      <stop offset=".87" stop-color="#fbfbfb"/>
      <stop offset="1" stop-color="#fff"/>
    </linearGradient>
    <linearGradient id="linear-gradient-3" x1="336.48" y1="97.15" x2="399.12" y2="97.15" xlink:href="#linear-gradient"/>
  </defs>
  <g id="OBJECTS">
    <g id="_1" data-name="1">
      <g>
        <g class="cls-31">
          <ellipse class="cls-29" cx="195.74" cy="322.96" rx="104.39" ry="8.13"/>
          <path class="cls-18" d="m411.76,335.03c0,3.12-21.64,5.66-48.33,5.66s-48.33-2.53-48.33-5.66,21.64-5.66,48.33-5.66,48.33,2.53,48.33,5.66Z"/>
          <path class="cls-18" d="m74.39,331.09c0,2.18-13.72,3.94-30.64,3.94s-30.65-1.76-30.65-3.94,13.72-3.94,30.65-3.94,30.64,1.76,30.64,3.94Z"/>
        </g>
        <g>
          <path class="cls-23" d="m229.61,256.56c.22,2.22.44,4.2.61,6.18.5,5.81.81,11.65,1.52,17.44.9,7.29,2.12,14.54,3.21,21.8.39,2.61.73,5.22,2.12,7.56,1.19,2.02,2.8,3.45,5.05,4.13,1.45.44,2.93.82,4.34,1.36,3.47,1.32,5.53,4.69,5.19,8.33-.14,1.5-.91,2.29-2.79,2.31-2.87.03-5.75-.11-8.63-.27-6.86-.38-13.72-.93-20.58-1.2-8.47-.33-16.94-.47-25.41-.63-3.11-.06-6.23.11-9.35.09-8.38-.04-16.75-.19-25.13-.15-3.75.02-7.5.39-11.25.55-2.31.11-4.63.18-6.95.17-.86,0-1.76-.14-2.55-.45-1.2-.47-1.51-1.6-.9-2.75.26-.49.75-.91.85-1.42.5-2.54,2.33-3.47,4.58-3.95.63-.13,1.25-.29,1.88-.38,3.85-.5,6.28-2.74,7.32-6.35.95-3.3,1.84-6.65,2.32-10.03,1.2-8.54,2.1-17.13,3.23-25.68.67-5.07,1.55-10.1,2.32-15.16.09-.62.09-1.25.15-2.21-2.9-.01-5.65-.07-8.4-.03-6.63.09-13.26.25-19.89.32-3.2.04-6.4-.02-9.59-.08-6.94-.13-13.88-.39-20.83-.43-8.86-.04-17.73.13-26.59.14-7.99.02-15.97-.09-23.96-.07-4.63.01-9.26.26-13.89.23-2.63-.01-5.27-.23-7.87-.59-5.51-.76-7.51-3.81-8.12-9.38-.48-4.41-.32-8.95.07-13.39.81-9.25.92-18.51.71-27.78-.27-11.98-.74-23.96-.96-35.94-.21-11.35-.18-22.71-.3-34.06-.08-7.91-.32-15.83-.36-23.74-.04-7.43.08-14.86.12-22.29.05-9.52.26-19.03.09-28.55-.14-8.32.11-16.62.62-24.92.07-1.11.26-2.23.5-3.32.79-3.56,3.12-5.56,6.71-6.27,5.49-1.08,10.97-.51,16.47-.32,5.43.19,10.86.21,16.29.27,8.39.1,16.78.24,25.17.25,10.47,0,20.95,0,31.42-.19,10.07-.18,20.13-.73,30.19-.91,9.91-.17,19.83-.05,29.74-.11,4.72-.03,9.43-.26,14.15-.25,7.43.02,14.86.19,22.29.28,7.83.09,15.67.12,23.51.23,12.63.18,25.25.38,37.88.63,4.31.08,8.62.39,12.93.48,6.47.14,12.93.09,19.4.27,7.03.19,14.05.56,21.08.84,4.14.17,8.28.33,12.42.45,1.04.03,2.09,0,3.11-.16,4.92-.8,9.87-.79,14.83-.63,1.19.04,2.39.17,3.57.37,2.08.36,3.25,1.62,4.03,3.62,1.1,2.84,1.24,5.73,1.29,8.7.08,4.95.38,9.91.41,14.86.03,5.19-.21,10.38-.21,15.57,0,5.82.15,11.65.17,17.47.04,11.75.04,23.5.07,35.25.01,6.07.12,12.15.08,18.22-.07,11.11-.29,22.23-.32,33.34-.02,6.39.22,12.78.35,19.18.23,11.91.48,23.82.68,35.73.08,4.95.15,9.91.03,14.86-.05,2.14-.45,4.29-.9,6.39-.58,2.72-2.29,4.38-5,5.25-3.94,1.27-7.98,1.64-12.05,1.67-12.39.08-24.78.04-37.17.07-3.28,0-6.56.23-9.83.13-8.38-.25-16.76-.72-25.14-.92-10.62-.26-21.25-.39-31.88-.48-5.59-.05-11.18.1-16.77.17-.38,0-.76.12-1.51.25Zm-59.07-3.15s0-.1,0-.15c6.47.12,12.95.34,19.42.36,22.39.06,44.77.03,67.16.1,7.35.02,14.71.2,22.06.42,8.46.26,16.92.79,25.38.95,8.37.16,16.74.02,25.1-.04,7.67-.05,15.35-.03,23.02-.3,3.33-.12,6.64-.79,9.93-1.39,2.52-.46,3.9-2.33,4.09-4.73.41-5.09.78-10.2.79-15.31.02-7.75-.3-15.49-.45-23.24-.11-5.75-.14-11.49-.24-17.24-.12-6.39-.37-12.78-.41-19.17-.03-5.35.23-10.71.24-16.06.04-21.35.04-42.69.03-64.04,0-7.19-.1-14.38-.12-21.57-.02-10.39.03-20.78-.03-31.16-.01-2.46-.17-4.96-.62-7.38-.56-3.02-1.9-4.17-4.94-4.24-4.15-.11-8.31.03-12.46.13-1.76.04-3.51.36-5.26.33-5.91-.11-11.82-.35-17.74-.5-8.31-.22-16.62-.43-24.94-.62-9.1-.21-18.21-.46-27.31-.6-4.79-.07-9.58.14-14.36.06-7.99-.15-15.98-.47-23.96-.65-3.91-.09-7.83,0-11.75-.04-12.04-.12-24.08-.39-36.11-.35-14.61.05-29.23.36-43.84.58-7.18.11-14.36.24-21.54.37-8.86.17-17.71.47-26.57.49-9.59.02-19.18-.21-28.77-.33-7.19-.09-14.38-.18-21.58-.3-4.94-.08-9.87-.77-14.82.22-3.17.63-5,2.12-5.57,5.28-.23,1.26-.43,2.53-.46,3.8-.2,6.94-.39,13.88-.5,20.82-.15,9.91-.29,19.82-.32,29.73-.03,8.87.08,17.73.15,26.6.11,13.91.21,27.82.38,41.72.11,9.26.32,18.52.51,27.78.17,7.91.59,15.82.54,23.72-.05,8.62-.51,17.25-.77,25.87-.11,3.66-.35,7.33-.21,10.98.08,1.86.8,3.72,1.4,5.52.45,1.35,1.44,2.3,2.92,2.57,1.88.34,3.75.88,5.64.94,8.29.22,16.59.37,24.88.4,6.23.02,12.46-.17,18.7-.26,6.72-.09,13.43-.28,20.15-.22,8.79.07,17.58.47,26.37.47,15.59,0,31.17-.19,46.76-.29Zm78.93,69.3c-.54-2.91-2.17-4.67-4.83-5.54-1.29-.42-2.59-.82-3.87-1.26-2.96-1.01-5.15-2.94-6.23-5.88-.79-2.16-1.39-4.4-1.85-6.66-1.73-8.38-2.94-16.84-3.55-25.38-.46-6.37-1.08-12.73-1.67-19.09-.08-.85-.39-1.68-.61-2.6-4.36,0-8.58.06-12.8-.01-9.34-.16-18.67-.44-28.01-.56-6.95-.09-13.9.02-20.85-.02-1.15,0-1.83.42-2.12,1.5-.17.61-.33,1.23-.42,1.86-.52,3.8-1.05,7.59-1.53,11.4-.84,6.74-1.57,13.49-2.5,20.22-.88,6.4-1.64,12.83-3.49,19.07-1.18,4-3.6,6.46-7.58,7.48-1.47.38-2.97.64-4.4,1.1-1.66.54-2.05,1.26-2.06,3.38.61.05,1.23.17,1.84.13,4.14-.22,8.27-.59,12.41-.68,6.47-.14,12.95-.14,19.42-.11,12.94.08,25.89.14,38.83.37,7.26.13,14.52.57,21.79.9,4.07.18,8.13.41,12.19.59.61.03,1.23-.15,1.89-.24Z"/>
          <path class="cls-17" d="m170.54,253.41c-15.59.11-31.17.3-46.76.29-8.79,0-17.58-.41-26.37-.47-6.72-.05-13.43.13-20.15.22-6.23.08-12.46.28-18.7.26-8.29-.03-16.59-.18-24.88-.4-1.89-.05-3.77-.59-5.64-.94-1.48-.27-2.47-1.22-2.92-2.57-.6-1.8-1.32-3.66-1.4-5.52-.15-3.65.09-7.32.21-10.98.26-8.62.72-17.25.77-25.87.04-7.91-.37-15.82-.54-23.72-.2-9.26-.4-18.52-.51-27.78-.17-13.91-.27-27.82-.38-41.72-.07-8.87-.18-17.73-.15-26.6.03-9.91.17-19.82.32-29.73.11-6.94.3-13.88.5-20.82.04-1.27.24-2.55.46-3.8.57-3.16,2.4-4.65,5.57-5.28,4.95-.99,9.88-.3,14.82-.22,7.19.12,14.38.21,21.58.3,9.59.13,19.18.36,28.77.33,8.86-.02,17.72-.32,26.57-.49,7.18-.13,14.36-.27,21.54-.37,14.61-.21,29.23-.52,43.84-.58,12.04-.04,24.07.23,36.11.35,3.91.04,7.83-.05,11.75.04,7.99.18,15.97.51,23.96.65,4.79.09,9.58-.13,14.36-.06,9.1.14,18.21.38,27.31.6,8.31.2,16.62.4,24.94.62,5.91.16,11.82.39,17.74.5,1.75.03,3.51-.29,5.26-.33,4.15-.09,8.31-.23,12.46-.13,3.03.08,4.37,1.22,4.94,4.24.45,2.42.61,4.92.62,7.38.06,10.39,0,20.78.03,31.16.01,7.19.12,14.38.12,21.57,0,21.35,0,42.69-.03,64.04,0,5.35-.27,10.71-.24,16.06.04,6.39.29,12.78.41,19.17.11,5.75.14,11.5.24,17.24.14,7.75.46,15.49.45,23.24-.01,5.1-.38,10.21-.79,15.31-.19,2.41-1.57,4.27-4.09,4.73-3.29.6-6.61,1.28-9.93,1.39-7.67.27-15.34.25-23.02.3-8.37.05-16.74.19-25.1.04-8.46-.16-16.92-.69-25.38-.95-7.35-.23-14.71-.4-22.06-.42-22.39-.07-44.78-.04-67.16-.1-6.47-.02-12.95-.23-19.42-.36,0,.05,0,.1,0,.15Zm-44.3-12.08v.2h34.25c11.09,0,22.17-.04,33.26.02,4.55.03,9.12.15,13.66.43,7.5.46,15,.38,22.51.39,13.03.02,26.05.04,39.08.09,8.31.03,16.63.16,24.94.19,8.47.03,16.95-.23,25.42.07,8.55.3,17.08.62,25.61-.18,1.54-.15,3.25-.42,4.5-1.23,3.14-2.01,4.66-5,4.73-8.84.14-7.89.59-15.78.68-23.67.2-16.39.26-32.77.34-49.16.04-8.4-.03-16.79-.02-25.19,0-3.83.11-7.67.12-11.5,0-2.31-.11-4.62-.09-6.93.04-3.67.22-7.34.21-11.01-.03-13.83-.07-27.65-.21-41.48-.06-6.07-.43-12.12-2.04-18.04-.56-2.06-1.69-3.3-3.67-3.56-3.79-.5-7.59-1.05-11.4-1.12-5.74-.11-11.49.24-17.24.28-8.47.06-16.94.08-25.41.02-11.19-.08-22.37-.31-33.56-.37-8.71-.05-17.42.08-26.13.1-6.95.02-13.9.09-20.84,0-8.71-.11-17.41-.45-26.12-.54-8.22-.09-16.45.04-24.67,0-13.02-.06-26.05-.19-39.07-.26-6.94-.04-13.89,0-20.83-.04-4.39-.03-8.78-.15-13.17-.2-6.88-.08-13.75-.09-20.63-.21-5.51-.09-11.01-.43-16.52-.38-3.58.03-7.15.59-10.73.87-3.78.29-6.09,2.06-6.79,5.83-.52,2.81-.77,5.71-.76,8.57.03,8.39.4,16.79.38,25.18-.06,17.99-.34,35.98-.41,53.97-.04,9.67.25,19.34.28,29.02.03,11.11-.03,22.22-.12,33.33-.08,9.43-.29,18.85-.39,28.28-.03,3.12-.04,6.24.17,9.34.26,3.91,2.34,6.09,6.2,6.79,1.33.24,2.69.32,4.04.4,3.26.2,6.52.34,9.79.53,2.87.17,5.73.55,8.59.53,4.87-.04,9.75-.47,14.62-.49,15.82-.07,31.63-.03,47.45-.03Z"/>
          <path class="cls-13" d="m249.47,322.71c-.66.09-1.28.27-1.89.24-4.07-.17-8.13-.41-12.19-.59-7.26-.32-14.52-.77-21.79-.9-12.94-.23-25.89-.29-38.83-.37-6.47-.04-12.95-.03-19.42.11-4.14.09-8.27.46-12.41.68-.61.03-1.24-.09-1.84-.13,0-2.12.4-2.84,2.06-3.38,1.44-.46,2.94-.73,4.4-1.1,3.98-1.02,6.4-3.48,7.58-7.48,1.85-6.25,2.6-12.67,3.49-19.07.93-6.73,1.65-13.48,2.5-20.22.48-3.8,1-7.6,1.53-11.4.09-.63.25-1.25.42-1.86.29-1.07.96-1.5,2.12-1.5,6.95.03,13.9-.07,20.85.02,9.34.12,18.67.4,28.01.56,4.22.07,8.44.01,12.8.01.22.92.54,1.75.61,2.6.59,6.36,1.22,12.72,1.67,19.09.61,8.55,1.82,17,3.55,25.38.46,2.25,1.06,4.5,1.85,6.66,1.08,2.93,3.27,4.87,6.23,5.88,1.29.44,2.58.84,3.87,1.26,2.65.86,4.28,2.62,4.83,5.54Z"/>
          <path class="cls-23" d="m126.24,241.33c-15.82,0-31.64-.04-47.45.03-4.87.02-9.74.45-14.62.49-2.86.03-5.73-.36-8.59-.53-3.26-.19-6.53-.33-9.79-.53-1.35-.08-2.72-.16-4.04-.4-3.86-.7-5.94-2.89-6.2-6.79-.21-3.1-.2-6.23-.17-9.34.1-9.43.31-18.85.39-28.28.09-11.11.15-22.22.12-33.33-.03-9.67-.32-19.35-.28-29.02.07-17.99.35-35.98.41-53.97.03-8.39-.34-16.78-.38-25.18-.01-2.86.24-5.76.76-8.57.69-3.77,3-5.54,6.79-5.83,3.58-.28,7.15-.83,10.73-.87,5.5-.05,11.01.29,16.52.38,6.87.11,13.75.13,20.63.21,4.39.05,8.78.18,13.17.2,6.94.04,13.88,0,20.83.04,13.02.07,26.05.2,39.07.26,8.22.04,16.45-.09,24.67,0,8.71.1,17.41.43,26.12.54,6.95.09,13.89.02,20.84,0,8.71-.03,17.42-.15,26.13-.1,11.19.06,22.37.29,33.56.37,8.47.06,16.94.05,25.41-.02,5.75-.04,11.5-.39,17.24-.28,3.81.07,7.62.63,11.4,1.12,1.99.26,3.11,1.5,3.67,3.56,1.61,5.92,1.98,11.97,2.04,18.04.15,13.83.18,27.65.21,41.48,0,3.67-.17,7.34-.21,11.01-.02,2.31.1,4.62.09,6.93-.01,3.83-.12,7.67-.12,11.5-.01,8.4.06,16.79.02,25.19-.08,16.39-.14,32.77-.34,49.16-.09,7.89-.55,15.78-.68,23.67-.07,3.84-1.59,6.84-4.73,8.84-1.26.8-2.97,1.08-4.5,1.23-8.53.8-17.06.48-25.61.18-8.46-.3-16.94-.04-25.42-.07-8.31-.03-16.63-.16-24.94-.19-13.03-.05-26.05-.07-39.08-.09-7.5-.01-15.01.07-22.51-.39-4.55-.28-9.11-.41-13.66-.43-11.09-.06-22.17-.02-33.26-.02h-34.25v-.2ZM38.26,62.54c0,1.23,0,2.18,0,3.13.04,7.12.17,14.23.12,21.35-.11,15.04-.4,30.07-.46,45.1-.04,10.15.23,20.31.27,30.47.05,11.91.03,23.83-.03,35.74-.03,6.22-.24,12.43-.31,18.65-.05,5.26-.08,10.53,0,15.79.04,3.18,1.61,4.87,4.5,5.22,4.5.54,9.03.64,13.55,1.25,4.72.64,9.57.41,14.37.37,3.43-.02,6.86-.49,10.29-.52,9.99-.08,19.99-.1,29.98,0,10.15.09,20.29.47,30.44.5,13.43.04,26.86-.23,40.29-.21,9.11.02,18.22.32,27.34.49,6.63.12,13.26.3,19.88.34,10.05.06,20.1-.01,30.16.05,9.19.06,18.38.26,27.57.32,5.02.03,10.05-.21,15.07-.16,9.59.1,19.18.21,28.76.56,5.22.19,10.37-.32,15.56-.58,2.3-.12,3.74-1.29,4.75-3.11.61-1.1,1.09-2.33,1.34-3.56.34-1.72.5-3.49.56-5.24.21-5.99.4-11.99.5-17.98.16-9.59.3-19.17.34-28.76.05-15.91,0-31.81.02-47.72,0-8.79.07-17.58.08-26.37.03-14.15.04-28.3.04-42.45,0-.93-.15-1.87-.24-2.98-1.61-.13-3.03-.37-4.45-.34-6.63.16-13.25.45-19.88.59-8.47.18-16.94.28-25.41.37-9.03.1-18.07.12-27.1.21-9.59.09-19.19.33-28.78.3-6.63-.02-13.26-.29-19.89-.6-6.06-.28-12.12-.96-18.18-1.09-12.07-.24-24.14-.31-36.21-.29-16.71.02-33.42.12-50.12.32-7.83.1-15.65.61-23.48.8-9.02.22-18.05.29-27.08.42-1.91.03-3.83.06-5.74,0-1.91-.07-3.82-.35-5.73-.38-6.63-.1-13.27-.14-19.9-.19-.78,0-1.57.1-2.78.19Zm.02-2.39c1.23.15,2.02.32,2.8.33,4.46.04,8.94.26,13.38,0,5.59-.32,11.11.71,16.69.46,1.8-.08,3.62.11,5.44-.17.85-.13,1.75,0,2.63.02,1.28.02,2.55.04,3.83.04,2.87.02,5.75.02,8.62.04,4.15.04,8.29.18,12.43.11,3.99-.07,7.97-.43,11.96-.56,4.15-.14,8.31-.18,12.47-.25,8.63-.14,17.27-.39,25.9-.37,13.43.02,26.86.35,40.29.3,10.64-.04,21.25.2,31.86,1.03,5.33.42,10.7.55,16.05.6,4.79.05,9.58-.25,14.36-.27,11.59-.06,23.17-.06,34.76-.07,17.83-.01,35.66-.18,53.47-1.06,2.45-.12,4.9-.39,7.51-.6,0-1.28.1-2.38-.02-3.45-.29-2.54-.68-5.07-1.03-7.6-.48-3.51-1.02-4.29-4.49-4.86-2.98-.49-6.03-.74-9.05-.76-5.27-.03-10.54.2-15.81.31-.48,0-.96-.04-1.44-.06-3.11-.1-6.23-.38-9.34-.27-12.31.43-24.61.26-36.92.05-10.47-.19-20.95-.11-31.42-.08-4.71.01-9.42.3-14.13.27-8.55-.06-17.1-.27-25.65-.4-7.91-.12-15.82-.27-23.73-.32-4.95-.03-9.91.2-14.86.13-8.39-.12-16.77-.49-25.16-.56-14.07-.11-28.14.03-42.21-.1-12.85-.12-25.7-.6-38.56-.65-5.17-.02-10.34.64-15.5,1.08-2.16.18-3.73,1.3-4.39,3.5-1.38,4.62-.79,9.31-.75,14.2Z"/>
          <path class="cls-12" d="m38.26,62.54c1.22-.09,2-.19,2.78-.19,6.63.05,13.27.09,19.9.19,1.91.03,3.82.31,5.73.38,1.91.07,3.83.03,5.74,0,9.03-.13,18.05-.2,27.08-.42,7.83-.19,15.65-.7,23.48-.8,16.71-.21,33.41-.3,50.12-.32,12.07-.02,24.14.05,36.21.29,6.06.12,12.12.81,18.18,1.09,6.62.3,13.26.58,19.89.6,9.59.03,19.19-.21,28.78-.3,9.03-.09,18.07-.12,27.1-.21,8.47-.09,16.94-.19,25.41-.37,6.63-.14,13.25-.43,19.88-.59,1.42-.03,2.84.21,4.45.34.09,1.1.24,2.04.24,2.98,0,14.15-.02,28.3-.04,42.45-.02,8.79-.07,17.58-.08,26.37-.01,15.91.04,31.81-.02,47.72-.03,9.59-.18,19.17-.34,28.76-.1,6-.29,11.99-.5,17.98-.06,1.75-.22,3.52-.56,5.24-.24,1.23-.73,2.46-1.34,3.56-1.01,1.82-2.45,3-4.75,3.11-5.18.26-10.34.77-15.56.58-9.58-.34-19.17-.45-28.76-.56-5.02-.05-10.05.19-15.07.16-9.19-.06-18.38-.26-27.57-.32-10.05-.06-20.1.01-30.16-.05-6.63-.04-13.26-.21-19.88-.34-9.11-.17-18.23-.47-27.34-.49-13.43-.02-26.86.24-40.29.21-10.15-.03-20.29-.41-30.44-.5-9.99-.09-19.99-.07-29.98,0-3.43.03-6.86.5-10.29.52-4.79.03-9.65.26-14.37-.37-4.51-.61-9.04-.71-13.55-1.25-2.9-.35-4.46-2.05-4.5-5.22-.07-5.26-.05-10.53,0-15.79.07-6.22.28-12.43.31-18.65.06-11.91.08-23.83.03-35.74-.04-10.16-.32-20.31-.27-30.47.06-15.04.35-30.07.46-45.1.05-7.12-.08-14.23-.12-21.35,0-.95,0-1.89,0-3.13Z"/>
          <path class="cls-15" d="m38.29,60.15c-.05-4.89-.63-9.57.75-14.2.66-2.19,2.22-3.32,4.39-3.5,5.16-.44,10.33-1.1,15.5-1.08,12.85.05,25.7.53,38.56.65,14.07.13,28.14,0,42.21.1,8.39.06,16.77.44,25.16.56,4.95.07,9.91-.16,14.86-.13,7.91.05,15.82.2,23.73.32,8.55.13,17.1.34,25.65.4,4.71.03,9.42-.25,14.13-.27,10.47-.03,20.95-.11,31.42.08,12.31.22,24.61.39,36.92-.05,3.11-.11,6.23.17,9.34.27.48.02.96.07,1.44.06,5.27-.11,10.54-.34,15.81-.31,3.02.02,6.07.27,9.05.76,3.47.57,4.01,1.35,4.49,4.86.34,2.53.74,5.06,1.03,7.6.12,1.08.02,2.18.02,3.45-2.61.21-5.05.48-7.51.6-17.81.88-35.64,1.04-53.47,1.06-11.59,0-23.17,0-34.76.07-4.79.02-9.58.32-14.36.27-5.35-.06-10.71-.19-16.05-.6-10.61-.83-21.22-1.07-31.86-1.03-13.43.05-26.86-.28-40.29-.3-8.63-.01-17.27.23-25.9.37-4.16.07-8.31.11-12.47.25-3.99.14-7.97.49-11.96.56-4.14.08-8.29-.07-12.43-.11-2.87-.03-5.75-.03-8.62-.04-1.28,0-2.55-.03-3.83-.04-.88-.01-1.78-.15-2.63-.02-1.82.29-3.64.09-5.44.17-5.58.25-11.1-.78-16.69-.46-4.45.25-8.92.04-13.38,0-.78,0-1.57-.18-2.8-.33Zm5.46-8.62c-.09,3.14,2.2,5.87,5,5.95,2.7.08,5.82-2.95,5.75-5.97-.06-2.74-1.99-5.4-4.26-5.5-3.66-.17-6.39,2.16-6.49,5.52Zm39.99-4.92c-.45.1-1.32.22-2.14.51-2.64.91-4.09,4.16-3.1,6.89.92,2.55,3.9,4.1,6.3,3.28,2.13-.73,4.06-3.49,4.02-5.75-.06-2.97-1.82-4.83-5.08-4.92Zm-16.75,10.3c2.36.5,4.9-3.31,4.89-5.55,0-3.13-2.12-5.24-5.33-5.22-2.71.01-5.24,2.22-5.15,4.67.14,3.85,2.04,6.07,5.59,6.11Z"/>
          <path class="cls-23" d="m43.75,51.54c.1-3.37,2.83-5.69,6.49-5.52,2.27.1,4.19,2.76,4.26,5.5.07,3.02-3.04,6.05-5.75,5.97-2.79-.08-5.09-2.81-5-5.95Zm9.07-.52c-.03-2.08-1.8-3.73-3.94-3.68-1.96.04-3.91,1.95-3.9,3.82.02,2.32,1.89,4.36,3.95,4.3,2.06-.06,3.92-2.18,3.89-4.43Z"/>
          <path class="cls-23" d="m83.74,46.61c3.26.09,5.02,1.95,5.08,4.92.04,2.26-1.89,5.02-4.02,5.75-2.4.82-5.38-.73-6.3-3.28-.98-2.72.46-5.98,3.1-6.89.82-.28,1.7-.4,2.14-.51Zm3.64,4.54c-.21-.37-.44-1.42-1.07-1.78-1.15-.65-2.52-1.14-3.83-1.22-.77-.05-1.8.66-2.35,1.33-.84,1.03-.46,3.32.47,4.48,1.23,1.53,2.16,1.82,3.97,1.22,1.43-.48,2.73-2.12,2.8-4.03Z"/>
          <path class="cls-23" d="m66.99,56.91c-3.55-.04-5.45-2.26-5.59-6.11-.09-2.45,2.45-4.65,5.15-4.67,3.21-.02,5.32,2.09,5.33,5.22,0,2.25-2.54,6.05-4.89,5.55Zm3.45-5.78c0-1.83-2.32-3.55-4.73-3.48-1.67.04-2.8,1.11-2.78,2.64.02,2.38,1.79,4.65,3.64,4.67,1.89.02,3.86-1.93,3.87-3.82Z"/>
          <path class="cls-9" d="m52.82,51.02c.04,2.25-1.83,4.37-3.89,4.43-2.06.06-3.93-1.98-3.95-4.3-.01-1.86,1.93-3.77,3.9-3.82,2.14-.05,3.91,1.61,3.94,3.68Z"/>
          <path class="cls-1" d="m87.38,51.15c-.08,1.91-1.37,3.56-2.8,4.03-1.81.6-2.74.32-3.97-1.22-.93-1.16-1.31-3.45-.47-4.48.55-.67,1.58-1.38,2.35-1.33,1.31.08,2.68.56,3.83,1.22.63.35.86,1.41,1.07,1.78Z"/>
          <path class="cls-5" d="m70.44,51.14c0,1.89-1.98,3.84-3.87,3.82-1.85-.02-3.62-2.28-3.64-4.67-.01-1.53,1.11-2.6,2.78-2.64,2.41-.06,4.73,1.65,4.73,3.48Z"/>
          <circle class="cls-24" cx="96.11" cy="106.34" r="32.59" transform="translate(-47.04 99.11) rotate(-45)"/>
          <path class="cls-4" d="m255.14,211.41c0,6.01-4.87,10.89-10.89,10.89s-10.89-4.88-10.89-10.89,4.88-10.89,10.89-10.89,10.89,4.88,10.89,10.89Z"/>
          <path class="cls-7" d="m179.05,115.43c0,3.65-2.96,6.61-6.61,6.61s-6.61-2.96-6.61-6.61,2.96-6.61,6.61-6.61,6.61,2.96,6.61,6.61Z"/>
          <path class="cls-7" d="m195.75,115.43c0,3.65-2.96,6.61-6.62,6.61s-6.61-2.96-6.61-6.61,2.96-6.61,6.61-6.61,6.62,2.96,6.62,6.61Z"/>
          <path class="cls-7" d="m212.57,115.43c0,3.65-2.96,6.61-6.61,6.61s-6.62-2.96-6.62-6.61,2.96-6.61,6.62-6.61,6.61,2.96,6.61,6.61Z"/>
          <path class="cls-6" d="m280,211.41c0,6.01-4.87,10.89-10.89,10.89s-10.89-4.88-10.89-10.89,4.88-10.89,10.89-10.89,10.89,4.88,10.89,10.89Z"/>
          <path class="cls-5" d="m305.32,211.41c0,6.01-4.87,10.89-10.89,10.89s-10.89-4.88-10.89-10.89,4.88-10.89,10.89-10.89,10.89,4.88,10.89,10.89Z"/>
          <path class="cls-14" d="m329.94,211.41c0,6.01-4.87,10.89-10.89,10.89s-10.89-4.88-10.89-10.89,4.88-10.89,10.89-10.89,10.89,4.88,10.89,10.89Z"/>
          <rect class="cls-32" x="62.93" y="163.77" width="153.33" height="19.41"/>
          <rect class="cls-25" x="62.93" y="154.75" width="16.18" height="6.16"/>
          <rect class="cls-26" x="82.3" y="154.75" width="16.18" height="6.16"/>
          <rect class="cls-25" x="101.74" y="154.75" width="16.18" height="6.16"/>
          <rect class="cls-26" x="121.11" y="154.75" width="16.18" height="6.16"/>
          <rect class="cls-25" x="141.16" y="154.75" width="16.18" height="6.16"/>
          <rect class="cls-26" x="160.53" y="154.75" width="16.18" height="6.16"/>
          <rect class="cls-25" x="179.97" y="154.75" width="16.18" height="6.16"/>
          <rect class="cls-26" x="199.34" y="154.75" width="16.18" height="6.16"/>
          <rect class="cls-24" x="231.46" y="79.2" width="61.33" height="37.04"/>
          <rect class="cls-32" x="62.93" y="188.66" width="130.58" height="9.74"/>
          <rect class="cls-27" x="232.53" y="151.31" width="106.76" height="9.74"/>
          <rect class="cls-27" x="134.09" y="73.98" width="78.67" height="9.74"/>
          <rect class="cls-28" x="166.52" y="86.89" width="46.24" height="5.02"/>
          <rect class="cls-28" x="166.52" y="93.65" width="46.24" height="5.02"/>
          <rect class="cls-28" x="166.52" y="100.53" width="46.24" height="5.02"/>
          <rect class="cls-28" x="232.53" y="164.46" width="106.76" height="4.18"/>
          <rect class="cls-28" x="232.53" y="170.89" width="106.76" height="4.18"/>
          <rect class="cls-28" x="232.53" y="176.83" width="106.76" height="4.18"/>
          <rect class="cls-28" x="232.53" y="183.17" width="106.76" height="4.18"/>
          <rect class="cls-28" x="232.53" y="189.35" width="106.76" height="4.18"/>
          <rect class="cls-30" x="62.93" y="146.92" width="152.74" height="4.93"/>
          <path class="cls-5" d="m119.97,218.69c0,2.01-2.54,3.63-5.67,3.63h-45.7c-3.13,0-5.67-1.63-5.67-3.63v-7.98c0-2.01,2.54-3.63,5.67-3.63h45.7c3.13,0,5.67,1.63,5.67,3.63v7.98Z"/>
          <path class="cls-14" d="m260.87,127.74c0,1.39-1.31,2.52-2.92,2.52h-23.56c-1.62,0-2.92-1.13-2.92-2.52v-5.52c0-1.39,1.31-2.52,2.92-2.52h23.56c1.61,0,2.92,1.13,2.92,2.52v5.52Z"/>
          <path class="cls-6" d="m292.81,127.74c0,1.39-1.31,2.52-2.92,2.52h-23.56c-1.62,0-2.92-1.13-2.92-2.52v-5.52c0-1.39,1.31-2.52,2.92-2.52h23.56c1.61,0,2.92,1.13,2.92,2.52v5.52Z"/>
          <path class="cls-5" d="m260.87,141.61c0,1.39-1.31,2.52-2.92,2.52h-23.56c-1.62,0-2.92-1.13-2.92-2.52v-5.52c0-1.39,1.31-2.52,2.92-2.52h23.56c1.61,0,2.92,1.13,2.92,2.52v5.52Z"/>
          <path class="cls-14" d="m292.81,141.61c0,1.39-1.31,2.52-2.92,2.52h-23.56c-1.62,0-2.92-1.13-2.92-2.52v-5.52c0-1.39,1.31-2.52,2.92-2.52h23.56c1.61,0,2.92,1.13,2.92,2.52v5.52Z"/>
          <path class="cls-6" d="m191.55,218.69c0,2.01-2.54,3.63-5.67,3.63h-45.7c-3.13,0-5.67-1.63-5.67-3.63v-7.98c0-2.01,2.54-3.63,5.67-3.63h45.7c3.13,0,5.67,1.63,5.67,3.63v7.98Z"/>
        </g>
        <path class="cls-2" d="m98.32,83.87c-3.51-.04-7.02.01-10.52.1-3.99.1-7.98.43-11.97.39-9.99-.1-19.97-.52-29.96-.51-7.95,0-15.9.22-23.85.41.23,2.09.31,4.2.36,6.3.07,2.83.24,5.61-.15,8.42,13.12-.29,26.28-.17,39.44.39.08.21.15.41.22.62-.97.73-1.93,1.48-2.93,2.18-7.27,5.07-14.63,10-21.45,15.71-4.76,3.98-9.59,7.87-14.43,11.76.29,1.1.48,2.2.46,3.29-.05,2.83-1.18,5.5-1.51,8.31-.32,2.64-.33,5.3-.32,7.96,1.33-1,2.67-2,4-3.01,4.51-3.43,9-6.88,13.46-10.38,3.45-2.71,6.82-5.52,10.27-8.24,6.4-5.05,12.86-10,19.22-15.09,6.86-5.49,13.65-11.06,20.43-16.64,3.33-2.74,6.59-5.55,9.83-8.4.74-.65,1.24-1.56,2.14-2.74-1.21-.37-1.98-.81-2.76-.82Z"/>
        <g>
          <path class="cls-23" d="m101.08,79.69c-.9,1.17-1.4,2.09-2.14,2.74-3.24,2.84-6.5,5.66-9.83,8.4-6.78,5.58-13.58,11.15-20.43,16.64-6.36,5.09-12.83,10.04-19.22,15.09-3.45,2.72-6.81,5.53-10.27,8.24-4.46,3.5-8.95,6.95-13.46,10.38-5.34,4.05-10.74,8.03-16.06,12.11-2.28,1.74-4.38,3.71-6.62,5.5-.54.43-1.32.54-2.01.81-1.27-3.07-.99-5.97-1.01-8.82-.04-5.51-.04-11.03.04-16.54.11-7.42.34-14.84.46-22.26.1-6.47.08-12.94.22-19.41.07-3.43.34-6.85.59-10.27.04-.47.4-1.01.77-1.35,1.18-1.07,2.66-1.41,4.22-1.43,2.56-.03,5.12-.02,7.67-.07,10.62-.2,21.24-.57,31.86-.58,9.99-.01,19.97.4,29.96.51,3.99.04,7.98-.29,11.97-.39,3.51-.09,7.02-.14,10.52-.1.78,0,1.55.45,2.76.82ZM2.47,156.18c.79-.43,1.38-.65,1.86-1.02,4.51-3.43,9.01-6.87,13.49-10.33,4.55-3.51,9.08-7.04,13.6-10.59,4.19-3.31,8.35-6.67,12.52-10.01,2.43-1.95,4.83-3.92,7.27-5.85,3.68-2.92,7.41-5.79,11.08-8.73,3.55-2.84,7.04-5.73,10.58-8.59,3.03-2.45,6.07-4.87,9.11-7.3,2.61-2.1,5.26-4.15,7.82-6.3,2.16-1.82,4.22-3.77,6.33-5.66-.98-.49-1.75-.58-2.51-.57-7.26.04-14.53.14-21.79.12-8.46-.03-16.92-.18-25.38-.24-4.69-.03-9.39-.14-14.07.06-8.84.39-17.67.97-26.5,1.5-2.51.15-2.78.43-2.83,2.81-.21,11.55-.43,23.11-.61,34.66-.05,3.35.04,6.71.04,10.06,0,8.53,0,17.06,0,26.01Z"/>
          <path class="cls-6" d="m2.47,156.18c0-8.95,0-17.48,0-26.01,0-3.35-.09-6.71-.04-10.06.18-11.55.4-23.11.61-34.66.04-2.38.31-2.66,2.83-2.81,8.83-.52,17.66-1.11,26.5-1.5,4.68-.21,9.38-.1,14.07-.06,8.46.06,16.92.22,25.38.24,7.26.02,14.53-.08,21.79-.12.76,0,1.53.08,2.51.57-2.11,1.89-4.16,3.84-6.33,5.66-2.56,2.16-5.21,4.21-7.82,6.3-3.04,2.44-6.08,4.86-9.11,7.3-3.53,2.86-7.03,5.76-10.58,8.59-3.67,2.94-7.39,5.81-11.08,8.73-2.44,1.93-4.84,3.91-7.27,5.85-4.17,3.34-8.32,6.7-12.52,10.01-4.51,3.56-9.05,7.08-13.6,10.59-4.48,3.46-8.98,6.9-13.49,10.33-.48.37-1.07.59-1.86,1.02Zm38.61-64.23v-.35c-2.08,0-4.15-.02-6.23,0-2.07.02-4.15.08-6.22.12-3.67.08-7.34.07-11.01.26-3.15.16-3.1.26-3.14,3.41-.06,4.79-.09,9.58-.29,14.37-.3,7.26-.73,14.51-1.09,21.77-.02.4-.03.81.07,1.19.25,1.05,1.09,1.44,1.98.85,1.77-1.18,3.55-2.37,5.19-3.71,5.12-4.19,10.16-8.46,15.26-12.67,1.29-1.06,2.68-2.01,4-3.04,4.53-3.5,9.02-7.06,13.59-10.51,4.13-3.13,8.35-6.15,12.51-9.25.4-.3.65-.81.97-1.22-.47-.35-.91-.79-1.44-1.03-.41-.19-.93-.18-1.41-.18-7.58,0-15.16,0-22.75,0Z"/>
          <path class="cls-23" d="m41.08,91.94c7.58,0,15.16,0,22.75,0,.47,0,1-.01,1.41.18.53.24.96.68,1.44,1.03-.32.41-.57.92-.97,1.22-4.16,3.1-8.38,6.12-12.51,9.25-4.57,3.46-9.06,7.01-13.59,10.51-1.33,1.03-2.71,1.97-4,3.04-5.1,4.21-10.14,8.49-15.26,12.67-1.64,1.34-3.42,2.53-5.19,3.71-.89.6-1.73.2-1.98-.85-.09-.38-.09-.8-.07-1.19.37-7.26.8-14.51,1.09-21.77.2-4.79.23-9.58.29-14.37.04-3.14,0-3.24,3.14-3.41,3.66-.19,7.34-.18,11.01-.26,2.07-.04,4.15-.1,6.22-.12,2.08-.02,4.15,0,6.23,0v.35Zm-25.4,38.5c.78-.56,1.38-.96,1.93-1.4,6.64-5.38,13.35-10.69,19.9-16.18,6.82-5.7,14.18-10.63,21.45-15.71,1-.7,1.95-1.45,2.93-2.18-.07-.21-.15-.41-.22-.62-14.92-.63-29.85-.74-44.72-.27-.74,3.48-1.83,34.03-1.27,36.35Z"/>
        </g>
        <g>
          <path class="cls-2" d="m258.98,33.3c-2.6-6.62-7.42-11.13-13.52-14.38-3.37-1.79-7.19-2.62-10.9-2.14-6.01.76-12.04,1.76-17.37,5.06-3.35,2.07-6.39,4.51-8.61,7.74-6.46,9.42-5.68,22.94,2.03,31.54,1.74,1.94,3.71,3.69,5.67,5.43,2.49,2.21,5,4.39,6.99,7.09,1.11,1.52,2.07,3.04,1.48,5.07-.15.52-.07,1.13,0,1.69.27,2.1.43,4.23.89,6.3.86,3.89,2.08,4.84,5.43,5.16.77.08,1.56.18,2.33.14,2.29-.12,4.19-1.01,4.95-3.31.64-1.94,1.14-3.94,1.46-5.95.26-1.66.14-3.38.25-5.07.21-3.19,2.12-5.45,4.18-7.66,3.37-3.62,7.14-6.82,10.39-10.59,4.18-4.85,5.62-10.49,6.21-16.29-.27-3.54-.64-6.74-1.86-9.84Z"/>
          <g>
            <path class="cls-23" d="m264.46,29.89c-.66,6.54-2.29,12.91-7,18.38-3.67,4.25-7.92,7.86-11.72,11.95-2.32,2.49-4.48,5.04-4.71,8.64-.12,1.91.02,3.85-.28,5.72-.36,2.27-.92,4.53-1.65,6.71-.86,2.59-3.01,3.59-5.59,3.73-.87.05-1.75-.07-2.63-.16-3.78-.36-5.16-1.44-6.13-5.83-.52-2.33-.71-4.73-1-7.11-.08-.63-.17-1.32,0-1.91.67-2.29-.41-4.01-1.67-5.72-2.24-3.05-5.07-5.51-7.88-8-2.21-1.96-4.42-3.94-6.39-6.13-8.7-9.7-9.58-24.95-2.29-35.58,2.5-3.65,5.93-6.39,9.71-8.73,6.02-3.72,12.82-4.85,19.6-5.71,4.19-.53,8.49.4,12.3,2.42,6.89,3.66,12.32,8.75,15.25,16.22,1.37,3.49,1.79,7.1,2.09,11.1Zm-34.19,37.11c.18-.67.37-1.05.37-1.43-.04-3.19-.05-6.38-.21-9.57-.03-.72-.43-1.54-.91-2.1-.82-.96-1.83-1.78-2.79-2.62-.65-.57-1.21-1.2-.46-2,.72-.77,1.27-.06,1.81.4.56.48.93,1.3,1.81,1.25.76-1.35-.33-3.41,2.13-4.19.1,1.15.18,2.06.27,2.98.08.92.16,1.84.29,3.23,1.1-.9,1.79-1.53,2.55-2.06.8-.56,1.54-1.45,2.93-.85-.33.53-.56,1.02-.9,1.41-1.14,1.34-2.34,2.62-3.48,3.96-.4.47-.98,1.04-.99,1.57-.09,3.25-.05,6.49-.05,9.91h5.87c.26-.37.46-.54.53-.76,1.14-3.65,3.67-6.29,6.32-8.88,3.2-3.12,6.42-6.24,9.48-9.5,6.38-6.78,7.86-15,6.35-23.85-.99-5.78-4.01-10.48-8.51-14.32-5.95-5.08-12.59-7.79-20.48-6.58-2.12.32-4.17,1.09-6.29,1.44-4.71.77-8.71,3.01-12.49,5.76-5.83,4.25-9.52,9.79-10.33,17.07-.79,7.04.77,13.47,4.89,19.28,2.86,4.03,6.66,7.09,10.33,10.28,2.68,2.32,5.18,4.83,6.74,8.02.83,1.7,1.73,2.57,3.65,2.18.45-.09.94-.01,1.58-.01Zm-4.66,3.16c.39,2.84.62,5.54,1.17,8.18.62,2.99,1.95,3.91,5.27,4.14,3.3.22,4.88-.77,5.57-3.94.52-2.41.7-4.89.96-7.35.06-.51-.16-1.05-.3-1.84-4.27.32-8.47-.47-12.67.81Z"/>
            <path class="cls-5" d="m230.27,67c-.64,0-1.12-.08-1.58.01-1.91.39-2.81-.48-3.65-2.18-1.56-3.19-4.07-5.69-6.74-8.02-3.68-3.19-7.48-6.25-10.33-10.28-4.12-5.81-5.68-12.25-4.89-19.28.81-7.28,4.51-12.82,10.33-17.07,3.78-2.75,7.78-4.98,12.49-5.76,2.12-.35,4.17-1.11,6.29-1.44,7.9-1.2,14.53,1.5,20.48,6.58,4.5,3.84,7.52,8.55,8.51,14.32,1.52,8.85.03,17.06-6.35,23.85-3.06,3.26-6.28,6.38-9.48,9.5-2.65,2.58-5.17,5.23-6.32,8.88-.07.21-.27.39-.53.76h-5.87c0-3.41-.05-6.66.05-9.91.01-.54.59-1.1.99-1.57,1.14-1.34,2.34-2.62,3.48-3.96.34-.39.56-.87.9-1.41-1.4-.61-2.13.29-2.93.85-.76.53-1.44,1.16-2.55,2.06-.12-1.38-.21-2.3-.29-3.23-.08-.92-.16-1.83-.27-2.98-2.46.78-1.37,2.84-2.13,4.19-.88.05-1.25-.77-1.81-1.25-.55-.46-1.09-1.16-1.81-.4-.74.79-.19,1.42.46,2,.96.85,1.96,1.66,2.79,2.62.48.56.87,1.38.91,2.1.15,3.19.17,6.38.21,9.57,0,.38-.19.76-.37,1.43Z"/>
            <path class="cls-11" d="m225.62,70.15c4.2-1.28,8.4-.48,12.67-.81.14.79.36,1.33.3,1.84-.27,2.46-.44,4.94-.96,7.35-.69,3.17-2.27,4.16-5.57,3.94-3.32-.22-4.65-1.14-5.27-4.14-.54-2.63-.77-5.34-1.17-8.18Z"/>
          </g>
        </g>
        <g>
          <path class="cls-2" d="m206.29,142.89c-.63-.13-1.31-.1-1.97-.11-2.28-.02-4.56.04-6.84-.04-6.72-.22-13.43-.55-20.15-.74-3.9-.11-7.8,0-11.7,0,0,0,0,0,0,0-4.86,0-9.72,0-14.59.03-2.08.01-2.35.25-2.59,2.12-.08.59-.07,1.19-.09,1.79-.06,2.98-.12,5.96-.17,8.94-.11,5.92-.22,11.84-.33,17.75,0,.49,0,.98.07,1.46.2,1.26.77,1.62,2.19,1.54,1.26-.07,2.52-.12,3.78-.14,4.14-.07,8.28-.13,12.41-.18,4.43-.05,8.83-.55,13.28-.24,4.66.32,9.36.33,14.04.4,3.72.05,7.45.02,11.17-.04,1.92-.03,2.21-.43,2.22-2.18.04-4.45.09-8.91.19-13.36.09-4.4.24-8.79.39-13.18.02-.54.13-1.07.22-1.6.18-1.05-.42-1.99-1.54-2.23Z"/>
          <g>
            <path class="cls-23" d="m163.8,127.02c4.48,0,8.97-.13,13.45,0,7.72.23,15.43.65,23.15.94,2.62.1,5.24.02,7.86.05.76,0,1.54-.03,2.27.14,1.3.3,1.98,1.5,1.78,2.83-.11.68-.24,1.36-.25,2.04-.16,5.58-.33,11.17-.44,16.75-.11,5.66-.18,11.32-.22,16.97-.02,2.22-.35,2.73-2.55,2.77-4.28.08-8.56.12-12.84.05-5.38-.08-10.77-.09-16.13-.5-5.12-.39-10.17.24-15.26.3-4.75.06-9.51.14-14.27.23-1.45.03-2.9.09-4.34.18-1.63.1-2.29-.37-2.52-1.96-.09-.61-.09-1.24-.08-1.86.12-7.52.25-15.04.37-22.56.06-3.79.13-7.57.2-11.36.01-.76,0-1.52.1-2.28.28-2.37.59-2.68,2.98-2.69,5.59-.03,11.17-.03,16.76-.04,0,0,0,0,0,0Zm44.56,3.75c-2.84-.19-5.15-.36-7.47-.5-5.85-.34-11.69-.76-17.55-.96-4.54-.15-9.1,0-13.65-.01-3.3-.02-6.61-.13-9.91-.17-3.1-.04-6.19-.05-9.29-.03-.73,0-1.47.13-2.5.22.53.59.79.99,1.14,1.27,3.52,2.77,7.05,5.53,10.6,8.26,3.55,2.73,7.12,5.43,10.67,8.15,1.64,1.26,3.25,2.56,4.91,3.79,1.41,1.05,1.66,1.05,3.1.08,3.99-2.69,7.95-5.43,11.97-8.09,4.93-3.27,9.9-6.47,14.83-9.72.95-.62,1.84-1.34,3.14-2.29Zm-37.78,19.31c-7.49,5.66-14.8,11.18-22.1,16.71-.04.03-.05.12-.04.18,0,.07.06.12.09.19.12.05.24.15.36.15,4.76-.11,9.52-.24,14.28-.35,5.59-.13,11.17-.38,16.76-.34,7.52.06,15.04.37,22.56.55.7.02,1.41-.14,2.42-.24-.53-.63-.75-.98-1.05-1.23-1.15-1-2.32-1.96-3.47-2.95-3.35-2.87-6.69-5.76-10.06-8.6-1.48-1.24-3.05-2.37-4.55-3.58-.8-.64-1.5-.77-2.41-.14-1.36.95-2.8,1.77-4.2,2.64-1.55.97-3.05,1.09-4.59-.12-1.29-1.02-2.67-1.93-4-2.87Zm-1.85-1.55c-2.02-1.63-3.81-3.1-5.63-4.54-1.79-1.41-3.61-2.77-5.4-4.17-1.85-1.44-3.63-2.99-5.54-4.34-1.86-1.31-3.38-3.13-5.75-4.07-.12.97-.29,1.71-.3,2.45-.07,4.14-.05,8.28-.17,12.42-.15,5.66-.4,11.31-.59,16.96-.03.86-.27,1.78.66,2.66,7.73-5.5,15.71-10.63,22.72-17.38Zm41.25-16.11c-8.02,5.42-15.57,10.52-23.12,15.63,1.25,1.76,19.97,17.41,22.46,18.74-.12-11.45.9-22.66.66-34.37Z"/>
            <path class="cls-3" d="m208.36,130.77c-1.29.95-2.19,1.66-3.14,2.29-4.94,3.25-9.91,6.45-14.83,9.72-4.01,2.66-7.97,5.4-11.97,8.09-1.44.97-1.69.98-3.1-.08-1.66-1.24-3.27-2.53-4.91-3.79-3.56-2.72-7.13-5.42-10.67-8.15-3.55-2.73-7.08-5.5-10.6-8.26-.35-.28-.62-.68-1.14-1.27,1.03-.1,1.76-.22,2.5-.22,3.1-.01,6.19,0,9.29.03,3.3.04,6.61.15,9.91.17,4.55.02,9.1-.14,13.65.01,5.85.2,11.7.62,17.55.96,2.32.13,4.63.31,7.47.5Z"/>
            <path class="cls-3" d="m170.58,150.09c1.32.95,2.7,1.86,4,2.87,1.53,1.21,3.03,1.09,4.59.12,1.4-.88,2.84-1.7,4.2-2.64.91-.63,1.61-.51,2.41.14,1.5,1.22,3.08,2.34,4.55,3.58,3.38,2.84,6.71,5.73,10.06,8.6,1.15.99,2.33,1.95,3.47,2.95.3.26.52.6,1.05,1.23-1.01.11-1.72.26-2.42.24-7.52-.18-15.04-.49-22.56-.55-5.59-.05-11.17.21-16.76.34-4.76.11-9.52.24-14.28.35-.12,0-.25-.1-.36-.15-.03-.07-.08-.12-.09-.19,0-.06,0-.15.04-.18,7.31-5.53,14.61-11.05,22.1-16.71Z"/>
            <path class="cls-3" d="m168.73,148.53c-7.01,6.74-14.99,11.87-22.72,17.38-.93-.89-.69-1.8-.66-2.66.2-5.65.44-11.3.59-16.96.11-4.14.1-8.28.17-12.42.01-.75.18-1.49.3-2.45,2.37.94,3.89,2.76,5.75,4.07,1.91,1.35,3.69,2.9,5.54,4.34,1.79,1.4,3.62,2.76,5.4,4.17,1.82,1.44,3.62,2.91,5.63,4.54Z"/>
            <path class="cls-3" d="m209.98,132.42c.24,11.71-.77,22.92-.66,34.37-2.49-1.32-21.21-16.98-22.46-18.74,7.55-5.11,15.11-10.21,23.12-15.63Z"/>
          </g>
        </g>
        <g>
          <g>
            <path class="cls-23" d="m84.38,273.35c-2.26,2.75-4.43,5.41-6.62,8.05-1.83,2.22-3.75,4.36-5.49,6.65-4.24,5.6-8.44,11.24-12.58,16.92-2.35,3.22-4.5,6.59-6.82,9.84-1.5,2.09-3.31,3.88-5.64,5.1-3.94,2.07-8.82.32-10.09-3.97-.41-1.38-.09-3.23.5-4.61.8-1.88,2.07-3.59,3.32-5.24,9.45-12.5,18.94-24.96,28.42-37.44,1.49-1.96,2.97-3.91,4.34-5.71-1.96-3.2-3.95-6.01-5.5-9.05-3.08-6.05-5.06-12.49-4.53-19.35.63-8.09,3.32-15.56,8.92-21.53,3.76-4.01,8.23-7.27,13.73-8.87,2.99-.87,5.86-2.15,9.02-2.3,1.67-.08,3.38-.26,5,.01,8.32,1.4,15.98,4.29,22.52,9.89,4.88,4.18,9.05,8.84,11.29,14.91,2.81,7.61,3.19,15.4,1.4,23.34-.89,3.96-2.23,7.66-4.75,10.85-5.3,6.73-11.92,11.38-20.39,13.44-8.31,2.03-16.45,1.71-24.61-.57-.38-.11-.76-.2-1.46-.38Zm44.6-14.28c.78-1.35,2.01-2.98,2.72-4.81,2.81-7.22,2.99-14.67,1.3-22.15-.57-2.53-1.53-5.08-2.83-7.32-4.89-8.46-12.07-14.37-21.13-17.93-6.55-2.57-13.15-3.52-20.08-1.01-7.7,2.78-14.14,6.94-18.28,14.2-6.85,12.03-5.62,23.91.84,35.57,1.72,3.11,4.02,5.91,6.07,8.84.27.39.61.74.96,1.07,3.59,3.38,7.55,5.93,12.56,6.85,15.01,2.75,27.64-1.13,37.87-13.31Zm-54.04,6.25c-1.34,1.69-2.7,3.34-3.98,5.04-8.18,10.83-16.35,21.68-24.5,32.53-1.92,2.55-3.81,5.13-5.62,7.75-.53.76-.87,1.71-1.1,2.62-.5,2,.55,3.37,2.04,4.48,1.38,1.04,2.91,1.04,4.25.08,1.6-1.16,3.34-2.32,4.49-3.87,3.91-5.25,7.52-10.71,11.37-16,3.43-4.71,6.99-9.33,10.59-13.91,2.66-3.39,5.47-6.66,8.19-10,.49-.61.84-1.32,1.26-2-2.33-2.24-4.55-4.37-6.99-6.71Z"/>
            <path class="cls-17" d="m128.98,259.07c-10.24,12.18-22.86,16.06-37.87,13.31-5.01-.92-8.97-3.47-12.56-6.85-.35-.33-.69-.68-.96-1.07-2.05-2.93-4.35-5.73-6.07-8.84-6.46-11.66-7.69-23.54-.84-35.57,4.14-7.26,10.58-11.42,18.28-14.2,6.94-2.51,13.54-1.56,20.08,1.01,9.06,3.56,16.24,9.47,21.13,17.93,1.29,2.24,2.26,4.79,2.83,7.32,1.69,7.47,1.51,14.93-1.3,22.15-.71,1.83-1.95,3.46-2.72,4.81Zm-14.87-43.25c-4.77-3.21-10.59-5.47-17.47-3.91-10.01,2.27-17.3,7.85-21.57,17.22-.55,1.21-.89,2.58-1.04,3.9-.51,4.58-.13,9.1,1.6,13.42,1.53,3.79,3.53,7.29,6.37,10.29,3.77,3.98,8.57,5.99,13.69,7.48,5.98,1.75,11.67,1.1,17.14-1.87,6.92-3.76,11.64-9.32,14.05-16.82,2.04-6.35,1.28-12.42-1.75-18.31-2.38-4.62-6.17-7.85-11.01-11.41Z"/>
            <path class="cls-19" d="m74.94,265.32c2.44,2.34,4.66,4.47,6.99,6.71-.42.67-.77,1.39-1.26,2-2.72,3.34-5.53,6.61-8.19,10-3.59,4.59-7.16,9.21-10.59,13.91-3.85,5.29-7.46,10.76-11.37,16-1.16,1.55-2.89,2.71-4.49,3.87-1.33.96-2.86.96-4.25-.08-1.49-1.11-2.55-2.48-2.04-4.48.23-.91.57-1.85,1.1-2.62,1.82-2.62,3.7-5.2,5.62-7.75,8.15-10.85,16.32-21.7,24.5-32.53,1.28-1.7,2.64-3.34,3.98-5.04Z"/>
            <path class="cls-23" d="m114.11,215.83c4.83,3.56,8.63,6.78,11.01,11.41,3.03,5.89,3.79,11.95,1.75,18.31-2.41,7.5-7.13,13.07-14.05,16.82-5.47,2.97-11.16,3.62-17.14,1.87-5.12-1.49-9.92-3.5-13.69-7.48-2.84-3-4.84-6.5-6.37-10.29-1.74-4.32-2.12-8.83-1.6-13.42.15-1.33.49-2.69,1.04-3.9,4.27-9.37,11.56-14.95,21.57-17.22,6.88-1.57,12.7.7,17.47,3.91Zm-34.17,9.43c-.43.72-1.04,1.85-1.75,2.91-2.98,4.41-3.09,9.16-1.5,13.99.84,2.57,2,5.06,3.29,7.44,2.27,4.18,5.55,7.4,9.97,9.31,1.98.85,3.99,1.63,6.03,2.34,6.84,2.36,13.16,1.05,18.74-3.29,3.92-3.05,7.03-6.8,9-11.58,2.37-5.73,2.32-11.25-.29-16.69-3.33-6.95-9.12-11.44-16.03-14.44-2.38-1.03-5.04-1.66-7.73-1.37-8.04.9-14.46,4.71-19.72,11.37Z"/>
            <path class="cls-12" d="m79.94,225.25c5.26-6.65,11.68-10.47,19.72-11.37,2.69-.3,5.35.33,7.73,1.37,6.91,3,12.7,7.48,16.03,14.44,2.61,5.44,2.66,10.96.29,16.69-1.98,4.78-5.08,8.52-9,11.58-5.58,4.34-11.9,5.65-18.74,3.29-2.04-.7-4.05-1.48-6.03-2.34-4.42-1.91-7.7-5.13-9.97-9.31-1.29-2.38-2.45-4.88-3.29-7.44-1.58-4.83-1.48-9.59,1.5-13.99.72-1.05,1.32-2.18,1.75-2.91Z"/>
          </g>
          <g class="cls-33">
            <path class="cls-5" d="m123.42,247.87c1.17-2.85,3-5.59,2.88-8.8-.11-2.86-.74-6.02-1.72-8.71-.58-1.58-1.37-3.01-2.39-4.26h-29.73c-4.93,0-8.93,2.56-8.93,5.73v12.58c0,3.16,4,5.73,8.93,5.73h30.19c.23-.76.47-1.52.77-2.26Z"/>
          </g>
        </g>
        <g>
          <path class="cls-23" d="m316.11,255.68c-.19-9.35-.38-18.7-.58-28.05-.13-6.23-.35-12.46-.39-18.69-.02-3.19.26-6.38.45-9.56.08-1.35.92-2.1,2.34-2.17.8-.04,1.6,0,2.4.04,7.9.35,15.79.85,23.7,1.03,9.58.21,19.17.17,28.75.21,13.03.06,26.05.11,39.08.15,1.6,0,3.2-.02,4.8-.05,1.22-.02,1.98.41,2.03,1.77.08,2.07.34,4.15.29,6.21-.18,7.82-.68,15.64-.64,23.46.05,7.41.72,14.82.95,22.24.21,6.86.19,13.73.25,20.6.05,5.19.06,10.39.12,15.58.06,5.35.15,10.69.21,16.03,0,.88-.12,1.75-.17,2.63-.06.97-.6,1.44-1.53,1.51-1.35.1-2.71.24-4.07.25-13.02.12-26.04.15-39.05.33-6.71.09-13.42.43-20.14.62-4.87.13-9.74.3-14.61.28-4.54-.01-9.09-.26-13.63-.37-2.63-.06-5.27-.02-7.91-.07-2.56-.04-2.61-.06-2.86-2.71-.2-2.14-.4-4.31-.36-6.46.19-9.27.51-18.54.69-27.81.11-5.67.02-11.34.02-17.02h-.15Zm101.25,36.26c0-1.31.01-2.35,0-3.38-.05-3.19-.12-6.39-.17-9.58-.03-1.99-.05-3.99-.09-5.98-.04-1.96-.38-2.32-2.38-2.44-1.04-.06-2.08-.11-3.11-.05-6.14.34-12.28.9-18.42,1.02-7.98.16-15.96-.07-23.94-.03-7.82.04-15.64.26-23.47.3-8.22.04-16.44-.03-24.66-.03-.84,0-1.67.14-2.73.24.34,6.84-.66,13.4-.35,20.1,1.26.13,2.2.3,3.14.31,2.63.01,5.26-.08,7.9-.07,7.89.04,15.79.15,23.68.14,3.91,0,7.82-.32,11.72-.34,16.71-.06,33.42-.06,50.13-.08.78,0,1.57-.07,2.75-.12Zm-.86-43.55c-1.44-.12-2.47-.28-3.5-.27-7.42.06-14.85.12-22.27.26-5.51.1-11.02.33-16.52.51-3.33.11-6.67.18-10,.35-6.13.32-12.26.83-18.4,1.02-8.14.25-16.28.26-24.43.38-.93.01-1.87.11-3.04.19.15,6.54.29,12.87.44,19.51,5.62.07,10.96.23,16.29.19,6.07-.05,12.13-.39,18.2-.39,6.46,0,12.92.43,19.38.39,9.17-.06,18.35-.31,27.52-.59,5.1-.15,10.19-.52,15.29-.8.53-.03,1.06-.1,1.83-.18.18-6.9-.36-13.63-.8-20.57Zm-98.62-20.15c3.85.11,7.26.24,10.69.29,2.95.04,5.91,0,8.86-.05,3.12-.04,6.23-.12,9.34-.18,5.59-.1,11.18-.29,16.76-.26,5.27.03,10.53.39,15.8.45,4.71.05,9.43-.03,14.14-.2,6.62-.25,13.23-.63,19.85-.99.83-.04,1.65-.32,2.54-.5-.31-5.71.61-11.17.27-16.87-1.2,0-2.15.01-3.1,0-4.8-.08-9.59-.14-14.39-.26-3.35-.08-6.71-.29-10.06-.33-5.95-.07-11.91-.04-17.86-.09-5.83-.06-11.66-.41-17.47-.21-9.75.34-19.48.89-29.24.54-2.05-.07-4.11-.01-6.43-.01-.23,6.29.17,12.31.31,18.66Zm.47,20.58c1.05.1,1.82.24,2.6.24,5.67.02,11.34.12,17.01-.01,5.58-.13,11.18-.16,16.73-.96,1.65-.24,3.34-.33,5.01-.34,6.39-.06,12.77-.02,19.16-.09,8.06-.09,16.12-.25,24.17-.39,4.38-.08,8.75-.17,13.46-.26-.26-6.2-.51-12.14-.78-18.41-1.32,0-2.35-.08-3.35.02-1.16.11-2.31.49-3.47.54-1.98.09-3.96-.03-5.94.03-4.47.14-8.93.46-13.4.47-11.74.03-23.49-.11-35.23-.09-5.58,0-11.17.24-16.75.35-1.19.02-2.39-.05-3.59-.06-4.62-.04-9.24-.07-13.86-.09-.69,0-1.38.08-2.17.13.14,6.35.27,12.47.4,18.93Zm.1,58.37c.81.07,1.44.18,2.07.18,5.19.02,10.38.05,15.57.02,7.67-.05,15.33-.12,23-.23,5.2-.07,10.39-.27,15.59-.29,4.87-.02,9.75.17,14.63.17,5.99,0,11.98-.08,17.97-.17,2.71-.04,5.43-.14,8.14-.28,1.71-.09,1.87-.3,1.99-2.01.09-1.2.25-2.39.22-3.59-.06-2.36-.24-4.71-.37-7.08h-99.18c-.4,4.54-.55,8.8.37,13.27Zm-.54-107.6c-.16,2.41-.39,4.55-.39,6.68,0,.53.66,1.27,1.2,1.52.68.31,1.54.31,2.33.28,5.9-.2,11.8-.59,17.71-.63,9.1-.06,18.21.03,27.31.2,13.66.26,27.32.68,40.97.97,3.02.07,6.05-.1,9.28-.16,0-2.2.03-4.17-.01-6.14-.02-1.08-.67-1.54-1.73-1.53-1.68.03-3.36.04-5.03.04-6.23-.01-12.47,0-18.7-.06-3.66-.03-7.32-.21-10.98-.2-5.03.02-10.06.26-15.09.21-10.22-.1-20.45-.29-30.67-.53-3.43-.08-6.84-.47-10.27-.64-1.89-.09-3.79-.02-5.92-.02Z"/>
          <path class="cls-13" d="m417.36,291.94c-1.18.06-1.97.12-2.75.12-16.71.03-33.42.03-50.13.08-3.91.01-7.82.33-11.72.34-7.89.01-15.79-.1-23.68-.14-2.63-.01-5.26.08-7.9.07-.94,0-1.89-.18-3.14-.31-.31-6.7.68-13.26.35-20.1,1.06-.1,1.9-.24,2.73-.24,8.22,0,16.44.07,24.66.03,7.82-.04,15.65-.26,23.47-.3,7.98-.04,15.96.19,23.94.03,6.14-.12,12.28-.68,18.42-1.02,1.03-.06,2.08-.01,3.11.05,2,.12,2.34.48,2.38,2.44.04,1.99.05,3.99.09,5.98.05,3.19.12,6.39.17,9.58.02,1.03,0,2.06,0,3.38Zm-94.65-16.86c-.16.3-.29.44-.3.58-.21,3.73-.4,7.46-.62,11.19-.07,1.28.78,1.78,1.77,1.78,3.01.01,6.03-.12,9.04-.21.83-.03,1.34-.48,1.39-1.34.18-3.25.35-6.5.52-9.75.05-1.08-.58-1.59-1.56-1.75-1.49-.23-2.98-.61-4.48-.62-1.94-.02-3.94-.65-5.75.11Z"/>
          <path class="cls-13" d="m416.51,248.38c.44,6.95.97,13.67.8,20.57-.77.08-1.3.15-1.83.18-5.1.28-10.19.64-15.29.8-9.17.28-18.34.53-27.52.59-6.46.04-12.92-.38-19.38-.39-6.07,0-12.13.34-18.2.39-5.33.04-10.67-.12-16.29-.19-.15-6.65-.29-12.97-.44-19.51,1.17-.08,2.11-.18,3.04-.19,8.14-.13,16.29-.14,24.43-.38,6.14-.19,12.27-.7,18.4-1.02,3.33-.17,6.67-.25,10-.35,5.51-.18,11.01-.4,16.52-.51,7.42-.14,14.85-.2,22.27-.26,1.03,0,2.05.15,3.5.27Zm-94.91,17.92c.8.25,1.5.69,2.15.65,2.93-.21,5.87-.44,8.78-.88,1.92-.29,1.92-.47,2.07-2.26.23-2.62.47-5.24.67-7.87.04-.45-.08-.9-.14-1.52-3.8-.71-7.53-.47-11.22.01-1.21.16-2.32,1.1-2.32,2.66,0,3.01,0,6.02,0,9.21Z"/>
          <path class="cls-13" d="m317.88,228.24c-.14-6.35-.54-12.37-.31-18.66,2.32,0,4.38-.06,6.43.01,9.76.35,19.5-.2,29.24-.54,5.82-.2,11.65.16,17.47.21,5.95.06,11.91.02,17.86.09,3.35.04,6.71.25,10.06.33,4.79.11,9.59.18,14.39.26.95.02,1.9,0,3.1,0,.34,5.7-.58,11.16-.27,16.87-.88.18-1.71.45-2.54.5-6.61.36-13.23.74-19.85.99-4.71.18-9.43.25-14.14.2-5.27-.06-10.53-.42-15.8-.45-5.59-.04-11.17.16-16.76.26-3.11.06-6.23.14-9.34.18-2.95.04-5.91.09-8.86.05-3.42-.04-6.84-.18-10.69-.29Zm16.14-3.81c0-3.44.03-6.68-.05-9.92,0-.39-.56-.93-.99-1.12-.48-.21-1.1-.13-1.65-.11-2.77.11-5.55.46-8.3-.27-.77-.21-1.26.28-1.3,1.01-.19,2.93-.43,5.87-.45,8.8-.01,1.8.85,2.54,2.75,2.54,2.23,0,4.46-.1,6.69-.28,1.08-.08,2.14-.42,3.29-.66Z"/>
          <path class="cls-13" d="m318.35,248.81c-.14-6.46-.27-12.58-.4-18.93.79-.05,1.48-.13,2.17-.13,4.62.02,9.24.05,13.86.09,1.2,0,2.39.09,3.59.06,5.58-.11,11.17-.34,16.75-.35,11.74-.02,23.49.12,35.23.09,4.47-.01,8.93-.34,13.4-.47,1.98-.06,3.96.06,5.94-.03,1.16-.05,2.31-.43,3.47-.54,1.01-.1,2.03-.02,3.35-.02.26,6.27.51,12.21.78,18.41-4.71.09-9.08.19-13.46.26-8.06.14-16.12.3-24.17.39-6.39.07-12.77.03-19.16.09-1.67.02-3.36.1-5.01.34-5.55.81-11.15.83-16.73.96-5.67.13-11.34.03-17.01.01-.78,0-1.55-.14-2.6-.24Zm16.06-3.5c1.45-3.46.98-7.01,1.05-10.49.02-1.13-.84-1.45-1.81-1.43-3.19.05-6.39.09-9.58.21-1.38.05-1.7.41-1.54,1.8.23,2.03-.01,3.96-.54,5.92-.26.98-.16,2.06-.16,3.09,0,1.06.58,1.63,1.66,1.58,3.57-.18,7.19.39,10.91-.69Z"/>
          <path class="cls-15" d="m318.44,307.18c-.92-4.47-.78-8.74-.37-13.27h99.18c.13,2.36.3,4.72.37,7.08.03,1.19-.13,2.39-.22,3.59-.13,1.7-.28,1.92-1.99,2.01-2.71.14-5.43.24-8.14.28-5.99.09-11.98.17-17.97.17-4.87,0-9.75-.19-14.63-.17-5.2.02-10.39.22-15.59.29-7.67.1-15.33.18-23,.23-5.19.03-10.38,0-15.57-.02-.63,0-1.26-.11-2.07-.18Zm15.17-3.13v-6.95h-11.68c.08,1.68.2,3.15.2,4.62,0,2.1.14,2.25,2.27,2.26,1.67,0,3.33.05,5,.06,1.33.01,2.66,0,4.2,0Zm18.84-6.61c-4.01-.62-7.84-.51-11.98-.29,0,1.8,0,3.38,0,4.95,0,1.48.29,1.89,1.78,1.93,2.87.08,5.74.03,8.62.02,1.06,0,1.6-.54,1.59-1.64-.02-1.51,0-3.02,0-4.97Zm37.82,6.08c.62-2.58.62-4.17-.02-6.23-3.41-.06-6.91-.14-10.41-.18-.85,0-1.33.48-1.34,1.35,0,1.66,0,3.32,0,5.05h11.77Zm20.56-6.47c-2.62,0-4.93-.01-7.24,0-.96,0-1.92.06-2.87.14-1.06.09-1.53.61-1.37,1.76.21,1.48.25,2.98.39,4.7h11.1v-6.61Zm-39.89,6.29c.78-2.16.45-4.18.33-6.41-3.91.05-7.68-.09-11.4.11v6.3h11.07Z"/>
          <path class="cls-19" d="m317.91,199.58c2.13,0,4.03-.07,5.92.02,3.42.17,6.84.55,10.27.64,10.22.24,20.44.43,30.67.53,5.03.05,10.06-.19,15.09-.21,3.66-.01,7.32.17,10.98.2,6.23.05,12.47.04,18.7.06,1.68,0,3.36,0,5.03-.04,1.06-.02,1.71.45,1.73,1.53.04,1.97.01,3.94.01,6.14-3.23.06-6.26.22-9.28.16-13.66-.29-27.31-.71-40.97-.97-9.1-.17-18.21-.26-27.31-.2-5.9.04-11.8.43-17.71.63-.78.03-1.65.03-2.33-.28-.54-.25-1.2-1-1.2-1.52,0-2.13.23-4.26.39-6.68Z"/>
          <path class="cls-23" d="m322.71,275.07c1.81-.76,3.81-.13,5.75-.11,1.5.01,2.99.38,4.48.62.98.15,1.62.67,1.56,1.75-.17,3.25-.34,6.5-.52,9.75-.05.86-.56,1.31-1.39,1.34-3.01.1-6.03.23-9.04.21-.99,0-1.84-.5-1.77-1.78.22-3.73.41-7.46.62-11.19,0-.14.14-.27.3-.58Zm1.49,1.14c-.16,2.77-.63,5.41-.39,7.97.25,2.61.1,3.11,3.4,3.02.95-.03,1.91.04,2.87.08.95.04,1.62-.43,1.72-1.31.33-2.83.74-5.66.48-8.65-2.66-.52-5.15-1.26-8.08-1.11Z"/>
          <path class="cls-23" d="m321.59,266.3c0-3.19,0-6.2,0-9.21,0-1.57,1.11-2.51,2.32-2.66,3.69-.48,7.41-.72,11.22-.01.06.62.17,1.08.14,1.52-.21,2.62-.44,5.25-.67,7.87-.16,1.79-.15,1.97-2.07,2.26-2.91.44-5.84.68-8.78.88-.66.05-1.35-.39-2.15-.65Zm11.14-10.29c-2.3-.76-4.61-.6-6.89-.61-1.12,0-1.83.84-2.06,1.73-.57,2.15-.95,4.35-.26,6.58.25.8.68,1.22,1.52,1.21,1.83-.02,3.66,0,5.49-.05.73-.02,1.55-.15,1.67-1.03.35-2.57.99-5.14.54-7.83Z"/>
          <path class="cls-23" d="m334.02,224.43c-1.15.24-2.21.58-3.29.66-2.22.17-4.46.28-6.69.28-1.91,0-2.77-.74-2.75-2.54.02-2.94.26-5.87.45-8.8.05-.73.54-1.22,1.3-1.01,2.75.74,5.53.38,8.3.27.55-.02,1.17-.1,1.65.11.43.19.98.72.99,1.12.08,3.24.05,6.48.05,9.92Zm-10.23-9.71c-.21,2.21-.51,4.32-.58,6.45-.06,1.87.55,2.47,2.37,2.52,1.51.03,3.03-.04,4.52-.23.5-.07,1.32-.62,1.35-1,.19-2.49.64-5.01-.12-7.73h-7.54Z"/>
          <path class="cls-23" d="m334.41,245.32c-3.72,1.08-7.34.51-10.91.69-1.09.06-1.66-.52-1.66-1.58,0-1.04-.1-2.12.16-3.09.52-1.96.76-3.9.54-5.92-.16-1.38.16-1.74,1.54-1.8,3.19-.12,6.39-.16,9.58-.21.97-.02,1.84.3,1.81,1.43-.08,3.48.4,7.03-1.05,10.49Zm-1.42-10.43c-2.15,0-3.98-.03-5.81,0-2.4.05-2.39.07-2.73,2.56-.15,1.11-.42,2.2-.54,3.3-.08.7-.02,1.41.05,2.11.08.91.59,1.5,1.54,1.51,1.99.01,3.98.04,5.95-.09.5-.04,1.29-.6,1.38-1.03.52-2.65.66-5.33.16-8.37Z"/>
          <path class="cls-23" d="m333.61,304.05c-1.54,0-2.87,0-4.2,0-1.67-.01-3.33-.06-5-.06-2.13,0-2.27-.16-2.27-2.26,0-1.47-.12-2.94-.2-4.62h11.68v6.95Zm-1.52-2.14v-3.62c-2.94-.22-5.67-.24-8.53.02v3.33c2.82.77,5.54.95,8.53.26Z"/>
          <path class="cls-23" d="m352.46,297.43c0,1.96-.02,3.47,0,4.97.02,1.1-.53,1.63-1.59,1.64-2.87.01-5.75.06-8.62-.02-1.49-.04-1.77-.45-1.78-1.93,0-1.57,0-3.15,0-4.95,4.14-.22,7.97-.33,11.98.29Zm-1.76,1.11c-.17-.06-.38-.22-.6-.22-2.06-.03-4.12-.08-6.19-.04-1.71.03-2.05.39-2.09,2.13-.01.75.16,1.5.23,2.12.45.15.6.25.75.24,1.66-.02,3.33-.05,4.99-.07,3.12-.04,3.62-.62,3.17-3.7-.02-.14-.15-.27-.27-.45Z"/>
          <path class="cls-23" d="m390.28,303.51h-11.77c0-1.73,0-3.39,0-5.05,0-.87.48-1.36,1.34-1.35,3.5.04,7,.12,10.41.18.64,2.07.63,3.65.02,6.23Zm-10.3-5.17c-.88,2.57-.61,3.6,1.23,3.82,2.27.27,4.59.22,6.88.18,1-.02,1.48-1,1.43-2.34-.04-1.03-.45-1.66-1.57-1.66-2.68,0-5.36,0-7.98,0Z"/>
          <path class="cls-23" d="m410.84,297.04v6.61h-11.1c-.13-1.71-.18-3.21-.39-4.7-.16-1.16.31-1.67,1.37-1.76.96-.08,1.92-.13,2.87-.14,2.31-.02,4.62,0,7.24,0Zm-5.23,1.35s0-.05,0-.07c-.95.04-1.91.05-2.86.14-1.51.14-1.94.58-1.93,1.84,0,1.46.66,2.42,1.95,2.46,1.82.06,3.65.04,5.47-.14,1.51-.14,1.87-.73,1.81-2.24-.06-1.48-.44-1.87-2.06-1.98-.79-.06-1.59,0-2.38,0Z"/>
          <path class="cls-23" d="m370.95,303.33h-11.07v-6.3c3.73-.2,7.49-.06,11.4-.11.12,2.23.45,4.25-.33,6.41Zm-.8-5.65c-2.68,0-5.13-.05-7.57.02-1.42.04-1.79.51-1.82,1.9-.04,1.79.34,2.54,1.76,2.53,2.5-.01,4.99-.28,7.63-.45v-4Z"/>
          <path class="cls-6" d="m324.2,276.21c2.93-.15,5.42.59,8.08,1.11.26,2.99-.15,5.82-.48,8.65-.1.88-.77,1.35-1.72,1.31-.96-.04-1.91-.11-2.87-.08-3.3.09-3.15-.41-3.4-3.02-.24-2.56.22-5.2.39-7.97Z"/>
          <path class="cls-5" d="m332.73,256.01c.45,2.69-.19,5.25-.54,7.83-.12.88-.94,1.01-1.67,1.03-1.83.04-3.66.04-5.49.05-.84,0-1.28-.41-1.52-1.21-.69-2.23-.31-4.43.26-6.58.24-.89.95-1.74,2.06-1.73,2.29,0,4.59-.15,6.89.61Z"/>
          <path class="cls-20" d="m323.79,214.72h7.54c.77,2.72.31,5.24.12,7.73-.03.38-.84.93-1.35,1-1.49.19-3.01.27-4.52.23-1.82-.04-2.43-.64-2.37-2.52.07-2.12.37-4.24.58-6.45Z"/>
          <path class="cls-14" d="m333,234.89c.5,3.05.35,5.72-.16,8.37-.08.43-.88.99-1.38,1.03-1.98.13-3.97.11-5.95.09-.95,0-1.45-.6-1.54-1.51-.06-.7-.12-1.42-.05-2.11.12-1.11.39-2.2.54-3.3.34-2.49.33-2.52,2.73-2.56,1.83-.04,3.65,0,5.81,0Z"/>
          <path class="cls-20" d="m332.1,301.9c-2.99.69-5.71.5-8.53-.26v-3.33c2.86-.26,5.59-.24,8.53-.02v3.62Z"/>
          <path class="cls-14" d="m350.7,298.54c.11.19.25.31.27.45.45,3.08-.05,3.66-3.17,3.7-1.66.02-3.33.06-4.99.07-.15,0-.3-.09-.75-.24-.07-.62-.24-1.37-.23-2.12.04-1.74.38-2.1,2.09-2.13,2.06-.04,4.12.01,6.19.04.22,0,.43.16.6.22Z"/>
          <path class="cls-6" d="m379.98,298.34c2.61,0,5.29,0,7.98,0,1.11,0,1.53.63,1.57,1.66.05,1.34-.43,2.32-1.43,2.34-2.29.04-4.61.09-6.88-.18-1.84-.21-2.11-1.25-1.23-3.82Z"/>
          <path class="cls-4" d="m405.61,298.39c.79,0,1.59-.05,2.38,0,1.62.12,2,.51,2.06,1.98.07,1.51-.3,2.1-1.81,2.24-1.81.17-3.65.2-5.47.14-1.29-.04-1.95-1-1.95-2.46,0-1.26.42-1.7,1.93-1.84.95-.09,1.9-.1,2.86-.14,0,.03,0,.05,0,.07Z"/>
          <path class="cls-5" d="m370.15,297.68v4c-2.64.17-5.14.44-7.63.45-1.42,0-1.8-.74-1.76-2.53.03-1.39.4-1.86,1.82-1.9,2.44-.07,4.88-.02,7.57-.02Z"/>
        </g>
        <g>
          <path class="cls-2" d="m367.78,162.07c-.1-1.63-.6-3.19-.75-4.81-.17-1.75.28-3.37.75-5.04.52-1.88.79-3.82,1-5.76.42-3.98.47-7.95.31-11.95-.17-4.04-.43-8.06-.02-12.09.4-3.85,1.12-7.7,1.12-11.59,0-3.89-.53-7.77-.67-11.66-.07-2.02-.1-4.05,0-6.07.09-1.95.35-3.89.4-5.84.07-2.78-.09-5.55-.18-8.33-6.04.17-12.08.35-18.12.45-8.62.14-17.25.14-25.88.17-3.44.01-6.87-.05-10.31-.09-6.31-.07-12.62-.18-18.92-.19-3.26,0-3.67.35-3.73,3.49-.14,6.87-.17,13.74-.19,20.61-.02,7.52,0,15.03.06,22.55.1,10.63.29,21.26.37,31.89.01,1.89-.29,3.78-.48,6.06.48.19,1.24.7,2.02.75,4.62.31,9.25.68,13.88.73,10.23.11,20.45.04,30.68.04,5.92,0,11.83.09,17.75.02,3.67-.04,7.34-.11,11.01-.19-.04-1.05-.03-2.11-.09-3.16Z"/>
          <g>
            <path class="cls-23" d="m286.54,156.87c.19-2.28.49-4.17.48-6.06-.08-10.63-.27-21.26-.37-31.89-.07-7.51-.08-15.03-.06-22.55.02-6.87.05-13.74.19-20.61.06-3.14.48-3.5,3.73-3.49,6.31.01,12.62.13,18.92.19,3.44.04,6.87.1,10.31.09,8.63-.03,17.25-.03,25.88-.17,8.47-.13,16.93-.45,25.4-.63,4.47-.1,8.95-.06,13.42-.12,5.59-.07,11.18-.18,16.76-.26,1.92-.03,3.84.06,5.76,0,1.14-.04,1.64.47,1.7,1.51.08,1.36.15,2.71.18,4.07.25,14.47.54,28.93.69,43.4.05,4.95-.28,9.91-.41,14.86-.15,5.83-.26,11.67-.41,17.5-.02.79-.11,1.59-.21,2.38-.27,2.13-.91,2.8-3.01,2.85-2.63.05-5.27-.04-7.9-.03-7.67.02-15.33,0-23,.09-7.9.09-15.81.33-23.71.42-5.92.06-11.83-.02-17.75-.02-10.23,0-20.45.06-30.68-.04-4.63-.05-9.26-.41-13.88-.73-.79-.05-1.54-.56-2.02-.75Zm119.31-1.16c.16-1.15.33-1.92.36-2.7.17-4.07.33-8.14.44-12.21.19-7.27.48-14.54.45-21.81-.04-10.15-.34-20.3-.53-30.45-.01-.72-.1-1.44-.17-2.15-.08-.83-.51-1.32-1.38-1.34-.48,0-.96-.01-1.44-.02-10.39-.06-20.78-.09-31.17-.19-5.03-.05-10.07-.07-15.07-.45-8.3-.62-16.59-.43-24.88-.13-5.03.19-10.05.57-15.08.76-8.94.34-17.88.59-26.82.09-.6-.03-1.2.14-2.12.25.43,23.39.86,46.61,1.29,70.1,1.23.13,2.39.31,3.57.37,1.12.06,2.24-.03,3.35-.02,5.18.06,10.37.18,15.55.2,4.71.01,9.41-.15,14.12-.12,5.51.04,11.02.26,16.54.31,6.79.07,13.59.06,20.38.05,2.79,0,5.6.09,8.38-.18,8.61-.85,17.21-.93,25.84-.39,2.7.17,5.41.03,8.4.03Zm.08-82.03c-.79-.05-1.5-.13-2.21-.12-5.99.05-11.98.1-17.97.17-5.66.06-11.34-.1-16.99.28-11.81.8-23.63.41-35.44.63-3.91.07-7.82.05-11.73,0-7.66-.09-15.32-.24-22.99-.33-2.55-.03-5.11,0-7.66.09-.87.03-1.79.19-2.03,1.31-.55,2.6-.41,5.18-.05,7.77.71.11,1.19.24,1.66.24,7.42,0,14.85.07,22.27-.08,3.66-.08,7.32-.75,10.98-.85,7.42-.2,14.85-.3,22.28-.22,8.63.09,17.25.46,25.88.6,6.39.11,12.78.07,19.17.06,4.16,0,8.31-.04,12.46-.1.85-.01,1.7-.21,2.46-.3.83-2.96.8-6.34-.12-9.16Z"/>
            <path class="cls-13" d="m405.85,155.71c-2.98,0-5.7.14-8.4-.03-8.63-.53-17.23-.46-25.84.39-2.77.27-5.58.18-8.38.18-6.79,0-13.59.01-20.38-.05-5.51-.05-11.02-.27-16.54-.31-4.71-.03-9.41.13-14.12.12-5.18-.01-10.37-.13-15.55-.2-1.12-.01-2.24.07-3.35.02-1.17-.06-2.34-.23-3.57-.37-.43-23.5-.86-46.71-1.29-70.1.91-.12,1.52-.29,2.12-.25,8.94.5,17.88.25,26.82-.09,5.03-.19,10.05-.57,15.08-.76,8.29-.3,16.58-.49,24.88.13,5.01.38,10.05.39,15.07.45,10.39.11,20.78.13,31.17.19.48,0,.96,0,1.44.02.87.02,1.3.51,1.38,1.34.07.71.16,1.43.17,2.15.2,10.15.49,20.3.53,30.45.03,7.27-.26,14.54-.45,21.81-.1,4.07-.27,8.14-.44,12.21-.03.78-.2,1.56-.36,2.7Zm-113.18-13.37c0,2.63-.05,4.78.01,6.92.06,2.05,1.06,2.83,3.1,2.59,1.43-.16,2.85-.42,4.28-.44,8.21-.1,16.43-.13,24.65-.21,2.95-.03,5.89-.2,8.84-.18,5.01.03,10.01.19,15.02.21,2.93.02,5.87-.21,8.8-.16,6.85.13,13.7.4,20.56.56,4.38.1,8.75.13,13.13.15,3.32.02,6.63-.03,10.09-.05.08-2.76.19-5.22.21-7.68.01-1.79-.69-2.4-2.49-2.35-1.43.04-2.87.08-4.3.14-4.69.19-9.38.53-14.07.56-9.89.05-19.77-.04-29.66-.1-4.07-.03-8.14-.2-12.22-.22-7.97-.04-15.94-.02-23.91-.03-4.63,0-9.26-.05-13.89-.02-2.61.02-5.22.18-8.15.29Zm108.04-6.54c0-2.87.06-5.59-.02-8.29-.06-1.9-.59-2.37-2.48-2.35-3.35.04-6.7.18-10.05.22-1.43.02-2.86-.19-4.29-.19-6.07.03-12.13.16-18.2.14-4.86-.01-9.71-.16-14.57-.29-4.86-.12-9.73.39-14.57-.5-1.26-.23-1.92.33-1.68,1.62.51,2.73.11,5.38-.54,8.2.81.32,1.52.81,2.24.84,4.47.17,8.93.28,13.4.33,13.1.15,26.2.25,39.3.4,1.75.02,3.5.3,5.25.37,1.97.07,3.97.29,6.22-.49Zm-82.99-33.76c-.46-4.25.68-8.1-.52-11.82-.91-.13-1.62-.3-2.33-.32-5.9-.14-11.8-.27-17.71-.34-1.47-.02-1.83.57-1.82,2.15.03,2.62.04,5.24,0,7.86-.06,3.52-.21,7.03-.27,10.54-.03,1.57.17,1.77,1.75,1.92.95.09,1.91.08,2.87.1,1.17.01,2.35,0,3.65,0,.15,1.63.3,3.04.4,4.45.09,1.35.16,2.71.19,4.07.06,2.81.12,2.89,2.82,3.36.63.11,1.25.35,1.88.35,5.73.03,11.46.02,17.25.02.91-3.18.64-17.2-.51-21.93-2.48-.13-5-.27-7.63-.41Zm83.6,17.18c-.25-3.26-.47-6.66-.8-10.06-.11-1.09-.96-1.27-1.98-1.19-2.14.17-4.29.28-6.44.3-1.59.02-3.18-.21-4.77-.22-5.74-.04-11.49,0-17.23-.05-5.43-.04-10.86-.19-16.29-.18-5.51,0-11.03.16-16.54.22-1.73.02-1.97.09-2.03,1.78-.09,2.15-.03,4.31,0,6.47.02,1.85.35,2.21,2.22,2.24,4.79.07,9.59.06,14.38.13,6.07.09,12.14.22,18.21.36,5.75.13,11.51.26,17.26.47,3.19.12,6.38.44,9.57.56,1.4.05,2.89.31,4.45-.83Zm-66.49-17.48c1.19.19,1.96.41,2.72.42,4.55.05,9.1.07,13.65.05,6.54-.02,13.08-.25,19.62-.09,7.1.17,14.18.68,21.28,1.02,2.94.14,5.86.02,8.98-.86-.12-2.58-.22-5.12-.37-7.65-.12-1.97-.75-2.62-2.64-2.54-2.47.11-4.93.37-7.4.54-.62.04-1.25.08-1.87.04-1.74-.12-3.47-.37-5.2-.42-2.31-.07-4.62.05-6.94,0-5.82-.12-11.64-.32-17.46-.43-7.33-.14-14.67-.23-22-.34-.62,0-1.25,0-1.92,0-.16.32-.42.6-.42.87-.03,3.03-.02,6.05-.02,9.37Z"/>
            <path class="cls-19" d="m405.93,73.68c.92,2.82.95,6.2.12,9.16-.76.1-1.61.29-2.46.3-4.15.06-8.31.1-12.46.1-6.39,0-12.78.05-19.17-.06-8.63-.14-17.25-.52-25.88-.6-7.43-.07-14.86.03-22.28.22-3.67.1-7.32.77-10.98.85-7.42.15-14.85.08-22.27.08-.47,0-.94-.13-1.66-.24-.37-2.58-.5-5.17.05-7.77.24-1.12,1.16-1.29,2.03-1.31,2.55-.09,5.11-.12,7.66-.09,7.66.09,15.32.25,22.99.33,3.91.05,7.82.07,11.73,0,11.81-.22,23.63.17,35.44-.63,5.64-.38,11.32-.21,16.99-.28,5.99-.07,11.98-.12,17.97-.17.71,0,1.42.08,2.21.12Z"/>
            <path class="cls-23" d="m292.67,142.34c2.93-.11,5.54-.27,8.15-.29,4.63-.04,9.26.01,13.89.02,7.97,0,15.94-.01,23.91.03,4.07.02,8.14.19,12.22.22,9.89.07,19.78.16,29.66.1,4.69-.03,9.38-.37,14.07-.56,1.43-.06,2.87-.1,4.3-.14,1.8-.05,2.5.56,2.49,2.35-.02,2.46-.13,4.92-.21,7.68-3.46.02-6.78.06-10.09.05-4.38-.02-8.76-.05-13.13-.15-6.85-.16-13.7-.43-20.56-.56-2.93-.06-5.87.18-8.8.16-5.01-.03-10.01-.19-15.02-.21-2.95-.02-5.89.15-8.84.18-8.22.08-16.43.11-24.65.21-1.43.02-2.86.28-4.28.44-2.04.23-3.04-.55-3.1-2.59-.06-2.14-.01-4.29-.01-6.92Zm106.47,1.45c-.6-.05-1.15-.14-1.7-.13-5.19.12-10.37.31-15.56.37-5.9.06-11.81.06-17.71,0-10.12-.1-20.24-.33-30.36-.4-10.3-.07-20.61,0-30.91.01-2.16,0-4.32.03-6.47.19-.59.04-1.58.57-1.63.97-.23,1.76-.65,3.6.2,5.34.62,0,1.1,0,1.57,0,6.7-.17,13.4-.36,20.1-.5,2.08-.04,4.15.15,6.23.12,6.07-.07,12.14-.28,18.21-.28,11.74,0,23.48.09,35.21.2,5.75.05,11.5.27,17.24.36,1.89.03,3.78-.08,5.81-.13.1-2.22.78-4.15-.25-6.12Z"/>
            <path class="cls-23" d="m400.71,135.79c-2.25.78-4.25.56-6.22.49-1.75-.06-3.5-.35-5.25-.37-13.1-.15-26.2-.25-39.3-.4-4.47-.05-8.94-.16-13.4-.33-.72-.03-1.43-.52-2.24-.84.65-2.82,1.05-5.46.54-8.2-.24-1.28.43-1.85,1.68-1.62,4.84.88,9.72.38,14.57.5,4.86.12,9.71.27,14.57.29,6.07.02,12.13-.11,18.2-.14,1.43,0,2.86.2,4.29.19,3.35-.04,6.7-.18,10.05-.22,1.89-.02,2.43.45,2.48,2.35.08,2.71.02,5.42.02,8.29Zm-63.7-2.78c.65.17,1.18.4,1.72.42,3.19.13,6.38.29,9.58.31,7.51.04,15.02-.12,22.53,0,8.3.14,16.6.51,24.9.78,3.21.1,3.57-.24,3.63-3.45,0-.4-.01-.8-.05-1.2-.31-3.58-.6-3.86-4.25-3.8-4.39.07-8.78.18-13.16.28-5.19.12-10.38.3-15.57.33-3.75.02-7.5-.14-11.26-.24-5.43-.15-10.85-.34-16.28-.49-.61-.02-1.22.12-1.79.17v6.87Z"/>
            <path class="cls-23" d="m317.72,102.03c2.63.14,5.14.28,7.63.41,1.15,4.73,1.43,18.75.51,21.93-5.78,0-11.52.01-17.25-.02-.63,0-1.25-.24-1.88-.35-2.7-.46-2.75-.55-2.82-3.36-.03-1.36-.09-2.71-.19-4.07-.1-1.41-.25-2.82-.4-4.45-1.3,0-2.47.01-3.65,0-.96-.01-1.92,0-2.87-.1-1.58-.15-1.78-.35-1.75-1.92.07-3.52.21-7.03.27-10.54.05-2.62.03-5.24,0-7.86-.02-1.58.35-2.17,1.82-2.15,5.9.07,11.81.2,17.71.34.71.02,1.42.19,2.33.32,1.2,3.72.06,7.57.52,11.82Zm-2.45,7.95c.07-.28.19-.58.21-.89.33-4.05.68-8.11.97-12.17.08-1.03.07-2.08-.02-3.11-.14-1.64-.39-1.96-2.06-2.01-5.17-.15-10.35-.21-15.52-.26-.61,0-1.23.26-1.82.4-.93,2.05.04,4.02-.07,5.99-.11,2.07-.17,4.14-.2,6.22-.03,1.96,0,3.92,0,5.84,2.71.63,15.84.6,18.51,0Zm-10,2.1c0,2.83-.09,5.61.03,8.38.09,1.97.78,2.6,2.97,2.62,4.78.05,9.56,0,14.33-.15,2.18-.06,2.45-.46,2.46-2.63.02-3.43.07-6.86,0-10.28-.04-1.72-.31-3.45-.48-5.23-1.98-.28-3.7-.55-5.43-.76-1.14-.13-1.83.37-1.89,1.59-.07,1.59-.26,3.18-.19,4.76.11,2.47.01,2.63-2.47,2.07-3.04-.69-6.09-1-9.34-.37Z"/>
            <path class="cls-23" d="m401.32,119.22c-1.57,1.14-3.06.88-4.45.83-3.19-.12-6.38-.44-9.57-.56-5.75-.21-11.5-.34-17.26-.47-6.07-.14-12.14-.27-18.21-.36-4.79-.07-9.59-.07-14.38-.13-1.87-.03-2.21-.39-2.22-2.24-.02-2.16-.08-4.32,0-6.47.07-1.69.31-1.77,2.03-1.78,5.51-.05,11.03-.21,16.54-.22,5.43,0,10.86.14,16.29.18,5.74.04,11.49,0,17.23.05,1.59,0,3.18.24,4.77.22,2.15-.02,4.3-.13,6.44-.3,1.02-.08,1.87.1,1.98,1.19.33,3.4.55,6.8.8,10.06Zm-64.22-9.87c0,1.81-.09,3.48.02,5.12.15,2.1.4,2.31,2.48,2.36,2.16.05,4.32,0,6.48.03,6.78.1,13.57.22,20.35.35,4.39.08,8.78.13,13.16.31,5.91.25,11.81.64,17.71.9,1.96.09,2.42-.42,2.27-2.41-.12-1.51-.4-3.01-.66-4.5-.37-2.18-.57-2.28-2.83-2.28-6.95-.02-13.9-.08-20.85-.1-12.07-.03-24.14-.04-36.21-.04-.61,0-1.22.16-1.92.26Z"/>
            <path class="cls-23" d="m334.83,101.74c0-3.32-.01-6.35.02-9.37,0-.28.26-.55.42-.87.68,0,1.3,0,1.92,0,7.33.11,14.67.2,22,.34,5.82.11,11.64.31,17.46.43,2.31.05,4.63-.07,6.94,0,1.74.05,3.47.29,5.2.42.62.04,1.25,0,1.87-.04,2.47-.18,4.93-.43,7.4-.54,1.9-.09,2.53.57,2.64,2.54.15,2.54.25,5.07.37,7.65-3.13.87-6.04,1-8.98.86-7.09-.34-14.18-.86-21.28-1.02-6.53-.16-13.08.07-19.62.09-4.55.02-9.1,0-13.65-.05-.77,0-1.53-.23-2.72-.42Zm1.99-8.99c-.37,2.2-.47,4.31-.1,6.44.15.87.63,1.41,1.61,1.45,1.75.06,3.51.29,5.26.27,6.78-.1,13.56-.4,20.34-.38,6.77.02,13.54.33,20.31.55,2.69.09,5.38.28,8.08.39,1.6.06,3.19.11,4.79.08,1.41-.03,2.02-.53,2.02-1.8,0-1.97-.16-3.94-.26-6.15-20.69-.28-41.17-.55-62.04-.83Z"/>
            <path class="cls-10" d="m399.14,143.79c1.03,1.97.35,3.9.25,6.12-2.03.05-3.92.16-5.81.13-5.75-.1-11.5-.31-17.24-.36-11.74-.11-23.47-.19-35.21-.2-6.07,0-12.14.21-18.21.28-2.08.02-4.15-.17-6.23-.12-6.7.13-13.4.33-20.1.5-.47.01-.95,0-1.57,0-.85-1.74-.43-3.58-.2-5.34.05-.4,1.04-.93,1.63-.97,2.15-.16,4.31-.18,6.47-.19,10.3-.02,20.61-.08,30.91-.01,10.12.06,20.24.29,30.36.4,5.9.06,11.81.07,17.71,0,5.19-.05,10.37-.25,15.56-.37.55-.01,1.1.08,1.7.13Z"/>
            <path class="cls-8" d="m337.01,133.02v-6.87c.57-.06,1.18-.19,1.79-.17,5.43.15,10.85.34,16.28.49,3.75.11,7.5.27,11.26.24,5.19-.03,10.38-.22,15.57-.33,4.39-.1,8.78-.21,13.16-.28,3.64-.06,3.93.22,4.25,3.8.03.4.05.8.05,1.2-.06,3.2-.41,3.55-3.63,3.45-8.3-.27-16.6-.64-24.9-.78-7.51-.13-15.02.03-22.53,0-3.19-.02-6.39-.18-9.58-.31-.54-.02-1.07-.26-1.72-.42Z"/>
            <path class="cls-20" d="m315.27,109.99c-2.67.61-15.8.63-18.51,0,0-1.92-.03-3.88,0-5.84.03-2.07.09-4.15.2-6.22.11-1.96-.86-3.94.07-5.99.59-.13,1.21-.4,1.82-.4,5.17.05,10.35.12,15.52.26,1.67.05,1.92.37,2.06,2.01.09,1.03.09,2.08.02,3.11-.3,4.06-.64,8.11-.97,12.17-.03.31-.14.61-.21.89Z"/>
            <path class="cls-14" d="m305.26,112.09c3.25-.63,6.3-.31,9.34.37,2.48.56,2.58.4,2.47-2.07-.07-1.58.12-3.17.19-4.76.05-1.22.75-1.72,1.89-1.59,1.73.21,3.45.48,5.43.76.17,1.79.45,3.51.48,5.23.07,3.43.02,6.86,0,10.28-.01,2.16-.28,2.56-2.46,2.63-4.78.14-9.56.19-14.33.15-2.19-.02-2.88-.66-2.97-2.62-.13-2.77-.03-5.55-.03-8.38Z"/>
            <path class="cls-21" d="m337.09,109.35c.7-.1,1.31-.26,1.92-.26,12.07,0,24.14,0,36.21.04,6.95.02,13.9.08,20.85.1,2.26,0,2.45.11,2.83,2.28.26,1.5.54,2.99.66,4.5.16,1.99-.3,2.5-2.27,2.41-5.91-.27-11.81-.66-17.71-.9-4.38-.18-8.77-.23-13.16-.31-6.78-.13-13.57-.24-20.35-.35-2.16-.03-4.32.02-6.48-.03-2.07-.05-2.33-.26-2.48-2.36-.12-1.65-.02-3.31-.02-5.12Z"/>
            <path class="cls-22" d="m336.82,92.75c20.88.28,41.36.55,62.04.83.1,2.21.26,4.18.26,6.15,0,1.27-.61,1.78-2.02,1.8-1.6.03-3.19-.01-4.79-.08-2.69-.11-5.38-.3-8.08-.39-6.77-.22-13.54-.52-20.31-.55-6.78-.02-13.56.28-20.34.38-1.75.03-3.5-.2-5.26-.27-.98-.04-1.46-.57-1.61-1.45-.37-2.12-.27-4.24.1-6.44Z"/>
          </g>
        </g>
        <g>
          <path class="cls-2" d="m145.86,58.01c-.23-3.97.28-7.92.4-11.88.13-4.21-.33-8.42-.89-12.6-.15-1.13-.32-2.26-.48-3.39-1.08.02-2.15.05-3.23.06-6.93.08-13.87,0-20.8.17-3.79.09-7.64.13-11.49,1.1-.08.31-.19.53-.19.74.05,4.65.11,9.3.18,13.96.06,4.21.12,8.42.2,12.62.04,2.32.07,4.65.19,6.97.09,1.69.34,1.82,2.58,1.82,1.13,0,2.27-.03,3.4,0,8.98.18,17.97.38,26.95.54,1.36.03,2.73.04,4.09.06.47-3.41-.72-6.73-.92-10.15Z"/>
          <g>
            <path class="cls-23" d="m104.37,16.59c3.76-1.21,7.52-1.25,11.23-1.37,6.77-.21,13.55-.11,20.33-.21,4.91-.07,9.82-.26,14.73-.39.41-.01.83-.05,1.24-.02,1.51.12,2.06.71,2.06,2.26-.01,2.98-.06,5.95-.08,8.92-.02,3.59-.05,7.18-.02,10.78.05,5.95.15,11.9.23,17.84.03,2,.12,4,.1,6.01-.02,1.55-.74,2.23-2.12,2.21-5.05-.08-10.09-.13-15.14-.25-8.78-.21-17.56-.45-26.34-.67-1.11-.03-2.21,0-3.32,0-2.19,0-2.44-.17-2.52-2.28-.12-2.9-.15-5.8-.19-8.71-.08-5.26-.14-10.51-.2-15.77-.07-5.81-.13-11.62-.18-17.43,0-.26.1-.53.19-.92Zm48.14,43.89c.1-1.19.25-2.18.25-3.18s-.18-2.07-.22-3.1c-.15-3.6-.32-7.19-.39-10.79-.1-5.32-.14-10.65-.17-15.98-.02-3.25.05-6.5.06-9.76,0-.25-.15-.5-.29-.96-.84,0-1.66-.02-2.47,0-3.53.1-7.06.26-10.59.32-9.48.16-18.96.28-28.44.42-.83.01-1.67.01-2.48.14-1.7.27-1.97.59-1.98,2.3,0,2.35.05,4.7.04,7.05,0,8.79.7,17.57.04,26.36-.16,2.09-.34,4.28.57,6.46,15.26.23,30.52.46,46.07.7Z"/>
            <path class="cls-4" d="m152.52,60.48c-15.54-.24-30.81-.47-46.07-.7-.91-2.17-.72-4.37-.57-6.46.66-8.79-.05-17.58-.04-26.36,0-2.35-.05-4.7-.04-7.05,0-1.71.28-2.03,1.98-2.3.81-.13,1.66-.13,2.48-.14,9.48-.14,18.96-.26,28.44-.42,3.53-.06,7.06-.22,10.59-.32.81-.02,1.63,0,2.47,0,.14.46.29.71.29.96,0,3.25-.07,6.51-.06,9.76.03,5.33.07,10.65.17,15.98.07,3.6.24,7.19.39,10.79.04,1.04.22,2.07.22,3.1s-.15,1.99-.25,3.18Zm-24.79-34.7c-1.82.35-3.71.51-5.45,1.1-3.55,1.2-6.65,3.1-8.26,6.74-1.22,2.73-1.94,5.47-.25,8.31.87,1.47,1.95,2.7,3.48,3.45.91.45,1.11,1.03.93,2-.28,1.56-.5,3.14-.56,4.73-.05,1.33,1.01,1.89,2.08,1.15,1.48-1.02,3.12-1.92,4.29-3.23,1.66-1.85,3.61-2.38,5.92-2.29.48.02.96-.08,1.45-.1,4.27-.14,7.2-2.34,9.41-5.87,2.78-4.43,2.25-11.59-4.87-14.27-2.64-.99-5.35-1.34-8.17-1.72Z"/>
            <path class="cls-23" d="m127.73,25.78c2.82.38,5.53.73,8.17,1.72,7.12,2.68,7.66,9.84,4.87,14.27-2.21,3.52-5.14,5.72-9.41,5.87-.48.02-.97.12-1.45.1-2.31-.09-4.25.45-5.92,2.29-1.18,1.31-2.81,2.22-4.29,3.23-1.07.74-2.14.18-2.08-1.15.06-1.58.28-3.17.56-4.73.18-.97-.02-1.55-.93-2-1.53-.75-2.61-1.98-3.48-3.45-1.68-2.84-.96-5.58.25-8.31,1.62-3.64,4.71-5.53,8.26-6.74,1.74-.59,3.63-.75,5.45-1.1Zm-7.94,24.71c1.99-.83,3.15-1.91,4.18-3.12.96-1.12,1.98-1.74,3.57-1.59,1.28.13,2.61-.23,3.92-.33,3.13-.23,5.49-1.71,7.17-4.33,2.61-4.07,2.11-9.76-3.96-11.94-2.52-.91-5.17-1.22-7.77-1.06-5.61.34-10.1,2.68-11.69,8.48-.56,2.03-.35,3.85,1.25,5.34.75.7,1.56,1.36,2.39,1.97,1.1.81,1.68,1.75,1.34,3.19-.23.99-.25,2.02-.39,3.39Z"/>
            <path class="cls-3" d="m119.78,50.49c.15-1.36.16-2.4.39-3.39.34-1.44-.25-2.38-1.34-3.19-.83-.61-1.63-1.27-2.39-1.97-1.6-1.49-1.81-3.31-1.25-5.34,1.59-5.8,6.08-8.14,11.69-8.48,2.61-.16,5.25.15,7.77,1.06,6.08,2.18,6.58,7.87,3.96,11.94-1.68,2.62-4.04,4.1-7.17,4.33-1.31.1-2.64.45-3.92.33-1.59-.16-2.61.47-3.57,1.59-1.03,1.2-2.18,2.29-4.18,3.12Z"/>
          </g>
        </g>
        <g>
          <path class="cls-2" d="m234.37,211.96c0-3.04-.12-6.08-.26-9.12-.09-1.99-1.06-2.98-2.69-2.98-5.32.01-10.63.06-15.95.03-6.64-.04-13.29-.13-19.93-.21-1.55-.02-2.31.6-2.41,2.43-.11,2.06.04,4.14.04,6.21.02,6.23.03,12.46.05,18.68.03,6.44.06,12.87.11,19.3.02,2.68.4,3.21,2.57,3.28,6.01.2,12.02.34,18.03.51,0-.12,0-.23,0-.35,1.79,0,3.58.01,5.37,0,4.34-.04,8.67-.08,13.01-.14,1.38-.02,1.59-.21,1.95-1.74.12-.52.12-1.09.12-1.63,0-11.42.03-22.84,0-34.26Z"/>
          <g>
            <path class="cls-23" d="m213.96,244.89c-7.19-.17-14.39-.31-21.58-.51-2.59-.07-3.05-.6-3.08-3.28-.05-6.43-.09-12.87-.12-19.3-.03-6.23-.03-12.46-.06-18.68,0-2.07-.18-4.15-.05-6.21.12-1.83,1.03-2.45,2.88-2.43,7.95.08,15.91.18,23.86.21,6.36.03,12.73-.01,19.09-.03,1.95,0,3.1.99,3.22,2.98.17,3.04.31,6.08.32,9.12.03,11.42,0,22.84,0,34.26,0,.55,0,1.12-.14,1.64-.43,1.53-.68,1.72-2.33,1.74-5.19.06-10.38.1-15.57.14-2.14.02-4.29,0-6.43,0,0,.12,0,.23,0,.35Zm22.08-47.95c-1.06-.12-2.2-.36-3.34-.36-5.74-.03-11.47.02-17.21.01-5.61,0-11.21-.06-16.82-.09-2.47-.01-4.94,0-7.52,0-.06.49-.16.95-.16,1.42,0,5.53.03,11.06.06,16.59.04,8.23.09,16.47.13,24.7.01,2.98.08,3.07,3.1,3.28.14,0,.28.02.41.02,6.15.08,12.3.25,18.44.22,7.19-.03,14.38-.24,21.58-.38.53-.01,1.06-.16,1.53-.24.61-3.19.44-40.65-.21-45.18Z"/>
            <path class="cls-16" d="m236.04,196.94c.65,4.53.82,41.98.21,45.18-.48.08-1,.23-1.53.24-7.19.15-14.38.35-21.58.38-6.15.03-12.3-.14-18.44-.22-.14,0-.28-.01-.41-.02-3.02-.21-3.08-.3-3.1-3.28-.04-8.23-.09-16.47-.13-24.7-.03-5.53-.05-11.06-.06-16.59,0-.46.1-.93.16-1.42,2.58,0,5.05,0,7.52,0,5.61.03,11.21.08,16.82.09,5.74,0,11.47-.04,17.21-.01,1.14,0,2.28.24,3.34.36Zm-5.21,17.27c-.42-.51-.7-.97-1.09-1.32-1.63-1.49-3.29-2.94-4.94-4.41-.78-.69-1.44-.5-2.19.14-3.2,2.74-6.45,5.43-9.66,8.17-1.69,1.44-1.99,1.44-3.65-.01-1.35-1.18-2.73-2.33-4.16-3.4-1.16-.86-1.65-.74-2.61.39-1.52,1.79-2.98,3.64-4.57,5.37-.68.74-.71,1.27-.02,1.92,1.16,1.09,2.24,2.27,3.49,3.26,3.02,2.41,6.12,4.73,9.18,7.09,1.03.8,1.3.81,2.31-.07.78-.68,1.53-1.4,2.28-2.12,3.62-3.43,7.22-6.88,10.85-10.29,1.21-1.14,2.5-2.19,3.71-3.32.38-.36.65-.84,1.06-1.39Z"/>
            <path class="cls-23" d="m230.83,214.21c-.41.55-.68,1.03-1.06,1.39-1.22,1.13-2.51,2.18-3.71,3.32-3.63,3.42-7.23,6.86-10.85,10.29-.75.71-1.5,1.43-2.28,2.12-1.01.88-1.28.87-2.31.07-3.06-2.36-6.16-4.68-9.18-7.09-1.24-.99-2.33-2.17-3.49-3.26-.69-.65-.66-1.18.02-1.92,1.59-1.73,3.05-3.58,4.57-5.37.96-1.13,1.46-1.26,2.61-.39,1.43,1.07,2.81,2.22,4.16,3.4,1.66,1.45,1.96,1.45,3.65.01,3.21-2.74,6.45-5.43,9.66-8.17.75-.64,1.41-.83,2.19-.14,1.65,1.47,3.31,2.92,4.94,4.41.38.35.67.81,1.09,1.32Zm-7.26-3.7c-1.79,1.41-3.33,2.57-4.81,3.81-2.01,1.69-3.94,3.46-5.95,5.15-.38.32-.96.45-1.47.56-1.24.26-2.08-.46-2.91-1.23-1.35-1.25-2.58-2.65-4.3-3.53-1.68,1.48-3.27,2.86-4.22,4.9,3.67,3.4,7.36,6.58,11.52,9.3,5.47-5.12,10.81-10.1,16.35-15.29-1.42-1.24-2.74-2.39-4.21-3.68Z"/>
            <path class="cls-3" d="m223.57,210.51c1.47,1.28,2.8,2.44,4.21,3.68-5.54,5.18-10.88,10.17-16.35,15.29-4.16-2.72-7.85-5.9-11.52-9.3.95-2.04,2.54-3.42,4.22-4.9,1.71.88,2.95,2.28,4.3,3.53.83.77,1.68,1.49,2.91,1.23.51-.11,1.09-.24,1.47-.56,2.01-1.68,3.95-3.46,5.95-5.15,1.47-1.24,3.02-2.4,4.81-3.81Z"/>
          </g>
        </g>
      </g>
    </g>
  </g>
</svg>