<?xml version="1.0" encoding="UTF-8"?>
<svg id="Layer_2" data-name="Layer 2" xmlns="http://www.w3.org/2000/svg" viewBox="0 0 439.76 456.81">
  <defs>
    <style>
      .cls-1 {
        stroke-width: .46px;
      }

      .cls-1, .cls-2, .cls-3, .cls-4 {
        fill: none;
        stroke: #ffe6d9;
      }

      .cls-1, .cls-2, .cls-4 {
        stroke-miterlimit: 10;
      }

      .cls-5 {
        opacity: .51;
      }

      .cls-5, .cls-6, .cls-7 {
        fill: #ab4c5d;
      }

      .cls-2 {
        stroke-width: .53px;
      }

      .cls-8 {
        fill: #ffa4a5;
      }

      .cls-9 {
        opacity: .24;
      }

      .cls-9, .cls-10, .cls-11 {
        fill: #3c2238;
      }

      .cls-10 {
        opacity: .53;
      }

      .cls-3 {
        stroke-linecap: round;
        stroke-linejoin: round;
        stroke-width: 1.61px;
      }

      .cls-12 {
        fill: #fffaf3;
      }

      .cls-13 {
        fill: #688ade;
      }

      .cls-14 {
        fill: #825bb2;
      }

      .cls-4 {
        stroke-width: .94px;
      }

      .cls-15 {
        opacity: .62;
      }

      .cls-7 {
        opacity: .12;
      }

      .cls-16 {
        fill: #db5d5c;
      }

      .cls-17 {
        fill: #ffe6d9;
      }

      .cls-18 {
        fill: #c2d16d;
      }

      .cls-19 {
        fill: #f2b76f;
      }
    </style>
  </defs>
  <g id="OBJECTS">
    <g>
      <g>
        <path class="cls-12" d="m6,223.46c-3.31,0-6-2.69-6-6v-115.17c0-.96,0-1.92.03-2.89.7-25.01,10.79-49,28.4-67.6,2.74-2.92,5.7-5.7,8.78-8.26,1.68-1.44,3.56-2.91,5.5-4.32,3.74-2.73,7.73-5.23,11.85-7.43l.17-.09c.33-.18.66-.35,1-.51C66.75,5.49,78.58,1.85,90.89.35c.09-.01.18-.02.27-.03.16-.02.31-.03.45-.04,2.63-.19,5.31-.28,7.97-.28,21.72,0,43.66,6.39,61.8,18,.07.04.15.09.22.14,3.76,2.42,7.36,5.06,10.71,7.86.09.07.18.14.26.21l.82.69c13.96,11.95,24.25,27.22,29.78,44.16,3.52,10.8,4.06,21.82,4.13,31.18.02,3.26-.02,6.54-.06,9.72-.03,2.53-.06,5.06-.06,7.58v97.93c0,3.31-2.69,6-6,6H6Z"/>
        <g>
          <g>
            <path class="cls-19" d="m201.48,102.08c.04,5.75-.12,11.52-.12,17.25v97.93H6.19v-115.17c0-.92.01-1.84.03-2.76.67-23.83,10.61-46.55,26.76-63.6,2.58-2.75,5.34-5.35,8.25-7.76,1.68-1.43,3.42-2.79,5.2-4.08,3.54-2.58,7.27-4.92,11.16-7,.34-.18.67-.36,1.01-.52,10.14-5.26,21.34-8.82,33.2-10.26.13-.01.28-.03.42-.04,23.33-1.66,46.95,4.46,66.31,16.91h0c3.59,2.31,7.04,4.84,10.31,7.59h0c.27.23.55.46.82.69,12.65,10.83,22.55,24.84,27.97,41.46,3.1,9.52,3.76,19.41,3.83,29.36Z"/>
            <g>
              <path class="cls-7" d="m159.41,32.95c0,31.39-25.45,56.85-56.85,56.85-14.43,0-27.6-5.38-37.62-14.23-.53-.46-1.04-.93-1.54-1.42-4.4-4.17-8.12-9.04-11-14.43-.22-.41-.44-.82-.64-1.23-3.87-7.68-6.05-16.35-6.05-25.54,0-3.08.25-6.11.72-9.06,3.54-2.58,7.27-4.92,11.16-7,.34-.18.67-.36,1.01-.52,10.14-5.26,21.34-8.82,33.2-10.26.13-.01.28-.03.42-.04,23.33-1.66,46.95,4.46,66.31,16.91h0c.57,3.23.87,6.57.87,9.97Z"/>
              <path class="cls-7" d="m201.36,138.34v78.92h-78.82c-6.06-9.04-9.6-19.92-9.6-31.63,0-31.4,25.45-56.85,56.85-56.85,11.68,0,22.54,3.52,31.57,9.56Z"/>
              <path class="cls-7" d="m78.22,170.31c0,2.92-.22,5.79-.64,8.59-2.29,15.08-10.51,28.23-22.21,36.97-.63.48-1.28.94-1.94,1.39H6.19v-101.74c4.83-1.35,9.92-2.06,15.18-2.06,2.34,0,4.65.14,6.91.42.47.05.94.12,1.4.19h.01c8.15,1.19,15.73,4.11,22.37,8.37,3.57,2.3,6.87,4.98,9.83,8,.49.49.97,1,1.44,1.51h0c6.91,7.56,11.79,16.96,13.83,27.39.14.7.27,1.42.38,2.13.45,2.88.68,5.83.68,8.84Z"/>
            </g>
            <g>
              <polygon class="cls-17" points="55.93 217.26 35.05 217.26 30.45 187.19 29.91 183.66 29.47 180.84 40.51 178.7 42.01 182.45 45.77 191.85 55.37 215.87 55.93 217.26"/>
              <polygon class="cls-11" points="45.77 191.86 30.45 187.2 29.47 180.84 40.51 178.7 45.77 191.86"/>
              <g>
                <path class="cls-17" d="m112.58,175.39l-12.32,1.23-2.13.22-20.55,2.06-35.57,3.55-12.1,1.21-6.56.66-1.57.16h-.14s-6.64,3.75-6.64,3.75c-2.75,1.56-6.25.49-7.67-2.34l-1.14-2.28v-8.64c.31-.31.67-.58,1.06-.81l6.6-3.88.97-.57.06-.07,37.18-47.2,10-12.69,1.55-1.97,10.32-13.09,16.67,34.83.4.82,4.98,10.39.14.29,16.45,34.36h0Z"/>
                <path class="cls-6" d="m112.57,175.4s-14.88-8.7-26.6-19.98c-.47-.45-.93-.91-1.39-1.36-4.38-4.39-8.2-9.1-10.42-13.84-.78-1.66-1.42-3.41-1.93-5.23-.08-.28-.16-.58-.23-.88-4.49-17.28,1.92-39.41,1.92-39.41l16.68,34.83.4.82,4.98,10.39.14.3,16.46,34.37Z"/>
                <path class="cls-11" d="m100.26,176.62l-2.14.22c-8.75-4.44-16.46-10.4-22.43-17.44-9.79-11.53-15.14-26.25-14.67-40.41.1-3.15.49-6.26,1.03-9.24l1.55-1.97c-.76,3.58-1.33,7.39-1.45,11.25-.44,13.87,4.81,28.31,14.42,39.64,6.24,7.34,14.4,13.49,23.69,17.95Z"/>
                <path class="cls-11" d="m23.34,184.32l-1.57.16c-2-1.76-3.74-3.93-5.09-6.39-1.28-2.35-2.23-4.98-2.83-7.81l.97-.57.06-.07c.57,2.88,1.51,5.54,2.81,7.89,1.47,2.68,3.41,5,5.66,6.79Z"/>
                <g>
                  <path class="cls-11" d="m99.32,136.81l-.6.7-.2.25-.2.24-2.33,2.73-1.5,1.76-9.89,11.56c-4.38-4.39-8.2-9.1-10.42-13.84-.78-1.66-1.42-3.41-1.93-5.23-.08-.28-.16-.58-.23-.88l18.06-3.58.93-.18,1.98-.39.31-.06.33-.07.86-.17c.7-.14,1.41.14,1.83.7l3.09,4.16c.51.69.48,1.64-.08,2.28Z"/>
                  <path class="cls-19" d="m98.72,137.51l-.2.25-.2.24c-1.64-.43-3.03-1.27-4.04-2.44-1.38-1.6-1.83-3.77-1.3-5.6l.31-.06.33-.07c-.59,1.7-.2,3.85,1.08,5.35.98,1.15,2.39,1.96,4.02,2.33Z"/>
                </g>
              </g>
            </g>
            <g>
              <circle class="cls-11" cx="43.38" cy="79.74" r="21.96"/>
              <g>
                <circle class="cls-14" cx="41.79" cy="78.05" r="21.96"/>
                <g>
                  <g>
                    <polyline class="cls-3" points="32 68.95 53.23 68.95 53.23 83.79"/>
                    <polyline class="cls-3" points="50.19 80.06 53.28 84.24 56.17 80.06"/>
                  </g>
                  <g>
                    <polyline class="cls-3" points="52.92 86.56 31.69 86.56 31.69 71.71"/>
                    <polyline class="cls-3" points="34.73 75.44 31.64 71.27 28.75 75.44"/>
                  </g>
                </g>
              </g>
            </g>
          </g>
          <g>
            <path class="cls-11" d="m197.74,109.76l-.83-2.49-23.03-57.74-84.82,31.57-3.13,5.39c-.23.39-.25.87-.06,1.28l13.9,29.56,8.44,18.24-7.47,8.92.77,3.82s89.09-29.75,92.39-31.6c.42-.14.76-.41,1.01-.74,2.41-2.2,2.82-6.22,2.82-6.22Z"/>
            <path class="cls-13" d="m88.85,83.26l22.48,48.62-10.59,12.62,95.62-32.89c1.13-.39,1.71-1.64,1.29-2.75l-22.16-57.95c-.41-1.08-1.62-1.63-2.71-1.23l-82.75,30.72c-1.15.43-1.7,1.75-1.18,2.87Z"/>
            <path class="cls-17" d="m142.84,86.42s-3.76-7.76,2.58-13.66c6.33-5.9,13.88-.74,13.88-.74,0,0,4.18-1.47,6.37-3.86,0,0-.02,4.23-2.97,6.93l5.42-3.24s-1.28,5.33-3.97,6.74c0,0,3.82,17.97-5.67,28.1s-15.4,11.16-23.37,12.1c-7.97.94-12.8-1.81-12.8-1.81,0,0,10.47-1.35,15.09-8.23,0,0-7.73,1.43-11.75-5.05,0,0,2.87.05,4.62-1.29,0,0-8.12.29-11.29-8.55,0,0,3.59.84,5.11-.31,0,0-9.62-4.69-6.3-13.74,0,0,9.43,8.15,25.04,6.61Z"/>
          </g>
          <g>
            <path class="cls-17" d="m125.01,181.22c-4.18-12.96,6.73-28.07,24.36-33.76,17.63-5.69,35.32.2,39.5,13.16,4.18,12.96-6.73,28.07-24.36,33.76-.94.3-1.88.57-2.82.8,2.57,1.39,6.22,3.36,6.22,3.36,0,0-22.18,3.63-37.81-9.34-2.34-2.22-4.1-4.9-5.1-7.98Z"/>
            <g>
              <path class="cls-11" d="m167.53,168.43c.48,1.72,2.27,2.73,3.99,2.25,1.72-.48,2.73-2.27,2.25-3.99-.48-1.72-2.27-2.73-3.99-2.25-1.72.48-2.73,2.27-2.25,3.99Z"/>
              <path class="cls-11" d="m153.19,172.44c.48,1.72,2.27,2.73,3.99,2.25,1.72-.48,2.73-2.27,2.25-3.99-.48-1.72-2.27-2.73-3.99-2.25-1.72.48-2.73,2.27-2.25,3.99Z"/>
              <path class="cls-11" d="m138.85,176.45c.48,1.72,2.27,2.73,3.99,2.25,1.72-.48,2.73-2.27,2.25-3.99-.48-1.72-2.27-2.73-3.99-2.25-1.72.48-2.73,2.27-2.25,3.99Z"/>
            </g>
          </g>
          <g>
            <path class="cls-17" d="m68.05,32.3c1.11-13.57,16.98-23.35,35.45-21.84,18.47,1.51,32.54,13.73,31.43,27.3-1.11,13.57-16.98,23.35-35.45,21.84-.98-.08-1.95-.2-2.91-.34,1.84,2.27,4.46,5.49,4.46,5.49,0,0-21.88-5.16-31.34-23.13-1.31-2.95-1.91-6.1-1.65-9.32Z"/>
            <g>
              <path class="cls-11" d="m112.23,36.79c-.22,1.78,1.05,3.39,2.83,3.61,1.78.22,3.39-1.05,3.61-2.83.22-1.78-1.05-3.39-2.83-3.61-1.78-.22-3.39,1.05-3.61,2.83Z"/>
              <path class="cls-11" d="m97.45,35c-.22,1.78,1.05,3.39,2.83,3.61,1.78.22,3.39-1.05,3.61-2.83.22-1.78-1.05-3.39-2.83-3.61-1.78-.22-3.39,1.05-3.61,2.83Z"/>
              <path class="cls-11" d="m82.66,33.2c-.22,1.78,1.05,3.39,2.83,3.61,1.78.22,3.39-1.05,3.61-2.83.22-1.78-1.05-3.39-2.83-3.61-1.78-.22-3.39,1.05-3.61,2.83Z"/>
            </g>
          </g>
          <g>
            <path class="cls-6" d="m169.68,31.26c-.27-.23-.55-.46-.82-.69h0c-.84.46-1.63,1-2.38,1.62-.18-.21-.38-.42-.58-.62-1.81-1.77-4.18-2.9-6.67-3.33-3.12-.55-6.43-.02-9.08,1.68-1.23.78-2.27,1.74-3.14,2.78-1.42-1.56-3.14-2.73-5.06-3.37-2.63-.87-5.71-.49-8.24,1.01-2.18,1.3-3.61,3.24-4.02,5.48l.98.18c.36-1.95,1.62-3.65,3.55-4.8,2.25-1.33,5.09-1.68,7.42-.92,1.78.59,3.39,1.72,4.72,3.24-1.37,1.84-2.27,3.85-2.85,5.5-.54,1.55-1.09,3.57-.53,5.53.53,1.83,2.4,3.6,4.49,3.25,2.72-.45,3.74-3.84,3.32-6.8-.41-2.86-1.52-5.47-3.13-7.52.84-1.02,1.84-1.96,3.03-2.72,2.52-1.61,5.68-2.08,8.62-1.5,2.21.43,4.29,1.45,5.89,3.02.19.19.37.38.54.58-1.2,1.14-2.23,2.5-3,4-1.62,3.15-1.95,6.54-.91,9.54.49,1.43,1.57,2.93,3.13,2.93.05,0,.1-.01.15-.01,1.01-.06,1.92-.75,2.71-2.03,2.65-4.31,2.26-10.26-.71-14.32.8-.67,1.67-1.25,2.58-1.71Zm-19.89,9.89c.3,2.13-.27,5.29-2.49,5.66-1.51.25-2.95-1.11-3.36-2.54-.49-1.69.01-3.51.5-4.92.54-1.51,1.35-3.34,2.56-5.03,1.42,1.9,2.42,4.27,2.79,6.83Zm17.17,5.61c-.61,1-1.26,1.52-1.92,1.56-1.08.05-1.9-1.17-2.27-2.25-.95-2.74-.65-5.85.85-8.75.71-1.38,1.64-2.62,2.73-3.68,2.7,3.74,3.03,9.18.61,13.12Z"/>
            <path class="cls-6" d="m137.36,188.41c-3.5,1.59-6.35,4.69-7.65,8.32-2.22-1.32-4.76-2.15-7.57-2.15h0c-2.88,0-5.67,1.03-7.99,2.75-3.11,2.28-5.34,5.79-5.73,9.64,0,.07-.02.14-.02.22-2.92-1.1-5.79-1.34-8.29-.66-4.37,1.19-7.87,5.25-8.93,10.34-.03.13-.05.26-.07.39h1.02c0-.06.02-.13.03-.19.96-4.65,4.27-8.5,8.21-9.58,2.39-.65,5.15-.38,7.97.75-.04,3.17.94,6.25,2.11,9.02h1.1c-1.16-2.64-2.16-5.58-2.2-8.59.55.26,1.1.55,1.66.87,2.47,1.45,5.61,3.93,6.53,7.6,0,.04.02.08.03.12h1.02c-.02-.12-.05-.24-.08-.36-1.01-4.01-4.36-6.68-7-8.22-.71-.42-1.43-.78-2.14-1.1,0-.17.02-.34.04-.51.35-3.43,2.28-6.56,4.98-8.68,2.21-1.75,4.93-2.81,7.75-2.81h0c2.7,0,5.14.82,7.26,2.12-.77,2.75-.77,5.61-.64,8.32.13,2.62.41,5.38,1.59,7.8.73,1.51,1.69,2.6,2.85,3.25.13.07.26.14.39.19,1.23.56,2.62.56,3.71,0,.1-.04.2-.1.3-.16,1.25-.78,2.01-2.35,2.08-4.3.08-1.95-.43-4.09-1.58-6.54-1.49-3.17-4.07-6.65-7.52-8.98l.03-.09c1.18-3.43,3.86-6.37,7.17-7.87,3.3-1.49,7.28-1.56,10.64-.18l.38-.93c-3.61-1.48-7.88-1.4-11.44.2Zm-.17,18.28c1.08,2.3,1.57,4.28,1.5,6.07-.03.77-.25,2.63-1.62,3.5-.92.58-2.28.56-3.38-.06-.98-.55-1.8-1.49-2.44-2.82-1.1-2.25-1.37-4.89-1.49-7.41s-.13-5.17.52-7.69c3.16,2.22,5.53,5.46,6.91,8.41Z"/>
            <path class="cls-6" d="m28.28,113.88c-1.1.94-2.05,2.05-2.8,3.31-.4-.15-.81-.26-1.22-.35-2.82-.58-6.03.23-8.8,2.24-2.78,2-4.86,5-5.84,8.29-1.22-.46-2.37-.73-3.43-.81v1.02c.97.07,2.03.32,3.18.76-.1.45-.18.9-.24,1.36-.54,4.18.73,8.62,3.4,11.88.97,1.19,2.42,2.27,3.9,2.27.37,0,.73-.06,1.1-.21,1.84-.74,2.29-3.02,2.12-4.74-.46-4.59-4-8.91-9.09-11.15.89-3.12,2.86-5.96,5.48-7.86,2.55-1.84,5.47-2.6,8.02-2.07.31.07.63.15.94.26-2.8,5.68-1.26,13.09,3.64,17.14.47.39,1.05.81,1.75.92.65.11,1.3-.05,1.87-.46,1.1-.81,1.67-2.37,1.83-3.46.73-5.03-1.54-10.43-5.63-13.43-.67-.49-1.35-.9-2.04-1.22.84-1.37,1.96-2.55,3.26-3.5h.01c3.42-2.53,8.08-3.47,12.09-2.12l.32-.95c-4.72-1.58-10.1-.33-13.82,2.88Zm-9.63,25.11c.15,1.49-.25,3.22-1.5,3.72-1.33.54-2.86-.56-3.85-1.77-2.5-3.05-3.69-7.2-3.18-11.11.05-.37.11-.73.19-1.1,4.68,2.12,7.93,6.08,8.34,10.26Zm9.22-19.39c3.8,2.79,5.91,7.8,5.23,12.48-.17,1.17-.74,2.29-1.43,2.79-.36.26-.72.35-1.12.29-.46-.08-.89-.39-1.28-.71-4.49-3.72-5.94-10.79-3.34-16,.65.3,1.3.68,1.94,1.15Z"/>
          </g>
          <g>
            <path class="cls-17" d="m188.91,131.05l5.15,2.35c.7.32.7,1.32,0,1.64l-5.15,2.35c-.2.09-.35.25-.44.44l-2.35,5.15c-.32.7-1.32.7-1.64,0l-2.34-5.13c-.1-.21-.27-.38-.49-.46l-5.08-2.02c-.72-.29-.77-1.28-.08-1.64l5.22-2.69c.18-.09.32-.24.41-.43l2.36-5.18c.32-.7,1.32-.7,1.64,0l2.35,5.15c.09.2.25.35.44.44Z"/>
            <path class="cls-17" d="m102.1,97.01l5.15,2.35c.7.32.7,1.32,0,1.64l-5.15,2.35c-.2.09-.35.25-.44.44l-2.35,5.15c-.32.7-1.32.7-1.64,0l-2.34-5.13c-.1-.21-.27-.38-.49-.46l-5.08-2.02c-.72-.29-.77-1.28-.08-1.64l5.22-2.69c.18-.09.32-.24.41-.43l2.36-5.18c.32-.7,1.32-.7,1.64,0l2.35,5.15c.09.2.25.35.44.44Z"/>
            <path class="cls-17" d="m47.68,34.27l-1.92.88-3.23,1.48c-.2.09-.36.25-.45.44l-2.35,5.16c-.32.7-1.32.7-1.64,0l-2.34-5.13c-.1-.21-.27-.38-.49-.46l-2.28-.91c2.58-2.75,5.34-5.35,8.25-7.76l.85,1.87c.09.19.25.35.45.44l3.19,1.46,1.96.9c.7.32.7,1.31,0,1.63Z"/>
            <path class="cls-17" d="m79.46,192.16l5.15,2.35c.7.32.7,1.32,0,1.64l-5.15,2.35c-.2.09-.35.25-.44.44l-2.35,5.15c-.32.7-1.32.7-1.64,0l-2.34-5.13c-.1-.21-.27-.38-.49-.46l-5.08-2.02c-.72-.29-.77-1.28-.08-1.64l5.22-2.69c.18-.09.32-.24.41-.43l2.36-5.18c.32-.7,1.32-.7,1.64,0l2.35,5.15c.09.2.25.35.44.44Z"/>
          </g>
        </g>
      </g>
      <g>
        <path class="cls-12" d="m238.47,223.46c-3.31,0-6-2.69-6-6v-115.17c0-.96,0-1.92.03-2.89.7-25.01,10.79-49,28.4-67.6,2.74-2.92,5.7-5.7,8.78-8.26,1.68-1.44,3.56-2.91,5.5-4.32,3.74-2.73,7.73-5.23,11.85-7.43l.17-.09c.33-.18.66-.35,1-.51,11.02-5.7,22.84-9.35,35.15-10.84.09-.01.18-.02.27-.03.16-.02.31-.03.45-.04,2.63-.19,5.31-.28,7.97-.28,21.72,0,43.66,6.39,61.8,18,.07.04.15.09.22.14,3.76,2.42,7.36,5.06,10.71,7.86.09.07.18.14.26.21l.82.69c13.96,11.95,24.25,27.22,29.78,44.16,3.52,10.8,4.06,21.82,4.13,31.18.02,3.26-.02,6.54-.06,9.72-.03,2.53-.06,5.06-.06,7.58v97.93c0,3.31-2.69,6-6,6h-195.17Z"/>
        <g>
          <path class="cls-14" d="m434.18,101.29c0,1.95,0,3.9-.01,5.86-.04,3.8-.11,7.61-.11,11.39v97.93h-195.17v-115.17c0-.92.01-1.84.03-2.76.31-11.24,2.7-22.23,6.81-32.5,2.76-6.87,6.29-13.41,10.52-19.48,2.84-4.1,5.99-7.99,9.43-11.62,2.58-2.75,5.34-5.35,8.25-7.76,1.68-1.43,3.42-2.79,5.2-4.08,1.12-.82,2.27-1.61,3.43-2.38,2.49-1.66,5.08-3.2,7.73-4.62.34-.18.67-.36,1.01-.52.58-.3,1.17-.6,1.76-.89,6.31-3.12,13.01-5.57,20.01-7.28.74-.19,1.49-.36,2.25-.52h.03c3-.67,6.05-1.19,9.15-1.57.13,0,.28-.03.42-.04,19.53-1.39,39.23,2.67,56.5,11.33h.03c3.36,1.69,6.63,3.55,9.78,5.58h.01c2.5,1.61,4.93,3.32,7.27,5.15,1.03.79,2.04,1.6,3.04,2.44h.01c.27.23.55.46.82.69,4.11,3.52,7.93,7.37,11.39,11.54.86,1.02,1.69,2.06,2.5,3.12.9,1.18,1.77,2.38,2.61,3.61,3.7,5.38,6.86,11.21,9.37,17.44.32.77.62,1.55.91,2.33.38,1.02.74,2.04,1.08,3.08.04.11.07.23.11.34,3.1,9.52,3.76,19.41,3.83,29.36Z"/>
          <g>
            <path class="cls-17" d="m261.55,101.43l5.15,2.35c.7.32.7,1.32,0,1.64l-5.15,2.35c-.2.09-.35.25-.44.44l-2.35,5.15c-.32.7-1.32.7-1.64,0l-2.34-5.13c-.1-.21-.27-.38-.49-.46l-5.08-2.02c-.72-.29-.77-1.28-.08-1.64l5.22-2.69c.18-.09.32-.24.41-.43l2.36-5.18c.32-.7,1.32-.7,1.64,0l2.35,5.15c.09.2.25.35.44.44Z"/>
            <path class="cls-17" d="m299.05,19.97l-5.16,2.36c-.2.09-.35.25-.44.44l-2.36,5.16c-.32.7-1.32.7-1.64,0l-2.34-5.13c-.1-.21-.27-.38-.49-.47l-4.06-1.61c2.49-1.66,5.08-3.2,7.73-4.62.34-.18.67-.36,1.01-.52.58-.3,1.17-.6,1.76-.89l.39.85c.09.19.24.35.44.44l5.16,2.36c.7.32.7,1.31,0,1.63Z"/>
            <path class="cls-17" d="m425.29,200.16l5.15,2.35c.7.32.7,1.32,0,1.64l-5.15,2.35c-.2.09-.35.25-.44.44l-2.35,5.15c-.32.7-1.32.7-1.64,0l-2.34-5.13c-.1-.21-.27-.38-.49-.46l-5.08-2.02c-.72-.29-.77-1.28-.08-1.64l5.22-2.69c.18-.09.32-.24.41-.43l2.36-5.18c.32-.7,1.32-.7,1.64,0l2.35,5.15c.09.2.25.35.44.44Z"/>
          </g>
          <g>
            <g>
              <g>
                <path class="cls-8" d="m406.12,82.58c-2.07,4.72-16.74,27.06-27.93,43.86-2.6,3.9-5.02,7.5-7.04,10.51-3.59,5.37-5.97,8.88-5.97,8.88l-10.24-43.4s18.92-17.75,32.04-27.77c.33-.24.65-.48.96-.72,4.79-3.58,8.68-6,10.41-5.94,7.75.31,11.17,6.82,7.75,14.57Z"/>
                <path class="cls-5" d="m406.12,82.58c-2.07,4.72-16.74,27.06-27.93,43.86-2.6,3.9-5.02,7.5-7.04,10.51-3.59,5.37-5.97,8.88-5.97,8.88l-10.24-43.4s18.92-17.75,32.04-27.77c.33-.24.65-.48.96-.72,4.79-3.58,8.68-6,10.41-5.94,7.75.31,11.17,6.82,7.75,14.57Z"/>
              </g>
              <path class="cls-11" d="m388.81,69.37l-.86,4.58-9.76,52.49c-2.6,3.9-5.02,7.5-7.04,10.51l-5.55.14,21.39-62.43,1.82-5.29Z"/>
              <g>
                <g>
                  <path class="cls-14" d="m398.51,27.34l-10.28,45.2-.03.12-.31,1.34-13.09,57.52h0s-2.54,11.14-2.54,11.14l-.19.85-.06.28-4.71,20.67c-.17.73-.86,1.2-1.57,1.05l-29.24-5.9-1.32-.27-20.86-4.21-1.67-.34-12.02-2.42s0-.01-.01-.01l-1.66-.33-9.75-1.97-7.4-1.49c-.75-.15-1.23-.92-1.05-1.7l12.92-55.85.05-.22.21-.94,18.98-82.06c.03-.14.08-.27.16-.39.74-.19,1.49-.36,2.25-.52h.03l3.7.54,62.37,9.18h.03c3.36,1.69,6.63,3.55,9.78,5.58h.01c2.5,1.61,4.93,3.32,7.27,5.15Z"/>
                  <path class="cls-10" d="m398.51,27.34l-10.28,45.2-.03.12-.31,1.34-13.09,57.52h0s-2.54,11.14-2.54,11.14l-.19.85-.06.28-4.71,20.67c-.17.73-.86,1.2-1.57,1.05l-29.24-5.9-1.32-.27-20.86-4.21-1.67-.34-12.02-2.42s0-.01-.01-.01l-1.66-.33-9.75-1.97-7.4-1.49c-.75-.15-1.23-.92-1.05-1.7l12.92-55.85.05-.22.21-.94,18.98-82.06c.03-.14.08-.27.16-.39.74-.19,1.49-.36,2.25-.52h.03l3.7.54,62.37,9.18h.03c3.36,1.69,6.63,3.55,9.78,5.58h.01c2.5,1.61,4.93,3.32,7.27,5.15Z"/>
                </g>
                <path class="cls-11" d="m319.05,7.43l-18.93,90.45-.28,1.34-.07.32-10.57,50.52-7.4-1.49c-.75-.15-1.23-.92-1.05-1.7l12.92-55.85.05-.22.21-.94,18.98-82.06c.03-.14.08-.27.16-.39.74-.19,1.49-.36,2.25-.52h.03l3.7.54Z"/>
              </g>
              <polygon class="cls-11" points="393.83 26.69 366.7 145.39 297.61 131.36 298.01 129.48 322.46 14.22 390.92 26.19 393.83 26.69"/>
              <polygon class="cls-17" points="390.92 26.19 364.25 142.93 298.01 129.48 322.46 14.22 390.92 26.19"/>
              <path class="cls-2" d="m306.87,44.25l4.76-22.65c.15-.71.84-1.16,1.55-1.01h0c.7.15,1.15.84,1,1.54l-4.73,22.66c-.15.74-.91,1.2-1.63.99h-.03c-.66-.2-1.06-.86-.92-1.53Z"/>
              <g>
                <g>
                  <path class="cls-8" d="m385.08,159.68c-1.2,2.13-3.14,4.45-6.14,6.9t0,.01c-.65.55-1.37,1.09-2.13,1.64,0,0,.16.14.42.39,1.23,1.27,4.77,5.54,3.4,11.9-1.45,6.77-10.82,14.18-12.95,15.79-.28.21-.43.31-.43.31,0,0,.17.08.47.24,1.92,1.03,8.86,5.41,5.54,13.69-.52,1.3-2.27,3.34-4.92,5.92h-113.73c2.69-3.42,4.53-6.09,4.78-7.28,1.09-5.19,6.56-74.56,9.28-79.2.08-.13.16-.29.26-.47,1.43-2.69,4.94-10.77,8.78-19.02.04-.09.09-.19.13-.28h.01c.03-.1.08-.19.13-.28.12-.27.24-.54.37-.82.02-.04.04-.09.08-.15.3-.64.6-1.27.9-1.91.16-.32.31-.63.46-.95.13-.28.26-.57.4-.85.54-1.11,1.08-2.21,1.61-3.28.35-.7.69-1.37,1.02-2.03.32-.61.63-1.21.94-1.8.24-.44.47-.88.7-1.29.15-.27.3-.54.44-.78.24-.45.48-.88.72-1.29h0c.24-.4.46-.78.68-1.13,1.03-1.69,1.97-3.01,2.75-3.8l.03-.03c.09-.09.17-.16.26-.24.04-.04.09-.08.14-.12.01-.01.02-.01.03-.01.09-.08.17-.14.25-.2.07-.04.12-.07.18-.09.21-.11.41-.15.58-.13.91.12,2.02.75,3.21,1.76,2.13,1.82,4.47,4.87,6.12,8.42.68,1.44,1.24,2.97,1.63,4.52.01.03.01.06.02.08.26,1.03.44,2.09.52,3.14.01.01.01.02,0,.03.1,1.03.09,2.06-.03,3.08-.06.51-.13,1.07-.21,1.68h0c-.59,4.49-1.74,11.38-2.89,17.91-.11.63-.22,1.26-.33,1.89-1.48,8.37-2.85,15.65-2.85,15.65l.58.11h.01l10.34,2,2.37.46,31.2,6.01.83.16s11.02-7.92,22.87-11.13h.01c.33-.08.65-.17.98-.25.45-.11.9-.22,1.36-.31h.01c.25-.05.48-.1.73-.15,1.7-.33,3.4-.54,5.08-.59,4.92-.17,9.58,1.02,13.2,4.5,0,0,3.75,4.77-.19,11.67Z"/>
                  <path class="cls-5" d="m385.08,159.68c-1.2,2.13-3.14,4.45-6.14,6.9t0,.01c-.65.55-1.37,1.09-2.13,1.64,0,0,.16.14.42.39,1.23,1.27,4.77,5.54,3.4,11.9-1.45,6.77-10.82,14.18-12.95,15.79-.28.21-.43.31-.43.31,0,0,.17.08.47.24,1.92,1.03,8.86,5.41,5.54,13.69-.52,1.3-2.27,3.34-4.92,5.92h-113.73c2.69-3.42,4.53-6.09,4.78-7.28,1.09-5.19,6.56-74.56,9.28-79.2.08-.13.16-.29.26-.47,1.43-2.69,4.94-10.77,8.78-19.02.04-.09.09-.19.14-.28h0c.03-.1.08-.19.13-.28.12-.27.24-.54.37-.82.02-.04.04-.09.08-.15.3-.64.6-1.27.9-1.91.16-.32.31-.63.46-.95.13-.28.26-.57.4-.85.54-1.11,1.08-2.21,1.61-3.28.35-.7.69-1.37,1.02-2.03.32-.61.63-1.21.94-1.8.24-.44.47-.88.7-1.29.15-.27.3-.54.44-.78.24-.45.48-.88.72-1.29h0c.24-.4.46-.78.68-1.13,1.03-1.69,1.97-3.01,2.75-3.8l.03-.03c.09-.09.17-.16.26-.24.04-.04.09-.08.14-.12.01-.01.02-.01.03-.01.09-.08.17-.14.25-.2.07-.04.12-.07.18-.09.21-.11.41-.15.58-.13.91.12,2.02.75,3.21,1.76,2.13,1.82,4.47,4.87,6.12,8.42.68,1.44,1.24,2.97,1.63,4.52.01.03.01.06.02.08.26,1.03.44,2.09.52,3.14.01.01.01.02,0,.03.1,1.03.09,2.06-.03,3.08-.06.51-.13,1.07-.21,1.68h0c-.59,4.49-1.74,11.38-2.89,17.91-.11.63-.22,1.26-.33,1.89-1.48,8.37-2.85,15.65-2.85,15.65l.58.11h.01l10.34,2,2.37.46,31.2,6.01.83.16s11.02-7.92,22.87-11.13h.01c.33-.08.65-.17.98-.25.45-.11.9-.22,1.36-.31h.01c.25-.05.48-.1.73-.15,1.7-.33,3.4-.54,5.08-.59,4.92-.17,9.58,1.02,13.2,4.5,0,0,3.75,4.77-.19,11.67Z"/>
                </g>
                <g>
                  <g>
                    <g>
                      <path class="cls-11" d="m319.6,165.44c-.06.03-.13.04-.2.04-.2,0-.41-.13-.49-.33-2.63-6.57-6.99-12.15-12.28-15.84l2.36.46c4.66,3.75,8.49,8.96,10.91,14.97.11.28-.02.59-.3.7Z"/>
                      <path class="cls-11" d="m311.22,196.81c-.1.28-.4.42-.68.32-.28-.1-.42-.41-.32-.69,4.48-12.44-.47-27.72-6.07-37.01-1.34-2.23-2.86-4.43-4.63-6.75-.1-.13-.31-.36-.57-.65-.18-.19-.38-.41-.59-.64-2.66-2.86-3.29-3.7-3.18-4.29.12-.64,1.37-7.66,2.78-15.67.11-.62.23-1.25.34-1.89.45-2.64.92-5.33,1.37-7.9,0-.02,0-.03.01-.04,1.14-6.69,2.12-12.54,2.32-14.33.01-.09.02-.18.01-.28.01-.01.01-.02,0-.03.04-.84-.15-1.92-.52-3.14-.01-.02-.01-.05-.02-.08-.4-1.3-.98-2.74-1.7-4.2-1.34-2.73-3.12-5.49-4.95-7.42-.39-.42-.78-.79-1.15-1.1-1.18-1-2.23-1.5-3.13-1.45-.16.01-.33.06-.52.16-.26.14-.55.36-.87.67-2.62,2.56-6.79,10.62-10.6,18.71-.17.36-.34.73-.51,1.09-2.93,6.28-5.58,12.42-7.07,15.87-.8,1.84-1.43,3.29-1.82,4.15-1.89,4.16-5.37,40.12-7.44,61.61-.91,9.33-1.56,16.07-1.8,17.45-.2,1.11-2.02,3.76-4.72,7.19h-1.34c2.89-3.62,4.83-6.35,5.01-7.38.23-1.34.92-8.41,1.78-17.36,2.22-22.95,5.57-57.63,7.54-61.96.39-.85,1.01-2.29,1.81-4.13,2.38-5.52,4.76-10.92,7.04-15.82.1-.21.2-.43.29-.64h.01c5.5-11.79,10.36-20.53,13.15-20.68,1.05-.06,2.2.39,3.45,1.36.54.41,1.1.92,1.67,1.53,1.64,1.74,3.23,4.08,4.52,6.49,1.52,2.85,2.63,5.8,2.9,7.97.07.57.09,1.09.04,1.54-.28,2.51-2.05,12.84-3.72,22.36-.11.64-.22,1.27-.33,1.89-1.38,7.81-2.6,14.67-2.77,15.58.01.03.02.05.04.09h.01c.33.64,2.01,2.45,2.85,3.36.58.62,1.03,1.1,1.23,1.36.09.11.17.23.25.34,1.7,2.23,3.15,4.36,4.44,6.51,5.73,9.49,10.78,25.12,6.16,37.93Z"/>
                    </g>
                    <path class="cls-11" d="m277.8,110.22c-.09,0-.18,0-.27,0-.29,0-.53-.25-.52-.55,0-.29.24-.52.53-.52h.01c4.51.1,8.87-2.31,11.2-6.13,2.33-3.82,2.46-8.83.33-12.76-.14-.26-.04-.58.22-.72.26-.14.58-.04.72.22,2.31,4.26,2.17,9.69-.36,13.83-2.48,4.06-7.11,6.65-11.86,6.65Z"/>
                  </g>
                  <path class="cls-11" d="m384.26,146.45c-3.35-2.89-7.54-3.91-12-3.79-1.66.05-3.36.25-5.07.59-.1.01-.2.03-.3.06-.73.14-1.45.31-2.18.5-.8.2-1.6.43-2.39.68-10.93,3.43-20.87,10.49-21.53,10.97-.02.01-.23.11-.59.32-.97.54-2.99,1.76-5.03,3.56-3.68,3.22-7.43,8.28-5.17,14.51.12.21,2.56,4.51,7.48,5.56-1.33.64-2.51,1.29-3.48,1.93-10.75,7.1-10.82,12.51-9.69,16.44,1.53,5.28,5.36,6.56,7.33,6.84.51.09.9.1,1.09.1.08,0,.14-.01.14-.01.02,0,.04,0,.06-.01h.02l.07-.02.09-.04s.01-.02.02-.02h.04c11.62-6.04,33.88-7.45,34.1-7.46.21-.01.38-.13.44-.3.06-.09.08-.17.07-.27,0-.11-.03-.2-.11-.28-.07-.14-.25-.23-.46-.22-.22.02-22.67,1.43-34.5,7.56h-.01c-.43,0-1.95-.07-3.54-.97,0,0-.01,0-.01,0-.37-.21-.72-.45-1.08-.76-1.1-.91-2.11-2.31-2.73-4.43-.56-1.93-.77-4.1.48-6.64,0-.01.01-.01.01-.02.33-.68.77-1.39,1.33-2.13.01,0,.01,0,.01,0h0c1.49-1.94,3.82-4.08,7.42-6.44,9.99-6.61,42-13.42,42.42-13.52.07-.03.15-.06.21-.1,8.29-3.54,9.95-10.54,10.22-14.41.19-3.02-.97-5.84-3.18-7.76Zm-5.32,20.13s0,.01,0,.01c-.68.4-1.42.77-2.23,1.11-1.16.25-24.77,5.28-37.65,10.99-.09-.09-.2-.15-.33-.16-1.54-.16-2.85-.69-3.94-1.34,0,0,0,0,0,0-.41-.26-.79-.52-1.13-.79-1.76-1.41-2.66-2.98-2.67-2.98-1.26-3.47-.4-6.58,1.26-9.17,0-.01.01-.01.01-.02.38-.6.82-1.18,1.27-1.71h.01v-.02c.93-1.1,1.97-2.06,2.97-2.88,2.47-2.03,4.77-3.19,4.86-3.23.19-.14,11.62-8.27,23.37-11.4.08-.03.17-.05.25-.07.33-.09.67-.17,1-.24.31-.08.63-.15.94-.22,1.72-.36,3.43-.59,5.1-.66,4.33-.19,8.38.73,11.55,3.47,1.96,1.69,2.98,4.2,2.81,6.87-.12,1.71-.47,3.65-1.29,5.55-1.07,2.54-2.94,5.03-6.14,6.9Z"/>
                  <g>
                    <path class="cls-11" d="m333.73,216.47h-1.83c-.65-.56-1.15-1.24-1.47-2.04-1.98-5.05-.05-8.35,1.21-9.81.48-.57.87-.86.88-.87.24-.17.57-.12.75.11.17.24.12.56-.1.75h-.02s-.01.02-.01.02c-.14.11-.82.66-1.43,1.67-.93,1.53-1.72,4.1-.29,7.74.29.72.76,1.33,1.38,1.82.28.23.59.44.93.61Z"/>
                    <path class="cls-11" d="m360.24,216.47h-4.28c2.2-.42,3.63-.77,3.69-.79.29-.07.58.1.65.39.04.14.01.29-.06.4Z"/>
                  </g>
                  <path class="cls-11" d="m333.93,177.37c-.25,0-.47-.17-.52-.43-.06-.29.13-.57.41-.63,3.4-.7,6.73-2.09,9.63-4,2.09-1.37,3.21-2.7,3.55-4.16.42-1.85-.6-4.03-2.43-5.19-1.61-1.02-3.8-1.35-6.16-.92-2.17.39-4.24,1.32-6.24,2.22-.27.12-.58,0-.71-.27-.12-.27,0-.59.27-.71,2.06-.93,4.19-1.89,6.49-2.3,2.62-.47,5.08-.09,6.92,1.07,2.24,1.41,3.43,4.01,2.9,6.33-.52,2.3-2.54,3.85-4,4.82-3.01,1.98-6.47,3.42-10.01,4.15-.04,0-.07.01-.11.01Z"/>
                  <path class="cls-11" d="m328.33,202.9c-.23,0-.45-.15-.51-.39-.08-.28.08-.58.37-.66.1-.03,9.48-2.73,12.5-5.35,2.77-2.41,3.42-4.27.3-9.57-.42-.7-1.04-1.14-1.9-1.32-4.48-.95-13.09,5.11-13.17,5.17-.24.17-.57.11-.75-.13-.17-.24-.11-.58.13-.75.37-.26,9.09-6.39,14.01-5.35,1.15.25,2.03.86,2.6,1.82,3.13,5.3,3,7.85-.52,10.92-3.19,2.78-12.51,5.46-12.9,5.57-.05.01-.1.02-.15.02Z"/>
                  <path class="cls-11" d="m345.13,212.24c-1.14,1.3-2.75,2.29-5.06,3.11-1.42.5-2.88.88-4.36,1.12h-2.98c-.04-.07-.06-.14-.07-.22-.01-.15.04-.29.14-.39.09-.1.22-.17.36-.18,2.24-.14,4.44-.6,6.55-1.34,2.14-.75,3.6-1.64,4.62-2.8,1.24-1.42,1.69-3.3,1.14-4.78-.73-1.96-2.96-2.9-4.85-2.96-2.15-.06-4.32.77-6.24,1.5l-2.56.97s-.08.03-.11.03c-.24.04-.49-.1-.58-.34-.1-.27.03-.58.31-.69l1.49-.57h.02l.07-.02.09-.04h.03s.01-.02.01-.02h.02s.83-.32.83-.32c2.01-.77,4.28-1.63,6.65-1.57,2.25.07,4.92,1.23,5.82,3.66.69,1.85.16,4.14-1.34,5.85Z"/>
                </g>
              </g>
            </g>
            <g>
              <path class="cls-13" d="m374.49,82.58c-2.1,14.55-14.52,25.07-28.78,25.2-1.49.02-2.99-.08-4.51-.3-1.59-.23-3.14-.58-4.63-1.05-13.52-4.24-22.36-17.76-20.27-32.24,2.32-16.07,17.22-27.22,33.29-24.9,16.07,2.32,27.22,17.22,24.9,33.29Z"/>
              <path class="cls-17" d="m350.69,73.27l-.84,5.84,7.95,1.15-2.49,8.29-6.69-.96-2.91,20.21c-1.49.02-2.99-.08-4.51-.3-1.59-.23-3.14-.58-4.63-1.05l2.91-20.17-7.43-1.07,1.24-8.62,7.43,1.07,1.08-7.48c.78-5.39,5.63-9.24,11.06-8.76l1.11.1s4.31.62,6.67,1.65l-1.01,6.99-3.98-.57c-2.4-.35-4.63,1.32-4.98,3.72Z"/>
            </g>
          </g>
          <g>
            <path class="cls-17" d="m306.69,58.47v6.39c0,5.84-4.24,10.73-9.78,11.78l1.35,10.6-10.23-10.38h-30.36c-6.2,0-11.34-4.77-11.94-10.82,2.76-6.87,6.29-13.41,10.52-19.48.46-.06.94-.09,1.42-.09h37.02c6.6,0,12,5.4,12,12Z"/>
            <g>
              <path class="cls-11" d="m286.34,61.32c.02,1.42,1.19,2.56,2.62,2.54,1.42-.02,2.56-1.19,2.54-2.62-.02-1.42-1.19-2.56-2.62-2.54-1.42.02-2.56,1.19-2.54,2.62Z"/>
              <path class="cls-11" d="m274.49,61.5c.02,1.42,1.19,2.56,2.62,2.54,1.42-.02,2.56-1.19,2.54-2.62-.02-1.42-1.19-2.56-2.62-2.54-1.42.02-2.56,1.19-2.54,2.62Z"/>
              <path class="cls-11" d="m262.64,61.67c.02,1.42,1.19,2.56,2.62,2.54,1.42-.02,2.56-1.19,2.54-2.62-.02-1.42-1.19-2.56-2.62-2.54-1.42.02-2.56,1.19-2.54,2.62Z"/>
            </g>
          </g>
          <g>
            <path class="cls-17" d="m434.17,107.15c-.04,3.8-.11,7.61-.11,11.39v16.16c-1.67.89-3.58,1.39-5.59,1.39h-30.36l-10.23,10.38,1.35-10.59c-5.54-1.05-9.78-5.95-9.78-11.79v-6.38c0-6.6,5.4-12,12-12h37.02c2.06,0,4,.53,5.7,1.44Z"/>
            <g>
              <path class="cls-11" d="m419.87,122.08c.02,1.42,1.19,2.56,2.62,2.54,1.42-.02,2.56-1.19,2.54-2.62-.02-1.42-1.19-2.56-2.62-2.54-1.42.02-2.56,1.19-2.54,2.62Z"/>
              <path class="cls-11" d="m408.02,122.26c.02,1.42,1.19,2.56,2.62,2.54,1.42-.02,2.56-1.19,2.54-2.62-.02-1.42-1.19-2.56-2.62-2.54-1.42.02-2.56,1.19-2.54,2.62Z"/>
              <path class="cls-11" d="m396.17,122.44c.02,1.42,1.19,2.56,2.62,2.54,1.42-.02,2.56-1.19,2.54-2.62-.02-1.42-1.19-2.56-2.62-2.54-1.42.02-2.56,1.19-2.54,2.62Z"/>
            </g>
          </g>
          <g>
            <g>
              <ellipse class="cls-11" cx="407.59" cy="170.41" rx="24.43" ry="15.89" transform="translate(11.76 366.58) rotate(-49.05)"/>
              <path class="cls-11" d="m393.92,190.39s-7.11-4.89-7.83-6.43c-.73-1.56,31.04-36.43,31.04-36.43,0,0,5.98,3.28,7.6,5.57l.43,13.28-5.7,11.4-11.4,9.79-14.13,2.81Z"/>
            </g>
            <ellipse class="cls-16" cx="403.97" cy="167.68" rx="24.43" ry="15.89" transform="translate(12.57 362.9) rotate(-49.05)"/>
            <path class="cls-17" d="m415.27,161.51c-.47-3.83-6.83-1.19-8.19-.58-.04-1.31-.44-8.51-4.15-7.15-8.61,3.15-7.44,25.35-7.52,25.89l-.04.07s20.98-9.34,19.9-18.23Z"/>
          </g>
          <g>
            <g>
              <path class="cls-11" d="m430.24,71.59c-.84,1.26-1.78,2.49-2.82,3.69-7.88,9.09-18.71,12.93-25.66,9.58h-.01s-.01-.01-.03-.02c-.83-.4-1.6-.91-2.31-1.52-.21-.19-.42-.38-.61-.58t-.02-.01c-.16-.16-.31-.33-.46-.51-1.51-1.76-2.42-3.99-2.75-6.5-.86-6.31,1.9-14.41,7.85-21.26,3.85-4.44,8.4-7.62,12.85-9.33.9,1.18,1.77,2.38,2.61,3.61,3.7,5.38,6.86,11.21,9.37,17.44.32.77.62,1.55.91,2.33.38,1.02.74,2.04,1.08,3.08Z"/>
              <path class="cls-11" d="m428.25,66.18c.32.77.62,1.55.91,2.33l-1.88,3.75-11.4,9.79-14.12,2.81h-.01s-.01-.01-.03-.02c-.2-.14-1.47-1.02-2.92-2.1t-.02-.01c-.36-.27-.72-.55-1.08-.83-1.5-1.15-2.99-2.38-3.57-3.15-.05-.05-.09-.11-.12-.17-.04-.05-.07-.1-.09-.15-.11-.23.51-1.21,1.65-2.71,1.69-2.25,4.55-5.67,7.84-9.48,3.59-4.16,7.68-8.8,11.33-12.89,1.47-1.65,2.87-3.21,4.14-4.61,3.7,5.38,6.86,11.21,9.37,17.44Z"/>
            </g>
            <path class="cls-16" d="m418.88,48.74c3.7,5.38,6.86,11.21,9.37,17.44-1.19,2.18-2.68,4.34-4.45,6.38-7.81,9.01-18.52,12.87-25.48,9.66-.21-.1-.42-.2-.62-.32-.68-.36-1.32-.8-1.91-1.31-.63-.55-1.19-1.16-1.66-1.84-.05-.05-.09-.11-.12-.17-.04-.05-.07-.1-.09-.15,0,0,0,0,0,0-4.26-6.42-1.98-17.64,5.88-26.7,4.17-4.81,9.16-8.14,13.97-9.72.86,1.02,1.69,2.06,2.5,3.12.9,1.18,1.77,2.38,2.61,3.61Z"/>
            <path class="cls-17" d="m423.1,55.98c-.47-3.83-6.83-1.19-8.19-.58-.04-1.31-.44-8.51-4.15-7.15-8.61,3.15-7.44,25.35-7.52,25.89l-.04.07s20.98-9.34,19.9-18.23Z"/>
          </g>
          <g>
            <g>
              <ellipse class="cls-11" cx="260.65" cy="155.77" rx="15.89" ry="24.43" transform="translate(-38.3 208.94) rotate(-40.95)"/>
              <path class="cls-11" d="m274.32,175.76s7.11-4.89,7.83-6.43c.73-1.56-31.04-36.43-31.04-36.43,0,0-5.98,3.28-7.6,5.57l-.43,13.28,5.7,11.4,11.4,9.79,14.13,2.81Z"/>
            </g>
            <ellipse class="cls-16" cx="264.27" cy="153.04" rx="15.89" ry="24.43" transform="translate(-35.63 210.65) rotate(-40.95)"/>
            <path class="cls-17" d="m252.97,146.87c.47-3.83,6.83-1.19,8.19-.58.04-1.31.44-8.51,4.15-7.15,8.61,3.15,7.44,25.35,7.52,25.89l.04.07s-20.98-9.34-19.9-18.23Z"/>
          </g>
        </g>
      </g>
      <g>
        <path class="cls-12" d="m6,456.81c-3.31,0-6-2.69-6-6v-115.17c0-.96,0-1.92.03-2.89.7-25.01,10.79-49,28.4-67.6,2.74-2.92,5.7-5.7,8.78-8.26,1.68-1.43,3.56-2.91,5.5-4.32,3.74-2.73,7.73-5.23,11.85-7.43l.17-.09c.33-.18.66-.35,1-.51,11.02-5.7,22.84-9.35,35.15-10.84.09-.01.18-.02.27-.03.16-.02.31-.03.45-.04,2.63-.19,5.31-.28,7.97-.28,21.72,0,43.66,6.39,61.8,18,.07.04.15.09.22.14,3.76,2.42,7.36,5.06,10.71,7.86.09.07.18.14.26.21l.82.69c13.96,11.95,24.25,27.22,29.78,44.16,3.52,10.8,4.06,21.82,4.13,31.18.02,3.26-.02,6.54-.06,9.72-.03,2.53-.06,5.06-.06,7.58v97.93c0,3.31-2.69,6-6,6H6Z"/>
        <g>
          <g>
            <path class="cls-13" d="m200.54,335.26c0,1.95,0,3.9,0,5.86-.01.5-.01,1.01-.02,1.51-.04,3.3-.09,6.6-.09,9.88v97.93H5.25v-115.17c0-.92.01-1.84.03-2.76.31-11.24,2.7-22.23,6.81-32.5,2.76-6.87,6.29-13.41,10.52-19.48.4-.58.81-1.15,1.22-1.72,2.51-3.47,5.25-6.78,8.21-9.9,2.58-2.75,5.34-5.35,8.25-7.76,1.68-1.43,3.42-2.79,5.2-4.08,1.12-.82,2.27-1.61,3.43-2.38,2.49-1.66,5.08-3.2,7.73-4.62.34-.18.67-.36,1.01-.52.58-.3,1.17-.6,1.76-.89,6.31-3.12,13.01-5.57,20.01-7.28.74-.19,1.49-.36,2.25-.52h.03c3-.67,6.05-1.19,9.15-1.57.13-.01.28-.03.42-.04,8.99-.64,18.03-.12,26.84,1.46,10.32,1.87,20.34,5.2,29.66,9.87h.03c3.36,1.69,6.63,3.55,9.78,5.58h0c2.5,1.61,4.93,3.32,7.27,5.15,1.03.79,2.04,1.6,3.04,2.44h0c.27.23.55.46.82.69,4.11,3.52,7.93,7.37,11.39,11.54.86,1.02,1.69,2.06,2.5,3.12.9,1.18,1.77,2.38,2.61,3.61,3.7,5.38,6.86,11.21,9.37,17.44.32.77.62,1.55.91,2.33.38,1.02.74,2.04,1.08,3.08.04.11.07.23.11.34.93,2.85,1.64,5.74,2.18,8.65.5,2.72.86,5.46,1.1,8.21.12,1.3.22,2.59.29,3.89.17,2.86.24,5.73.26,8.61Z"/>
            <g class="cls-15">
              <path class="cls-11" d="m200.54,335.26c0,1.95,0,3.9,0,5.86-.01.5-.01,1.01-.02,1.51-.04,3.3-.09,6.6-.09,9.88v97.93H5.25v-115.17c0-.92.01-1.84.03-2.76.31-11.24,2.7-22.23,6.81-32.5,2.76-6.87,6.29-13.41,10.52-19.48.4-.58.81-1.15,1.22-1.72,2.51-3.47,5.25-6.78,8.21-9.9,2.58-2.75,5.34-5.35,8.25-7.76,1.68-1.43,3.42-2.79,5.2-4.08,1.12-.82,2.27-1.61,3.43-2.38,2.49-1.66,5.08-3.2,7.73-4.62.34-.18.67-.36,1.01-.52.58-.3,1.17-.6,1.76-.89,6.31-3.12,13.01-5.57,20.01-7.28.74-.19,1.49-.36,2.25-.52h.03c3-.67,6.05-1.19,9.15-1.57.13-.01.28-.03.42-.04,8.99-.64,18.03-.12,26.84,1.46,10.32,1.87,20.34,5.2,29.66,9.87h.03c3.36,1.69,6.63,3.55,9.78,5.58h0c2.5,1.61,4.93,3.32,7.27,5.15,1.03.79,2.04,1.6,3.04,2.44h0c.27.23.55.46.82.69,4.11,3.52,7.93,7.37,11.39,11.54.86,1.02,1.69,2.06,2.5,3.12.9,1.18,1.77,2.38,2.61,3.61,3.7,5.38,6.86,11.21,9.37,17.44.32.77.62,1.55.91,2.33.38,1.02.74,2.04,1.08,3.08.04.11.07.23.11.34.93,2.85,1.64,5.74,2.18,8.65.5,2.72.86,5.46,1.1,8.21.12,1.3.22,2.59.29,3.89.17,2.86.24,5.73.26,8.61Z"/>
            </g>
          </g>
          <g>
            <path class="cls-9" d="m199.99,322.76c-10.48,10.45-24.94,16.92-40.92,16.92-32.01,0-57.96-25.95-57.96-57.96,0-16.02,6.5-30.52,17.01-41.01,10.32,1.87,20.34,5.2,29.66,9.87h.03c3.36,1.69,6.63,3.55,9.78,5.58h0c2.5,1.61,4.93,3.32,7.27,5.15,1.03.79,2.04,1.6,3.04,2.44h0c.27.23.55.46.82.69,4.11,3.52,7.93,7.37,11.39,11.54.86,1.02,1.69,2.06,2.5,3.12.9,1.18,1.77,2.38,2.61,3.61,3.7,5.38,6.86,11.21,9.37,17.44.32.77.62,1.55.91,2.33.38,1.02.74,2.04,1.08,3.08.04.11.07.23.11.34.93,2.85,1.64,5.74,2.18,8.65.5,2.72.86,5.46,1.1,8.21Z"/>
            <path class="cls-9" d="m200.42,375.47v74.97h-88.22c-7.59-9.79-12.11-22.08-12.11-35.44,0-32.01,25.95-57.96,57.96-57.96,16.73,0,31.8,7.09,42.37,18.43Z"/>
            <path class="cls-9" d="m68.94,335.34c0,32.01-25.94,57.96-57.95,57.96-1.94,0-3.85-.09-5.74-.28v-57.75c0-.92.01-1.84.03-2.76.31-11.24,2.7-22.23,6.81-32.5,2.76-6.87,6.29-13.41,10.52-19.48.4-.58.81-1.15,1.22-1.72,25.83,5.84,45.11,28.93,45.11,56.53Z"/>
          </g>
          <g>
            <g>
              <path class="cls-19" d="m200.54,335.26c0,1.95,0,3.9,0,5.86-.01.5-.01,1.01-.02,1.51l-116.15,107.81h-27.82l-51.29-18.39v-62.98l102.67-81.99,90.97,27.47c.5,2.72.86,5.46,1.1,8.21.12,1.3.22,2.59.29,3.89.17,2.86.24,5.73.26,8.61Z"/>
              <path class="cls-11" d="m200.54,335.26c0,1.95,0,3.9,0,5.86-.01.5-.01,1.01-.02,1.51l-116.15,107.81h-27.82l-51.29-18.39v-11.85l69.99,26.2,125.04-119.75c.17,2.86.24,5.73.26,8.61Z"/>
            </g>
            <polygon class="cls-11" points="189.45 328.7 186.62 331.39 77.37 435.17 5.25 409.5 5.25 375.49 100.35 300.62 189.45 328.7"/>
            <polygon class="cls-17" points="186.62 331.39 77.37 435.17 5.25 409.5 5.25 379.06 100.35 304.19 186.62 331.39"/>
            <path class="cls-4" d="m129.34,301.38h0c.69-.73,1.83-1,2.85-.68l30.64,9.69c1.65.52,2.26,2.3,1.21,3.51l-.2.23c-.68.79-1.87,1.09-2.94.74l-30.45-9.92c-1.67-.55-2.25-2.38-1.12-3.58Z"/>
          </g>
          <g>
            <g>
              <path class="cls-11" d="m19.35,322.46l1.63,4.58c.44,1.23,1.51,2.14,2.8,2.36l79.38,13.72c1.5.26,3.01-.45,3.77-1.77l36.16-63.04c.45-.78.59-1.7.4-2.59l-1.56-7.13-122.58,53.88Z"/>
              <polygon class="cls-13" points="19.35 322.46 102.95 335.35 141.94 268.58 58.95 257.47 19.35 322.46"/>
            </g>
            <path class="cls-17" d="m85.8,269.78l7.77,1.74-4.59,12.62,10.04,2.28-2.81,7.71-10.22-2.32-6.09,16.7s-1.03,6.2,7.83,4.73l-.18,8.02s-11.39,3.71-17.68-3.69c0,0-3.16-4.03-2.84-8.02.32-3.99,6.81-20.2,6.81-20.2l-5.29-1.19,2.42-6.64s5.06,0,9.39-3.85c4.33-3.86,5.42-7.88,5.42-7.88Z"/>
          </g>
          <g>
            <rect class="cls-12" x="105.54" y="374.57" width="83.4" height="60.04"/>
            <rect class="cls-13" x="109.3" y="378.15" width="76.5" height="53.36"/>
            <path class="cls-18" d="m182.53,426.49h-68.01c.68-2.67,1.55-5.29,2.91-7.66,1.68-2.93,4.16-5.5,7.31-6.73,5.43-2.13,11.8.19,16.02,4.22,2.41-7.74,7.86-14.8,15.42-17.74,7.55-2.95,17.13-.99,21.91,5.55,3.78,5.18,4.12,12.03,4.32,18.44.04,1.31.08,2.61.12,3.92Z"/>
            <circle class="cls-19" cx="132.69" cy="394.23" r="10.13" transform="translate(-239.9 209.29) rotate(-45)"/>
          </g>
          <g>
            <path class="cls-12" d="m86.9,378.83l-12.42.71c-3.17-10.41-12.85-17.99-24.3-17.99-14.03,0-25.4,11.37-25.4,25.4s11.37,25.4,25.4,25.4,25.4-11.37,25.4-25.4c0-.02,0-.03,0-.05l11.32-8.08Z"/>
            <g>
              <path class="cls-11" d="m43.66,385.13c-2.59,0-4.68,2.06-4.75,4.63-.33-1.28-.23-2.78.33-4.35,1.01-2.83,3.29-5.29,5.67-6.11.52-.18.8-.75.62-1.27-.18-.52-.75-.8-1.27-.62-2.97,1.03-5.68,3.91-6.9,7.33-.99,2.77-.83,5.42.43,7.47.88,1.43,2.97,2.72,5.12,2.72.33,0,.66-.03.99-.1.18-.04.33-.13.45-.24,2.3-.34,4.07-2.3,4.07-4.7,0-2.63-2.13-4.77-4.77-4.77Z"/>
              <path class="cls-11" d="m63.24,389.89c0-2.63-2.13-4.77-4.77-4.77s-4.68,2.06-4.75,4.63c-.33-1.28-.23-2.78.33-4.35,1.01-2.83,3.29-5.29,5.67-6.11.52-.18.8-.75.62-1.27-.18-.52-.75-.8-1.27-.62-2.97,1.03-5.68,3.91-6.9,7.33-.99,2.77-.83,5.42.43,7.47.88,1.43,2.97,2.72,5.12,2.72.33,0,.66-.03.99-.1.18-.04.33-.13.45-.24,2.3-.34,4.07-2.3,4.07-4.7Z"/>
            </g>
          </g>
          <g>
            <path class="cls-17" d="m166.53,282.12l5.15,2.35c.7.32.7,1.32,0,1.64l-5.15,2.35c-.2.09-.35.25-.44.44l-2.35,5.15c-.32.7-1.32.7-1.64,0l-2.34-5.13c-.1-.21-.27-.38-.49-.46l-5.08-2.02c-.72-.29-.77-1.28-.08-1.64l5.22-2.69c.18-.09.32-.24.41-.43l2.36-5.18c.32-.7,1.32-.7,1.64,0l2.35,5.15c.09.2.25.35.44.44Z"/>
            <path class="cls-17" d="m200.42,353.55v15.66l-.43.94c-.32.71-1.32.71-1.64,0l-2.35-5.13c-.09-.21-.27-.37-.48-.46l-5.08-2.02c-.72-.29-.77-1.29-.08-1.64l5.22-2.69c.18-.09.32-.24.4-.43l2.37-5.17c.32-.7,1.32-.7,1.64,0l.43.94Z"/>
            <path class="cls-17" d="m49.64,447.99l-5.15,2.35c-.06.03-.12.06-.17.1h-6.93c-.06-.04-.11-.07-.17-.09l-5.08-2.03c-.72-.28-.77-1.28-.08-1.63l5.22-2.69c.18-.09.32-.24.41-.43l2.36-5.17c.32-.71,1.32-.71,1.64,0l2.35,5.15c.09.2.25.36.45.45l5.15,2.35c.7.32.7,1.32,0,1.64Z"/>
            <path class="cls-17" d="m21.95,342.83l5.15,2.35c.7.32.7,1.32,0,1.64l-5.15,2.35c-.2.09-.35.25-.44.44l-2.35,5.15c-.32.7-1.32.7-1.64,0l-2.34-5.13c-.1-.21-.27-.38-.49-.46l-5.08-2.02c-.72-.29-.77-1.28-.08-1.64l5.22-2.69c.18-.09.32-.24.41-.43l2.36-5.18c.32-.7,1.32-.7,1.64,0l2.35,5.15c.09.2.25.35.44.44Z"/>
            <path class="cls-17" d="m73.08,253.53l5.15,2.35c.7.32.7,1.32,0,1.64l-5.15,2.35c-.2.09-.35.25-.44.44l-2.35,5.15c-.32.7-1.32.7-1.64,0l-2.34-5.13c-.1-.21-.27-.38-.49-.46l-5.08-2.02c-.72-.29-.77-1.28-.08-1.64l5.22-2.69c.18-.09.32-.24.41-.43l2.36-5.18c.32-.7,1.32-.7,1.64,0l2.35,5.15c.09.2.25.35.44.44Z"/>
          </g>
        </g>
      </g>
      <g>
        <path class="cls-12" d="m238.47,456.81c-3.31,0-6-2.69-6-6v-115.17c0-.96,0-1.92.03-2.89.7-25.01,10.79-49,28.4-67.6,2.74-2.92,5.7-5.7,8.78-8.26,1.68-1.43,3.56-2.91,5.5-4.32,3.74-2.73,7.73-5.23,11.85-7.43l.17-.09c.33-.18.66-.35,1-.51,11.02-5.7,22.84-9.35,35.15-10.84.09-.01.18-.02.27-.03.16-.02.31-.03.45-.04,2.63-.19,5.31-.28,7.97-.28,21.72,0,43.66,6.39,61.8,18,.07.04.15.09.22.14,3.76,2.42,7.36,5.06,10.71,7.86.09.07.18.14.26.21l.82.69c13.96,11.95,24.25,27.22,29.78,44.16,3.52,10.8,4.06,21.82,4.13,31.18.02,3.26-.02,6.54-.06,9.72-.03,2.53-.06,5.06-.06,7.58v97.93c0,3.31-2.69,6-6,6h-195.17Z"/>
        <g>
          <path class="cls-13" d="m434.66,334.73c0,5.71-.24,11.43-.24,17.25v97.93h-195.17v-67.32c0-24.71-2.18-50.53,4.24-74.34.25-.92.51-1.84.79-2.76.95-3.18,2.07-6.32,3.39-9.41,1.45-3.45,3.14-6.85,5.11-10.17,13.23-22.38,35.39-38.89,60.65-45.06.74-.19,1.49-.36,2.25-.52h.03c3-.67,6.05-1.19,9.15-1.57.13-.01.28-.03.42-.04,7.55-.54,15.14-.26,22.6.79,1.42.19,2.83.42,4.24.67,3.37.61,6.71,1.37,10,2.28,22.72,6.28,43.41,19.67,56.76,39.39.06.08.11.17.17.25.88,1.31,1.73,2.65,2.54,4.01h0c2.34,3.89,4.38,7.96,6.13,12.15h0c2.27,5.5,4.03,11.2,5.24,17.02,1.36,6.54,1.69,12.98,1.7,19.45Z"/>
          <g>
            <path class="cls-17" d="m332.36,431.72l5.15,2.35c.7.32.7,1.32,0,1.64l-5.15,2.35c-.2.09-.35.25-.44.44l-2.35,5.15c-.32.7-1.32.7-1.64,0l-2.34-5.13c-.1-.21-.27-.38-.49-.46l-5.08-2.02c-.72-.29-.77-1.28-.08-1.64l5.22-2.69c.18-.09.32-.24.41-.43l2.36-5.18c.32-.7,1.32-.7,1.64,0l2.35,5.15c.09.2.25.35.44.44Z"/>
            <path class="cls-17" d="m359.42,253l5.15,2.35c.7.32.7,1.32,0,1.64l-5.15,2.35c-.2.09-.35.25-.44.44l-2.35,5.15c-.32.7-1.32.7-1.64,0l-2.34-5.13c-.1-.21-.27-.38-.49-.46l-5.08-2.02c-.72-.29-.77-1.28-.08-1.64l5.22-2.69c.18-.09.32-.24.41-.43l2.36-5.18c.32-.7,1.32-.7,1.64,0l2.35,5.15c.09.2.25.35.44.44Z"/>
            <path class="cls-17" d="m434.42,353.08v14.52l-.69,1.51c-.32.7-1.32.7-1.64,0l-2.34-5.13c-.1-.21-.27-.38-.49-.46l-5.08-2.03c-.72-.28-.77-1.28-.08-1.63l5.22-2.69c.18-.09.32-.24.41-.43l2.36-5.17c.32-.71,1.32-.71,1.64,0l.69,1.51Z"/>
            <path class="cls-17" d="m249.68,424.99l-5.15,2.35c-.2.09-.36.25-.45.45l-2.35,5.15c-.32.7-1.32.7-1.64,0l-.84-1.84v-13.86l.84-1.84c.32-.71,1.32-.71,1.64,0l2.35,5.15c.09.2.25.36.45.45l5.15,2.35c.71.32.71,1.32,0,1.64Z"/>
          </g>
          <rect class="cls-11" x="268.13" y="379.83" width="23.58" height="4.76"/>
          <g>
            <g>
              <g>
                <path class="cls-8" d="m427.72,298.26h0s-24.04,134.43-24.04,134.43c-.18.95-1.09,1.58-2.05,1.41l-6.3-1.13-86.36-15.44c-.96-.17-1.6-1.08-1.43-2.04l.89-4.96.59-3.3,1.54-8.64.79-4.39.9-5.03,2.73-15.29,3.11-17.38,1.76-9.83,1.81-10.13,2.88-16.13,2.67-14.92,1.1-6.12.58-3.29,4.95-27.66c.17-.95,1.09-1.59,2.05-1.41l82.99,14.84c.06.08.11.17.17.25.88,1.31,1.73,2.65,2.54,4.01h0c2.34,3.89,4.38,7.96,6.13,12.15Z"/>
                <path class="cls-11" d="m427.72,298.26h0s-24.04,134.43-24.04,134.43c-.18.95-1.09,1.58-2.05,1.41l-6.3-1.13,26.26-146.85c2.34,3.88,4.38,7.95,6.13,12.14Z"/>
              </g>
              <g>
                <path class="cls-11" d="m417.3,288.7l-23.56,131.75c-.1.57-.65.96-1.23.86l-79.51-14.22c-.58-.1-.96-.66-.86-1.23l23.56-131.75c.1-.57.65-.96,1.23-.86l18.2,3.25.92,1.84,1.6,3.24,33.39,5.97,4.36-3.85,21.05,3.76c.58.1.96.66.86,1.23Z"/>
                <path class="cls-17" d="m417.2,289.28l-23.46,131.17c-.1.57-.65.96-1.23.86l-78.93-14.12,23.46-131.17c.1-.57.65-.96,1.23-.86l18.2,3.25,1.6,3.24.92,1.84,33.39,5.97,4.36-3.85,20.47,3.66Z"/>
              </g>
              <path class="cls-1" d="m357.39,422.6l-17.31-3.1c-1.15-.21-1.92-1.31-1.71-2.46h0c.21-1.15,1.31-1.92,2.46-1.71l17.31,3.1c1.15.21,1.92,1.31,1.71,2.46h0c-.21,1.15-1.31,1.92-2.46,1.71Z"/>
              <path class="cls-1" d="m374.98,280.97l-9.39-1.68c-.64-.11-1.07-.73-.95-1.37h0c.11-.64.73-1.07,1.37-.95l9.39,1.68c.64.11,1.07.73.95,1.37h0c-.11.64-.73,1.07-1.37.95Z"/>
              <path class="cls-1" d="m383.98,281.5c-.21,1.15-1.31,1.92-2.46,1.71s-1.92-1.31-1.71-2.46c.21-1.15,1.31-1.92,2.46-1.71,1.15.21,1.92,1.31,1.71,2.46Z"/>
              <g>
                <path class="cls-1" d="m420.14,318.75h0c-.81-.14-1.35-.92-1.21-1.73l2.38-13.29c.14-.81.92-1.35,1.73-1.21h0c.81.14,1.35.92,1.21,1.73l-2.38,13.29c-.14.81-.92,1.35-1.73,1.21Z"/>
                <path class="cls-1" d="m416.27,340.39h0c-.81-.14-1.35-.92-1.21-1.73l2.38-13.29c.14-.81.92-1.35,1.73-1.21h0c.81.14,1.35.92,1.21,1.73l-2.38,13.29c-.14.81-.92,1.35-1.73,1.21Z"/>
              </g>
            </g>
            <g>
              <path class="cls-11" d="m388.05,299.38v103.71c0,4.1-3.33,7.44-7.44,7.44h-126.37c-4.11,0-7.44-3.34-7.44-7.44v-103.71h141.26Z"/>
              <path class="cls-17" d="m384.75,296.08v103.71c0,4.1-3.33,7.44-7.44,7.44h-126.37c-1.21,0-2.34-.29-3.35-.81-2.43-1.21-4.1-3.73-4.1-6.63v-94.3h.79c.95-3.18,2.07-6.32,3.39-9.41h137.08Z"/>
              <path class="cls-19" d="m384.75,296.08v9.41h-140.47c.95-3.18,2.07-6.32,3.39-9.41h137.08Z"/>
              <g>
                <circle class="cls-17" cx="369.23" cy="301.57" r="2.83"/>
                <circle class="cls-17" cx="377.59" cy="301.57" r="2.83"/>
                <circle class="cls-17" cx="360.4" cy="301.57" r="2.83"/>
              </g>
              <g>
                <rect class="cls-8" x="275.65" y="394.2" width="96.24" height="4.39"/>
                <g>
                  <rect class="cls-8" x="253.76" y="392.08" width="16.96" height="8.64" rx="1.35" ry="1.35"/>
                  <g>
                    <rect class="cls-11" x="260.19" y="393.81" width="1.41" height="5.18"/>
                    <rect class="cls-11" x="263.1" y="393.81" width="1.41" height="5.18"/>
                  </g>
                </g>
                <g>
                  <rect class="cls-13" x="253.13" y="320.41" width="119.4" height="68.77"/>
                  <path class="cls-17" d="m288.97,349.27l-2.22-2.8s10.35-11.6,15.57-10.25,4.54,5.12,5.03,7.93c.48,2.8,2.61,17.79,5.41,17.69,2.8-.1,6.19-6.29,7.25-9.67,1.06-3.38.97-5.32-1.06-6-2.03-.68-5.22.68-5.22.68,0,0,2.71-10.35,10.83-11.02,8.12-.68,10.54,2.9,9.77,9.28-.77,6.38-7.35,17.98-15.08,25.14-7.74,7.16-11.99,8.8-15.76,3.96-3.77-4.83-5.8-18.86-7.64-23.4-1.54-3.81-1.84-4.74-6.87-1.55Z"/>
                </g>
              </g>
            </g>
          </g>
          <g>
            <circle class="cls-19" cx="282.18" cy="422.89" r="22.21" transform="translate(-158.78 169.88) rotate(-26.44)"/>
            <polygon class="cls-17" points="277.32 412.68 277.32 433.11 294.96 422.81 277.32 412.68"/>
          </g>
          <g>
            <path class="cls-12" d="m278.28,276.86c-3.19-9.88,5.13-21.4,18.57-25.74,13.44-4.34,26.92.15,30.11,10.03,3.19,9.88-5.13,21.4-18.57,25.74-.72.23-1.43.43-2.15.61,1.96,1.06,4.74,2.56,4.74,2.56,0,0-16.91,2.77-28.82-7.12-1.78-1.69-3.13-3.73-3.88-6.08Z"/>
            <g>
              <path class="cls-11" d="m310.69,267.12c.37,1.31,1.73,2.08,3.04,1.71,1.31-.37,2.08-1.73,1.71-3.04-.37-1.31-1.73-2.08-3.04-1.71-1.31.37-2.08,1.73-1.71,3.04Z"/>
              <path class="cls-11" d="m299.76,270.17c.37,1.31,1.73,2.08,3.04,1.71,1.31-.37,2.08-1.73,1.71-3.04-.37-1.31-1.73-2.08-3.04-1.71-1.31.37-2.08,1.73-1.71,3.04Z"/>
              <path class="cls-11" d="m288.83,273.23c.37,1.31,1.73,2.08,3.04,1.71,1.31-.37,2.08-1.73,1.71-3.04-.37-1.31-1.73-2.08-3.04-1.71-1.31.37-2.08,1.73-1.71,3.04Z"/>
            </g>
          </g>
          <g>
            <path class="cls-12" d="m425.77,431.16c3.19-9.88-5.13-21.4-18.57-25.74-13.44-4.34-26.92.15-30.11,10.03-3.19,9.88,5.13,21.4,18.57,25.74.72.23,1.43.43,2.15.61-1.96,1.06-4.74,2.56-4.74,2.56,0,0,16.91,2.77,28.82-7.12,1.78-1.69,3.13-3.73,3.88-6.08Z"/>
            <g>
              <path class="cls-11" d="m393.36,421.42c-.37,1.31-1.73,2.08-3.04,1.71-1.31-.37-2.08-1.73-1.71-3.04.37-1.31,1.73-2.08,3.04-1.71,1.31.37,2.08,1.73,1.71,3.04Z"/>
              <path class="cls-11" d="m404.29,424.47c-.37,1.31-1.73,2.08-3.04,1.71-1.31-.37-2.08-1.73-1.71-3.04.37-1.31,1.73-2.08,3.04-1.71,1.31.37,2.08,1.73,1.71,3.04Z"/>
              <path class="cls-11" d="m415.22,427.53c-.37,1.31-1.73,2.08-3.04,1.71-1.31-.37-2.08-1.73-1.71-3.04.37-1.31,1.73-2.08,3.04-1.71,1.31.37,2.08,1.73,1.71,3.04Z"/>
            </g>
          </g>
        </g>
      </g>
    </g>
  </g>
</svg>