<?xml version="1.0" encoding="UTF-8"?>
<svg id="Layer_2" data-name="Layer 2" xmlns="http://www.w3.org/2000/svg" viewBox="0 0 594.52 742.37">
  <defs>
    <style>
      .cls-1 {
        fill: #98a5a4;
      }

      .cls-2 {
        fill: #fbf5ca;
      }

      .cls-3 {
        fill: #4d1d4f;
      }

      .cls-4 {
        fill: #858e8d;
      }

      .cls-5 {
        fill: #1badbc;
      }

      .cls-6 {
        fill: #edd64a;
      }

      .cls-7 {
        fill: #b9c6c6;
      }

      .cls-8 {
        fill: #30cae5;
      }

      .cls-9 {
        fill: #707776;
      }
    </style>
  </defs>
  <g id="objects">
    <g>
      <path class="cls-9" d="m249.64,386.03s-22.15-30.6-34.46-25.45c-12.31,5.15-13.29,47.09-13.29,47.09l-18.14,332.86h40.32l25.57-354.49Z"/>
      <g>
        <path class="cls-3" d="m209.49,742.37c1.5-9.95,1.57-20,2.26-30.01,2.58-37.66,3.83-75.45,7.87-112.98,2.84-26.42,3.11-52.9,4.62-79.35,2.55-44.77,4.34-89.58,6.93-134.34.81-14.03-8.92-18.19-19.33-16.62-2.07.31-3.19,1.08-3.3,3.69-1.76,41.45-3.63,82.9-5.56,124.34-1.57,33.59-2.69,67.22-5.04,100.76-3.29,46.9-6.07,93.84-9.36,140.74-.04.62-.18,1.24-.26,1.81-1.64.92-3.11.45-4.56.09-1.01-1.19-.51-2.52-.44-3.74,3.08-48.74,6.03-97.49,9.34-146.21,3.42-50.4,5-100.88,7.68-151.32.83-15.7,1.49-31.4,2.37-47.1.16-2.81-.65-4-3.52-4.06-23.33-.44-46.45-3.8-69.72-5.04-29.99-1.6-59.84-4.45-89.51-9.25-10.04-1.63-20.22-2.34-30.4-2.49-3.39-.05-4.53-1.42-4.93-4.46-1.49-11.38-1.9-22.82-2.17-34.29-.53-22.53-1.19-45.06-1.73-67.59-.31-13-1.23-26.01-.36-39.01,1.06-16.06,5.57-31.32,11.57-46.18,2.61-6.47,5.52-12.81,9.38-18.59,2.84-4.24,6.07-8.37,9.78-11.86,7.65-7.21,14.99-14.71,23.6-20.99,12.26-8.94,26.03-14.62,39.84-20.18,11.32-4.56,23.08-8.2,34.82-11.41,12.73-3.48,25.27-7.8,38.36-10.08,8.97-1.56,17.7-4.44,26.97-6.11,0-9.26-.03-18.26.02-27.25.02-2.91-2.01-3.35-4.12-3.51-8.49-.62-16.73.41-24.39,4.36-5.71,2.93-11.71,4.62-18.13,4.87-3.26.13-6.4-.14-9.38-1.69-4.06-2.11-8.49-2.1-12.86-1.59-5.73.67-11.61,7.85-11.57,13.76.06,8.31-4.63,14.02-12.81,15.53-2.29.42-3.98-.47-4-2.93-.08-11.34-.1-22.68.06-34.01.03-2.4,1.51-4.27,3.91-5.28,2.01-.85,3.98-1.84,5.84-2.97,2.39-1.45,3.65-3.6,3.12-6.51-1.37-7.65,7.19-19.65,16.62-19.85,3.89-.08,7.83-.25,11.41,1.38,8.29,3.77,16.25,2.06,23.82-1.6,8.94-4.33,18.15-6.37,28.03-5.58,1.66.13,3.29.39,5.07,1.12,1.52-3.59,3.32-6.62,6.96-8.06,4.91-1.94,7.78-.09,7.79,5.12.01,22.55.04,45.1.07,67.65,0,1.14.11,2.28.19,3.82,6.86-1.69,13.44-3.38,20.04-4.93,21.07-4.96,42.47-8.08,63.75-11.9,17.73-3.18,35.65-5,53.47-7.47,11.78-1.63,23.84-.96,35.81-.04,16.85,1.3,31.21,8.91,45.53,16.87,7,3.89,13.51,8.4,19.65,13.55,3.61,3.02,6.39,6.73,9.23,10.32,3.24,4.1,7.01,7.84,9.42,12.63,1.26,2.5,3.61,3.38,6.72,3.43,16.51.29,32.92-1.2,49.36-2.26,7.96-.51,15.95-.35,23.94-.73,8.65-.42,17.18-1.47,25.72-2.67,2.03-.29,4.09-.48,6.15-.49,8.91-.06,7.39.91,8.21,7.39,1.03,8.07.18,16.29-3.23,23.84-2.58,5.71-3.38,11.87-5.36,17.69-8.42,24.74-14.3,50.26-23.42,74.79-4.43,11.92-6.58,24.63-11.95,36.24-10.81,23.37-20.3,47.31-31.23,70.63-3.91,8.34-11.41,9.6-18.86,11.53-2.56.66-5.17.43-7.74,1.9-2.65,1.52-4.22,2.9-4.54,6.09-.24,2.47-2.32,3.94-4.8,4.44-3.01.61-6.03,1.12-9.11,1.68.15,2.2,2.07,2.04,3.36,2.58,16.74,7.01,34.18,12.2,50.93,19.12,14.98,6.19,30.14,12.1,44.36,19.98,8.69,4.81,17.1,10.15,23,18.47,3.64,5.14,6.1,10.75,5.71,17.25-.35,5.9-4.26,10.94-10.42,12.38-19.56,4.58-39.09,9.52-59.43,8.9-4.38-.13-8.78-.23-13.11-.79-15.21-1.98-30.69-1.06-45.77-4.03-15.17-3-29.86-8.14-45.01-11.07-20.1-3.88-39.46-9.86-58.39-17.4-17.95-7.16-35.39-15.47-52.73-23.98-10.64-5.22-21.89-9.07-32.27-14.83-2.14-1.19-4.48-.13-6.74-.35-3.4-.34-6.9.33-10.38.57-.99,1.07-.61,2.43-.67,3.67-3.21,66.93-6.74,133.84-9.48,200.79-2.04,49.96-5.72,99.82-8.72,149.72-.03.51-.11,1.03-.16,1.54h-31.7Z"/>
        <path class="cls-4" d="m551.68,449.57c4.49-5.4,4.94-14.13,1.23-17.88,1.32,5.91.26,11.54-1.23,17.88Z"/>
        <path class="cls-3" d="m550.38,123.11c-.75,1.88-.51,4.63-3.51,4.71-1.57.04-2.2-1.36-1.82-2.76.53-1.99.35-4.74,3.17-5.04,1.76-.19,2.08,1.52,2.16,3.08Z"/>
        <path class="cls-3" d="m541.9,125.91c-.43,1.86-.44,4.26-2.98,4.72-1.65.3-1.85-1.35-1.48-2.41.66-1.94-.17-4.93,2.52-5.52,1.72-.38,1.88,1.64,1.94,3.21Z"/>
        <g>
          <path class="cls-5" d="m207.13,228.94l.14.13c-2.13-2.03-4.83-1.54-7.32-1.42-12.58.6-25.15,1.55-37.71,2.46-25,1.8-50.07,2.68-74.99,5.65-19.66,2.34-39.32,4.52-58.52,9.62-5.7,1.51-9.43,5.56-9.47,10.72-.1,12.61-.44,25.2-1.4,37.8-.9,11.8-.12,23.67.56,35.49.49,8.59,1.12,17.2,2.25,25.73.81,6.16,4.01,8.15,10.13,7.73,18.96-1.29,37.9-3.19,56.85-4.25,30.81-1.72,61.44-5.56,92.28-6.89,10.49-.45,20.9-2.78,31.46-3.3.34-.02.67-.31.74-.35,0-4.28.03-8.38,0-12.47-.07-9.27.11-18.55-.31-27.81-1.13-24.7-2.34-49.38-.46-74.09.26-3.46-.99-4.79-4.23-4.74Z"/>
          <path class="cls-2" d="m277.57,336.15c1.51,0,2.78.03,4.06,0,27.15-.69,54.29-.36,81.43.37,17.64.47,35.27.93,52.9,1.59,14.67.55,29.33,1.34,43.99,2.16,2.78.16,4.13-.33,5.38-3.28,2.47-5.8,3.05-11.91,4.45-17.9,7.44-31.7,15.12-63.34,22.69-95.01.34-1.42,1.54-3.12-.01-4.29-1.42-1.06-2.96.1-4.31.78-8.74,4.38-17.32,9.1-26.22,13.14-15.23,6.9-30.6,13.48-46,19.97-7.86,3.31-15.34,7.25-22.65,11.62-6.89,4.12-11.17,3.79-17.23-1.24-1.41-1.17-2.71-1.21-4.26-.96-2.75.45-5.53.43-7.8-1.3-4.29-3.27-9.04-5.84-13.2-9.36-3.84-3.26-6.35-7.67-10.67-10.53-10.31-6.81-20.36-14.02-28.62-23.39-3.05-3.46-6.27-6.76-9.85-10.6-3.52,6.43-6.89,12.31-10.01,18.33-7.81,15.08-13.91,31-22.13,45.89-.81,1.47-.56,2.99-.37,4.52.98,7.89,1.82,15.81,2.96,23.68,1.71,11.8,3.02,23.67,5.45,35.82Z"/>
          <path class="cls-7" d="m271.97,359.53c.89,5.74,1.72,10.94,2.49,16.16.2,1.38.76,2.41,1.98,3.11,4.34,2.52,8.6,5.16,13.25,7.13,7.22,3.07,14.45,6.13,21.52,9.52,23.45,11.24,47.01,22.17,71.32,31.48,13.21,5.06,27.17,6.82,40.66,10.58,27.71,7.72,55.59,14.34,84.57,14.59,2.28.02,4.51.6,6.85-.26,5.17-1.91,9.45-5.2,13.58-8.64,6.77-5.62,7.88-14.61-1.18-19.57-7.31-4-14.54-7.8-22.93-9.69-14.94-3.37-28.94-9.84-43.22-15.28-9.25-3.52-18.17-7.85-27.9-10.05-13.85-3.12-26.7-9.4-40.47-12.82-29.41-7.32-59.32-11.36-89.48-13.82-1.66-.14-3.34-.31-4.98-.62-8.51-1.58-17.12-1.44-26.06-1.84Z"/>
          <path class="cls-8" d="m358.28,58.03c-4.3-.82-8.37-.83-12.49-.19-9.02,1.39-18.08,2.62-27.15,3.59-8.82.95-17.64,1.84-26.34,3.67-1.18.25-2.07.67-2.87,1.67-3.66,4.53-8.07,8.27-12.54,11.98-4.13,3.43-9,6.12-11.71,11.06-3.09,5.64-6.16,11.3-9.2,16.97-9.25,17.24-16.08,35.37-19.88,54.58-4.73,23.9-7.65,48.03-9.45,72.32-1.04,14-2.74,27.95-2.56,42.01.29,22.92,1.01,45.84.56,68.77-.02.88-.18,1.82.83,2.8,4.13-.82,8.64-.78,12.8-2.81-.14-3.94-1.92-7.36-2.46-11.04-.56-3.82-1.02-7.65-1.71-11.45-1.48-8.19,3.88-16.13,12-18.01,4.61-1.07,8.27.03,11.55,3.41,4.47,4.62,6.79,10.18,8.24,16.32,1.36,5.75,1.5,11.67,2.35,17.73,2.27-.58,4.2-.8,5.44-2.27-1.89-6.98-2.24-14.06-3.51-20.98-2.25-12.23-3.37-24.66-5.18-36.98-1.12-7.57-1.48-15.2-.73-22.73,1.54-15.49,1.71-31.09,4.14-46.51,1.69-10.71.73-21.63,2.33-32.34,1.17-7.88,3.39-15.6,4.53-23.48,1.99-13.84,5.31-27.25,11.89-39.64,6.17-11.63,12.94-23.1,22.87-31.84,11.45-10.08,24.76-17.51,38.96-23.2,3.07-1.23,6.21-2.28,9.32-3.41Z"/>
          <path class="cls-2" d="m414.81,177.26c-25.12.32-47.23,1.83-69.39,1.61-8.72-.09-17.53.03-25.84,3.5-1.83.76-3.46,1.61-4.49,3.42-2.6,4.59-5.35,9.09-7.85,13.72-1.14,2.11-2.26,4.39-.03,6.72,8.35,8.74,16.44,17.69,26.4,24.8,5.09,3.63,10.97,6.43,14.93,11.46,2.83,3.59,6.22,6.52,9.7,9.35,6.15,4.99,12.58,6.82,20.72,3.96,7.21-2.54,13.91-6.01,20.87-9,12.26-5.26,25.21-8.72,36.91-15.55,18.99-11.08,38.77-20.76,57.6-32.16,7.34-4.44,9.89-11.83,12.67-19.12.87-2.28-.08-3.79-2.52-5.11-4.28-2.31-8.48-1.16-12.81-.96-26.62,1.22-53.24,2.33-76.89,3.35Z"/>
          <path class="cls-8" d="m182.02,87.86c-1.23.26-2.47.48-3.68.79-14.45,3.7-29.03,6.84-43.36,11.11-9.37,2.79-18.66,5.82-27.99,8.69-1.2.37-2.46.65-3.47,1.58-10.68,9.78-19.24,20.78-23.79,34.93-4.67,14.53-8.75,29.04-9.56,44.37-.54,10.28-1.55,20.53-2.22,30.8-.31,4.69-1.95,9.26-1.47,14.38,1.6-.17,2.98-.3,4.35-.45,12.91-1.4,25.79-3.34,38.74-4.06,12.84-.71,25.65-1.99,38.5-2.5,2.07-.08,2.79-.87,2.03-2.91-3.01,0-5.95-.14-8.87.03-9.89.58-19.78,1.29-29.67,1.89-1.63.1-3.9.31-4.01-1.9-.12-2.49,2.35-1.83,3.85-2,8.45-.97,16.94-1.44,25.43-1.66,4.59-.12,9.19-.02,13.72-.02.23-1.69.37-2.44.44-3.2,1.84-21.29,3.36-42.64,6.84-63.73,3.86-23.37,7.31-47.04,24.19-66.14Z"/>
          <path class="cls-6" d="m352.09,174.65c1.43,1.39,2.82,1.25,4,.95,4.32-1.07,8.7-.84,13.07-.84,15.46.02,30.9-.58,46.33-1.55,17.99-1.12,35.98-2.1,53.98-3.11,8.74-.49,17.5-.67,26.21-1.44,5.38-.48,10.72-1.2,16.14-1.02,5.76.19,8.21,2.35,8.73,8.14.5,5.6-.25,11.07-2.72,16.19-.62,1.3-1.23,2.55-1.18,4.02.28,7.82-1.52,15.35-3.14,22.91-5.73,26.69-12.06,53.25-16.73,80.16-1.17,6.72-2.16,13.48-3.28,20.21-.45,2.7.35,4.83,2.59,6.38,2.17,1.51,3.87.11,5.65-.93,2.89-1.68,4.96-4.02,6.2-7.14,4.09-10.29,7.93-20.67,11.36-31.19,1.52-4.65,2.74-9.38,4.58-13.93,7.11-17.66,14.44-35.24,21.08-53.08,6.78-18.21,12.73-36.72,18.39-55.32,3.06-10.05,6.11-20.11,9.44-31.08-3.64,4.2-6.76,7.59-9.65,11.17-3.89,4.82-9.22,7.37-14.99,7.87-18.22,1.58-36.56,2.18-54.79,1.44-25.47-1.03-50.94-1.7-76.41-2.43-12.74-.36-25.51-.14-38.26-.04-3.98.03-7.31-.39-7.3-5.96-1.95,1.11-4.09-1.2-5.38,1.58-4.39,9.43-10.03,18.25-13.91,28.05Z"/>
          <path class="cls-6" d="m577.79,108.49c-5.65.84-10.45,1.63-15.28,2.25-14.45,1.85-29.03,1.22-43.52,2.37-21.31,1.7-42.67,1.82-64.04,1.64-22.66-.18-45.32-.17-67.99-.32-2.69-.02-4.72.5-5.97,3.14-3.61,7.62-7.32,15.19-11.15,23.09,1.21.11,1.94.22,2.68.24,14.02.39,28.02.63,42.04,1.47,20.8,1.25,41.68,1.12,62.52,1.59,6.18.14,12.37.1,18.53.5,16.51,1.07,32.92.04,49.24-2.24,5.18-.72,9.87-2.55,13.2-7.6,3.29-5,6.73-10.08,11.16-14.26,3.42-3.22,5.58-7.28,8.58-11.87Z"/>
          <path class="cls-7" d="m462.71,109.72c-1.89-6.14-6.61-9.49-9.79-13.91-2.13-2.96-4.53-5.84-7.35-8.37-8.83-7.89-19.12-13.45-29.43-18.98-20.55-11.02-41.58-11.72-63.12-2.87-12.71,5.22-24.15,12.61-35.52,20.11-5.67,3.74-9.82,9.15-14.09,15.74,1.76-1.09,2.6-1.63,3.46-2.15,10.13-6.12,20.9-10.59,32.71-12.16,2.95-.39,6.08-.92,8.63,1.63q-2.51,1.9-6.37,2.59c-14.67,2.68-28.26,7.87-39.91,17.42-2.89,2.37-5.71,4.9-8.21,9.15,1.99-1.29,3.02-2.02,4.11-2.65,9.91-5.76,19.84-11.83,31.06-14.43,15.85-3.66,32.14-3.34,47.17,2.7,12.7,5.11,25.25,6.94,38.62,6.27,8.74-.43,17.51-.09,26.27-.09,7.08,0,14.15,0,21.76,0Z"/>
          <path class="cls-8" d="m65.29,127.56c-6.63,4.09-13.19,8.13-19.06,13.38-13.83,12.35-25.86,25.7-31.81,43.79-5.77,17.53-11.24,34.97-10.71,53.8.32,11.48,1.93,22.86,2.14,34.29.43,22.91,2.27,45.79,1.6,68.74-.23,7.78-.04,15.63,1.26,23.56,3.92.17,7.45-.44,11.28-1.38-2.61-3.82-3.75-7.62-3.96-11.88-.36-7.19-1.5-14.34-1.73-21.53-.38-12.08-1.38-24.17-.53-36.25.78-11.04,1.35-22.09,1.3-33.16-.05-11.6,3.92-16.71,15.12-19.46,4.34-1.07,8.66-2.24,13.02-3.37,0-2.8-.01-5.35,0-7.91.12-21.95,2.66-43.67,5.88-65.35,1.27-8.58,4.29-16.37,8.71-23.75,2.64-4.41,4.99-9,7.47-13.5Z"/>
          <path class="cls-8" d="m194.82,85.62c-1.73-.47-2.51.16-3.33.82-7.35,5.92-12.84,13.29-16.73,21.84-6.03,13.27-8.26,27.55-10.98,41.7-2.87,14.95-3.42,30.17-5.36,45.22-1.03,8-2.11,16.01-1.94,24.44,1.63,0,3.02-.07,4.4.02,1.31.09,3.25-.44,3.31,1.6.04,1.75-1.74,1.48-2.97,1.64-1.02.13-2.03.37-3.06.43-2.39.13-2.64,1.36-2.1,2.88,5.22,0,10.1.06,14.97-.01,13.5-.19,26.96-3.98,40.73-.48.69-3.06.88-6.11.81-9.58-2.76,1.77-4.96,3.32-7.29,4.64-3.51,1.98-7.31,2.38-11.22,1.48-7.71-1.77-12.71-7.97-13.31-16.4-.73-10.3,3.01-17.31,10.98-20.41,1.91-.74,3.14-1.42,3.12-4.01-.12-23.05-.05-46.09-.03-69.14,0-8.87,0-17.75,0-26.67Z"/>
          <path class="cls-4" d="m194.47,45.84c-.07-10.42-.45-20.68.15-30.93.16-2.78-2.29-2.84-4.11-2.98-8.21-.63-16.21.34-23.67,4.02-10.05,4.96-19.95,6.76-31.14,2.66-10.09-3.7-20.73.19-21.35,15.69-.18,4.48-1.01,8.92-.59,13.43.1,1.08-.17,2.19-1.52,2.23-1.29.04-1.72-.97-1.76-2.09-.05-1.49-.01-2.97-.01-4.62q-9.13,3.43-9.1,12.37c0,1.8,0,3.6,0,5.41,0,6.38,0,12.76,0,19.21,6.88-1.97,9.47-4.56,9.11-8.9-.56-6.77,3.81-14.75,9.79-17.85,6.01-3.12,12.35-3.1,18.32-.62,8.12,3.37,15.6,1.59,23.15-1.39,2.75-1.08,5.43-2.32,8.15-3.47,7.85-3.3,16.09-2.57,24.57-2.17Z"/>
          <path class="cls-8" d="m261.73,70.48c-16.56,2.6-32.06,6.19-47.45,10.38-3.29.89-4.2,2.09-4.19,5.38.13,32.57.16,65.13,0,97.7-.02,3.63,1.4,5.55,4.52,7.5.44-14.56,3.71-28.21,6.55-41.89,4.35-20.93,11.95-40.59,23.58-58.69,4.71-7.34,10.91-13.27,17-20.38Z"/>
          <path class="cls-5" d="m92.9,113.23c-5.65,2.68-10.49,4.96-15.32,7.27-.33.16-.59.48-.85.76-6.86,7.42-11.58,16.24-16.4,25-3.26,5.92-5.29,12.21-6.35,18.9-3.01,19.08-4.84,38.28-5.91,57.55-.27,4.79-.66,9.66.59,14.45,3.26-.42,6.05-1.03,8.85-1.08,2.61-.05,3.38-1.07,3.81-3.58,2.3-13.35,2.61-26.87,3.76-40.32,2.41-28.02,7.62-55.08,27.01-77.17.16-.18.21-.46.8-1.8Z"/>
          <path class="cls-5" d="m283.83,66.65c-5.8,2.22-12.27.18-17.74,5.63-19.71,19.62-31.44,43.4-38.15,69.89-4.93,19.47-8.43,39.16-8.92,59.42-.41,16.83-3.31,33.55-3.54,50.44-.41,30.01,2.16,59.97,1.45,89.98-.04,1.84-.2,3.82.79,5.63,3.22-.14,2.1-2.54,2.09-4.01-.24-22.15-.56-44.29-.9-66.44-.28-18.58,1.97-37.03,3.47-55.48,1.64-20.25,4.49-40.4,8.39-60.39,5.31-27.25,17.27-51.61,31.35-75.13,1.4-2.34,3.39-4.15,5.59-5.8,5.62-4.22,11.34-8.32,16.12-13.74Z"/>
          <path class="cls-4" d="m205.69,4.6c-4.72.73-6.4,2.6-6.44,7.23-.22,26.51-.52,53.02-.59,79.53-.07,28.73.06,57.46.14,86.19,0,2.03-.48,4.09.3,6.41,2.05.16,4.15.33,6.58.52V4.6Z"/>
          <path class="cls-1" d="m270.16,380.08c-1.14-8.78-2.26-16.25-4.29-23.55-3.09-11.08-2.52-22.73-5.28-33.86-1.17-4.74-3.34-8.85-6.78-12.33-1.7-1.72-3.61-2.22-5.96-1.84-5.87.93-9.93,6.41-9.05,12.25,2.34,15.53,6.34,30.66,11,45.64.28.91.67,1.63,1.42,2.2,5.59,4.33,12.23,6.84,18.94,11.49Z"/>
          <path class="cls-1" d="m378.08,109.65c-15.05-5.6-30.1-6.63-45.27-4.29-13.5,2.08-36.43,14.96-39.39,21.28,24.95-12.78,50.26-13.82,75.75-2.27,3.08-5.14,5.19-10,8.91-14.72Z"/>
          <path class="cls-4" d="m442.14,378.77c.62,1.76,1.92,1.86,2.9,2.31,13.62,6.1,27.26,12.16,40.9,18.23,16.27,7.25,33.4,12.75,48.66,23.96-2.54-7.2-6.81-12.13-12.9-14.87-19.83-8.91-39.81-17.51-59.78-26.1-6.21-2.67-12.98-2.43-19.78-3.53Z"/>
          <path class="cls-4" d="m211.9,202.06c.39-9.72-9.19-16.97-17.52-13.26-9.42,4.19-11.9,18.58-4.44,25.79,1.04,1,2.25,1.67,3.62,2.13,9.61,3.25,17.89-3.36,18.34-14.66Z"/>
          <path class="cls-4" d="m366.92,128.57c-4.1-2.48-8.86-3.22-13.32-4.75-16-5.47-31.68-3.12-47.24,2.1-6.4,2.15-12.16,5.5-18.01,8.77-2.16,1.21-3.28,2.45-3.12,5.28,3.86-3.19,7.77-5.48,12.18-7.11,15.29-5.63,30.97-7.24,47.12-5.63,6.18.61,12.32,1.04,17.95,3.97,2.68,1.4,4.08.48,4.44-2.64Z"/>
          <path class="cls-4" d="m524.77,452.11c.16.32.33.64.49.97,5.6-.39,11.21-.78,16.81-1.18,1.87-.13,2.99-1.31,3.89-2.79,6.04-9.89,3.22-20.38-7.29-28.13,4.54,14.57-3.66,23.32-13.91,31.14Z"/>
          <path class="cls-4" d="m363.2,136.83c-4.14-2.05-8.14-4.04-12.57-4.24-10.9-.51-21.83-2.34-32.73-.2-12.03,2.36-24.04,4.77-33.41,13.77-2.68,2.58-4.22,5.37-4.38,9.07,1.56-.37,2.39-1.6,3.43-2.49,15.58-13.32,33.46-19.86,54.04-18.18,7.45.61,14.8,1.98,21.88,4.51,1.96.7,3.58.8,3.74-2.25Z"/>
          <path class="cls-3" d="m202.08,382.7c.35,0,.71,0,1.06-.01.13-2.17.12-4.35.41-6.5,1.85-13.61-1.52-10.22,11.62-15.61-2.63.32-5.24.73-7.82,1.32-2.13.49-4.22,1.93-4.49,3.83-.82,5.61-1.26,11.3-.78,16.97Z"/>
          <path class="cls-3" d="m203.31,742.37c-1.07-.33-2.14-.66-3.46-1.07,1.44-17.63,1.63-35.29,4.19-52.76.23-1.57.18-3.85,2.55-3.55,2.06.26,1.64,2.36,1.57,3.82-.77,17.87-1.66,35.74-3.3,53.56h-1.55Z"/>
          <path class="cls-3" d="m215.44,509.89c2.18,1.16,1.68,3,1.71,4.58.27,12.11.21,24.21-.47,36.31-.8,14.15-1.32,28.3-.46,42.48.85,13.89-2.05,27.56-3.11,41.34-1.1,14.36-2.24,28.77-5.08,42.95-.64,3.19-.62,3.39-2.7,5.09-1.79-.76-1.22-2.35-1.17-3.66.5-13.65,2.07-27.22,3.29-40.81,1.57-17.56,3.94-35.06,3.01-52.78-.91-17.4.89-34.75,1.75-52.11.31-6.17.74-12.33,1.21-18.49.13-1.72-.05-3.67,2-4.89Z"/>
          <path class="cls-3" d="m205.22,628.74c-1.49,11.67-1.69,23.42-3.95,34.96-.12.63-.19,1.29-.41,1.88-.44,1.16-.68,2.82-2.42,2.41-1.42-.33-1.23-1.81-1.15-2.94.84-12.46,1.73-24.92,2.58-37.38.37-5.4.68-10.8,1.06-16.19.11-1.53.15-3.53,2.15-3.53,2.38,0,2.11,2.18,2.12,3.81.04,5.66.02,11.32.02,16.99Z"/>
          <path class="cls-3" d="m203.99,577.12c0-8.21-.04-16.42.03-24.63.01-1.44-.18-3.62,1.98-3.49,1.77.1,1.54,2.15,1.59,3.48.64,15.81-.1,31.59-1.34,47.34-.11,1.43-.37,3.26-2.05,3.22-2.12-.04-1.86-2.15-1.88-3.6-.07-7.44-.03-14.89-.03-22.33.56,0,1.12,0,1.68,0Z"/>
          <path class="cls-3" d="m218.96,426.01c-1.4-1.34-.92-2.84-.92-4.18,0-6.43.25-12.84,1.35-19.19.22-1.25.44-2.86,2.11-2.74,1.99.14,1.3,1.84,1.21,3.02-.46,6.4-.93,12.81-1.48,19.2-.13,1.49-.27,3.13-2.28,3.89Z"/>
          <path class="cls-3" d="m218.19,431.74c3.63,4.35,3.04,14.89-.96,18.69-1.3-6.45.17-12.11.96-18.69Z"/>
          <path class="cls-3" d="m297.05,284.58c-.36,1.95-.44,4.31-3.11,4.55-1.62.14-2.17-1.29-1.84-2.7.44-1.9.21-4.48,2.87-4.87,2-.29,1.96,1.54,2.09,3.02Z"/>
          <path class="cls-3" d="m282.92,295.33c-.25,1.92-.79,3.54-2.75,3.79-1.47.19-2.48-.78-2.36-2.29.14-1.68.73-3.35,2.71-3.63,1.57-.22,2.2.9,2.4,2.13Z"/>
          <path class="cls-3" d="m284.36,311.05c-1.25-.23-2.1-.94-1.8-2.09.5-1.91.91-4.2,3.3-4.55,1.13-.17,1.62,1.31,1.38,2.29-.43,1.76-.5,3.91-2.88,4.35Z"/>
          <path class="cls-3" d="m455.41,324.98c-1.55-.07-3.1-.26-3.18-2.09-.07-1.6,1.22-2.14,2.63-2.07,1.53.08,3.36.21,3.5,2.18.14,2.03-1.69,1.81-2.95,1.97Z"/>
          <path class="cls-3" d="m82.21,263.17c-10.87,7.82-17.47,18.45-24.18,29-.97,1.53-.11,4.53-2.77,4.55-2.75.02-2.81-3.03-3.87-4.8-4.22-7.07-8.51-14.06-14.35-19.9-1.18.46-.85,1.36-.82,2.05.75,17.3-1.02,34.5-1.99,51.73-.43,7.71-.5,15.45-.73,23.17-.02.77-.01,1.55-.13,2.31-.17,1.07-.58,2.09-1.85,2.11-1.25.02-1.87-.97-1.94-2.03-.15-2.18-.07-4.37-.1-6.56-.23-17.55,1.76-34.99,2.63-52.49.43-8.51-.19-17.01.23-25.5.07-1.48-.42-3.16,1.59-4.61,8.28,7.72,15.57,16.31,21.16,26.86,2.65-4.21,4.94-7.91,7.3-11.57,2.8-4.35,6.03-8.31,9.89-11.81,3.52-3.19,7.12-6.36,9.44-10.65.59-1.08,1.4-2.45,2.96-1.94,1.3.42,1.23,1.84,1.37,2.97,1.37,10.97.49,21.88-1.26,32.72-2.9,17.95-4.69,36-5.28,54.17-.01.39-.05.77-.1,1.15-.3,1.92.32,4.9-2.59,4.7-2.7-.18-1.7-2.98-1.72-4.77-.29-22.25,3.34-44.12,6.49-66.04.69-4.8,1.3-9.62.61-14.81Z"/>
          <path class="cls-3" d="m117.11,308.29c-5.52,1.45-11.23,2.17-17.41,2.77-1.52,8.81-4.02,17.42-6.2,26.11-.56,2.24-1.25,4.46-1.97,6.66-.36,1.1-.87,2.4-2.32,2.11-1.77-.35-1.51-1.96-1.26-3.15,1.3-6.04,2.72-12.04,4.09-18.06,3.45-15.17,6.5-30.43,10.35-45.52,2.27-8.88,5.4-17.43,8.45-26.03,1.16-3.28,2.97-5.74,7.01-5.2,4.14.56,5.12,3.88,5.34,7.03.64,9.37,1.34,18.77,1.14,28.14-.36,17.1-.87,34.22-2.91,51.23-.24,2-.06,4.68-2.98,4.49-3.07-.2-2.85-3.03-2.64-5.11.74-7.43,1.54-14.85,1.72-22.31.02-1,.36-2.05-.4-3.17Zm-16.56-1.94c5.23-.57,9.96-1.12,14.67-2.42,2.34-.64,2.92-1.79,3.1-3.98,1.21-14.39.47-28.79.52-43.19,0-1.58-.08-3.33-2.35-4.48-8.03,17.17-11.24,35.5-15.94,54.07Z"/>
          <path class="cls-3" d="m145.69,333.87c1.79-.5,3.36-1.05,4.98-1.35,1.41-.26,2.57.35,2.98,1.82.37,1.3-.27,2.31-1.38,2.89-6.43,3.33-13.32,3.7-20.34,2.98-1.26-.13-2.14-.96-2.12-2.34.01-1.19.78-1.84,1.89-2.13.25-.06.51-.07.76-.16,2.21-.77,5.41.79,6.63-1.72,1.01-2.07.79-4.78.9-7.22,1.23-25.85,4.51-51.57,4.55-77.77-1.6-.67-3.51.18-5.37-.02-1.39-.15-2.68-.5-2.86-2.04-.19-1.6.99-2.34,2.4-2.42,6.29-.33,12.01-2.8,17.91-4.61.74-.23,1.49-.45,2.25-.52,1.54-.14,2.94.26,3.24,1.99.28,1.6-.92,2.19-2.26,2.6-2.71.83-5.38,1.78-8.1,2.57-1.73.5-2.48,1.42-2.45,3.31.48,27.74-2.54,55.31-3.94,82.96-.01.24.12.48.31,1.16Z"/>
          <path class="cls-3" d="m174.74,331.19c8.01.24,15.48-1.09,22.96-2.13,1.66-.23,2.62-1.44,2.48-3.35-.14-2.05-.16-4.12-.13-6.17.02-1.42.64-2.6,2.21-2.66,1.52-.06,2.42.97,2.49,2.41.13,3.08.39,6.21.04,9.25-.38,3.27-3.64,3.98-6.03,4.61-8.62,2.26-17.47,3.07-26.38,3.27-2.76.06-3.48-1.52-3.21-4.04,2.27-20.97,4.63-41.94,5.66-63.02.44-8.87.58-17.75.88-26.62.06-1.66-.02-3.85,2.18-3.89,2.55-.04,2.27,2.33,2.32,4.07.71,24.37-.9,48.61-3.99,72.78-.63,4.97-.97,9.97-1.49,15.49Z"/>
          <path class="cls-3" d="m55.51,247.58c-2.17,3.09-17.62,5.8-21.2,3.83,7.12-2.96,14.11-3.61,21.2-3.83Z"/>
          <path class="cls-3" d="m27.09,250.65c2.07.07,3.13,1.26,3.14,3.14.02,2.49-1.65,3.6-3.89,3.91-1.84.25-3.04-.66-3.04-2.53,0-2.49,1.37-4,3.79-4.52Z"/>
          <path class="cls-3" d="m207.13,228.94c.35.82.91,1.61.99,2.46.22,2.18-.64,3.92-2.99,4.15-1.91.19-3.21-.99-3.4-2.93-.22-2.27.81-3.73,3.24-3.82.76-.03,1.53.17,2.29.27,0,0-.14-.13-.14-.13Z"/>
          <path class="cls-3" d="m210.32,341.11c-.13,1.91-1.32,3.07-3.45,3.02-1.78-.04-2.95-1.04-2.78-2.93.19-2.03,1.31-3.38,3.49-3.33,1.84.04,2.78,1.12,2.74,3.24Z"/>
          <path class="cls-3" d="m197.63,252.97c3.27,2.17,2.59,4.77,2.19,7.19-.12.73-.93,1.24-1.83.99-.82-.23-1.27-.86-1.4-1.67-.32-2.08.12-4.03,1.03-6.51Z"/>
          <path class="cls-3" d="m197.51,244.36c-.28,1.53-.44,3.1-2.14,2.92-1.77-.18-1.96-1.79-1.94-3.25.02-1.39.51-2.71,2.14-2.61,1.92.12,1.81,1.79,1.95,2.94Z"/>
          <path class="cls-3" d="m43.66,353.51c-.25,1.37-.08,3.14-2.06,3.06-1.67-.07-1.7-1.65-1.73-2.89-.04-1.41.1-3.07,1.99-3.01,1.62.05,1.65,1.62,1.8,2.84Z"/>
          <path class="cls-3" d="m293.83,378.17c0,2.51-1.2,3.57-3.4,3.03-1.7-.42-2.35-1.48-1.17-3.12.37-.51,1.21-.52.88-1.72-1.02-3.71-.6-4.05,3.19-3.38,1.14.2,2.28.42,3.38.75,1.48.45,3.29.95,2.88,2.93-.39,1.89-2.15,1.89-3.76,1.69-.5-.06-1.01-.09-2.01-.18Z"/>
          <path class="cls-3" d="m502.97,433.2c-1.88-.57-4.38-.81-4.68-3.42-.17-1.44,1.48-2.1,2.79-1.73,1.96.55,4.69.47,5.07,3.14.25,1.78-1.57,1.95-3.18,2.02Z"/>
          <path class="cls-3" d="m314.21,386.03c-1.82-.46-3.95-.74-4.05-3.23-.06-1.53,1.11-2.41,2.58-2.02,1.83.48,3.91,1.11,4.18,3.37.22,1.77-1.32,1.87-2.71,1.88Z"/>
          <path class="cls-3" d="m514.84,427.25c1.89.84,4.21,1.62,4.63,4.23.2,1.22-1.12,1.76-2.18,1.4-2.08-.69-4.11-1.73-4.71-4.03-.33-1.26.87-1.65,2.26-1.6Z"/>
          <path class="cls-3" d="m415.81,231.26c2.06-2.57,48.19-26.5,50.21-26.27-.17,2.25-2,3.16-3.43,4.33-8.6,7-18.75,11.19-28.71,15.73-3.75,1.71-7.5,3.41-11.3,5-1.97.82-3.99,1.68-6.77,1.23Z"/>
          <path class="cls-3" d="m446.74,207.84c1.91-3.25,4.84-4.48,7.64-5.82.8-.39,1.81-.31,2.37.61.53.87.36,1.87-.38,2.43-2.71,2.03-5.53,3.88-9.63,2.77Z"/>
          <path class="cls-3" d="m456.35,195.63c-1.42-.2-2.7-.7-2.21-2.13.82-2.39,2.87-3.56,5.32-3.74,1.28-.09,2.41.72,2.05,2.13-.68,2.64-3.07,3.13-5.16,3.74Z"/>
          <path class="cls-3" d="m436.77,207.43c-1.02,0-1.82-.38-1.71-1.52.14-1.45,1.07-2.28,2.51-2.38,1.17-.08,2.12.54,1.96,1.75-.19,1.44-1.37,2.02-2.76,2.14Z"/>
          <path class="cls-3" d="m111.62,126.71c-.83-2.55-2.53-3.2-4.1-4.33,1.2-1.45,2.5-2.51,3.03-4.28.54-1.8,2.35-1.89,3.02-.09,1.03,2.77,1.12,5.66-1.95,8.7Z"/>
          <path class="cls-3" d="m121.17,127c-.42,1.47.02,3.91-2.15,3.89-2.11-.02-1.93-2.39-2.05-3.98-.11-1.43.14-3.19,1.89-3.3,2.12-.13,2.11,1.8,2.31,3.39Z"/>
          <path class="cls-3" d="m114.42,140.91c-1.86-1.15-1.97-2.7-2.09-4.22-.12-1.49-.61-3.39,1.72-3.45,2.03-.05,2.31,1.72,2.36,3.29.05,1.66-.22,3.27-1.99,4.38Z"/>
          <path class="cls-3" d="m86.33,227.61c-2.06,2.29-4.43,1.8-6.62,1.9-.78.04-1.54-.31-1.66-1.23-.12-.93.54-1.39,1.28-1.64,2.41-.84,4.62-.48,6.99.97Z"/>
          <path class="cls-3" d="m519.69,257.92c-.68,1.79-.7,4.42-3.55,4.48-1.44.03-1.56-1.54-1.32-2.66.45-2.05.66-4.62,3.31-4.89,1.59-.16,1.6,1.6,1.56,3.07Z"/>
          <path class="cls-3" d="m385.95,166.41c-.25,1.46.17,3.73-2.15,3.69-2.31-.04-1.91-2.3-2.02-3.87-.11-1.59.13-3.43,2.11-3.4,1.98.03,2.05,1.89,2.06,3.58Z"/>
          <path class="cls-3" d="m378.04,165.7c-1.49-.03-2.18-.72-2.16-1.88.03-1.69.35-3.39,2.35-3.8,1.19-.24,1.96.67,1.91,1.8-.07,1.65-.53,3.22-2.1,3.88Z"/>
          <path class="cls-3" d="m408.44,132.52c-1.5,2.38-3.11,2.65-4.6,2.64-4.74-.01-9.47-.21-14.21-.38-1.03-.04-2.15-.2-2.31-1.52-.16-1.29.83-1.95,1.81-2.13,5.98-1.14,11.95-1.19,17.82.73.49.16.95.42,1.49.67Z"/>
          <path class="cls-3" d="m16.88,210.22c-1.34-3.65-.86-7.12-.48-10.48.86-7.55,2.62-14.92,5.45-22,.24-.6.48-1.2.82-1.74.64-1,1.43-2.01,2.77-1.56,1.58.53,1.52,1.82,1.12,3.19-2.7,9.39-4.54,18.97-6.58,28.51-.33,1.57-.71,3.3-3.1,4.08Z"/>
          <path class="cls-3" d="m16.07,220.5c1.73,2.59,1.54,5.54,1.59,8.43.05,2.7.03,5.41,0,8.12,0,1.15-.51,2.07-1.72,2.21-1.03.12-1.88-.59-1.87-1.54,0-5.62-.94-11.32,1.13-16.8.06-.17.43-.21.87-.41Z"/>
          <path class="cls-3" d="m177.83,29.87c-.12,1.08.27,2.64-1.41,2.64-1.78,0-1.75-1.56-1.72-2.85.03-1.23-.26-2.94,1.61-2.83,1.74.11,1.42,1.8,1.51,3.04Z"/>
          <path class="cls-3" d="m254.38,322.05c-.53,2.55-1.59,4.64-4.62,4.66-2.69.01-4.71-2.37-4.44-5.16.26-2.68,1.83-4.34,4.5-4.23,2.75.12,4.37,1.83,4.57,4.73Z"/>
          <path class="cls-3" d="m199.66,194.03c3.32.04,6.6.4,8.05,3.99,1.53,3.79-.45,10.32-3.61,12.68-2.39,1.79-7.56,1.74-10.19-.36-4.56-3.63-1.67-8.4-1.37-12.58.21-2.88,3.18-3.71,5.96-3.73.39,0,.77,0,1.16,0Zm-3.97,10.06c-.49,2.26,1.32,2.98,3.38,3.05,3.63.13,3.75-2.77,4.08-5.27.35-2.61-1.55-2.71-3.43-2.87-3.51-.29-3.89,2.03-4.03,5.09Z"/>
        </g>
      </g>
    </g>
  </g>
</svg>