<?xml version="1.0" encoding="UTF-8"?>
<svg id="Layer_2" data-name="Layer 2" xmlns="http://www.w3.org/2000/svg" xmlns:xlink="http://www.w3.org/1999/xlink" viewBox="0 0 708.86 462.54">
  <defs>
    <style>
      .cls-1 {
        fill: #e14fa1;
      }

      .cls-1, .cls-2, .cls-3, .cls-4, .cls-5, .cls-6, .cls-7, .cls-8, .cls-9, .cls-10, .cls-11, .cls-12, .cls-13, .cls-14, .cls-15, .cls-16, .cls-17, .cls-18, .cls-19, .cls-20, .cls-21, .cls-22, .cls-23, .cls-24, .cls-25, .cls-26, .cls-27, .cls-28, .cls-29, .cls-30, .cls-31, .cls-32, .cls-33, .cls-34, .cls-35, .cls-36, .cls-37, .cls-38, .cls-39, .cls-40, .cls-41, .cls-42, .cls-43, .cls-44, .cls-45, .cls-46, .cls-47, .cls-48, .cls-49, .cls-50, .cls-51, .cls-52, .cls-53, .cls-54, .cls-55, .cls-56, .cls-57, .cls-58, .cls-59, .cls-60, .cls-61, .cls-62, .cls-63, .cls-64, .cls-65, .cls-66, .cls-67, .cls-68, .cls-69 {
        stroke-miterlimit: 10;
      }

      .cls-1, .cls-15 {
        stroke-width: .5px;
      }

      .cls-1, .cls-15, .cls-30, .cls-38, .cls-42, .cls-46, .cls-62 {
        stroke: #fd6b04;
      }

      .cls-2 {
        stroke-width: .59px;
      }

      .cls-2, .cls-5, .cls-7, .cls-9, .cls-11, .cls-15, .cls-16, .cls-22, .cls-32, .cls-35, .cls-39, .cls-42, .cls-43, .cls-45, .cls-70, .cls-53, .cls-55, .cls-58, .cls-59, .cls-61, .cls-63, .cls-64, .cls-67 {
        fill: none;
      }

      .cls-2, .cls-5, .cls-9, .cls-11, .cls-13, .cls-17, .cls-18, .cls-21, .cls-22, .cls-23, .cls-24, .cls-25, .cls-26, .cls-29, .cls-31, .cls-33, .cls-36, .cls-41, .cls-43, .cls-44, .cls-47, .cls-48, .cls-49, .cls-51, .cls-52, .cls-53, .cls-54, .cls-55, .cls-58, .cls-63, .cls-64, .cls-66, .cls-67, .cls-69 {
        stroke: #361e6f;
      }

      .cls-2, .cls-12, .cls-14, .cls-35, .cls-39, .cls-41, .cls-58 {
        stroke-linecap: round;
      }

      .cls-3 {
        stroke-width: .76px;
      }

      .cls-3, .cls-4, .cls-7, .cls-8, .cls-10, .cls-27, .cls-56, .cls-61, .cls-65, .cls-68 {
        stroke: #5a61ee;
      }

      .cls-3, .cls-4, .cls-8, .cls-10, .cls-18, .cls-27, .cls-56, .cls-65, .cls-68, .cls-71 {
        fill: #5a61ee;
      }

      .cls-4, .cls-21 {
        stroke-width: .82px;
      }

      .cls-72, .cls-73, .cls-30, .cls-38, .cls-46, .cls-62 {
        fill: #fd6b04;
      }

      .cls-5, .cls-52, .cls-65 {
        stroke-width: .8px;
      }

      .cls-6 {
        stroke-width: 1.27px;
      }

      .cls-6, .cls-74, .cls-12, .cls-14, .cls-19, .cls-28, .cls-34, .cls-44 {
        fill: #9d3bc6;
      }

      .cls-6, .cls-12, .cls-14, .cls-19, .cls-28, .cls-34 {
        stroke: #9d3bc6;
      }

      .cls-74, .cls-75 {
        opacity: .23;
      }

      .cls-7 {
        stroke-width: .5px;
      }

      .cls-8 {
        stroke-width: 2.19px;
      }

      .cls-9 {
        stroke-width: .65px;
      }

      .cls-10 {
        stroke-width: .75px;
      }

      .cls-76, .cls-25, .cls-33, .cls-41, .cls-47, .cls-48, .cls-49, .cls-57, .cls-75, .cls-66, .cls-69 {
        fill: #361e6f;
      }

      .cls-11 {
        stroke-width: 3.31px;
      }

      .cls-12 {
        stroke-width: .21px;
      }

      .cls-12, .cls-14, .cls-73, .cls-41 {
        opacity: .6;
      }

      .cls-13, .cls-17, .cls-20, .cls-21, .cls-23, .cls-29, .cls-31, .cls-36, .cls-51, .cls-52, .cls-54, .cls-77, .cls-60 {
        fill: #f1e3c8;
      }

      .cls-78 {
        clip-path: url(#clippath-2);
      }

      .cls-14 {
        stroke-width: .2px;
      }

      .cls-16 {
        stroke-dasharray: 0 0 5.78 5.78;
      }

      .cls-16, .cls-32, .cls-45 {
        stroke-width: .45px;
      }

      .cls-16, .cls-32, .cls-45, .cls-50, .cls-57 {
        stroke: #f8c892;
      }

      .cls-17 {
        stroke-width: .73px;
      }

      .cls-19 {
        stroke-width: 1.32px;
      }

      .cls-20 {
        stroke-width: 2.15px;
      }

      .cls-20, .cls-35, .cls-39 {
        stroke: #f1e3c8;
      }

      .cls-22, .cls-36 {
        stroke-width: .71px;
      }

      .cls-23, .cls-44, .cls-47 {
        stroke-width: 1.24px;
      }

      .cls-24 {
        fill: #fff;
      }

      .cls-26 {
        fill: #fb3f9b;
      }

      .cls-26, .cls-30, .cls-53 {
        stroke-width: .85px;
      }

      .cls-27 {
        stroke-width: .89px;
      }

      .cls-28 {
        stroke-width: 1.21px;
      }

      .cls-29 {
        stroke-width: .79px;
      }

      .cls-31 {
        stroke-width: .71px;
      }

      .cls-32 {
        stroke-dasharray: 0 0 6.14 6.14;
      }

      .cls-79 {
        clip-path: url(#clippath-1);
      }

      .cls-33 {
        stroke-width: .85px;
      }

      .cls-34 {
        stroke-width: .55px;
      }

      .cls-35 {
        stroke-width: 2.59px;
      }

      .cls-37 {
        fill: #412485;
        stroke: #412485;
        stroke-width: 1.1px;
      }

      .cls-38 {
        opacity: .29;
      }

      .cls-39 {
        stroke-width: 3.48px;
      }

      .cls-40 {
        fill: #2e195e;
        stroke: #2e195e;
        stroke-width: .28px;
      }

      .cls-41 {
        stroke-width: .23px;
      }

      .cls-42 {
        stroke-width: .41px;
      }

      .cls-43, .cls-54 {
        stroke-dasharray: 0 5.75;
        stroke-width: .99px;
      }

      .cls-46, .cls-51 {
        stroke-width: .74px;
      }

      .cls-80 {
        clip-path: url(#clippath);
      }

      .cls-81, .cls-50 {
        fill: #f8c892;
      }

      .cls-48 {
        stroke-width: .86px;
      }

      .cls-49 {
        stroke-width: .56px;
      }

      .cls-50 {
        stroke-width: 1.19px;
      }

      .cls-82 {
        clip-path: url(#clippath-3);
      }

      .cls-55 {
        stroke-width: 2.21px;
      }

      .cls-56 {
        stroke-width: 2.01px;
      }

      .cls-57 {
        stroke-width: 1.17px;
      }

      .cls-58 {
        stroke-width: .51px;
      }

      .cls-59, .cls-60 {
        stroke: #0a364d;
      }

      .cls-62 {
        opacity: .52;
      }

      .cls-63 {
        stroke-dasharray: 0 5.95;
        stroke-width: .99px;
      }

      .cls-64 {
        stroke-width: .59px;
      }

      .cls-66 {
        stroke-width: .83px;
      }

      .cls-68 {
        stroke-width: .98px;
      }

      .cls-69 {
        stroke-width: .34px;
      }
    </style>
    <clipPath id="clippath">
      <rect class="cls-54" x="9.21" y="163.54" width="198.91" height="152.37" transform="translate(-28.83 15.29) rotate(-7.11)"/>
    </clipPath>
    <clipPath id="clippath-1">
      <rect class="cls-70" x="9.21" y="163.54" width="198.91" height="152.37" transform="translate(-28.83 15.29) rotate(-7.11)"/>
    </clipPath>
    <clipPath id="clippath-2">
      <rect class="cls-63" x="498.54" y="26.4" width="196.38" height="150.43" transform="translate(1176.3 276.29) rotate(-172.89)"/>
    </clipPath>
    <clipPath id="clippath-3">
      <rect class="cls-70" x="498.54" y="26.4" width="196.38" height="150.43" transform="translate(1176.3 276.29) rotate(-172.89)"/>
    </clipPath>
  </defs>
  <g id="OBJECTS">
    <g>
      <g>
        <line class="cls-67" x1="7.05" y1="432.43" x2="698.35" y2="432.43"/>
        <g>
          <polygon class="cls-47" points="554.15 437.98 135.12 437.98 116.27 113.34 575.49 113.34 554.15 437.98"/>
          <polygon class="cls-23" points="536.14 418.17 154.53 418.17 137.36 133.15 555.56 133.15 536.14 418.17"/>
          <g>
            <polygon class="cls-31" points="572.74 447.12 115.05 447.13 135.34 437.98 552.73 437.98 572.74 447.12"/>
            <rect class="cls-69" x="113.58" y="447.63" width="460.62" height="14.74"/>
            <rect class="cls-31" x="304.58" y="447.12" width="78.62" height="4.41"/>
          </g>
        </g>
      </g>
      <g>
        <polygon class="cls-15" points="357.79 58.98 350.21 68.8 342.63 58.98 350.21 48.47 357.79 58.98"/>
        <polygon class="cls-15" points="617.84 389.77 607.12 399.96 600 387 610.84 376.02 617.84 389.77"/>
        <polygon class="cls-42" points="59.11 131.68 55.78 140.58 48.02 135.1 51.19 125.71 59.11 131.68"/>
        <polygon class="cls-15" points="646.67 222.63 641.56 229.25 636.45 222.63 641.56 215.54 646.67 222.63"/>
        <g>
          <path class="cls-72" d="m117.32,72.12c.61,1.36,1.08,2.77,1.52,4.19.42,1.42.8,2.86,1.04,4.33-.61-1.36-1.08-2.77-1.52-4.19-.42-1.42-.8-2.86-1.04-4.33Z"/>
          <path class="cls-72" d="m123.23,91.81c-.61-1.36-1.08-2.77-1.52-4.19-.42-1.42-.8-2.86-1.04-4.33.61,1.36,1.08,2.77,1.52,4.19.42,1.42.8,2.86,1.04,4.33Z"/>
          <path class="cls-72" d="m110.43,84.92c1.36-.61,2.77-1.08,4.19-1.52,1.42-.42,2.86-.8,4.33-1.04-1.36.61-2.77,1.08-4.19,1.52-1.42.42-2.86.8-4.33,1.04Z"/>
          <path class="cls-72" d="m130.12,79.01c-1.36.61-2.77,1.08-4.19,1.52-1.42.42-2.86.8-4.33,1.04,1.36-.61,2.77-1.08,4.19-1.52,1.42-.42,2.86-.8,4.33-1.04Z"/>
        </g>
        <g>
          <path class="cls-72" d="m677.09,290.65c.49,1.41.83,2.86,1.13,4.31.29,1.45.54,2.92.64,4.41-.49-1.41-.83-2.86-1.13-4.31-.29-1.45-.54-2.92-.64-4.41Z"/>
          <path class="cls-72" d="m681.18,310.79c-.49-1.41-.83-2.86-1.13-4.31-.29-1.45-.54-2.92-.64-4.41.49,1.41.83,2.86,1.13,4.31.29,1.45.54,2.92.64,4.41Z"/>
          <path class="cls-72" d="m669.06,302.76c1.41-.49,2.86-.83,4.31-1.13,1.45-.29,2.92-.54,4.41-.64-1.41.49-2.86.83-4.31,1.13-1.45.29-2.92.54-4.41.64Z"/>
          <path class="cls-72" d="m689.21,298.67c-1.41.49-2.86.82-4.31,1.13-1.45.29-2.92.54-4.41.64,1.41-.49,2.86-.83,4.31-1.13,1.45-.29,2.92-.54,4.41-.64Z"/>
        </g>
        <g>
          <path class="cls-72" d="m91.7,388.9c.28,1.06.35,2.12.36,3.19-.01,1.06-.07,2.12-.36,3.19-.28-1.06-.35-2.12-.36-3.19.01-1.06.08-2.12.36-3.19Z"/>
          <path class="cls-72" d="m91.7,403.63c-.28-1.06-.35-2.12-.36-3.19.01-1.06.07-2.12.36-3.19.28,1.06.35,2.12.36,3.19-.01,1.06-.08,2.12-.36,3.19Z"/>
          <path class="cls-72" d="m84.33,396.26c1.06-.28,2.12-.35,3.19-.36,1.06.01,2.12.07,3.19.36-1.06.28-2.12.35-3.19.36-1.06-.01-2.12-.08-3.19-.36Z"/>
          <path class="cls-72" d="m99.06,396.26c-1.06.28-2.12.35-3.19.36-1.06-.01-2.12-.07-3.19-.36,1.06-.28,2.12-.35,3.19-.36,1.06.01,2.12.08,3.19.36Z"/>
        </g>
        <g>
          <path class="cls-72" d="m677.53,354.99c.19.74.24,1.48.25,2.22,0,.74-.05,1.48-.25,2.22-.2-.74-.24-1.48-.25-2.22.01-.74.06-1.48.25-2.22Z"/>
          <path class="cls-72" d="m677.53,365.26c-.19-.74-.24-1.48-.25-2.22,0-.74.05-1.48.25-2.22.2.74.24,1.48.25,2.22,0,.74-.06,1.48-.25,2.22Z"/>
          <path class="cls-72" d="m672.39,360.12c.74-.19,1.48-.24,2.22-.25.74,0,1.48.05,2.22.25-.74.2-1.48.24-2.22.25-.74-.01-1.48-.06-2.22-.25Z"/>
          <path class="cls-72" d="m682.67,360.12c-.74.19-1.48.24-2.22.25-.74,0-1.48-.05-2.22-.25.74-.2,1.48-.24,2.22-.25.74.01,1.48.06,2.22.25Z"/>
        </g>
        <g>
          <path class="cls-72" d="m392.22,23.2c.19.74.24,1.48.25,2.22,0,.74-.05,1.48-.25,2.22-.2-.74-.24-1.48-.25-2.22.01-.74.06-1.48.25-2.22Z"/>
          <path class="cls-72" d="m392.22,33.48c-.19-.74-.24-1.48-.25-2.22,0-.74.05-1.48.25-2.22.2.74.24,1.48.25,2.22-.01.74-.06,1.48-.25,2.22Z"/>
          <path class="cls-72" d="m387.08,28.34c.74-.19,1.48-.24,2.22-.25.74,0,1.48.05,2.22.25-.74.2-1.48.24-2.22.25-.74-.01-1.48-.06-2.22-.25Z"/>
          <path class="cls-72" d="m397.36,28.34c-.74.19-1.48.24-2.22.25-.74,0-1.48-.05-2.22-.25.74-.2,1.48-.24,2.22-.25.74.01,1.48.06,2.22.25Z"/>
        </g>
        <g>
          <path class="cls-72" d="m222.34,13.39c.19.74.24,1.48.25,2.22,0,.74-.05,1.48-.25,2.22-.2-.74-.24-1.48-.25-2.22.01-.74.06-1.48.25-2.22Z"/>
          <path class="cls-72" d="m222.34,23.67c-.19-.74-.24-1.48-.25-2.22,0-.74.05-1.48.25-2.22.2.74.24,1.48.25,2.22-.01.74-.06,1.48-.25,2.22Z"/>
          <path class="cls-72" d="m217.2,18.53c.74-.19,1.48-.24,2.22-.25.74,0,1.48.05,2.22.25-.74.2-1.48.24-2.22.25-.74-.01-1.48-.06-2.22-.25Z"/>
          <path class="cls-72" d="m227.48,18.53c-.74.19-1.48.24-2.22.25-.74,0-1.48-.05-2.22-.25.74-.2,1.48-.24,2.22-.25.74,0,1.48.06,2.22.25Z"/>
        </g>
        <circle class="cls-1" cx="69.26" cy="77.96" r=".91"/>
        <path class="cls-1" d="m44.54,412.91c0,.5-.41.91-.91.91s-.91-.41-.91-.91.41-.91.91-.91.91.41.91.91Z"/>
        <circle class="cls-1" cx="608.98" cy="265.09" r=".91"/>
        <circle class="cls-1" cx="304.03" cy="26.81" r=".91"/>
        <path class="cls-1" d="m686.64,253.05c0,.5-.41.91-.91.91s-.91-.41-.91-.91.41-.91.91-.91.91.41.91.91Z"/>
        <circle class="cls-1" cx="660.36" cy="413.82" r=".91"/>
        <path class="cls-1" d="m117.18,38.77c0,.5-.41.91-.91.91s-.91-.41-.91-.91.41-.91.91-.91.91.41.91.91Z"/>
        <circle class="cls-1" cx="462.48" cy="23.67" r=".91"/>
      </g>
      <g>
        <g>
          <g>
            <path class="cls-72" d="m436.67,216.06c-7.02-4.69-11.82-12.14-13.81-20.28-1.78-7.28-1.54-14.86-2.9-22.21-1.12-6.02-3.68-11.7-7.19-16.7-6.74-9.58-16.55-16.95-27.11-21.88-7.78-3.63-16.39-6.17-25.04-6.18-25.71-.04-50.47,18.18-58.48,42.54-.19.58-.37,1.16-.54,1.74l-.02.07c-1.89,6.51-1.35,13.39-2.83,19.97-1.7,7.54-6.54,14.27-13.27,18.11-34.03,19.44-56.4,52.31-56.4,89.6,0,59.72,57.35,108.12,128.1,108.12s128.1-48.41,128.1-108.12c0-34.37-19-64.99-48.62-84.79Z"/>
            <circle class="cls-72" cx="362.17" cy="117.27" r="20.22" transform="translate(23.16 290.44) rotate(-45)"/>
          </g>
          <g>
            <path class="cls-60" d="m404.71,253.52c-20.29-3.22-31.47,1.69-31.47,1.69v-20.98h-25.56l-1.87,20.86s-9.47,2.1-22.34,4.78l36.26,28.61,44.99-34.96Z"/>
            <path class="cls-24" d="m342.58,255.47c-3.82.45-8.25,1.22-13.1,2.56-4.92,1.36-9.19,3.01-12.74,4.62v151.11h95.42l-7.45-160.24c-4.23-.73-9.49-1.27-15.5-1.06-4.58.16-8.65.72-12.11,1.41-.9-2.28-1.8-4.56-2.7-6.84l-15.21,8.38-12.21-8.38-4.41,8.45Z"/>
            <g>
              <path class="cls-25" d="m363.6,281.92c0,.62-.51,1.13-1.13,1.13s-1.13-.51-1.13-1.13.51-1.13,1.13-1.13,1.13.51,1.13,1.13Z"/>
              <circle class="cls-25" cx="362.96" cy="260.22" r="1.13"/>
              <circle class="cls-25" cx="363.3" cy="309.35" r="1.13"/>
              <path class="cls-25" d="m364.43,331.71c0,.62-.51,1.13-1.13,1.13s-1.13-.51-1.13-1.13.51-1.13,1.13-1.13,1.13.51,1.13,1.13Z"/>
              <circle class="cls-25" cx="363.3" cy="351.69" r="1.13"/>
              <circle class="cls-25" cx="363.3" cy="374.6" r="1.13"/>
              <circle class="cls-25" cx="363.3" cy="396.95" r="1.13"/>
            </g>
            <path class="cls-24" d="m369.17,266.72c1.25-.71,3.43-2.17,5.23-4.82,2.24-3.29,2.62-6.57,2.7-8.03-1.09-2.77-2.18-5.54-3.27-8.31-4.81,3.05-9.61,6.1-14.42,9.14-4.49-3-8.98-6-13.47-9-1.12,3.26-2.24,6.51-3.35,9.77.61,1.9,1.68,4.5,3.61,7.21,1.48,2.09,3.05,3.65,4.35,4.76.63-3.35,2.77-13.73,6.23-13.86.66-.03,1.54.32,2.6,1.72,2.19-2.63,3.72-2.65,4.29-2.58,2.88.36,5.27,5.86,5.5,14Z"/>
            <line class="cls-67" x1="359.2" y1="255.4" x2="358.91" y2="413.61"/>
          </g>
          <g>
            <g>
              <path class="cls-13" d="m561.64,316.91s31.07-14.07,38.79-19.29c8.54-5.79,9.54.23,3.39,11.48,0,0,19.74-11.44,25.43-14.14,9.01-4.28,10.91,4.35-13.24,17.96,0,0,26.54-16.38,29.54-10.31,2.51,5.07-22.92,14.76-27.33,17.24,0,0,27.59-9.64,28.43-4.25.84,5.4-26.18,12.95-26.18,12.95,0,0,26.15-3.55,21.88,3.12-2.9,4.53-72.35,17.63-72.35,17.63l-8.35-32.38Z"/>
              <line class="cls-13" x1="614.8" y1="308.65" x2="621.23" y2="331.22"/>
              <path class="cls-13" d="m603.51,309.72s3.35,11.92-5.16,16.41"/>
            </g>
            <g>
              <path class="cls-18" d="m345.47,413.61l84.32.22-2.61-72.35s47.08,56.61,152.3,14.2c0,0-7.38-54.06-7.39-54.14l-36.16,8.29c-13.66,3.13-27.95,2.5-41.11-2.5-8.4-3.18-16.23-7.94-23.01-14.31-39.35-36.96-70.79-42.38-87.54-41.62l-38.8,162.2Z"/>
              <g>
                <path class="cls-18" d="m331.54,256.5c-9.31,1.89-29.72,8.64-43.17,15.16-32.82,15.9-59.88,44.55-76.23,76.96-5.61,11.11-12.92,25.39-10.4,38.34,3.1,15.94,22.61,16.87,35.5,14.76,7.26-1.18,14.34-3.42,21.16-6.15l26.91-9.06.69,27.31,84.71-.15-39.17-157.17Z"/>
                <g>
                  <line class="cls-76" x1="229.08" y1="354.96" x2="348.32" y2="319.26"/>
                  <path class="cls-76" d="m229.08,354.96c9.88-3.17,19.79-6.24,29.7-9.29l29.78-9.04,29.84-8.82,14.94-4.33,14.97-4.23-14.83,4.7-14.86,4.6-29.78,9.04-29.84,8.81c-9.96,2.9-19.92,5.78-29.92,8.56Z"/>
                </g>
              </g>
            </g>
            <polyline class="cls-67" points="351.68 413.62 313.73 307.23 323.46 301.88 307.9 280.79 331.54 256.5"/>
            <polyline class="cls-67" points="370.71 413.67 402.4 302.56 392.68 297.21 408.24 276.12 384.6 251.84"/>
          </g>
          <path class="cls-60" d="m360.55,157.67c-4.98,23.72-34.25,33.04-34.25,33.04h0c-.44,2.58-.46,3.85-.46,6.58,0,22.46,15.63,40.68,34.92,40.68s34.92-18.21,34.92-40.68c0-2.66-.05-4.12-.47-6.64h0s-19.85-4.85-34.45-33.91l-.21.93Z"/>
          <g>
            <circle class="cls-38" cx="342.67" cy="212.25" r="10.15"/>
            <circle class="cls-38" cx="378.24" cy="212.25" r="10.15"/>
            <g>
              <ellipse class="cls-76" cx="378.24" cy="199.54" rx="3.2" ry="4.53"/>
              <ellipse class="cls-76" cx="343.16" cy="199.54" rx="3.2" ry="4.53"/>
            </g>
            <g>
              <path class="cls-76" d="m334.59,187.7c.7-1.28,1.83-2.31,3.12-3.02,1.29-.74,2.75-1.14,4.23-1.31,1.48-.11,2.96,0,4.37.39.7.19,1.37.46,2.05.7.64.35,1.28.66,1.87,1.06l-.04.09-1.98-.64c-.68-.14-1.35-.34-2.03-.44-1.37-.22-2.76-.29-4.14-.16-1.37.14-2.73.47-4,1.04-1.26.57-2.45,1.34-3.37,2.36l-.08-.06Z"/>
              <path class="cls-76" d="m370.57,185.97c.97-1.09,2.3-1.83,3.73-2.23,1.42-.43,2.94-.49,4.41-.33,1.47.23,2.89.66,4.17,1.36.64.34,1.23.76,1.84,1.14.54.48,1.1.93,1.59,1.45l-.06.08-1.78-1.08c-.63-.29-1.23-.64-1.88-.89-1.28-.52-2.63-.9-4-1.09-1.37-.17-2.77-.16-4.13.11-1.35.27-2.69.75-3.82,1.54l-.06-.08Z"/>
            </g>
            <g>
              <path class="cls-73" d="m367.93,211.5s-1.88,8.02-7.76,8.02c-2.67,0-4.83-1.99-6.34-3.99-.84-1.11-1.55-2.32-2.15-3.58.05.11,1.93-.1,2.11-.11.8-.04,1.61-.09,2.41-.13,1.61-.08,3.22-.15,4.83-.18,2.49-.03,4.39-.04,6.88-.03Z"/>
              <path class="cls-76" d="m349.82,209.52c.64.89,1.28,1.74,2.07,2.43.75.71,1.59,1.31,2.51,1.7,1.84.79,3.89,1.08,5.96.96,1.97-.02,3.91-.75,5.58-1.89.85-.56,1.63-1.24,2.27-2.05.7-.77,1.22-1.68,1.6-2.71l.1.02c-.38,2.17-1.79,4.03-3.49,5.36-1.72,1.33-3.84,2.2-6.04,2.25-2.16.04-4.4-.24-6.34-1.28-1.95-1.02-3.39-2.81-4.31-4.76l.09-.04Z"/>
            </g>
            <g>
              <polyline class="cls-62" points="359.64 197.22 358.81 207.98 362.77 206.86"/>
              <polyline class="cls-59" points="359.64 197.22 358.81 207.98 362.77 206.86"/>
            </g>
            <g>
              <ellipse class="cls-61" cx="344.45" cy="205.87" rx="10.8" ry="5.84"/>
              <ellipse class="cls-61" cx="377.2" cy="205.87" rx="10.8" ry="5.84"/>
              <path class="cls-61" d="m355.25,205.87c.31-.34,2.42-2.54,5.78-2.45,3.12.09,5.03,2.08,5.36,2.45"/>
              <line class="cls-61" x1="325.84" y1="202.58" x2="333.64" y2="205.87"/>
              <line class="cls-61" x1="395.68" y1="202.04" x2="388.16" y2="205.59"/>
            </g>
          </g>
          <g>
            <path class="cls-33" d="m325.84,197.29c0-2.1.14-4.17.4-6.19-1.18-.57-2.45-.9-3.78-.9-5.93,0-10.74,6.2-10.74,13.86s4.81,13.86,10.74,13.86c2.57,0,4.93-1.17,6.77-3.11-2.18-5.31-3.4-11.25-3.4-17.52Z"/>
            <path class="cls-33" d="m395.62,197.29c0-2.1-.14-4.17-.4-6.19,1.18-.57,2.45-.9,3.78-.9,5.93,0,10.74,6.2,10.74,13.86s-4.81,13.86-10.74,13.86c-2.57,0-4.93-1.17-6.77-3.11,2.18-5.31,3.4-11.25,3.4-17.52Z"/>
            <path class="cls-33" d="m363.35,223.58c0,1.79-1.98,3.23-4.42,3.23s-4.42-1.45-4.42-3.23,1.98-3.23,4.42-3.23,4.42,1.45,4.42,3.23Z"/>
            <path class="cls-11" d="m322.46,190.21c-.75-22.02,17.31-40.3,38.83-39.99,21.11.31,38.45,18.4,37.7,39.99"/>
            <path class="cls-55" d="m322.44,211.5s5.42,6.96,13.8,10.19c8.62,3.32,16.08,2.57,18.27,1.89"/>
          </g>
        </g>
        <polygon class="cls-44" points="536.74 419.22 154.09 419.22 153.58 402.44 537.16 403.1 536.74 419.22"/>
        <g>
          <path class="cls-37" d="m440.57,395.78h-155.68l-8.91-97.52c-.39-4.29,2.99-7.99,7.29-7.99h156.73c4.24,0,7.6,3.6,7.31,7.83l-6.75,97.68Z"/>
          <polygon class="cls-40" points="440.33 402.46 284.48 402.46 284.48 395.57 441.12 395.78 440.33 402.46"/>
          <path class="cls-72" d="m373.64,348.07l-1-3.22-2.73.85c-.46-.81-1.06-1.52-1.76-2.1l1.33-2.53-2.98-1.56-1.33,2.53c-.87-.24-1.8-.33-2.73-.25l-.85-2.73-3.22,1,.85,2.73c-.81.46-1.52,1.06-2.1,1.76l-2.53-1.33-1.56,2.98,2.53,1.33c-.24.87-.33,1.8-.25,2.73l-2.73.85,1,3.22,2.73-.85c.46.81,1.06,1.52,1.76,2.1l-1.33,2.53,2.98,1.56,1.33-2.53c.87.24,1.8.33,2.73.25l.85,2.73,3.22-1-.85-2.73c.81-.46,1.52-1.06,2.1-1.76l2.53,1.33,1.56-2.98-2.53-1.33c.24-.87.33-1.8.25-2.73l2.73-.85Zm-9.45,5c-1.92.6-3.96-.47-4.56-2.39-.6-1.92.47-3.96,2.39-4.56,1.92-.6,3.96.47,4.56,2.39.6,1.92-.47,3.96-2.39,4.56Z"/>
        </g>
      </g>
      <g>
        <g>
          <rect class="cls-77" x="9.21" y="163.54" width="198.91" height="152.37" transform="translate(-28.83 15.29) rotate(-7.11)"/>
          <g class="cls-80">
            <g class="cls-79">
              <rect class="cls-81" x="9.21" y="163.54" width="198.91" height="152.37" transform="translate(-28.83 15.29) rotate(-7.11)"/>
              <path class="cls-77" d="m-4.94,174.54c4.48,12.49,11.72,24.46,22.73,32.22,12.11,8.54,27.19,10.12,41.39,12.51s29.24,6.67,40.85,16.27,18.81,23.83,24.59,37.62c6.22,14.85,10.71,30.57,11.93,46.67.15,1.99.25,3.98.3,5.97.02.8,1.27.81,1.25,0-.43-16.03-4.14-31.8-9.8-46.76-5.22-13.79-11.63-28.04-21.73-39-10.01-10.87-23.83-17.08-38.07-20.26s-29.76-3.62-43.25-10.1c-12.76-6.13-21.58-17.75-27.06-30.53-.7-1.63-1.34-3.28-1.93-4.95-.27-.75-1.48-.43-1.21.33h0Z"/>
              <path class="cls-77" d="m-11.72,204.1c4.16,10.9,10.99,20.7,19.79,28.35s19.68,12.45,30.6,16.78c11.02,4.37,22.47,8.7,31.38,16.79,9.08,8.24,14.63,19.73,17.08,31.62,3.24,15.69,1.04,31.94-2.79,47.31-.19.78,1.01,1.11,1.21.33,3.46-13.89,5.56-28.37,3.68-42.66-1.55-11.79-5.92-23.41-13.6-32.59-15.78-18.88-42.28-20.69-61.56-34.43-11.09-7.9-19.74-19.12-24.59-31.84-.28-.74-1.49-.42-1.21.33h0Z"/>
              <path class="cls-77" d="m-1.84,265.16c6.13-1.43,12.68-.53,18.24,2.4,5.93,3.13,9.94,8.39,12.72,14.39,3.01,6.49,4.98,13.49,7.25,20.26,1.27,3.78,2.53,7.56,3.8,11.34,1.11,3.31,2.14,6.67,3.58,9.86,2.77,6.15,8.34,12.32,15.74,11.34.79-.1.8-1.35,0-1.25-7.56.99-12.66-5.75-15.19-11.96-1.42-3.49-2.52-7.12-3.71-10.69-1.27-3.78-2.53-7.56-3.8-11.34-4.06-12.12-7.49-26.57-19.75-33.03-5.87-3.09-12.74-4.04-19.2-2.53-.78.18-.45,1.39.33,1.21h0Z"/>
              <path class="cls-77" d="m68.42,160.91c5.41,13.48,13.48,26.26,24.68,35.66,5.42,4.55,11.55,8.24,18.22,10.64,7.2,2.59,14.84,3.52,22.39,4.53s15.49,2.07,22.61,5.22,12.9,8.78,17.11,15.52,7.16,14.1,10.58,21.23c3.63,7.56,7.64,14.99,12.64,21.74,9.35,12.64,22.95,23.19,39.09,24.55,1.96.16,3.92.17,5.88.04.8-.05.8-1.3,0-1.25-16.48,1.1-31.41-8.55-41.49-20.88-5.28-6.45-9.5-13.71-13.23-21.15-3.54-7.04-6.48-14.39-10.27-21.3-3.59-6.53-8.12-12.65-14.44-16.76s-13.44-5.87-20.63-7.07-15.16-1.85-22.61-3.53-13.97-4.52-20.07-8.7c-12.02-8.24-20.91-20.51-26.99-33.61-.8-1.71-1.54-3.45-2.25-5.2-.3-.74-1.51-.42-1.21.33h0Z"/>
              <path class="cls-77" d="m100.58,149.29c12.87,17.85,30.6,31.97,50.67,40.94,10,4.47,20.56,7.68,31.37,9.43,11.89,1.93,23.91,1.97,35.85.52,15.26-1.85,30.15-5.79,44.97-9.73.78-.21.45-1.41-.33-1.21-24.85,6.61-50.23,13.07-76.12,9.8-21.52-2.72-42.25-11.28-59.61-24.26-9.83-7.35-18.56-16.16-25.74-26.12-.47-.65-1.55-.02-1.08.63h0Z"/>
              <path class="cls-77" d="m136.76,139.72c3.95,13.3,13.86,23.82,25.64,30.74,13.88,8.15,29.98,10.94,45.88,11.43,10.15.31,20.29-.26,30.42-.84.8-.05.8-1.3,0-1.25-17.33,1-34.99,2.01-52.11-1.56-13.8-2.88-27.11-9.09-37-19.33-5.34-5.52-9.45-12.15-11.64-19.53-.23-.77-1.44-.44-1.21.33h0Z"/>
            </g>
            <g>
              <g>
                <g>
                  <g>
                    <path class="cls-21" d="m138.9,234.54s-13.53-6.32-17.46-7.4c-4.36-1.19-2.64-3.24,2.85-4.4,0,0-9.43-3.3-11.95-4.43-3.99-1.78-1.66-4.86,9.74-.71,0,0-13.01-4.16-11.84-6.88.97-2.28,11.43,3.41,13.52,4.18,0,0-11.07-6.42-9.51-8.24,1.55-1.82,11.77,5.01,11.77,5.01,0,0-8.63-7.68-5.2-8.16,2.33-.33,26.47,19.03,26.47,19.03l-8.38,12Z"/>
                    <line class="cls-21" x1="121.01" y1="219.23" x2="126.68" y2="210.66"/>
                    <path class="cls-21" d="m124.58,222.68s3.01-4.51,6.92-2.96"/>
                  </g>
                  <g>
                    <rect class="cls-4" x="117.76" y="205.86" width="14.42" height="23.09" rx="1.22" ry="1.22" transform="translate(-125.25 200.9) rotate(-56.33)"/>
                    <rect class="cls-66" x="118.7" y="207.78" width="11.64" height="18.64" transform="translate(-125.2 200.39) rotate(-56.34)"/>
                  </g>
                </g>
                <path class="cls-46" d="m133.45,234.14l29.57,17.82-43.05-2.53,7.89,36.03s48.42,4.62,66.07-18.06c17.66-22.69-48.59-49.32-48.59-49.32l-11.9,16.06Z"/>
              </g>
              <path class="cls-51" d="m128.99,267.7c-3.59-8.83-7.41-15.34-11.31-17.48l-1.44-16.17-13.28,2.14.6,15.72s-7.23-.89-14.97,2.82l40.4,12.97Z"/>
              <g>
                <g>
                  <path class="cls-29" d="m170.95,299.2s7.3-6.95,3.91-7.66c-2.87-.6-21.76,10.72-21.76,10.72l3.2,16.22s41.07-6.47,31.03-10.97c0,0,5.01-2.18,1.26-3.98,0,0,3.68-2.81-.3-3.47,0,0,2.46-1.77-.26-2.58-2.72-.8-7.76,1.36-17.07,1.72Z"/>
                  <path class="cls-64" d="m188.3,299.99s-6.73,3-12.97,2.78"/>
                  <path class="cls-64" d="m188.7,303.45s-6.42,2.75-12.67,2.64"/>
                  <path class="cls-64" d="m187.4,307.37s-6.28,1.78-10.89,1.68"/>
                </g>
                <path class="cls-72" d="m119.97,249.43l.24-5.94c-5.25.2-14.65.52-19.89.84l.44,7.31s-16.83-9.04-31.42,15.73c-7.82,15.29-14.53,54.07,10.6,64.27l1.67,33.82,69.56-7.67s-13.67-98.76-31.2-108.37Z"/>
                <path class="cls-76" d="m125.03,254.04c.94,1.12,1.79,2.32,2.62,3.54.79,1.24,1.53,2.51,2.21,3.82,1.37,2.61,2.44,5.36,3.45,8.11.9,2.79,1.76,5.59,2.45,8.44.34,1.42.67,2.85.98,4.27.27,1.44.57,2.87.79,4.32l-.08.02c-1.5-5.63-3-11.27-4.92-16.78-1.88-5.51-4.28-10.88-7.57-15.69l.07-.05Z"/>
                <g>
                  <path class="cls-72" d="m100.97,251.61s-13.92-7.77-27.61,9.68c-15.91,20.27-19.88,64.98,11.69,72.5,12.05,2.87,24.74.68,36.83-.81,12.45-1.53,24.63-4.33,36.76-7.47l-4.64-27.92-64.28,9.3,6.76-35.55"/>
                  <path class="cls-76" d="m100.95,251.65c-3.62-1.71-7.81-2.04-11.69-1.21-3.9.86-7.47,2.86-10.46,5.48-6.02,5.27-10.09,12.4-12.87,19.82-2.76,7.47-4.24,15.43-4.17,23.39.04,3.97.5,7.95,1.5,11.78.99,3.83,2.55,7.52,4.76,10.78,2.21,3.25,5.1,6.03,8.48,8.04,3.37,2.03,7.16,3.27,11.05,3.96,7.82,1.39,15.85.87,23.77-.07,7.94-1.02,15.9-1.92,23.75-3.41,7.86-1.46,15.65-3.31,23.41-5.29l-.47.72-4.57-27.94.64.47-32.15,4.55-16.08,2.28-16.08,2.25-.49.07.1-.48,7.06-35.49.08.02-6.75,35.55-.06-.06,64.27-9.31h.06s.01.06.01.06l4.64,27.92v.07s-.05.02-.05.02c-7.76,2.01-15.56,3.89-23.44,5.38-7.87,1.54-15.85,2.42-23.81,3.41-7.94.92-16.05,1.43-23.98,0-3.94-.71-7.82-1.99-11.27-4.08-3.45-2.07-6.4-4.93-8.65-8.26-2.25-3.33-3.82-7.09-4.81-10.98-1-3.89-1.45-7.91-1.48-11.92-.04-8.03,1.47-16.04,4.27-23.55,2.81-7.48,7.01-14.62,13.12-19.88,3.04-2.61,6.67-4.61,10.61-5.44,3.93-.8,8.14-.43,11.77,1.33l-.04.07Z"/>
                </g>
              </g>
              <g>
                <g>
                  <path class="cls-36" d="m127.53,208.51c-3.69-13.44-16.07-21.76-27.65-18.58s-17.98,16.65-14.29,30.09c.17.6.35,1.19.55,1.77-3.25-.78-6.41.27-7.57,2.74-1.39,2.95.59,6.81,4.43,8.62,3.51,1.65,7.36,1.01,9.05-1.38,5.61,6.04,13.57,8.93,21.18,6.84,11.58-3.18,17.98-16.65,14.29-30.09Z"/>
                  <line class="cls-22" x1="81.16" y1="226.52" x2="89.51" y2="228.95"/>
                  <g>
                    <path class="cls-10" d="m88.63,227.2l.37-10.55s18.6-7.53,25.76-22.38c0,0,3.72,8.68,12.43,13.13,0,0-6.39-25.76-32.67-15.97,0,0-19.24,13.24-5.9,35.77Z"/>
                    <g>
                      <path class="cls-27" d="m94.88,196.24s-18.99,7.18-20.06-10.97c-.16-2.66.83-5.52,3.01-7.86,2.3-2.47,6.7-5.71,12.38-3.74,10.44,3.63,11.56,16.64,4.67,22.57Z"/>
                      <path class="cls-27" d="m78.9,178.25c.22,4.15-2.97,7.69-7.12,7.91s-7.69-2.97-7.91-7.12c-.22-4.15,2.97-7.69,7.12-7.91,4.15-.22,7.69,2.97,7.91,7.12Z"/>
                      <path class="cls-27" d="m66.14,181.67c.22,4.15-2.97,7.69-7.12,7.91-4.15.22-7.69-2.97-7.91-7.12-.22-4.15,2.97-7.69,7.12-7.91,4.15-.22,7.69,2.97,7.91,7.12Z"/>
                    </g>
                  </g>
                </g>
                <path class="cls-7" d="m87.33,231.38c1.33-.11,2.62,2.33,2.87,5.45.25,3.12-.62,5.74-1.96,5.84s-2.62-2.33-2.87-5.45c-.07-.92-.05-1.8.05-2.58"/>
                <g>
                  <g>
                    <polyline class="cls-12" points="115.93 214.08 118.35 221.02 116.09 221.46"/>
                    <polyline class="cls-58" points="116 214.18 118.42 221.13 116.16 221.56"/>
                  </g>
                  <path class="cls-76" d="m101.5,211.52c.41-1.06,1.42-1.79,2.46-2.18.53-.18,1.09-.3,1.65-.32.56-.03,1.11.04,1.65.19l-1.57.34c-.51.12-1,.26-1.49.44-.48.17-.94.39-1.39.64-.44.26-.89.54-1.3.9Z"/>
                  <path class="cls-76" d="m119.38,207.52c.83-.77,2.05-1,3.16-.9.56.07,1.11.2,1.62.43.52.21.98.52,1.4.88l-1.57-.37c-.51-.11-1.02-.2-1.53-.25-.51-.05-1.02-.06-1.53-.03-.51.04-1.03.1-1.57.25Z"/>
                  <path class="cls-74" d="m113.18,222.09c1.17,3.41-.84,7.18-4.48,8.43-3.65,1.25-7.55-.5-8.72-3.91-1.17-3.41.84-7.18,4.48-8.43,3.65-1.25,7.55.5,8.72,3.91Z"/>
                  <path class="cls-74" d="m128.05,214.2s0-.07,0-.1c-.62.05-1.24.17-1.86.38-3.65,1.25-5.65,5.03-4.48,8.43.7,2.05,2.4,3.49,4.43,4.05,1.66-4.05,2.66-8.4,1.91-12.76Z"/>
                  <path class="cls-76" d="m108.06,216.24c.24,1.23-.24,2.36-1.06,2.51s-1.68-.71-1.91-1.94c-.24-1.23.24-2.36,1.06-2.51.82-.16,1.68.71,1.91,1.94Z"/>
                  <path class="cls-76" d="m124.5,213.63c.13,1.25-.43,2.33-1.26,2.42-.83.09-1.61-.85-1.74-2.09-.13-1.25.43-2.33,1.26-2.42s1.61.85,1.74,2.09Z"/>
                  <g>
                    <path class="cls-14" d="m120.68,223.38c0,1,.17,3.06-2.16,3.77-2.58.8-4.11-1.44-4.12-2.39,0,0,1.54-.64,3.13-.97,1.6-.33,3.14-.42,3.14-.42Z"/>
                    <path class="cls-76" d="m112.39,223.5c.81.69,1.72,1.24,2.68,1.53.95.3,1.96.33,2.92.08.96-.21,1.82-.73,2.48-1.48.67-.74,1.16-1.69,1.49-2.7h0s.02-.03.03-.02c.01,0,.02.02.02.03-.16,1.06-.57,2.09-1.23,2.94-.65.86-1.63,1.46-2.67,1.73-1.05.24-2.18.2-3.18-.2-1.01-.38-1.9-1.04-2.58-1.87,0-.01,0-.03,0-.04,0,0,.02,0,.03,0h0Z"/>
                  </g>
                </g>
              </g>
            </g>
          </g>
          <rect class="cls-43" x="9.21" y="163.54" width="198.91" height="152.37" transform="translate(-28.83 15.29) rotate(-7.11)"/>
        </g>
        <g>
          <path class="cls-34" d="m33.83,250.3c10.62,5.89,24.04,2,29.96-8.68,2.84-5.12,3.44-10.87,2.13-16.12l13.5-9.62-17.63,1.23c-1.74-2.18-3.91-4.06-6.5-5.5-10.62-5.89-24.04-2-29.96,8.68s-2.12,24.12,8.5,30.02Z"/>
          <path class="cls-81" d="m42.73,221.96c-.93.09-1.79.3-2.6.61-.8.31-1.68.78-2.63,1.4l-2.06-4.21c.94-.74,2.08-1.36,3.41-1.84,1.33-.48,2.65-.79,3.97-.92,1.65-.16,3.03-.08,4.15.25,1.11.33,2.01.8,2.7,1.41.69.61,1.19,1.3,1.52,2.08.32.77.52,1.52.59,2.25.07.72.03,1.4-.13,2.02-.16.63-.38,1.22-.66,1.77-.28.55-.62,1.08-1.01,1.58-.39.51-.77.99-1.15,1.44-.28.34-.57.7-.87,1.08-.3.38-.57.78-.8,1.19-.23.41-.42.84-.56,1.29-.14.44-.19.88-.14,1.32.01.1.03.26.05.46.02.21.05.39.09.54l-5.1.51c-.08-.25-.14-.54-.18-.86-.05-.32-.08-.6-.1-.83-.07-.72-.05-1.38.08-1.98.12-.6.31-1.16.55-1.7.25-.53.54-1.04.88-1.51.34-.48.7-.94,1.07-1.4.53-.65,1.02-1.29,1.45-1.92.43-.63.61-1.32.54-2.06-.06-.62-.35-1.12-.87-1.51-.52-.39-1.25-.54-2.17-.45Zm5.53,19.1c.11,1.13-.17,2.05-.84,2.74-.67.69-1.47,1.08-2.4,1.18-.93.09-1.79-.13-2.59-.68s-1.25-1.39-1.36-2.52c-.11-1.13.17-2.05.84-2.74.67-.69,1.47-1.08,2.4-1.18.93-.09,1.79.13,2.59.68.8.55,1.25,1.39,1.36,2.52Z"/>
        </g>
        <g>
          <path class="cls-19" d="m146.44,140.24h51.39c8.36,0,15.14,6.17,15.14,13.78v17.07c0,7.61-6.78,13.78-15.14,13.78h-29.24l-31.3,15.33h0l9.15-15.33h0c-8.36,0-15.14-6.17-15.14-13.78v-17.07c0-7.61,6.78-13.78,15.14-13.78Z"/>
          <g>
            <line class="cls-57" x1="200.39" y1="153.87" x2="145.22" y2="153.87"/>
            <line class="cls-57" x1="200.39" y1="160.46" x2="145.22" y2="160.46"/>
            <line class="cls-57" x1="200.39" y1="166.03" x2="145.22" y2="166.03"/>
            <line class="cls-57" x1="200.39" y1="172.63" x2="145.22" y2="172.63"/>
          </g>
        </g>
      </g>
      <g>
        <g>
          <path class="cls-8" d="m283.92,45.23h-94.48c-15.37,0-27.83,9.29-27.83,20.74v25.7c0,11.46,12.46,20.74,27.83,20.74h53.76l61.58,32.14h0l-20.86-32.14h0c15.37,0,27.83-9.29,27.83-20.74v-25.7c0-11.46-12.46-20.74-27.83-20.74Z"/>
          <g>
            <path class="cls-20" d="m197.95,79.43c0,2.81-2.24,5.09-4.99,5.09s-4.99-2.28-4.99-5.09,2.24-5.09,4.99-5.09,4.99,2.28,4.99,5.09Z"/>
            <path class="cls-20" d="m241.67,79.43c0,2.81-2.24,5.09-4.99,5.09s-4.99-2.28-4.99-5.09,2.24-5.09,4.99-5.09,4.99,2.28,4.99,5.09Z"/>
            <path class="cls-20" d="m285.4,79.43c0,2.81-2.24,5.09-4.99,5.09s-4.99-2.28-4.99-5.09,2.24-5.09,4.99-5.09,4.99,2.28,4.99,5.09Z"/>
          </g>
        </g>
        <g>
          <path class="cls-68" d="m446.4,38.97c-22.25-2.15-41.95,13.23-43.99,34.36-.98,10.13,2.28,19.73,8.38,27.22l-15.58,24.6,28.76-14.01c4.54,2.3,9.61,3.82,15.02,4.35,22.25,2.15,41.95-13.23,43.99-34.36,2.05-21.13-14.33-40.01-36.59-42.16Z"/>
          <polyline class="cls-39" points="426.16 80.73 436.38 91.79 466.31 64.13"/>
        </g>
        <g>
          <path class="cls-56" d="m494.39,190.86l-3.41,13.55-59.61-7.71c-.18-.02-.24.22-.08.29l55.35,23.63-3.16,12.14c-1.87,7.2,2.94,14.68,10.75,16.71l64.02,16.64c7.81,2.03,15.65-2.16,17.53-9.36l10.9-41.91c1.87-7.2-2.94-14.68-10.75-16.71l-64.02-16.64c-7.81-2.03-15.65,2.16-17.53,9.36Z"/>
          <g>
            <rect class="cls-35" x="511.58" y="205.12" width="48.25" height="34.89" transform="translate(72.55 -126.72) rotate(14.46)"/>
            <polyline class="cls-35" points="563.42 211.7 534.56 229.92 534.37 229.61 516.7 199.65"/>
          </g>
        </g>
        <g>
          <rect class="cls-72" x="34.31" y="336.7" width="138.94" height="33.06" rx="10.71" ry="10.71"/>
          <g>
            <path class="cls-77" d="m54.56,344.62l2.13,4.31c.16.33.47.55.83.61l4.75.69c.91.13,1.27,1.25.61,1.89l-3.44,3.35c-.26.25-.38.62-.32.98l.81,4.73c.15.9-.79,1.59-1.61,1.17l-4.25-2.23c-.32-.17-.71-.17-1.03,0l-4.25,2.23c-.81.43-1.76-.26-1.61-1.17l.81-4.73c.06-.36-.06-.73-.32-.98l-3.44-3.35c-.66-.64-.29-1.76.61-1.89l4.75-.69c.36-.05.67-.28.83-.61l2.13-4.31c.41-.82,1.58-.82,1.98,0Z"/>
            <path class="cls-77" d="m79.9,344.62l2.13,4.31c.16.33.47.55.83.61l4.75.69c.91.13,1.27,1.25.61,1.89l-3.44,3.35c-.26.25-.38.62-.32.98l.81,4.73c.15.9-.79,1.59-1.61,1.17l-4.25-2.23c-.32-.17-.71-.17-1.03,0l-4.25,2.23c-.81.43-1.76-.26-1.61-1.17l.81-4.73c.06-.36-.06-.73-.32-.98l-3.44-3.35c-.66-.64-.29-1.76.61-1.89l4.75-.69c.36-.05.67-.28.83-.61l2.13-4.31c.41-.82,1.58-.82,1.98,0Z"/>
            <path class="cls-77" d="m105.57,344.62l2.13,4.31c.16.33.47.55.83.61l4.75.69c.91.13,1.27,1.25.61,1.89l-3.44,3.35c-.26.25-.38.62-.32.98l.81,4.73c.15.9-.79,1.59-1.61,1.17l-4.25-2.23c-.32-.17-.71-.17-1.03,0l-4.25,2.23c-.81.43-1.76-.26-1.61-1.17l.81-4.73c.06-.36-.06-.73-.32-.98l-3.44-3.35c-.66-.64-.29-1.76.61-1.89l4.75-.69c.36-.05.67-.28.83-.61l2.13-4.31c.41-.82,1.58-.82,1.98,0Z"/>
            <path class="cls-77" d="m130.91,344.62l2.13,4.31c.16.33.47.55.83.61l4.75.69c.91.13,1.27,1.25.61,1.89l-3.44,3.35c-.26.25-.38.62-.32.98l.81,4.73c.15.9-.79,1.59-1.61,1.17l-4.25-2.23c-.32-.17-.71-.17-1.03,0l-4.25,2.23c-.81.43-1.76-.26-1.61-1.17l.81-4.73c.06-.36-.06-.73-.32-.98l-3.44-3.35c-.66-.64-.29-1.76.61-1.89l4.75-.69c.36-.05.67-.28.83-.61l2.13-4.31c.41-.82,1.58-.82,1.98,0Z"/>
            <path class="cls-77" d="m154.99,344.62l2.13,4.31c.16.33.47.55.83.61l4.75.69c.91.13,1.27,1.25.61,1.89l-3.44,3.35c-.26.25-.38.62-.32.98l.81,4.73c.15.9-.79,1.59-1.61,1.17l-4.25-2.23c-.32-.17-.71-.17-1.03,0l-4.25,2.23c-.81.43-1.76-.26-1.61-1.17l.81-4.73c.06-.36-.06-.73-.32-.98l-3.44-3.35c-.66-.64-.29-1.76.61-1.89l4.75-.69c.36-.05.67-.28.83-.61l2.13-4.31c.41-.82,1.58-.82,1.98,0Z"/>
          </g>
        </g>
      </g>
      <g>
        <g>
          <g class="cls-78">
            <g class="cls-82">
              <g>
                <rect class="cls-81" x="521.51" y="3.42" width="150.43" height="196.38" transform="translate(422.05 681.18) rotate(-82.89)"/>
                <g>
                  <polyline class="cls-45" points="490.35 161.14 489.98 164.1 492.94 164.47"/>
                  <line class="cls-32" x1="499.03" y1="165.23" x2="678.86" y2="187.65"/>
                  <polyline class="cls-45" points="681.9 188.03 684.86 188.4 685.23 185.45"/>
                  <line class="cls-16" x1="685.94" y1="179.71" x2="702.75" y2="44.95"/>
                  <polyline class="cls-45" points="703.11 42.08 703.47 39.13 700.52 38.76"/>
                  <line class="cls-32" x1="694.42" y1="38" x2="514.6" y2="15.57"/>
                  <polyline class="cls-45" points="511.55 15.19 508.6 14.82 508.23 17.78"/>
                  <line class="cls-16" x1="507.52" y1="23.51" x2="490.71" y2="158.28"/>
                </g>
              </g>
              <path class="cls-77" d="m612.51-3.88c-2.06,13.61-1.24,27.77,3.08,40.88s11.97,24.45,23.12,32.3,24.08,11.69,36.61,16.17,25.3,9.71,34.29,19.86,13.06,24.36,23.43,33.59c1.2,1.07,2.48,2.05,3.82,2.94.67.45,1.3-.64.63-1.08-11.56-7.69-16.02-21.75-23.94-32.53-7.78-10.59-19.18-16.8-31.19-21.49-12.38-4.83-25.39-8.28-37.05-14.8-5.91-3.3-11.28-7.43-15.76-12.52s-8-10.91-10.63-17.11c-5.39-12.7-7.1-26.87-5.85-40.55.16-1.78.38-3.55.65-5.31.12-.79-1.09-1.13-1.21-.33h0Z"/>
              <path class="cls-77" d="m508.57,17.48c.45,13.29,1.23,27.63,10.16,38.3,7.91,9.44,19.8,14.14,30.35,19.87,5.58,3.03,10.9,6.46,15.53,10.84s8.82,9.8,12.12,15.49c6.95,11.98,10.61,25.6,11.9,39.32,1.55,16.46-.05,33-2.08,49.34-.25,2.03-.51,4.06-.78,6.08-.1.8,1.15.79,1.25,0,2.12-16.35,4.1-32.83,3.29-49.34-.68-13.91-3.47-27.74-9.51-40.35-5.53-11.55-13.75-21.7-24.58-28.65-10.4-6.67-22.52-10.73-31.98-18.83-5.04-4.32-8.78-9.73-10.93-16.03-2.29-6.7-2.95-13.82-3.29-20.85-.08-1.73-.15-3.46-.2-5.19-.03-.8-1.28-.81-1.25,0h0Z"/>
              <path class="cls-77" d="m476.76,57.42c18.78,12.74,39.07,26.73,47.48,48.83,2.01,5.29,3.17,10.83,3.38,16.49.24,6.51-.6,13-1.52,19.44-1.68,11.76-3.74,24.15,0,35.75,3.12,9.69,11.08,18.52,21.61,19.66.8.09.79-1.16,0-1.25-9.81-1.06-17.3-9.43-20.3-18.4-3.96-11.86-1.63-24.59.07-36.63.86-6.14,1.62-12.34,1.39-18.56-.2-5.49-1.26-10.9-3.14-16.06-3.62-9.95-9.91-18.75-17.33-26.23-9.25-9.34-20.18-16.76-31.01-24.11-.67-.45-1.29.63-.63,1.08h0Z"/>
              <path class="cls-77" d="m646.26,18.29c-.95,8.1-1.16,16.98,3.11,24.26,3.59,6.12,9.76,9.87,16.09,12.67,6.7,2.96,13.78,5.06,20.19,8.63s12.65,8.83,17.47,14.83c5.45,6.79,9.39,14.74,11.44,23.2.19.78,1.39.45,1.21-.33-3.51-14.52-12.56-27.48-24.87-35.92-6.1-4.19-12.93-6.74-19.77-9.42-6.61-2.59-13.54-5.51-18.3-10.99-6.45-7.42-6.38-17.7-5.31-26.93.09-.8-1.16-.79-1.25,0h0Z"/>
              <path class="cls-77" d="m579.84,22.38c-2.11,15.8-4.1,33.09,4.36,47.48,6.56,11.17,17.7,18.49,28.21,25.56,5.57,3.75,11.16,7.5,16.25,11.89,5.45,4.7,10.04,10.13,13.61,16.39,7.79,13.65,10.92,29.28,17.89,43.3,5.98,12.04,15.41,24.17,28.92,27.93,1.56.43,3.15.73,4.76.93.8.1.79-1.15,0-1.25-14.29-1.77-24.6-13.43-31.13-25.41-7.29-13.38-10.45-28.54-17.24-42.15-3.21-6.42-7.26-12.34-12.39-17.38-4.56-4.47-9.73-8.28-14.98-11.89-10.51-7.24-22.1-13.92-29.94-24.26-4.5-5.94-7.22-12.85-8.29-20.21-1.2-8.22-.53-16.61.45-24.81.24-2.04.51-4.08.78-6.11.11-.79-1.14-.79-1.25,0h0Z"/>
              <path class="cls-77" d="m491.32,94.31c7.62,7.66,12.9,17.47,15.04,28.07,2.4,11.91.9,24.14-.47,36.08-.77,6.74-1.52,13.5-1.6,20.3-.01.8,1.24.81,1.25,0,.16-12.48,2.58-24.79,3.19-37.24.57-11.52-.77-22.98-5.97-33.4-2.7-5.42-6.29-10.38-10.56-14.68-.57-.57-1.45.31-.88.88h0Z"/>
            </g>
            <g>
              <polygon class="cls-52" points="616.14 112.33 616.45 92.91 601.41 90.82 598.23 112.94 580.83 113.08 611.73 136.28 636.72 112.89 616.14 112.33"/>
              <g>
                <g>
                  <g>
                    <path class="cls-17" d="m571.97,94.98s14.29-5.66,18.39-6.52c4.55-.95,2.92-3.19-2.63-4.77,0,0,9.88-2.8,12.54-3.8,4.21-1.58,2.03-4.95-9.94-1.41,0,0,13.61-3.44,12.6-6.36-.85-2.44-11.95,2.78-14.13,3.43,0,0,11.77-5.94,10.3-7.94-1.47-2-12.39,4.42-12.39,4.42,0,0,9.35-7.41,5.87-8.14-2.37-.5-28.4,18.02-28.4,18.02l7.8,13.07Z"/>
                    <line class="cls-26" x1="591.32" y1="80.24" x2="586.07" y2="70.93"/>
                    <path class="cls-53" d="m587.43,83.59s-2.79-4.9-6.9-3.55"/>
                  </g>
                  <g>
                    <path class="cls-30" d="m574.03,78.66l6.15,10.85c.34.61,1.11.82,1.71.47l18.38-10.76c.6-.35.8-1.13.46-1.73l-6.15-10.85c-.34-.61-1.11-.82-1.71-.47l-18.38,10.76c-.6.35-.8,1.13-.46,1.73Z"/>
                    <polygon class="cls-48" points="576.59 77.38 582.56 87.91 599.14 78.2 593.17 67.67 576.59 77.38"/>
                  </g>
                </g>
                <path class="cls-3" d="m579.27,97.59l-24.46,14.13,41.13,1.14-16.03,35.9s-49.94,1.52-66.54-23.3c-16.6-24.83,51.86-49.98,51.86-49.98l14.04,22.12Z"/>
              </g>
              <g>
                <g>
                  <g>
                    <path class="cls-52" d="m583.63,76.94c-.23-15.72,10.57-28.63,24.12-28.82,13.55-.2,24.71,12.39,24.94,28.12.01.71,0,1.4-.04,2.1,3.27-1.87,7.02-1.72,9.06.59,2.43,2.76,1.5,7.57-2.09,10.73-3.29,2.9-7.66,3.4-10.24,1.35-4.18,8.31-11.9,13.93-20.81,14.06-13.55.2-24.71-12.39-24.94-28.12Z"/>
                    <line class="cls-5" x1="639.52" y1="81.88" x2="631.25" y2="87.15"/>
                  </g>
                  <g>
                    <g>
                      <polyline class="cls-41" points="602.22 78.04 601.09 86.34 603.7 86.31"/>
                      <polyline class="cls-2" points="602.16 78.18 601.03 86.47 603.64 86.45"/>
                    </g>
                    <path class="cls-75" d="m607.15,89.23c.04,4.1,3.63,7.39,8.01,7.35,4.39-.04,7.91-3.4,7.87-7.5-.04-4.1-3.63-7.39-8.01-7.35-4.39.04-7.91,3.4-7.87,7.5Z"/>
                    <path class="cls-75" d="m590.43,81.75c-2.38.02-4.5,1.03-5.94,2.59.06.36.13.72.2,1.07,1.33,1.79,1.97,4.06,2.85,6.08.36.83.81,1.64,1.26,2.43.84.85,1.65,1.73,2.43,2.63,4.07-.35,7.25-3.57,7.21-7.46-.04-4.1-3.63-7.39-8.01-7.35Z"/>
                    <path class="cls-76" d="m612.21,79.3c.01,1.43.8,2.57,1.75,2.56.95,0,1.71-1.17,1.7-2.6-.01-1.43-.8-2.57-1.75-2.56-.95,0-1.71,1.17-1.7,2.6Z"/>
                    <path class="cls-76" d="m590.72,80.12c.01,1.43.8,2.57,1.75,2.56.95,0,1.71-1.17,1.7-2.6-.01-1.43-.8-2.57-1.75-2.56-.95,0-1.71,1.17-1.7,2.6Z"/>
                    <path class="cls-76" d="m587.7,73.37c.13-.96.57-1.66,1.14-2.19.56-.56,1.28-.92,2.05-1.1.77-.17,1.61-.15,2.38.15.77.25,1.46.85,1.91,1.64l.03.06s.01.1-.03.12c-.02.01-.04.01-.06.01l-.95-.14c-.31-.07-.63-.1-.95-.1-.64,0-1.27.07-1.89.22-1.25.25-2.42.83-3.52,1.5-.04.02-.09.01-.11-.03-.01-.02-.01-.04-.01-.05v-.08Z"/>
                    <path class="cls-76" d="m609.88,71.93c.57-.78,1.29-1.19,2.05-1.39.76-.22,1.56-.2,2.33.01.76.22,1.49.63,2.02,1.26.56.59.88,1.44.9,2.35v.07s-.04.09-.09.09c-.02,0-.04,0-.06-.02l-.77-.58c-.24-.21-.51-.38-.79-.54-.56-.31-1.15-.55-1.77-.71-1.22-.38-2.52-.42-3.81-.35-.05,0-.09-.03-.09-.08,0-.02,0-.04.02-.05l.05-.07Z"/>
                    <path class="cls-76" d="m598.06,88.7c.8.9,1.68,1.53,2.63,1.91.94.37,1.93.5,2.87.33.95-.14,1.85-.58,2.63-1.22.78-.66,1.42-1.53,1.91-2.63h.1c-.13,1.18-.63,2.3-1.43,3.16-.79.87-1.88,1.47-3.05,1.67-1.17.19-2.39-.05-3.42-.63-1.03-.57-1.86-1.48-2.34-2.56l.09-.04Z"/>
                  </g>
                </g>
                <path class="cls-49" d="m614.23,38.8c-10.36,1.43-23.05-3.82-34.28,1.03-1.58.68-2.5,2.46-2.02,4.11.34,1.18,1.26,2.34,3.31,3.06,0,0-11.15,1.69-9.85,8.99,0,0,.43,4.41,9.79,3.48,0,0-9.06,6.93,2.14,7l.58,6.28,1.43-6.33c2.32-.12,5.28-.47,9.05-1.12,0,0-2.61,5.48,11.6,2.29l6.45-1.54c1.83-.44,3.52-1.34,5.36-1.72,7.8-1.62,10.83,21.22,10.83,21.22l1.46-.03,2.58-7.19c.19-.38,3.55-.91,3.8-1.25,14.44-19.84-2.24-41.03-22.21-38.28Z"/>
              </g>
              <path class="cls-65" d="m595.94,112.86s9.59,22.16,25.03-.83c0,0,26.65-2.74,36.03,7.65,26.99,29.93,8.83,101.83,8.83,101.83l-101.54,2.25c4.87.18,13.8-104.73,31.65-110.91Z"/>
              <g>
                <g>
                  <path class="cls-52" d="m645.28,255.68s-6.97,8.44-8.01,4.81c-.87-3.07,9.97-24.39,9.97-24.39l17.81,2.24s-3.9,44.97-9.54,34.45c0,0-1.98,5.59-4.21,1.67,0,0-2.76,4.2-3.78-.06,0,0-1.74,2.8-2.81-.09-1.08-2.89.89-8.5.57-18.63Z"/>
                  <path class="cls-9" d="m647.44,274.41s2.74-7.52,2.03-14.26"/>
                  <path class="cls-9" d="m651.23,274.58s2.5-7.17,1.9-13.92"/>
                  <path class="cls-9" d="m655.37,272.88s1.45-6.93,1-11.93"/>
                </g>
                <path class="cls-76" d="m592.07,113.64c-.36.74-.75,1.47-1.13,2.2-.35.74-.74,1.46-1.06,2.22-.71,1.47-1.38,2.96-1.97,4.48-1.22,3.02-2.35,6.08-3.3,9.21-1.06,3.09-1.93,6.25-2.88,9.39l-1.42,4.72c-.52,1.56-.97,3.15-1.53,4.7l-.09-.02c1.52-6.4,3.05-12.8,5.04-19.08,2.02-6.26,4.62-12.38,8.25-17.88l.08.05Z"/>
                <g>
                  <path class="cls-71" d="m629.67,135.36c2.84,13.31,5.68,26.61,8.51,39.92l.6,71.61,29.35-.65,4.91-49.95c1.55-15.7.7-30.63-2.06-46.68-1.83-10.64-5.54-22.15-13.42-29.91-6.03-5.94-14.77-7.94-22.97-8.37-4.53-.24-9.15-.06-13.63.68"/>
                  <path class="cls-76" d="m629.67,135.36l8.76,39.87v.02s0,.03,0,.03l.75,71.6-.42-.4,29.35-.71-.46.42c1.32-14.02,2.77-28.04,4.17-42.05.34-3.5.73-7.01,1.03-10.51.29-3.5.47-7.01.53-10.52.12-7.02-.22-14.06-.99-21.04-.38-3.49-.86-6.98-1.41-10.45-.55-3.47-1.21-6.92-2.14-10.31-1.85-6.74-4.62-13.35-9.06-18.78-.56-.67-1.12-1.34-1.74-1.96-.59-.65-1.23-1.24-1.88-1.82-1.32-1.14-2.78-2.11-4.31-2.96-3.07-1.69-6.45-2.76-9.89-3.45-3.45-.69-6.97-.97-10.48-1.03-3.52-.05-7.04.16-10.52.71,3.47-.6,7-.85,10.52-.84,3.52.02,7.06.26,10.53.9,3.47.65,6.89,1.68,10.03,3.36,1.56.83,3.06,1.81,4.42,2.95,1.35,1.16,2.58,2.44,3.71,3.81,4.53,5.49,7.36,12.16,9.25,18.95.95,3.4,1.64,6.88,2.2,10.36.57,3.48,1.07,6.97,1.46,10.48.8,7.01,1.18,14.07,1.09,21.13-.05,3.53-.21,7.06-.49,10.58-.29,3.52-.66,7.02-.99,10.52-1.36,14.02-2.67,28.04-4.11,42.06l-.04.42h-.41s-29.35.6-29.35.6h-.41s0-.4,0-.4l-.44-71.61v.05s-8.26-39.97-8.26-39.97Z"/>
                </g>
              </g>
            </g>
          </g>
          <rect class="cls-63" x="498.54" y="26.4" width="196.38" height="150.43" transform="translate(1176.3 276.29) rotate(-172.89)"/>
        </g>
        <g>
          <path class="cls-28" d="m707.42,92.9c-3.39-12.27-16.15-19.45-28.5-16.03-5.92,1.64-10.66,5.41-13.62,10.24l-17.11-3.03,13.86,12.28c-.36,2.9-.17,5.91.66,8.9,3.39,12.27,16.15,19.45,28.5,16.03,12.34-3.41,19.6-16.13,16.21-28.4Z"/>
          <path class="cls-81" d="m697.29,98.34l-1.15-3.7-3.14.98c-.53-.93-1.22-1.75-2.02-2.42l1.53-2.91-3.43-1.8-1.53,2.91c-1.01-.28-2.07-.38-3.14-.29l-.98-3.14-3.7,1.15.98,3.14c-.93.53-1.75,1.22-2.42,2.02l-2.91-1.53-1.8,3.43,2.91,1.53c-.28,1.01-.38,2.07-.29,3.14l-3.14.98,1.15,3.7,3.14-.98c.53.93,1.22,1.75,2.02,2.42l-1.53,2.91,3.43,1.8,1.53-2.91c1.01.28,2.07.38,3.14.29l.98,3.14,3.7-1.15-.98-3.14c.93-.53,1.75-1.22,2.42-2.02l2.91,1.53,1.8-3.43-2.91-1.53c.28-1.01.38-2.07.29-3.14l3.14-.98Zm-10.86,5.75c-2.21.69-4.56-.54-5.24-2.75s.54-4.56,2.75-5.24c2.21-.69,4.56.54,5.24,2.75.69,2.21-.54,4.56-2.75,5.24Z"/>
        </g>
        <g>
          <path class="cls-6" d="m564.1,3.58l-52.03-2.91c-8.46-.47-15.64,4.81-16.04,11.8l-.88,15.69c-.39,6.99,6.15,13.05,14.62,13.52l29.61,1.66,28.93,19.7h0l-6.5-18.45h0c8.46.47,15.64-4.81,16.04-11.8l.88-15.69c.39-6.99-6.15-13.05-14.62-13.52Z"/>
          <g>
            <path class="cls-50" d="m514.52,22.88c-.09,1.55-1.39,2.73-2.91,2.65-1.52-.09-2.68-1.41-2.59-2.96.09-1.55,1.39-2.73,2.91-2.65,1.52.09,2.68,1.41,2.59,2.96Z"/>
            <path class="cls-50" d="m538.6,24.23c-.09,1.55-1.39,2.73-2.91,2.65-1.52-.09-2.68-1.41-2.59-2.96.09-1.55,1.39-2.73,2.91-2.65,1.52.09,2.68,1.41,2.59,2.96Z"/>
            <path class="cls-50" d="m562.68,25.58c-.09,1.55-1.39,2.73-2.91,2.65-1.52-.09-2.68-1.41-2.59-2.96.09-1.55,1.39-2.73,2.91-2.65s2.68,1.41,2.59,2.96Z"/>
          </g>
        </g>
      </g>
    </g>
  </g>
</svg>