<?xml version="1.0" encoding="UTF-8"?>
<svg id="Layer_2" data-name="Layer 2" xmlns="http://www.w3.org/2000/svg" viewBox="0 0 444.51 443.95">
  <defs>
    <style>
      .cls-1 {
        fill: #9e9e9e;
      }

      .cls-1, .cls-2, .cls-3, .cls-4, .cls-5, .cls-6, .cls-7, .cls-8 {
        stroke: #263238;
        stroke-linejoin: round;
      }

      .cls-9, .cls-2, .cls-10, .cls-3 {
        fill: #fff;
      }

      .cls-10 {
        opacity: .8;
      }

      .cls-3, .cls-5, .cls-7 {
        stroke-linecap: round;
      }

      .cls-4, .cls-11, .cls-5 {
        fill: none;
      }

      .cls-12, .cls-6 {
        fill: #92e3a9;
      }

      .cls-7, .cls-13, .cls-8 {
        fill: #263238;
      }
    </style>
  </defs>
  <g id="Character_1" data-name="Character 1">
    <g>
      <g>
        <path class="cls-12" d="m412.76,89.17c-1.56-2.41-3.17-4.77-4.87-7.08-22.51-30.75-60-51.8-96.42-61.33-15.96-4.18-32.34-6.37-48.7-6.93-107.28-3.62-146.69,78.59-181.25,99.78C46.96,134.81-6.08,171.01.57,247.06c5.05,57.83,40.45,113.12,105.09,138.28,7.12,2.78,14.6,5.19,22.43,7.19,14.57,3.73,30.36,6.06,47.38,6.77,48.87,2.02,88.56-8.93,127.38-36.5,9.02-6.41,18-13.64,29.71-14.43,8.51-.58,16.58,2.27,7.68,9.91-10.46,8.99,1.61,26.66,28.15,14.38,44.33-20.51,62.57-64.75,71.16-109.74,10.55-55.22,5.43-123.89-26.79-173.76Z"/>
        <path class="cls-10" d="m412.76,89.17c-1.56-2.41-3.17-4.77-4.87-7.08-22.51-30.75-60-51.8-96.42-61.33-15.96-4.18-32.34-6.37-48.7-6.93-107.28-3.62-146.69,78.59-181.25,99.78C46.96,134.81-6.08,171.01.57,247.06c5.05,57.83,40.45,113.12,105.09,138.28,7.12,2.78,14.6,5.19,22.43,7.19,14.57,3.73,30.36,6.06,47.38,6.77,48.87,2.02,88.56-8.93,127.38-36.5,9.02-6.41,18-13.64,29.71-14.43,8.51-.58,16.58,2.27,7.68,9.91-10.46,8.99,1.61,26.66,28.15,14.38,44.33-20.51,62.57-64.75,71.16-109.74,10.55-55.22,5.43-123.89-26.79-173.76Z"/>
      </g>
      <g>
        <line class="cls-4" x1="233.5" y1="72.19" x2="233.5" y2="426.29"/>
        <line class="cls-4" x1="233.5" y1="25.83" x2="233.5" y2="64.88"/>
        <line class="cls-4" x1="424.63" y1="226.06" x2="434.05" y2="226.06"/>
        <line class="cls-4" x1="158.7" y1="226.06" x2="416.59" y2="226.06"/>
        <line class="cls-4" x1="32.94" y1="226.06" x2="150.66" y2="226.06"/>
      </g>
      <circle class="cls-13" cx="340.29" cy="350.66" r="75.53"/>
      <circle class="cls-13" cx="122.15" cy="350.66" r="75.53"/>
      <circle class="cls-13" cx="337.68" cy="121.61" r="75.53" transform="translate(12.92 274.4) rotate(-45)"/>
      <circle class="cls-13" cx="122.15" cy="121.61" r="75.53" transform="translate(-50.21 121.99) rotate(-45)"/>
      <g>
        <g>
          <path class="cls-1" d="m315.67,269.9s-7.54-.86-11.85-8.62c-4.31-7.76,2.59-14.01,13.79-20.26,11.21-6.25,27.8-8.19,39.87-3.45,12.07,4.74,21.98,20.69,21.77,33.41-.22,12.72-1.51,14.66-2.59,14.23-1.08-.43-2.37-3.66-2.37-3.66,0,0,.86,7.54-.86,12.07-1.72,4.53-3.88,5.82-6.03,5.39-2.16-.43-4.1-4.53-5.6-7.11-1.51-2.59-1.08-6.47-11.85-11.42-10.78-4.96-15.09-7.97-17.24-9.27-2.16-1.29-12.5-4.96-12.5-4.96l-4.53,3.66Z"/>
          <g>
            <path class="cls-5" d="m365.67,263.88c5.6-.49,8.51-1.41,8.51-1.41"/>
            <path class="cls-5" d="m324.24,255.82s11.6,6.93,26.74,8.06c4.25.32,7.95.35,11.06.22"/>
            <path class="cls-5" d="m346.74,267.84s16.13.42,29.57-2.69"/>
            <path class="cls-5" d="m315.76,252.42s-1.7-5.23-.28-7.64"/>
            <path class="cls-5" d="m309.84,260.93c1.69,2.64,4.36,2.39,4.36,2.39"/>
            <path class="cls-5" d="m314.34,248.18s-6.65,3.4-5.66,9.48"/>
            <path class="cls-5" d="m371.9,275.24c1.04.38,2.04.88,2.85,1.52"/>
            <path class="cls-5" d="m365.27,273.93s2.17.1,4.62.7"/>
          </g>
        </g>
        <path class="cls-2" d="m349.61,443.4s24.35-64.55,26.88-81.33c2.53-16.77,7.35-37.68,3.45-44.11-3.91-6.43-14.47-8.04-25.04-4.59-10.57,3.45-21.59,10.34-21.59,10.34,0,0-26.65,53.76-28.26,65.47s1.15,16.31,1.15,16.31l-8.73,24.58"/>
        <path class="cls-2" d="m297.14,304.39s-.17,8.66-.17,12.69,1.5,17.5,1.5,17.85-1.84,4.03-1.84,4.03l15.08,4.49,4.72-10.48s5.53-7.02,7.6-9.79,4.84-10.59,5.64-12.21c.81-1.61,1.96-2.65,1.96-2.65l-11.63-14.97-11.98,8.52-10.89,2.51Z"/>
        <path class="cls-4" d="m306.2,315.09s4.83,3.72,5.76,6.32-1.86,6.51-1.86,6.51"/>
        <path class="cls-6" d="m318.78,291.72l-15.08,15.83c-.29.3-.27.78.04,1.06l11.59,10.64c.29.27.74.26,1.02-.02l15.09-14.98c.29-.29.29-.76,0-1.05l-11.6-11.49c-.29-.29-.77-.29-1.06.02Z"/>
        <g>
          <path class="cls-2" d="m299.94,306.33s5.17,5.6,7.76,6.47c2.59.86,3.23-.43,2.37-1.94-.86-1.51-7.33-9.05-8.19-9.48s-4.31,1.51-4.74,3.02l.65,1.51"/>
          <path class="cls-2" d="m301.88,301.37s1.08-3.23,3.02-3.45,7.11,6.47,8.84,7.76c1.72,1.29,1.29,2.37-.86,2.59s-7.54-3.23-8.41-3.88c-.86-.65-2.59-3.02-2.59-3.02Z"/>
          <path class="cls-2" d="m304.89,297.92s1.01-4.16,4.28-3.41c1.69.39,8.65,7.07,9.73,8.15,1.08,1.08.43,1.94-1.51,1.72-1.94-.22-7.97-4.31-7.97-4.31l-2.16-1.08-2.37-1.08Z"/>
        </g>
        <g>
          <path class="cls-3" d="m317.18,253.74s-4.31,12.07-4.53,18.32c-.22,6.25,3.02,7.54,2.16,9.91-.86,2.37-2.59,6.47-1.94,9.27s6.47,3.66,6.47,3.66c0,0,6.25,14.44,8.62,15.52,2.37,1.08,9.7-2.16,9.7-2.16,0,0,.65,1.29.65,8.19s-3.88,10.99-4.1,16.16c-.22,5.17,1.51,8.62,14.66,3.66,13.15-4.96,21.55-15.3,25-17.24s6.68-3.45,6.68-3.45c0,0-11.21-14.44-15.95-22.85-4.74-8.41-4.1-10.13-4.1-10.13l3.66-9.7-11.42-4.1s-1.94,6.03-4.1,6.25c-2.16.22-5.17-2.37-5.39-3.45-.22-1.08-1.51-3.66-1.51-3.66,0,0-7.76.22-15.52-4.53-7.76-4.74-9.05-9.7-9.05-9.7Z"/>
          <g>
            <path class="cls-5" d="m358.67,284.01l-2.85,1.04s-.26,6.22-3.89,10.37"/>
            <path class="cls-6" d="m357.37,283.1c0,1.07-.87,1.94-1.94,1.94s-1.94-.87-1.94-1.94.87-1.94,1.94-1.94,1.94.87,1.94,1.94Z"/>
          </g>
          <path class="cls-5" d="m322.97,276.47c-4.32-.18-4.95.71-4.07,2.05"/>
          <path class="cls-5" d="m320.84,280.03s2.37.22,4.53-.86"/>
          <path class="cls-5" d="m316.53,275.51s.86-4.31,6.25-3.02"/>
          <path class="cls-5" d="m323,293.83s4.53-1.94,7.33-4.74c0,0,0,4.96-2.8,6.68-2.8,1.72-4.53-1.94-4.53-1.94Z"/>
          <polygon class="cls-7" points="337.66 308.27 347.35 302.02 338.95 317.97 337.66 308.27"/>
        </g>
        <path class="cls-6" d="m294.24,433.98l8.5-27.57s-15.62,11.95-19.07,14.7c-3.45,2.76-8.96-5.51-.92-18.15,8.04-12.64,24.35-42.04,27.8-47.32,3.45-5.28,8.5-18.61,13.78-25.96,5.28-7.35,14.61-11.71,14.61-11.71,0,0-3.36,9.88-12.32,28.48-8.96,18.61-14.7,34.69-16.54,44.11-1.84,9.42-.46,12.64-.46,12.64,0,0-9.19,27.11-9.88,28.72"/>
        <path class="cls-4" d="m318.82,349.21s-10.8,20.45-12.86,32.16c-2.07,11.72,3.68,21.82,3.68,21.82"/>
        <path class="cls-6" d="m377.17,442.71s11.49-35.84,15.39-55.37c3.91-19.53,8.27-33.08,4.59-47.32-3.68-14.24-16.61-24.42-16.61-24.42,0,0-9.58,3.52-23.82,22.13-14.24,18.61-26.19,38.37-32.39,54.45-6.2,16.08-.46,24.12-.46,24.12l-5.28,27.57"/>
        <path class="cls-6" d="m384.98,380.22s-45.95,59.27-55.37,59.73c-9.42.46-17.46-13.78-18.61-14.93-1.15-1.15-11.72-8.73-10.8-12.86.92-4.14,4.14-8.73,6.89-9.19,2.76-.46,10.57,5.74,10.57,5.74,0,0,29.64-38.82,30.32-39.97.69-1.15,8.04-23.66,19.07-35.38,11.03-11.72,18.61-6.2,20.91-1.84"/>
        <path class="cls-4" d="m317.67,408.71s-3.45,4.36-3.91,9.65"/>
        <path class="cls-6" d="m298.15,403.42c4.59-5.05,6.43-16.08,6.43-25.04s4.36-22.28,4.82-25.27c.46-2.99,5.05-8.73,4.82-11.03-.23-2.3-19.07-5.97-19.07-5.97,0,0-1.61,2.07-1.61,3.68v1.61s-9.42,17.69-13.55,34.92c-4.14,17.23-4.82,22.51-4.82,29.87s3.45,17.46,8.5,14.93c5.05-2.53,6.43-8.04,6.43-8.04"/>
      </g>
      <g>
        <g>
          <path class="cls-12" d="m193.04,429.8s-1.76-8.78-1.76-10.76-2.42-46.12-2.85-62.15-7.25-16.03-12.74-18.89-24.81-10.76-28.55-12.3c-3.73-1.54-4.83-3.29-6.37-4.39-1.54-1.1-6.37-1.54-6.37-1.54,0,0-30.22-7.58-35.31-6.43-5.09,1.16-20.02,12.79-26.61,17.41-6.59,4.61-28.99,16.69-28.11,27.67.88,10.98,14.93,45.46,19.76,53.36,4.83,7.91,14.71,21.74,18.23,23.5"/>
          <g>
            <path class="cls-9" d="m88.71,409.99c2.59,1.6,5.27,3.26,10.59,3.26s8-1.66,10.59-3.26c2.46-1.52,4.79-2.96,9.53-2.96s7.07,1.44,9.53,2.96c2.59,1.6,5.27,3.26,10.59,3.26s8-1.66,10.59-3.26c2.46-1.52,4.79-2.96,9.54-2.96s7.07,1.44,9.54,2.96c2.59,1.6,5.27,3.26,10.59,3.26s8-1.66,10.59-3.26c.16-.1.32-.19.47-.29-.04-.72-.07-1.48-.11-2.26-.48.28-.95.57-1.41.85-2.46,1.52-4.79,2.96-9.54,2.96s-7.07-1.44-9.54-2.96c-2.59-1.6-5.27-3.26-10.59-3.26s-8,1.66-10.59,3.26c-2.46,1.52-4.79,2.96-9.54,2.96s-7.07-1.44-9.53-2.96c-2.59-1.6-5.27-3.26-10.59-3.26s-7.99,1.66-10.59,3.26c-2.46,1.52-4.79,2.96-9.53,2.96s-7.07-1.44-9.53-2.96c-2.59-1.6-5.27-3.26-10.59-3.26s-8,1.66-10.59,3.26c-1.54.95-3.02,1.87-5.08,2.43.22.39.43.76.62,1.08.14.23.28.46.43.7,2.05-.63,3.58-1.58,5.07-2.5,2.46-1.52,4.79-2.96,9.53-2.96s7.07,1.44,9.53,2.96Z"/>
            <path class="cls-9" d="m191.47,420.95c-.76.4-1.46.84-2.15,1.27-2.46,1.52-4.79,2.96-9.54,2.96s-7.07-1.44-9.54-2.96c-2.59-1.6-5.27-3.26-10.59-3.26s-8,1.66-10.59,3.26c-2.46,1.52-4.79,2.96-9.54,2.96s-7.07-1.44-9.53-2.96c-2.59-1.6-5.27-3.26-10.59-3.26s-7.99,1.66-10.59,3.26c-2.46,1.52-4.79,2.96-9.53,2.96s-7.07-1.44-9.53-2.96c-2.59-1.6-5.27-3.26-10.59-3.26-4.15,0-6.69,1.01-8.84,2.22.39.55.78,1.09,1.17,1.64,1.92-1.05,4.11-1.86,7.67-1.86,4.75,0,7.07,1.44,9.53,2.96,2.59,1.6,5.27,3.26,10.59,3.26s8-1.66,10.59-3.26c2.46-1.52,4.79-2.96,9.53-2.96s7.07,1.44,9.53,2.96c2.59,1.6,5.27,3.26,10.59,3.26s8-1.66,10.59-3.26c2.46-1.52,4.79-2.96,9.54-2.96s7.07,1.44,9.54,2.96c2.59,1.6,5.27,3.26,10.59,3.26s8-1.66,10.59-3.26c.47-.29.94-.58,1.42-.85-.13-.75-.24-1.48-.33-2.11Z"/>
            <path class="cls-9" d="m59.06,343.66c5.31,0,8-1.66,10.59-3.26,2.46-1.52,4.79-2.96,9.53-2.96s7.07,1.44,9.53,2.96c2.59,1.6,5.27,3.26,10.59,3.26s8-1.66,10.59-3.26c2.46-1.52,4.79-2.96,9.53-2.96s7.07,1.44,9.53,2.96c2.59,1.6,5.27,3.26,10.59,3.26s8-1.66,10.59-3.26c2.46-1.52,4.79-2.96,9.54-2.96s7.07,1.44,9.54,2.96c2.59,1.6,5.27,3.26,10.59,3.26,1.87,0,3.41-.21,4.74-.55-.58-.66-1.21-1.2-1.86-1.67-.86.13-1.8.22-2.88.22-4.75,0-7.07-1.44-9.54-2.96-2.59-1.6-5.27-3.26-10.59-3.26s-8,1.66-10.59,3.26c-2.46,1.52-4.79,2.96-9.54,2.96s-7.07-1.44-9.53-2.96c-2.59-1.6-5.27-3.26-10.59-3.26s-7.99,1.66-10.59,3.26c-2.46,1.52-4.79,2.96-9.53,2.96s-7.07-1.44-9.53-2.96c-2.59-1.6-5.27-3.26-10.59-3.26s-8,1.66-10.59,3.26c-2.46,1.52-4.79,2.96-9.53,2.96-.93,0-1.74-.07-2.5-.17-.71.54-1.41,1.1-2.1,1.66,1.3.32,2.79.51,4.6.51Z"/>
            <path class="cls-9" d="m88.71,326.48c2.59,1.6,5.27,3.26,10.59,3.26s8-1.66,10.59-3.26c2.46-1.52,4.79-2.96,9.53-2.96s7.07,1.44,9.53,2.96c2.59,1.6,5.27,3.26,10.59,3.26,5.01,0,7.68-1.47,10.14-2.99-.98-.4-1.77-.73-2.32-.95-1.95,1.09-4.17,1.94-7.82,1.94-4.75,0-7.07-1.44-9.53-2.96-2.59-1.6-5.27-3.26-10.59-3.26s-7.99,1.66-10.59,3.26c-2.46,1.52-4.79,2.96-9.53,2.96s-7.07-1.44-9.53-2.96c-1.58-.98-3.19-1.97-5.41-2.6-.73.52-1.46,1.05-2.19,1.57,2.86.46,4.67,1.57,6.55,2.73Z"/>
            <path class="cls-9" d="m79.18,393.11c4.75,0,7.07,1.44,9.53,2.96,2.59,1.6,5.27,3.26,10.59,3.26s8-1.66,10.59-3.26c2.46-1.52,4.79-2.96,9.53-2.96s7.07,1.44,9.53,2.96c2.59,1.6,5.27,3.26,10.59,3.26s8-1.66,10.59-3.26c2.46-1.52,4.79-2.96,9.54-2.96s7.07,1.44,9.54,2.96c2.59,1.6,5.27,3.26,10.59,3.26s7.85-1.57,10.38-3.14c-.04-.75-.08-1.51-.11-2.28-.25.15-.49.3-.73.45-2.46,1.52-4.79,2.96-9.54,2.96s-7.07-1.44-9.54-2.96c-2.59-1.6-5.27-3.26-10.59-3.26s-8,1.66-10.59,3.26c-2.46,1.52-4.79,2.96-9.54,2.96s-7.07-1.44-9.53-2.96c-2.59-1.6-5.27-3.26-10.59-3.26s-7.99,1.66-10.59,3.26c-2.46,1.52-4.79,2.96-9.53,2.96s-7.07-1.44-9.53-2.96c-2.59-1.6-5.27-3.26-10.59-3.26s-8,1.66-10.59,3.26c-2.46,1.52-4.79,2.96-9.53,2.96-.66,0-1.27-.03-1.84-.09.3.7.59,1.39.89,2.07.31.01.62.02.95.02,5.31,0,8-1.66,10.59-3.26,2.46-1.52,4.79-2.96,9.53-2.96Z"/>
            <path class="cls-9" d="m170.25,352.62c-2.59-1.6-5.27-3.26-10.59-3.26s-8,1.66-10.59,3.26c-2.46,1.52-4.79,2.96-9.54,2.96s-7.07-1.44-9.53-2.96c-2.59-1.6-5.27-3.26-10.59-3.26s-7.99,1.66-10.59,3.26c-2.46,1.52-4.79,2.96-9.53,2.96s-7.07-1.44-9.53-2.96c-2.59-1.6-5.27-3.26-10.59-3.26s-8,1.66-10.59,3.26c-2.46,1.52-4.79,2.96-9.53,2.96s-7.07-1.44-9.53-2.96c-.86-.54-1.74-1.08-2.72-1.56-.39.57-.73,1.15-1.04,1.72.96.46,1.83.99,2.71,1.54,2.59,1.6,5.27,3.26,10.59,3.26s8-1.66,10.59-3.26c2.46-1.52,4.79-2.96,9.53-2.96s7.07,1.44,9.53,2.96c2.59,1.6,5.27,3.26,10.59,3.26s8-1.66,10.59-3.26c2.46-1.52,4.79-2.96,9.53-2.96s7.07,1.44,9.53,2.96c2.59,1.6,5.27,3.26,10.59,3.26s8-1.66,10.59-3.26c2.46-1.52,4.79-2.96,9.54-2.96s7.07,1.44,9.54,2.96c2.59,1.6,5.27,3.26,10.59,3.26,3.99,0,6.49-.93,8.59-2.08-.04-.78-.1-1.51-.18-2.21-2.1,1.24-4.39,2.28-8.41,2.28-4.75,0-7.07-1.44-9.54-2.96Z"/>
            <path class="cls-9" d="m170.25,366.54c-2.59-1.6-5.27-3.26-10.59-3.26s-8,1.66-10.59,3.26c-2.46,1.52-4.79,2.96-9.54,2.96s-7.07-1.44-9.53-2.96c-2.59-1.6-5.27-3.26-10.59-3.26s-7.99,1.66-10.59,3.26c-2.46,1.52-4.79,2.96-9.53,2.96s-7.07-1.44-9.53-2.96c-2.59-1.6-5.27-3.26-10.59-3.26s-8,1.66-10.59,3.26c-2.46,1.52-4.79,2.96-9.53,2.96s-7.07-1.44-9.53-2.96c-1.23-.76-2.49-1.54-4.04-2.14.2.8.42,1.63.66,2.5.81.41,1.56.87,2.32,1.34,2.59,1.6,5.27,3.26,10.59,3.26s8-1.66,10.59-3.26c2.46-1.52,4.79-2.96,9.53-2.96s7.07,1.44,9.53,2.96c2.59,1.6,5.27,3.26,10.59,3.26s8-1.66,10.59-3.26c2.46-1.52,4.79-2.96,9.53-2.96s7.07,1.44,9.53,2.96c2.59,1.6,5.27,3.26,10.59,3.26s8-1.66,10.59-3.26c2.46-1.52,4.79-2.96,9.54-2.96s7.07,1.44,9.54,2.96c2.59,1.6,5.27,3.26,10.59,3.26,4.32,0,6.9-1.09,9.1-2.36-.03-.77-.07-1.53-.1-2.27-2.28,1.4-4.6,2.64-9.01,2.64-4.75,0-7.07-1.44-9.54-2.96Z"/>
            <path class="cls-9" d="m69.64,382.16c2.46-1.52,4.79-2.96,9.53-2.96s7.07,1.44,9.53,2.96c2.59,1.6,5.27,3.26,10.59,3.26s8-1.66,10.59-3.26c2.46-1.52,4.79-2.96,9.53-2.96s7.07,1.44,9.53,2.96c2.59,1.6,5.27,3.26,10.59,3.26s8-1.66,10.59-3.26c2.46-1.52,4.79-2.96,9.54-2.96s7.07,1.44,9.54,2.96c2.59,1.6,5.27,3.26,10.59,3.26,4.73,0,7.37-1.31,9.72-2.73-.04-.76-.07-1.52-.11-2.28-.03.02-.05.03-.08.05-2.46,1.52-4.79,2.96-9.54,2.96s-7.07-1.44-9.54-2.96c-2.59-1.6-5.27-3.26-10.59-3.26s-8,1.66-10.59,3.26c-2.46,1.52-4.79,2.96-9.54,2.96s-7.07-1.44-9.53-2.96c-2.59-1.6-5.27-3.26-10.59-3.26s-7.99,1.66-10.59,3.26c-2.46,1.52-4.79,2.96-9.53,2.96s-7.07-1.44-9.53-2.96c-2.59-1.6-5.27-3.26-10.59-3.26s-8,1.66-10.59,3.26c-2.46,1.52-4.79,2.96-9.53,2.96-3.86,0-6.12-.96-8.16-2.14.34.92.68,1.85,1.03,2.78,1.81.79,4.02,1.36,7.12,1.36,5.31,0,8-1.66,10.59-3.26Z"/>
          </g>
          <path class="cls-4" d="m193.04,429.8s-1.76-8.78-1.76-10.76-2.42-46.12-2.85-62.15-7.25-16.03-12.74-18.89-24.81-10.76-28.55-12.3c-3.73-1.54-4.83-3.29-6.37-4.39-1.54-1.1-6.37-1.54-6.37-1.54,0,0-30.22-7.58-35.31-6.43-5.09,1.16-20.02,12.79-26.61,17.41-6.59,4.61-28.99,16.69-28.11,27.67.88,10.98,14.93,45.46,19.76,53.36,4.83,7.91,14.71,21.74,18.23,23.5"/>
          <line class="cls-4" x1="169.77" y1="429.8" x2="173.28" y2="356.46"/>
          <path class="cls-4" d="m141.66,324.61s-.22,7.03-3.07,12.96"/>
          <path class="cls-4" d="m144.51,326.81s1.76,9.88-.44,18.45"/>
          <path class="cls-4" d="m88.07,359.31s-6.15-10.76-12.74-14.71"/>
          <path class="cls-4" d="m77.75,339.55s6.59,6.59,8.13,11.86"/>
          <path class="cls-4" d="m77.97,386.32s-10.54,8.78-12.74,15.59"/>
          <path class="cls-4" d="m73.8,387.2s-7.69,2.85-9.22,7.47"/>
        </g>
        <g>
          <path class="cls-2" d="m137.74,314.46s-.74,14.72-2.94,17.3c-2.21,2.58-13.62,3.13-19.14-1.1-5.52-4.23-16.56-17.3-16.56-17.3l.92-21.35s8.47,7.36,16.01,15.28c7.55,7.91,21.72,7.18,21.72,7.18Z"/>
          <g>
            <path class="cls-2" d="m145.81,262.17s1.74,4.99,1.3,12.59c-.43,7.6,1.74,12.81.22,18.23s-6.29,20.4-7.81,22.14c-1.52,1.74-13.89,3.69-17.58,2.17-3.69-1.52-22.79-22.79-22.79-22.79,0,0-8.03-3.91-9.55-8.47-1.52-4.56-1.3-5.64-1.3-5.64,0,0,3.26-8.47,3.91-10.85s4.34-17.58,16.93-21.27c12.59-3.69,22.36-.43,25.83.87,3.47,1.3,7.38,4.99,7.38,4.99l3.47,8.03Z"/>
            <path class="cls-4" d="m139.08,282.79s4.12,6.73,2.39,8.03c-1.74,1.3-9.98,2.6-12.37,1.3-2.39-1.3-1.09-4.56-1.09-4.56,0,0-5.86.43-8.47,3.04"/>
            <path class="cls-2" d="m139.3,295.82s-10.85,1.74-21.27-1.95c0,0,3.26,6.95,10.85,8.03s10.42-6.08,10.42-6.08Z"/>
            <path class="cls-13" d="m139.88,275.97c0,1.39.74,2.51,1.66,2.51s1.66-1.13,1.66-2.51-.74-2.51-1.66-2.51-1.66,1.13-1.66,2.51Z"/>
            <ellipse class="cls-13" cx="123.67" cy="278.24" rx="1.66" ry="2.51"/>
            <path class="cls-4" d="m139.08,278.45s1.3,1.74,5.43,2.82"/>
            <path class="cls-4" d="m124.77,281.93s-3.09,2-6.19,1.82"/>
            <path class="cls-7" d="m128.42,268.46s-5.23-.84-7.88.03c-2.65.87-5.39,3.94-4.86,5.35.53,1.4,2.72-1.79,5.91-2.72s6.32-.76,7.57-1.09c1.24-.33-.74-1.56-.74-1.56Z"/>
            <path class="cls-7" d="m136.2,267.67s3.87-1.73,6.01-1.28c2.15.45,4.7,3.17,4.5,4.7s-2.34-1.39-4.91-1.82c-2.57-.43-4.94.27-5.93.13-1-.14.33-1.73.33-1.73Z"/>
            <path class="cls-7" d="m104.13,239.38s11.94-7.38,23.66-5.64c11.72,1.74,22.79,8.9,23.01,11.29.22,2.39-5.43,2.82-5.43,2.82,0,0,5.64,4.99,4.56,9.55-1.09,4.56-4.12,4.78-4.12,4.78l-3.47-8.03s-12.81.65-18.23-.22-8.68-1.95-8.68-1.95l-9.77,5.21s10.42,2.39,8.9,3.91c-1.52,1.52-6.29,1.3-6.29,1.3,0,0,4.99,6.95,3.69,8.9-1.3,1.95-6.95,5.86-6.95,5.86,0,0,1.74,5.86.65,7.16-1.09,1.3-4.12,0-4.78-.87-.65-.87-4.99-5.43-4.99-5.43l-7.6,2.39s-5.86-12.37-5.43-17.58c.43-5.21,3.47-11.72,6.73-13.02,3.26-1.3,5.43-3.04,5.43-3.04,0,0,2.17-7.81,4.34-10.2,2.17-2.39,4.56,0,4.78,2.82Z"/>
          </g>
        </g>
        <g>
          <path class="cls-6" d="m94.35,274.76l24,37.84c.51.81.3,1.88-.48,2.43l-16.39,11.55c-.88.62-2.1.33-2.61-.62l-20.36-37.96c-.39-.73-.23-1.63.38-2.18l12.75-11.42c.83-.74,2.12-.56,2.71.38Z"/>
          <g>
            <path class="cls-2" d="m115.47,312.99s.74,4.42,2.21,4.6c1.47.18,2.76-3.31,2.76-3.31,0,0-2.58-7.91-3.13-8.28-.55-.37-4.42-6.81-5.52-7.91-1.1-1.1-2.94-1.47-2.94-1.47,0,0-4.23-4.79-5.34-4.97-1.1-.18-5.52,2.58-5.52,2.58,0,0-3.17-8.63-4.64-10.47-1.47-1.84-5.3-4.25-5.48-2.04-.18,2.21,2.7,6.92,3.99,12.62s1.53,9.65.98,13.7c-.55,4.05-1.1,9.39-.18,12.7s7.18,19.14,7.18,19.14l.37,3.13,14.17,2.58s3.5-8.1,3.31-10.67c-.18-2.58-4.78-19.32-4.78-19.32l.74-2.94,1.84.37Z"/>
            <path class="cls-4" d="m117.31,306s-2.58-2.94-4.23-1.84c-1.66,1.1-5.15,7.36-5.52,7.91s-1.29,3.68-1.29,4.78"/>
            <path class="cls-4" d="m108.85,296.61s-6.07,10.49-6.81,11.96c-.74,1.47-2.39,4.78-2.21,6.63"/>
            <polygon class="cls-6" points="106.46 300.66 103.51 298.63 102.04 300.84 102.04 308.57 106.46 300.66"/>
            <path class="cls-4" d="m97.99,294.22s-2.02,0-2.39,2.76c-.37,2.76-.92,14.35-.92,14.35"/>
          </g>
          <path class="cls-12" d="m73.14,426.95s6.37,6.37,10.76,9.88,14.71.88,18.89-.88,7.69-20.64,7.69-20.64c0,0,11.42-40.63,11.64-42.16.22-1.54.66-5.93-1.32-8.34-1.98-2.42-19.54-10.54-20.64-10.76l-6.81,2.64s-6.15,1.54-7.91,5.93-16.69,50.73-16.91,52.26"/>
          <g>
            <path class="cls-9" d="m119.42,377.19c-5.31,0-7.99,1.66-10.59,3.26-2.46,1.52-4.79,2.96-9.53,2.96s-7.07-1.44-9.53-2.96c-2.37-1.47-4.81-2.97-9.27-3.22-.21.65-.43,1.31-.65,1.99,4.28.13,6.53,1.49,8.86,2.94,2.59,1.6,5.27,3.26,10.59,3.26s8-1.66,10.59-3.26c2.46-1.52,4.79-2.96,9.53-2.96.39,0,.74.02,1.1.04.19-.71.37-1.37.54-1.98-.52-.04-1.06-.06-1.63-.06Z"/>
            <path class="cls-9" d="m99.3,357.58c2.74,0,4.78-.44,6.47-1.09-1.02-.48-1.97-.91-2.78-1.28-1.06.22-2.25.37-3.68.37-.98,0-1.84-.07-2.64-.19l-3.31,1.28c1.59.54,3.48.9,5.95.9Z"/>
            <path class="cls-9" d="m108.83,408.29c-2.46,1.52-4.79,2.96-9.53,2.96s-7.07-1.44-9.53-2.96c-2.59-1.6-5.27-3.26-10.59-3.26-3.77,0-6.21.84-8.24,1.89-.32,1.02-.62,1.96-.88,2.82,2.32-1.43,4.64-2.71,9.12-2.71,4.75,0,7.07,1.44,9.53,2.96,2.59,1.6,5.27,3.26,10.59,3.26s8-1.66,10.59-3.26c.81-.5,1.61-.99,2.48-1.42.22-.79.45-1.62.7-2.5-1.64.61-2.95,1.42-4.23,2.22Z"/>
            <path class="cls-9" d="m79.18,420.95c4.75,0,7.07,1.44,9.53,2.96,2.59,1.6,5.27,3.26,10.59,3.26,4.2,0,6.75-1.03,8.91-2.26.27-.95.51-1.88.74-2.78-.04.02-.08.05-.12.07-2.46,1.52-4.79,2.96-9.53,2.96s-7.07-1.44-9.53-2.96c-2.59-1.6-5.27-3.26-10.59-3.26-3.84,0-6.3.87-8.35,1.95l.72,1.88c1.91-1.04,4.1-1.83,7.63-1.83Z"/>
            <path class="cls-9" d="m99.3,371.5c5.31,0,8-1.66,10.59-3.26,2.46-1.52,4.79-2.96,9.53-2.96.63,0,1.21.03,1.76.08-.12-.19-.24-.38-.38-.55-.31-.38-1.01-.9-1.97-1.52-4.92.12-7.5,1.71-9.99,3.25-2.46,1.52-4.79,2.96-9.53,2.96s-7.07-1.44-9.53-2.96c-1.45-.9-2.92-1.81-4.87-2.44-.19.53-.41,1.17-.66,1.91,1.75.56,3.1,1.38,4.48,2.23,2.59,1.6,5.27,3.26,10.59,3.26Z"/>
            <path class="cls-9" d="m88.71,396.07c2.59,1.6,5.27,3.26,10.59,3.26s8-1.66,10.59-3.26c1.92-1.19,3.77-2.32,6.74-2.76.2-.7.39-1.4.58-2.1-3.9.39-6.17,1.79-8.38,3.15-2.46,1.52-4.79,2.96-9.53,2.96s-7.07-1.44-9.53-2.96c-2.59-1.6-5.27-3.26-10.59-3.26-1.22,0-2.3.09-3.27.25-.24.73-.47,1.46-.7,2.19,1.13-.26,2.41-.43,3.97-.43,4.75,0,7.07,1.44,9.53,2.96Z"/>
          </g>
          <path class="cls-4" d="m73.14,426.95s6.37,6.37,10.76,9.88,14.71.88,18.89-.88,7.69-20.64,7.69-20.64c0,0,11.42-40.63,11.64-42.16.22-1.54.66-5.93-1.32-8.34-1.98-2.42-19.54-10.54-20.64-10.76l-6.81,2.64s-6.15,1.54-7.91,5.93-16.69,50.73-16.91,52.26"/>
          <path class="cls-6" d="m93.34,356.68s1.98-20.2,4.17-20.64c2.2-.44,17.79,2.42,21.52,5.71,3.73,3.29,2.42,5.05,1.98,7.03-.44,1.98-3.88,13.73-3.88,13.73,0,0-21.38-5.82-23.79-5.82Z"/>
        </g>
      </g>
      <g>
        <path class="cls-6" d="m383.98,205.14s15.55-67.37,19.6-79.31c4.06-11.94-5.18-17.57-15.32-21.63-10.14-4.06-36.05-18.25-36.05-18.25l-40.11,1.35s-16.22,13.52-22.53,17.12c-6.31,3.6-19.15,7.66-19.15,20.73s-4.51,78.41-4.51,78.41"/>
        <g>
          <rect class="cls-11" x="387.64" y="121.61" width="11.7" height="11.7"/>
          <rect class="cls-11" x="315.64" y="145.61" width="11.7" height="11.7"/>
          <rect class="cls-11" x="315.64" y="121.61" width="11.7" height="11.7"/>
          <rect class="cls-11" x="375.64" y="121.61" width="11.7" height="11.7"/>
          <rect class="cls-11" x="375.64" y="133.61" width="11.7" height="11.7"/>
          <rect class="cls-11" x="375.64" y="157.61" width="11.7" height="11.7"/>
          <rect class="cls-11" x="375.64" y="145.61" width="11.7" height="11.7"/>
          <rect class="cls-11" x="291.64" y="145.61" width="11.7" height="11.7"/>
          <rect class="cls-11" x="351.64" y="97.61" width="11.7" height="11.7"/>
          <rect class="cls-11" x="303.64" y="133.61" width="11.7" height="11.7"/>
          <rect class="cls-11" x="303.64" y="145.61" width="11.7" height="11.7"/>
          <rect class="cls-11" x="315.64" y="169.61" width="11.7" height="11.7"/>
          <rect class="cls-11" x="303.64" y="157.61" width="11.7" height="11.7"/>
          <rect class="cls-11" x="291.64" y="133.61" width="11.7" height="11.7"/>
          <polygon class="cls-11" points="303.34 187.21 303.34 181.61 291.64 181.61 291.64 187.21 291.64 187.46 291.64 187.71 291.64 193.31 303.34 193.31 303.34 187.71 303.34 187.46 303.34 187.21"/>
          <rect class="cls-11" x="339.64" y="169.61" width="11.7" height="11.7"/>
          <rect class="cls-11" x="339.64" y="157.61" width="11.7" height="11.7"/>
          <rect class="cls-11" x="303.64" y="121.61" width="11.7" height="11.7"/>
          <rect class="cls-11" x="375.64" y="169.61" width="11.7" height="11.7"/>
          <rect class="cls-11" x="339.64" y="133.61" width="11.7" height="11.7"/>
          <rect class="cls-11" x="291.64" y="169.61" width="11.7" height="11.7"/>
          <polygon class="cls-11" points="333.49 145.31 333.74 145.31 339.34 145.31 339.34 133.61 333.74 133.61 333.49 133.61 333.24 133.61 327.64 133.61 327.64 145.31 333.24 145.31 333.49 145.31"/>
          <rect class="cls-11" x="351.64" y="145.61" width="11.7" height="11.7"/>
          <rect class="cls-11" x="351.64" y="121.61" width="11.7" height="11.7"/>
          <rect class="cls-11" x="339.64" y="121.61" width="11.7" height="11.7"/>
          <rect class="cls-11" x="351.64" y="169.61" width="11.7" height="11.7"/>
          <rect class="cls-11" x="291.64" y="157.61" width="11.7" height="11.7"/>
          <polygon class="cls-11" points="333.49 133.31 333.74 133.31 339.34 133.31 339.34 121.61 333.74 121.61 333.49 121.61 333.24 121.61 327.64 121.61 327.64 133.31 333.24 133.31 333.49 133.31"/>
          <polygon class="cls-11" points="375.64 121.31 387.34 121.31 387.34 115.71 387.34 115.46 387.34 115.21 387.34 109.61 375.64 109.61 375.64 115.21 375.64 115.46 375.64 115.71 375.64 121.31"/>
          <rect class="cls-11" x="315.64" y="133.61" width="11.7" height="11.7"/>
          <polygon class="cls-11" points="333.49 157.31 333.74 157.31 339.34 157.31 339.34 145.61 333.74 145.61 333.49 145.61 333.24 145.61 327.64 145.61 327.64 157.31 333.24 157.31 333.49 157.31"/>
          <polygon class="cls-11" points="333.49 181.31 333.74 181.31 339.34 181.31 339.34 169.61 333.74 169.61 333.49 169.61 333.24 169.61 327.64 169.61 327.64 181.31 333.24 181.31 333.49 181.31"/>
          <rect class="cls-11" x="351.64" y="133.61" width="11.7" height="11.7"/>
          <polygon class="cls-11" points="333.49 169.31 333.74 169.31 339.34 169.31 339.34 157.61 333.74 157.61 333.49 157.61 333.24 157.61 327.64 157.61 327.64 169.31 333.24 169.31 333.49 169.31"/>
          <rect class="cls-11" x="351.64" y="157.61" width="11.7" height="11.7"/>
          <rect class="cls-11" x="339.64" y="145.61" width="11.7" height="11.7"/>
          <polygon class="cls-11" points="279.34 187.71 279.34 187.46 279.34 187.21 279.34 181.61 267.64 181.61 267.64 187.21 267.64 187.46 267.64 187.71 267.64 193.31 279.34 193.31 279.34 187.71"/>
          <polygon class="cls-11" points="327.64 121.31 333.24 121.31 333.49 121.31 333.74 121.31 339.34 121.31 339.34 115.71 339.34 115.46 339.34 115.21 339.34 109.61 333.74 109.61 333.49 109.61 333.24 109.61 327.64 109.61 327.64 115.21 327.64 115.46 327.64 115.71 327.64 121.31"/>
          <polygon class="cls-11" points="333.49 109.31 333.74 109.31 339.34 109.31 339.34 97.61 333.74 97.61 333.49 97.61 333.24 97.61 327.64 97.61 327.64 109.31 333.24 109.31 333.49 109.31"/>
          <polygon class="cls-11" points="279.64 193.31 291.34 193.31 291.34 187.71 291.34 187.46 291.34 187.21 291.34 181.61 279.64 181.61 279.64 187.21 279.64 187.46 279.64 187.71 279.64 193.31"/>
          <rect class="cls-11" x="315.64" y="97.61" width="11.7" height="11.7"/>
          <rect class="cls-11" x="363.64" y="121.61" width="11.7" height="11.7"/>
          <polygon class="cls-11" points="351.64 121.31 363.34 121.31 363.34 115.71 363.34 115.46 363.34 115.21 363.34 109.61 351.64 109.61 351.64 115.21 351.64 115.46 351.64 115.71 351.64 121.31"/>
          <polygon class="cls-11" points="363.64 115.46 363.64 115.71 363.64 121.31 375.34 121.31 375.34 115.71 375.34 115.46 375.34 115.21 375.34 109.61 363.64 109.61 363.64 115.21 363.64 115.46"/>
          <rect class="cls-11" x="339.64" y="97.61" width="11.7" height="11.7"/>
          <polygon class="cls-11" points="339.64 115.21 339.64 115.46 339.64 115.71 339.64 121.31 351.34 121.31 351.34 115.71 351.34 115.46 351.34 115.21 351.34 109.61 339.64 109.61 339.64 115.21"/>
          <polygon class="cls-11" points="315.64 115.21 315.64 115.46 315.64 115.71 315.64 121.31 327.34 121.31 327.34 115.71 327.34 115.46 327.34 115.21 327.34 109.61 315.64 109.61 315.64 115.21"/>
          <rect class="cls-11" x="279.64" y="133.61" width="11.7" height="11.7"/>
          <rect class="cls-11" x="279.64" y="145.61" width="11.7" height="11.7"/>
          <rect class="cls-11" x="279.64" y="157.61" width="11.7" height="11.7"/>
          <rect class="cls-11" x="279.64" y="121.61" width="11.7" height="11.7"/>
          <polygon class="cls-11" points="303.64 121.31 315.34 121.31 315.34 115.71 315.34 115.46 315.34 115.21 315.34 109.61 303.64 109.61 303.64 115.21 303.64 115.46 303.64 115.71 303.64 121.31"/>
          <rect class="cls-11" x="291.64" y="121.61" width="11.7" height="11.7"/>
          <polygon class="cls-11" points="303.34 115.46 303.34 115.21 303.34 109.61 291.64 109.61 291.64 115.21 291.64 115.46 291.64 115.71 291.64 121.31 303.34 121.31 303.34 115.71 303.34 115.46"/>
          <rect class="cls-11" x="279.64" y="169.61" width="11.7" height="11.7"/>
          <rect class="cls-11" x="303.64" y="97.61" width="11.7" height="11.7"/>
          <polygon class="cls-11" points="339.34 187.46 339.34 187.21 339.34 181.61 333.74 181.61 333.49 181.61 333.24 181.61 327.64 181.61 327.64 187.21 327.64 187.46 327.64 187.71 327.64 193.31 333.24 193.31 333.49 193.31 333.74 193.31 339.34 193.31 339.34 187.71 339.34 187.46"/>
          <polygon class="cls-11" points="327.34 187.21 327.34 181.61 315.64 181.61 315.64 187.21 315.64 187.46 315.64 187.71 315.64 193.31 327.34 193.31 327.34 187.71 327.34 187.46 327.34 187.21"/>
          <rect class="cls-11" x="363.64" y="133.61" width="11.7" height="11.7"/>
          <polygon class="cls-11" points="363.34 187.46 363.34 187.21 363.34 181.61 351.64 181.61 351.64 187.21 351.64 187.46 351.64 187.71 351.64 193.31 363.34 193.31 363.34 187.71 363.34 187.46"/>
          <polygon class="cls-11" points="315.34 187.46 315.34 187.21 315.34 181.61 303.64 181.61 303.64 187.21 303.64 187.46 303.64 187.71 303.64 193.31 315.34 193.31 315.34 187.71 315.34 187.46"/>
          <rect class="cls-11" x="303.64" y="169.61" width="11.7" height="11.7"/>
          <polygon class="cls-11" points="351.34 187.21 351.34 181.61 339.64 181.61 339.64 187.21 339.64 187.46 339.64 187.71 339.64 193.31 351.34 193.31 351.34 187.71 351.34 187.46 351.34 187.21"/>
          <polygon class="cls-11" points="363.64 187.21 363.64 187.46 363.64 187.71 363.64 193.31 375.34 193.31 375.34 187.71 375.34 187.46 375.34 187.21 375.34 181.61 363.64 181.61 363.64 187.21"/>
          <rect class="cls-11" x="363.64" y="169.61" width="11.7" height="11.7"/>
          <rect class="cls-11" x="363.64" y="145.61" width="11.7" height="11.7"/>
          <rect class="cls-11" x="363.64" y="157.61" width="11.7" height="11.7"/>
          <rect class="cls-11" x="315.64" y="157.61" width="11.7" height="11.7"/>
          <g>
            <rect class="cls-13" x="339.34" y="97.61" width=".3" height="11.7"/>
            <polygon class="cls-13" points="339.64 86.37 339.34 86.38 339.34 97.31 339.64 97.31 339.64 86.37"/>
            <polygon class="cls-13" points="339.64 115.21 339.64 109.61 339.34 109.61 339.34 115.21 339.34 115.46 339.64 115.46 339.64 115.21"/>
            <path class="cls-13" d="m363.64,92.08c-.1-.05-.2-.11-.3-.16v5.38h.3v-5.23Z"/>
            <rect class="cls-13" x="363.34" y="97.61" width=".3" height="11.7"/>
            <polygon class="cls-13" points="363.34 115.46 363.64 115.46 363.64 115.21 363.64 109.61 363.34 109.61 363.34 115.21 363.34 115.46"/>
            <polygon class="cls-13" points="387.34 115.21 387.34 115.46 387.64 115.46 387.64 115.21 387.64 109.61 387.34 109.61 387.34 115.21"/>
            <path class="cls-13" d="m387.64,103.94c-.1-.04-.2-.08-.3-.12v5.49h.3v-5.37Z"/>
            <polygon class="cls-13" points="351.64 109.31 351.64 109.61 363.34 109.61 363.64 109.61 375.34 109.61 375.34 109.31 363.64 109.31 363.34 109.31 351.64 109.31"/>
            <path class="cls-13" d="m387.34,109.61h11.2c-.13-.1-.27-.2-.41-.3h-22.49v.3h11.7Z"/>
            <polygon class="cls-13" points="339.34 109.31 333.74 109.31 333.74 109.61 339.34 109.61 339.64 109.61 351.34 109.61 351.34 109.31 339.64 109.31 339.34 109.31"/>
            <path class="cls-13" d="m363.34,97.61h10.96c-.2-.1-.39-.2-.59-.3h-22.07v.3h11.7Z"/>
            <polygon class="cls-13" points="339.34 97.61 339.64 97.61 351.34 97.61 351.34 97.31 339.64 97.31 339.34 97.31 333.74 97.31 333.74 97.61 339.34 97.61"/>
            <polygon class="cls-13" points="351.34 109.31 351.34 109.61 351.34 115.21 351.34 115.46 351.64 115.46 351.64 115.21 351.64 109.61 351.64 109.31 351.64 97.61 351.64 97.31 351.64 85.97 351.34 85.98 351.34 97.31 351.34 97.61 351.34 109.31"/>
            <path class="cls-13" d="m375.34,115.21v.25h.3v-17.17c-.1-.05-.2-.1-.3-.15v17.07Z"/>
            <path class="cls-13" d="m399.64,115.21v-4.71c-.1-.09-.2-.18-.3-.26v5.22h.3v-.25Z"/>
            <rect class="cls-13" x="333.49" y="109.31" width=".25" height=".3"/>
            <rect class="cls-13" x="333.49" y="97.31" width=".25" height=".3"/>
            <rect class="cls-13" x="339.34" y="121.61" width=".3" height="11.7"/>
            <rect class="cls-13" x="339.34" y="115.71" width=".3" height="5.6"/>
            <rect class="cls-13" x="339.34" y="169.61" width=".3" height="11.7"/>
            <polygon class="cls-13" points="339.34 187.21 339.34 187.46 339.64 187.46 339.64 187.21 339.64 181.61 339.34 181.61 339.34 187.21"/>
            <rect class="cls-13" x="339.34" y="133.61" width=".3" height="11.7"/>
            <rect class="cls-13" x="339.34" y="157.61" width=".3" height="11.7"/>
            <rect class="cls-13" x="339.34" y="145.61" width=".3" height="11.7"/>
            <rect class="cls-13" x="363.34" y="121.61" width=".3" height="11.7"/>
            <rect class="cls-13" x="363.34" y="169.61" width=".3" height="11.7"/>
            <rect class="cls-13" x="363.34" y="145.61" width=".3" height="11.7"/>
            <rect class="cls-13" x="363.34" y="115.71" width=".3" height="5.6"/>
            <rect class="cls-13" x="363.34" y="133.61" width=".3" height="11.7"/>
            <rect class="cls-13" x="363.34" y="157.61" width=".3" height="11.7"/>
            <polygon class="cls-13" points="363.34 187.46 363.64 187.46 363.64 187.21 363.64 181.61 363.34 181.61 363.34 187.21 363.34 187.46"/>
            <rect class="cls-13" x="387.34" y="115.71" width=".3" height="5.6"/>
            <rect class="cls-13" x="387.34" y="169.61" width=".3" height="11.7"/>
            <rect class="cls-13" x="387.34" y="133.61" width=".3" height="11.7"/>
            <rect class="cls-13" x="387.34" y="121.61" width=".3" height="11.7"/>
            <rect class="cls-13" x="387.34" y="145.61" width=".3" height="11.7"/>
            <polygon class="cls-13" points="387.34 187.21 387.34 187.46 387.64 187.46 387.64 187.21 387.64 181.61 387.34 181.61 387.34 187.21"/>
            <rect class="cls-13" x="387.34" y="157.61" width=".3" height="11.7"/>
            <path class="cls-13" d="m375.64,181.31v.3h13.84c.02-.1.05-.2.07-.3h-13.91Z"/>
            <polygon class="cls-13" points="339.64 181.31 339.34 181.31 333.74 181.31 333.74 181.61 339.34 181.61 339.64 181.61 351.34 181.61 351.34 181.31 339.64 181.31"/>
            <polygon class="cls-13" points="363.34 181.31 351.64 181.31 351.64 181.61 363.34 181.61 363.64 181.61 375.34 181.61 375.34 181.31 363.64 181.31 363.34 181.31"/>
            <path class="cls-13" d="m375.64,157.31v.3h19.6c.02-.1.05-.2.07-.3h-19.68Z"/>
            <polygon class="cls-13" points="339.34 157.31 333.74 157.31 333.74 157.61 339.34 157.61 339.64 157.61 351.34 157.61 351.34 157.31 339.64 157.31 339.34 157.31"/>
            <polygon class="cls-13" points="363.34 157.31 351.64 157.31 351.64 157.61 363.34 157.61 363.64 157.61 375.34 157.61 375.34 157.31 363.64 157.31 363.34 157.31"/>
            <path class="cls-13" d="m401.32,133.61c.03-.1.05-.2.08-.3h-1.76v.3h1.68Z"/>
            <polygon class="cls-13" points="387.64 133.31 387.34 133.31 375.64 133.31 375.64 133.61 387.34 133.61 387.64 133.61 399.34 133.61 399.34 133.31 387.64 133.31"/>
            <polygon class="cls-13" points="339.34 133.31 333.74 133.31 333.74 133.61 339.34 133.61 339.64 133.61 351.34 133.61 351.34 133.31 339.64 133.31 339.34 133.31"/>
            <polygon class="cls-13" points="363.34 133.31 351.64 133.31 351.64 133.61 363.34 133.61 363.64 133.61 375.34 133.61 375.34 133.31 363.64 133.31 363.34 133.31"/>
            <path class="cls-13" d="m375.64,169.31v.3h16.7c.02-.1.05-.2.07-.3h-16.77Z"/>
            <polygon class="cls-13" points="339.34 169.31 333.74 169.31 333.74 169.61 339.34 169.61 339.64 169.61 351.34 169.61 351.34 169.31 339.64 169.31 339.34 169.31"/>
            <polygon class="cls-13" points="363.34 169.31 351.64 169.31 351.64 169.61 363.34 169.61 363.64 169.61 375.34 169.61 375.34 169.31 363.64 169.31 363.34 169.31"/>
            <path class="cls-13" d="m375.64,145.31v.3h22.57c.03-.1.05-.2.08-.3h-22.65Z"/>
            <polygon class="cls-13" points="339.34 145.31 333.74 145.31 333.74 145.61 339.34 145.61 339.64 145.61 351.34 145.61 351.34 145.31 339.64 145.31 339.34 145.31"/>
            <polygon class="cls-13" points="363.34 145.31 351.64 145.31 351.64 145.61 363.34 145.61 363.64 145.61 375.34 145.61 375.34 145.31 363.64 145.31 363.34 145.31"/>
            <polygon class="cls-13" points="339.34 121.61 339.64 121.61 351.34 121.61 351.34 121.31 339.64 121.31 339.34 121.31 333.74 121.31 333.74 121.61 339.34 121.61"/>
            <path class="cls-13" d="m404.51,121.61c0-.1,0-.2.02-.3h-4.88v.3h4.86Z"/>
            <polygon class="cls-13" points="375.64 121.31 375.64 121.61 387.34 121.61 387.64 121.61 399.34 121.61 399.34 121.31 387.64 121.31 387.34 121.31 375.64 121.31"/>
            <polygon class="cls-13" points="363.34 121.31 351.64 121.31 351.64 121.61 363.34 121.61 363.64 121.61 375.34 121.61 375.34 121.31 363.64 121.31 363.34 121.31"/>
            <polygon class="cls-13" points="351.34 133.31 351.34 133.61 351.34 145.31 351.34 145.61 351.34 157.31 351.34 157.61 351.34 169.31 351.34 169.61 351.34 181.31 351.34 181.61 351.34 187.21 351.34 187.46 351.64 187.46 351.64 187.21 351.64 181.61 351.64 181.31 351.64 169.61 351.64 169.31 351.64 157.61 351.64 157.31 351.64 145.61 351.64 145.31 351.64 133.61 351.64 133.31 351.64 121.61 351.64 121.31 351.64 115.71 351.34 115.71 351.34 121.31 351.34 121.61 351.34 133.31"/>
            <polygon class="cls-13" points="375.64 169.61 375.64 169.31 375.64 157.61 375.64 157.31 375.64 145.61 375.64 145.31 375.64 133.61 375.64 133.31 375.64 121.61 375.64 121.31 375.64 115.71 375.34 115.71 375.34 121.31 375.34 121.61 375.34 133.31 375.34 133.61 375.34 145.31 375.34 145.61 375.34 157.31 375.34 157.61 375.34 169.31 375.34 169.61 375.34 181.31 375.34 181.61 375.34 187.21 375.34 187.46 375.64 187.46 375.64 187.21 375.64 181.61 375.64 181.31 375.64 169.61"/>
            <path class="cls-13" d="m399.34,133.31v7.85c.1-.4.2-.79.3-1.17v-24.28h-.3v17.6Z"/>
            <rect class="cls-13" x="333.49" y="181.31" width=".25" height=".3"/>
            <rect class="cls-13" x="333.49" y="157.31" width=".25" height=".3"/>
            <rect class="cls-13" x="333.49" y="133.31" width=".25" height=".3"/>
            <rect class="cls-13" x="333.49" y="169.31" width=".25" height=".3"/>
            <rect class="cls-13" x="333.49" y="145.31" width=".25" height=".3"/>
            <rect class="cls-13" x="333.49" y="121.31" width=".25" height=".3"/>
            <rect class="cls-13" x="339.34" y="115.46" width=".3" height=".25"/>
            <rect class="cls-13" x="363.34" y="115.46" width=".3" height=".25"/>
            <rect class="cls-13" x="387.34" y="115.46" width=".3" height=".25"/>
            <rect class="cls-13" x="351.34" y="115.46" width=".3" height=".25"/>
            <rect class="cls-13" x="375.34" y="115.46" width=".3" height=".25"/>
            <rect class="cls-13" x="399.34" y="115.46" width=".3" height=".25"/>
            <rect class="cls-13" x="334.03" y="198.93" width="10.93" height=".3" transform="translate(135.92 535.89) rotate(-89.24)"/>
            <rect class="cls-13" x="339.34" y="187.71" width=".3" height="5.6"/>
            <rect class="cls-13" x="363.34" y="187.71" width=".3" height="5.6"/>
            <rect class="cls-13" x="357.87" y="199.09" width="11.26" height=".3" transform="translate(159.44 560.05) rotate(-89.24)"/>
            <path class="cls-13" d="m387.34,190.71c.1-.42.2-.85.3-1.28v-1.72h-.3v3Z"/>
            <polygon class="cls-13" points="339.64 193.31 339.34 193.31 333.74 193.31 333.74 193.61 339.34 193.61 339.64 193.61 351.34 193.61 351.34 193.31 339.64 193.31"/>
            <path class="cls-13" d="m386.66,193.61c.02-.1.05-.2.07-.3h-11.09v.3h11.02Z"/>
            <polygon class="cls-13" points="363.64 193.31 363.34 193.31 351.64 193.31 351.64 193.61 363.34 193.61 363.64 193.61 375.34 193.61 375.34 193.31 363.64 193.31"/>
            <polygon class="cls-13" points="351.64 187.71 351.34 187.71 351.34 193.31 351.34 193.61 351.34 204.7 351.64 204.71 351.64 193.61 351.64 193.31 351.64 187.71"/>
            <polygon class="cls-13" points="375.34 193.31 375.34 193.61 375.34 205.02 375.64 205.03 375.64 193.61 375.64 193.31 375.64 187.71 375.34 187.71 375.34 193.31"/>
            <rect class="cls-13" x="333.49" y="193.31" width=".25" height=".3"/>
            <rect class="cls-13" x="339.34" y="187.46" width=".3" height=".25"/>
            <rect class="cls-13" x="363.34" y="187.46" width=".3" height=".25"/>
            <rect class="cls-13" x="387.34" y="187.46" width=".3" height=".25"/>
            <rect class="cls-13" x="351.34" y="187.46" width=".3" height=".25"/>
            <rect class="cls-13" x="375.34" y="187.46" width=".3" height=".25"/>
            <path class="cls-13" d="m291.64,103.13c-.1.07-.2.13-.3.2v5.98h.3v-6.18Z"/>
            <polygon class="cls-13" points="291.64 115.21 291.64 109.61 291.34 109.61 291.34 115.21 291.34 115.46 291.64 115.46 291.64 115.21"/>
            <polygon class="cls-13" points="315.64 87.18 315.34 87.19 315.34 97.31 315.64 97.31 315.64 87.18"/>
            <rect class="cls-13" x="315.34" y="97.61" width=".3" height="11.7"/>
            <polygon class="cls-13" points="315.64 115.21 315.64 109.61 315.34 109.61 315.34 115.21 315.34 115.46 315.64 115.46 315.64 115.21"/>
            <path class="cls-13" d="m303.34,109.61v-.3h-22.91c-.16.1-.32.2-.48.3h23.39Z"/>
            <polygon class="cls-13" points="333.49 109.61 333.49 109.31 333.24 109.31 327.64 109.31 327.64 109.61 333.24 109.61 333.49 109.61"/>
            <polygon class="cls-13" points="315.64 109.61 327.34 109.61 327.34 109.31 315.64 109.31 315.34 109.31 303.64 109.31 303.64 109.61 315.34 109.61 315.64 109.61"/>
            <path class="cls-13" d="m299.62,97.31c-.13.1-.26.2-.39.3h4.11v-.3h-3.72Z"/>
            <polygon class="cls-13" points="315.34 97.61 315.64 97.61 327.34 97.61 327.34 97.31 315.64 97.31 315.34 97.31 303.64 97.31 303.64 97.61 315.34 97.61"/>
            <polygon class="cls-13" points="333.24 97.61 333.49 97.61 333.49 97.31 333.24 97.31 327.64 97.31 327.64 97.61 333.24 97.61"/>
            <path class="cls-13" d="m279.64,115.21v-5.4c-.1.07-.2.13-.3.2v5.45h.3v-.25Z"/>
            <path class="cls-13" d="m303.34,115.21v.25h.3v-21.3c-.1.08-.2.16-.3.24v20.81Z"/>
            <polygon class="cls-13" points="327.34 109.31 327.34 109.61 327.34 115.21 327.34 115.46 327.64 115.46 327.64 115.21 327.64 109.61 327.64 109.31 327.64 97.61 327.64 97.31 327.64 86.77 327.34 86.78 327.34 97.31 327.34 97.61 327.34 109.31"/>
            <path class="cls-13" d="m267.64,177.52c-.08,1.29-.16,2.55-.24,3.79h.24v-3.79Z"/>
            <path class="cls-13" d="m267.64,187.21v-5.6h-.26c-.01.19-.02.37-.04.56v5.29h.3v-.25Z"/>
            <rect class="cls-13" x="291.34" y="169.61" width=".3" height="11.7"/>
            <rect class="cls-13" x="291.34" y="145.61" width=".3" height="11.7"/>
            <rect class="cls-13" x="291.34" y="115.71" width=".3" height="5.6"/>
            <rect class="cls-13" x="291.34" y="157.61" width=".3" height="11.7"/>
            <rect class="cls-13" x="291.34" y="133.61" width=".3" height="11.7"/>
            <rect class="cls-13" x="291.34" y="121.61" width=".3" height="11.7"/>
            <polygon class="cls-13" points="291.64 187.21 291.64 181.61 291.34 181.61 291.34 187.21 291.34 187.46 291.64 187.46 291.64 187.21"/>
            <rect class="cls-13" x="315.34" y="157.61" width=".3" height="11.7"/>
            <rect class="cls-13" x="315.34" y="115.71" width=".3" height="5.6"/>
            <rect class="cls-13" x="315.34" y="133.61" width=".3" height="11.7"/>
            <rect class="cls-13" x="315.34" y="169.61" width=".3" height="11.7"/>
            <rect class="cls-13" x="315.34" y="121.61" width=".3" height="11.7"/>
            <rect class="cls-13" x="315.34" y="145.61" width=".3" height="11.7"/>
            <polygon class="cls-13" points="315.34 187.21 315.34 187.46 315.64 187.46 315.64 187.21 315.64 181.61 315.34 181.61 315.34 187.21"/>
            <path class="cls-13" d="m279.34,181.61v-.3h-11.94c0,.1-.01.2-.02.3h11.96Z"/>
            <polygon class="cls-13" points="333.24 181.31 327.64 181.31 327.64 181.61 333.24 181.61 333.49 181.61 333.49 181.31 333.24 181.31"/>
            <polygon class="cls-13" points="291.64 181.61 303.34 181.61 303.34 181.31 291.64 181.31 291.34 181.31 279.64 181.31 279.64 181.61 291.34 181.61 291.64 181.61"/>
            <polygon class="cls-13" points="315.64 181.61 327.34 181.61 327.34 181.31 315.64 181.31 315.34 181.31 303.64 181.31 303.64 181.61 315.34 181.61 315.64 181.61"/>
            <path class="cls-13" d="m268.9,157.31c0,.1-.01.2-.02.3h10.46v-.3h-10.44Z"/>
            <polygon class="cls-13" points="333.49 157.61 333.49 157.31 333.24 157.31 327.64 157.31 327.64 157.61 333.24 157.61 333.49 157.61"/>
            <polygon class="cls-13" points="291.64 157.61 303.34 157.61 303.34 157.31 291.64 157.31 291.34 157.31 279.64 157.31 279.64 157.61 291.34 157.61 291.64 157.61"/>
            <polygon class="cls-13" points="315.64 157.61 327.34 157.61 327.34 157.31 315.64 157.31 315.34 157.31 303.64 157.31 303.64 157.61 315.34 157.61 315.64 157.61"/>
            <path class="cls-13" d="m270.18,133.31c0,.1,0,.2-.01.3h9.17v-.3h-9.16Z"/>
            <polygon class="cls-13" points="333.49 133.61 333.49 133.31 333.24 133.31 327.64 133.31 327.64 133.61 333.24 133.61 333.49 133.61"/>
            <polygon class="cls-13" points="291.64 133.61 303.34 133.61 303.34 133.31 291.64 133.31 291.34 133.31 279.64 133.31 279.64 133.61 291.34 133.61 291.64 133.61"/>
            <polygon class="cls-13" points="315.64 133.61 327.34 133.61 327.34 133.31 315.64 133.31 315.34 133.31 303.64 133.31 303.64 133.61 315.34 133.61 315.64 133.61"/>
            <path class="cls-13" d="m268.17,169.31c0,.1-.01.2-.02.3h11.2v-.3h-11.18Z"/>
            <polygon class="cls-13" points="333.49 169.61 333.49 169.31 333.24 169.31 327.64 169.31 327.64 169.61 333.24 169.61 333.49 169.61"/>
            <polygon class="cls-13" points="291.64 169.61 303.34 169.61 303.34 169.31 291.64 169.31 291.34 169.31 279.64 169.31 279.64 169.61 291.34 169.61 291.64 169.61"/>
            <polygon class="cls-13" points="315.64 169.61 327.34 169.61 327.34 169.31 315.64 169.31 315.34 169.31 303.64 169.31 303.64 169.61 315.34 169.61 315.64 169.61"/>
            <path class="cls-13" d="m269.59,145.31c0,.1-.01.2-.02.3h9.77v-.3h-9.75Z"/>
            <polygon class="cls-13" points="333.49 145.61 333.49 145.31 333.24 145.31 327.64 145.31 327.64 145.61 333.24 145.61 333.49 145.61"/>
            <polygon class="cls-13" points="291.64 145.61 303.34 145.61 303.34 145.31 291.64 145.31 291.34 145.31 279.64 145.31 279.64 145.61 291.34 145.61 291.64 145.61"/>
            <polygon class="cls-13" points="315.64 145.61 327.34 145.61 327.34 145.31 315.64 145.31 315.34 145.31 303.64 145.31 303.64 145.61 315.34 145.61 315.64 145.61"/>
            <polygon class="cls-13" points="333.24 121.61 333.49 121.61 333.49 121.31 333.24 121.31 327.64 121.31 327.64 121.61 333.24 121.61"/>
            <path class="cls-13" d="m270.84,121.31c-.02.1-.05.2-.07.3h8.58v-.3h-8.51Z"/>
            <polygon class="cls-13" points="291.34 121.61 291.64 121.61 303.34 121.61 303.34 121.31 291.64 121.31 291.34 121.31 279.64 121.31 279.64 121.61 291.34 121.61"/>
            <polygon class="cls-13" points="315.64 121.61 327.34 121.61 327.34 121.31 315.64 121.31 315.34 121.31 303.64 121.31 303.64 121.61 315.34 121.61 315.64 121.61"/>
            <polygon class="cls-13" points="279.34 187.21 279.34 187.46 279.64 187.46 279.64 187.21 279.64 181.61 279.64 181.31 279.64 169.61 279.64 169.31 279.64 157.61 279.64 157.31 279.64 145.61 279.64 145.31 279.64 133.61 279.64 133.31 279.64 121.61 279.64 121.31 279.64 115.71 279.34 115.71 279.34 121.31 279.34 121.61 279.34 133.31 279.34 133.61 279.34 145.31 279.34 145.61 279.34 157.31 279.34 157.61 279.34 169.31 279.34 169.61 279.34 181.31 279.34 181.61 279.34 187.21"/>
            <polygon class="cls-13" points="303.34 133.61 303.34 145.31 303.34 145.61 303.34 157.31 303.34 157.61 303.34 169.31 303.34 169.61 303.34 181.31 303.34 181.61 303.34 187.21 303.34 187.46 303.64 187.46 303.64 187.21 303.64 181.61 303.64 181.31 303.64 169.61 303.64 169.31 303.64 157.61 303.64 157.31 303.64 145.61 303.64 145.31 303.64 133.61 303.64 133.31 303.64 121.61 303.64 121.31 303.64 115.71 303.34 115.71 303.34 121.31 303.34 121.61 303.34 133.31 303.34 133.61"/>
            <polygon class="cls-13" points="327.34 133.31 327.34 133.61 327.34 145.31 327.34 145.61 327.34 157.31 327.34 157.61 327.34 169.31 327.34 169.61 327.34 181.31 327.34 181.61 327.34 187.21 327.34 187.46 327.64 187.46 327.64 187.21 327.64 181.61 327.64 181.31 327.64 169.61 327.64 169.31 327.64 157.61 327.64 157.31 327.64 145.61 327.64 145.31 327.64 133.61 327.64 133.31 327.64 121.61 327.64 121.31 327.64 115.71 327.34 115.71 327.34 121.31 327.34 121.61 327.34 133.31"/>
            <rect class="cls-13" x="291.34" y="115.46" width=".3" height=".25"/>
            <rect class="cls-13" x="315.34" y="115.46" width=".3" height=".25"/>
            <rect class="cls-13" x="279.34" y="115.46" width=".3" height=".25"/>
            <rect class="cls-13" x="303.34" y="115.46" width=".3" height=".25"/>
            <rect class="cls-13" x="327.34" y="115.46" width=".3" height=".25"/>
            <rect class="cls-13" x="267.34" y="187.71" width=".3" height="5.6"/>
            <rect class="cls-13" x="262.51" y="198.44" width="9.97" height=".3" transform="translate(65.27 463.36) rotate(-89.22)"/>
            <rect class="cls-13" x="286.35" y="198.6" width="10.29" height=".3" transform="translate(88.78 487.51) rotate(-89.22)"/>
            <rect class="cls-13" x="291.34" y="187.71" width=".3" height="5.6"/>
            <rect class="cls-13" x="315.34" y="187.71" width=".3" height="5.6"/>
            <rect class="cls-13" x="310.19" y="198.77" width="10.61" height=".3" transform="translate(112.4 511.74) rotate(-89.24)"/>
            <polygon class="cls-13" points="291.64 193.31 291.34 193.31 279.64 193.31 279.64 193.61 291.34 193.61 291.64 193.61 303.34 193.61 303.34 193.31 291.64 193.31"/>
            <path class="cls-13" d="m267.64,193.31h-1.04c0,.1-.01.2-.02.3h12.75v-.3h-11.7Z"/>
            <polygon class="cls-13" points="315.64 193.31 315.34 193.31 303.64 193.31 303.64 193.61 315.34 193.61 315.64 193.61 327.34 193.61 327.34 193.31 315.64 193.31"/>
            <polygon class="cls-13" points="333.24 193.31 327.64 193.31 327.64 193.61 333.24 193.61 333.49 193.61 333.49 193.31 333.24 193.31"/>
            <polygon class="cls-13" points="279.64 187.71 279.34 187.71 279.34 193.31 279.34 193.61 279.34 203.74 279.64 203.74 279.64 193.61 279.64 193.31 279.64 187.71"/>
            <polygon class="cls-13" points="303.64 187.71 303.34 187.71 303.34 193.31 303.34 193.61 303.34 204.06 303.64 204.06 303.64 193.61 303.64 193.31 303.64 187.71"/>
            <polygon class="cls-13" points="327.64 187.71 327.34 187.71 327.34 193.31 327.34 193.61 327.34 204.38 327.64 204.39 327.64 193.61 327.64 193.31 327.64 187.71"/>
            <rect class="cls-13" x="267.34" y="187.46" width=".3" height=".25"/>
            <rect class="cls-13" x="291.34" y="187.46" width=".3" height=".25"/>
            <rect class="cls-13" x="315.34" y="187.46" width=".3" height=".25"/>
            <rect class="cls-13" x="279.34" y="187.46" width=".3" height=".25"/>
            <rect class="cls-13" x="303.34" y="187.46" width=".3" height=".25"/>
            <rect class="cls-13" x="327.34" y="187.46" width=".3" height=".25"/>
          </g>
        </g>
        <g>
          <line class="cls-4" x1="372.28" y1="118.81" x2="363.93" y2="131.72"/>
          <path class="cls-4" d="m371.52,113.75s-3.8,3.54-4.81,11.65"/>
        </g>
        <path class="cls-2" d="m345.9,75.81l6.31,10.14s-5.41,10.36-7.44,13.52-16.45,12.17-17.35,12.62c-.9.45-5.63-11.49-5.63-11.49,0,0,16.45-8.34,24.11-24.78Z"/>
        <path class="cls-4" d="m280.94,154.87c-1.41,16.16-3.78,41.04-5.56,48.02"/>
        <path class="cls-4" d="m282.14,140.47s-.25,3.22-.67,8.22"/>
        <path class="cls-2" d="m317.74,97.66l-5.18,10.36s-6.08-3.83-6.98-11.94c-.9-8.11,6.08-14.19,6.08-14.19l6.08,15.77Z"/>
        <path class="cls-2" d="m308.95,75.36s2.25,7.44,2.48,9.69c.23,2.25,1.58,6.76,6.31,12.62,4.73,5.86,11.49,1.13,17.12-6.08,5.63-7.21,7.66-11.27,7.66-11.27l-1.19-20.42s-13.45,13.21-32.38,15.46Z"/>
        <g>
          <path class="cls-2" d="m304.36,22.36s-4.7,8.93-4.94,11.99c-.24,3.06,0,3.76,0,5.41s-2.82,9.4-2.82,16.22,1.41,16.22,2.82,19.04c1.41,2.82,6.35,4.23,10.34,3.53,4-.71,11.28-3.29,17.86-5.17,6.58-1.88,16.69-12.22,16.69-12.22,0,0,5.17-.94,8.23-7.05,3.06-6.11-.24-11.75-.24-11.75l-4.94-4.23s-6.35-2.59-6.58-5.64c-.23-3.06,7.29-10.11-1.41-15.51-8.7-5.41-29.61-3.06-35.02,5.41Z"/>
          <path class="cls-8" d="m341.97,46.8s-4.23.71-4.7-1.65c-.47-2.35.47-3.29-.47-4.94-.94-1.65-8.23-3.76-8.46-7.52s7.99-7.76,5.64-10.11c-2.35-2.35-6.82-5.41-15.98-3.53-9.17,1.88-8.7,4.7-13.63,3.29-4.94-1.41-1.65-7.05-1.65-7.05,0,0-5.64,3.53-3.76-3.06,1.88-6.58,11.75-11.75,16.92-11.75s10.34,1.41,10.34,1.41c0,0,11.28-2.82,19.04,2.12,7.76,4.94,6.11,9.64,5.41,10.58-.71.94-1.18,2.59-1.18,2.59,0,0,8.46.71,9.87,8.93s-2.35,10.11-3.29,11.05c-.94.94-1.41,4.47-1.41,4.47l-.94,4.23s-5.88-4.94-8.23-2.59c-2.35,2.35-3.53,3.53-3.53,3.53Z"/>
          <path class="cls-4" d="m304.13,38.1s1.18.47.47,3.53c-.71,3.06-6.35,10.58-5.41,12.69.94,2.12,9.3,3.7,11.65,2.52,2.35-1.18,2.66-4.74,2.66-4.74"/>
          <path class="cls-8" d="m299.43,75c-1.23-2.45-2.45-9.88-2.75-16.26,1.37-1.25,3.89-3.06,3.89-3.06,0,0,4.85,1.04,7.39,1.39,2.54.35,4.27-1.15,4.27-1.15,0,0,6.12,1.5,8.32,4.5,1.81,2.48.87,11,.03,15.08-4.26,1.33-8.22,2.57-10.81,3.03-4,.7-8.93-.71-10.34-3.53Z"/>
          <path class="cls-2" d="m305.41,57.77s11.32,1.62,12.59,2.77c1.27,1.15.69,5.78.12,8.66s-7.28,5.66-8.55,4.62c-1.27-1.04-.81-5.89-1.39-6.35-.58-.46-3.7-1.62-4.16,0-.46,1.62.35,6.12-.46,6.12s-2.77-2.89-4.16-7.51c-1.39-4.62-.58-6.58,1.15-7.28,1.73-.69,4.85-1.04,4.85-1.04Z"/>
          <path class="cls-4" d="m315.59,61.28s-7.7,2.96-14.61.2"/>
          <path class="cls-13" d="m313.61,44.54c0,1.05.54,1.91,1.21,1.91s1.21-.85,1.21-1.91-.54-1.91-1.21-1.91-1.21.85-1.21,1.91Z"/>
          <ellipse class="cls-13" cx="302.01" cy="42.52" rx="1.21" ry="1.91"/>
          <path class="cls-4" d="m309.34,39.75s5.31-.92,11.43.12c4.09.69,5.66,1.85,5.66,1.85l-1.04,7.62s-1.16,1.04-7.39.69-7.51-.69-8.78-2.08c-1.27-1.39.12-8.2.12-8.2Z"/>
          <path class="cls-4" d="m304.61,39.75s.21-2.01-6-2.17c-4.15-.11-5.91.72-5.91.72l-.45,7.68s.97,1.01,7.12,2.1c2.47.44,2.98-1.66,3.97-3.26,1.85-3,1.27-5.08,1.27-5.08Z"/>
          <path class="cls-4" d="m309.34,39.75s-3.12-1.5-4.74,0"/>
          <polygon class="cls-8" points="326.44 41.71 344.57 43.56 343.3 44.72 331.29 44.49 329.79 45.29 326.09 45.18 326.44 41.71"/>
          <path class="cls-4" d="m323.43,38.71s-1.85-2.43-5.43-3.35c-3.58-.92-6.58-.12-6.47.81"/>
          <path class="cls-4" d="m304.72,36.28s-1.62-2.77-3.93-2.19"/>
        </g>
        <path class="cls-6" d="m347.58,45.25l7.66,11.96c.66,1.04.42,2.41-.56,3.16l-26.46,20.16c-1.18.9-2.89.5-3.55-.83l-7.05-14.22c-.52-1.05-.19-2.33.77-3l25.86-17.9c1.1-.76,2.62-.46,3.34.67Z"/>
        <g>
          <path class="cls-2" d="m338.07,103.74s-.15-6.81.3-8.44c.44-1.63,11.85-22.37,12.15-23.11.3-.74-2.07-5.48-2.81-6.37-.74-.89-3.55-5.92-3.85-7.55-.3-1.63-2.52-.3-2.52,1.63s1.48,7.26,2.22,8.15c.74.89,1.33,3.26,1.33,3.26l-2.96,3.7s-2.96-8.89-3.11-9.48c-.15-.59-5.18-3.41-6.37-4.44-1.18-1.04-1.48-1.19-2.37-.74-.89.44-1.33,1.78-1.33,1.78,0,0-.84-.19-1.73.55-.89.74-.71,1.77-.86,2.37l.07,1.38s-1.48-.3-2.22.44-.74.59-.74.59c0,0-.89,1.04.3,1.93s3.41,2.19,4.08,3.98-2.89,10.53-4.52,16.01c-1.63,5.48-2.81,10.52-1.48,12.89s4.44,7.85,4.44,7.85l12-6.37Z"/>
          <path class="cls-4" d="m326.22,66.41s6.07,5.18,6.37,6.07c.3.89.19,4.88.19,4.88"/>
          <path class="cls-4" d="m328.74,62.12s6.52,5.63,6.67,6.52c.15.89,2.01,8.03,2.01,8.03"/>
          <line class="cls-4" x1="343.6" y1="78.5" x2="341.92" y2="75.01"/>
        </g>
        <path class="cls-6" d="m386.23,169.99c-4.73,5.18-18.7,24.11-21.86,24.11s-7.66-4.73-16.45-20.05-18.25-48.22-18.25-48.22l-7.21-17.12,19.38-10.14s4.06,9.01,4.06,9.69,36.73,48.22,36.73,48.22"/>
        <g>
          <rect class="cls-11" x="351.64" y="145.61" width="11.7" height="11.7"/>
          <rect class="cls-11" x="339.64" y="133.61" width="11.7" height="11.7"/>
          <rect class="cls-11" x="351.64" y="133.61" width="11.7" height="11.7"/>
          <rect class="cls-11" x="339.64" y="121.61" width="11.7" height="11.7"/>
          <rect class="cls-11" x="351.64" y="157.61" width="11.7" height="11.7"/>
          <rect class="cls-11" x="363.64" y="157.61" width="11.7" height="11.7"/>
          <rect class="cls-11" x="363.64" y="169.61" width="11.7" height="11.7"/>
          <g>
            <polygon class="cls-13" points="339.64 99.72 339.34 99.87 339.34 109.31 339.64 109.31 339.64 99.72"/>
            <polygon class="cls-13" points="339.64 115.21 339.64 109.61 339.34 109.61 339.34 115.21 339.34 115.46 339.64 115.46 339.64 115.21"/>
            <path class="cls-13" d="m346.82,109.61c-.08-.11-.15-.2-.22-.3h-12.86v.3h13.07Z"/>
            <rect class="cls-13" x="333.49" y="109.31" width=".25" height=".3"/>
            <rect class="cls-13" x="339.34" y="115.71" width=".3" height="5.6"/>
            <rect class="cls-13" x="339.34" y="121.61" width=".3" height="11.7"/>
            <path class="cls-13" d="m339.34,154.86c.1.26.2.53.3.79v-10.04h-.3v9.25Z"/>
            <rect class="cls-13" x="339.34" y="133.61" width=".3" height="11.7"/>
            <path class="cls-13" d="m363.64,131.81c-.1-.13-.2-.26-.3-.39v1.9h.3v-1.5Z"/>
            <polygon class="cls-13" points="363.34 187.21 363.34 187.46 363.64 187.46 363.64 187.21 363.64 181.61 363.34 181.61 363.34 187.21"/>
            <rect class="cls-13" x="363.34" y="157.61" width=".3" height="11.7"/>
            <rect class="cls-13" x="363.34" y="169.61" width=".3" height="11.7"/>
            <rect class="cls-13" x="363.34" y="145.61" width=".3" height="11.7"/>
            <rect class="cls-13" x="363.34" y="133.61" width=".3" height="11.7"/>
            <path class="cls-13" d="m363.64,181.31h-11.38c.06.1.13.2.19.3h22.89v-.3h-11.7Z"/>
            <path class="cls-13" d="m376.67,181.61c.08-.1.16-.2.24-.3h-1.27v.3h1.03Z"/>
            <polygon class="cls-13" points="351.64 157.31 351.64 157.61 363.34 157.61 363.64 157.61 375.34 157.61 375.34 157.31 363.64 157.31 363.34 157.31 351.64 157.31"/>
            <polygon class="cls-13" points="382.93 157.61 382.85 157.31 375.64 157.31 375.64 157.61 382.93 157.61"/>
            <path class="cls-13" d="m340.28,157.31c.04.1.08.2.12.3h10.94v-.3h-11.06Z"/>
            <path class="cls-13" d="m363.34,133.61h1.68c-.08-.1-.15-.2-.23-.3h-13.15v.3h11.7Z"/>
            <polygon class="cls-13" points="351.34 133.61 351.34 133.31 339.64 133.31 339.34 133.31 333.74 133.31 333.74 133.61 339.34 133.61 339.64 133.61 351.34 133.61"/>
            <polygon class="cls-13" points="375.34 169.61 375.34 169.31 363.64 169.31 363.34 169.31 351.64 169.31 351.64 169.61 363.34 169.61 363.64 169.61 375.34 169.61"/>
            <path class="cls-13" d="m345.45,169.31c.05.1.1.2.15.3h5.75v-.3h-5.9Z"/>
            <polygon class="cls-13" points="386.13 169.61 386.05 169.31 375.64 169.31 375.64 169.61 386.13 169.61"/>
            <path class="cls-13" d="m339.64,145.31h-3.75c.03.1.07.2.1.3h15.35v-.3h-11.7Z"/>
            <path class="cls-13" d="m351.64,145.31v.3h22.61c-.08-.1-.15-.2-.23-.3h-22.38Z"/>
            <polygon class="cls-13" points="351.34 121.61 351.34 121.31 339.64 121.31 339.34 121.31 333.74 121.31 333.74 121.61 339.34 121.61 339.64 121.61 351.34 121.61"/>
            <path class="cls-13" d="m355.85,121.61c-.08-.1-.15-.2-.23-.3h-3.97v.3h4.2Z"/>
            <path class="cls-13" d="m351.64,157.61v-41.53c-.09-.13-.19-.24-.28-.37h-.02v64.11c.1.16.2.33.3.49v-22.7Z"/>
            <path class="cls-13" d="m375.64,169.31v-21.89c-.1-.13-.2-.26-.3-.39v36.2c.1-.12.2-.24.3-.36v-13.55Z"/>
            <rect class="cls-13" x="333.49" y="133.31" width=".25" height=".3"/>
            <rect class="cls-13" x="333.49" y="121.31" width=".25" height=".3"/>
            <rect class="cls-13" x="339.34" y="115.46" width=".3" height=".25"/>
            <path class="cls-13" d="m351.34,115.68v.03h.02s-.02-.02-.02-.03Z"/>
            <rect class="cls-13" x="363.34" y="187.71" width=".3" height="5.6"/>
            <path class="cls-13" d="m363.34,193.93c.1.03.2.06.3.08v-.4h-.3v.32Z"/>
            <path class="cls-13" d="m362.01,193.31c.18.11.36.21.53.3h3.01c.13-.09.28-.19.42-.3h-3.97Z"/>
            <rect class="cls-13" x="363.34" y="187.46" width=".3" height=".25"/>
            <polygon class="cls-13" points="322.72 109.31 322.85 109.61 327.34 109.61 327.34 109.31 322.72 109.31"/>
            <polygon class="cls-13" points="333.24 109.31 327.64 109.31 327.64 109.61 333.24 109.61 333.49 109.61 333.49 109.31 333.24 109.31"/>
            <polygon class="cls-13" points="327.64 106 327.34 106.15 327.34 109.31 327.34 109.61 327.34 115.21 327.34 115.46 327.64 115.46 327.64 115.21 327.64 109.61 327.64 109.31 327.64 106"/>
            <path class="cls-13" d="m333.24,133.31h-1.29c.03.1.06.2.09.3h1.45v-.3h-.25Z"/>
            <polygon class="cls-13" points="333.24 121.31 327.78 121.31 327.9 121.61 333.24 121.61 333.49 121.61 333.49 121.31 333.24 121.31"/>
            <polygon class="cls-13" points="327.34 120.28 327.64 120.99 327.64 115.71 327.34 115.71 327.34 120.28"/>
            <rect class="cls-13" x="327.34" y="115.46" width=".3" height=".25"/>
          </g>
        </g>
      </g>
      <g>
        <path class="cls-7" d="m120.57,10.23s-2-2.54-8.54.55c-6.54,3.09-9.63,15.27-12.54,23.26-2.91,8-10,9.45-11.99,21.08-2,11.63,12.9,22.17,28.53,26.17,15.63,4,33.44,1.27,38.16-3.45s6.72-6.54,6.72-6.54c0,0-1.45,5.82-.36,5.27,1.09-.55,4.91-3.09,7.27-15.45,2.36-12.36-2.91-22.17-2.91-22.17,0,0,7.63-1.27,5.82-8.91-1.82-7.63-10.36-18.72-27.44-23.26-17.08-4.54-21.63,1.27-22.72,3.45Z"/>
        <g>
          <path class="cls-6" d="m156.49,199.29s.28-3.34,3.25-13.84c2.97-10.5,12.68-60.83,12.68-74.3s-23.38-17.63-24.57-18.82c-1.19-1.19-6.34-7.33-8.12-9.51-1.78-2.18-3.96-1.78-3.96-1.78,0,0-1.78,1.98-1.59,4.56s14.46,51.71,14.07,60.23-5.15,23.18-4.36,27.34c.79,4.16,3.57,27.14,3.57,27.14"/>
          <path class="cls-5" d="m159.61,145.67c-.55,3.98-1.53,7.28-2.26,9.24"/>
          <path class="cls-5" d="m148.78,96.42s8.57,26.68,10.52,35.98c.61,2.91.79,5.82.71,8.56"/>
        </g>
        <g>
          <g>
            <path class="cls-3" d="m152.41,200.5s-3.76-28.53-4.95-31.7c-1.19-3.17,8.52-10.5,8.72-17.63.2-7.13-9.84-33.52-13.47-44.98-2.25-7.09-4.36-10.89-6.54-21-.73-3.38-.4-7.73-.4-7.73l-19.62-11.1s-1.59,4.95-3.17,9.11c-1.58,4.16-4.36,7.93-4.95,8.32s-8.52,2.97-8.52,2.97c0,0-2.58,78.07-3.76,93.32-1.19,15.26-2.58,21.4-2.58,21.4"/>
            <g>
              <line class="cls-5" x1="116.44" y1="167.18" x2="137.53" y2="155.12"/>
              <line class="cls-5" x1="110.54" y1="170.55" x2="113.82" y2="168.68"/>
              <line class="cls-5" x1="121.95" y1="169.01" x2="141.23" y2="156.89"/>
            </g>
          </g>
          <path class="cls-3" d="m136.16,85.19c-.73-3.38-.4-7.73-.4-7.73l-19.62-11.1s-1.58,4.95-3.17,9.11c-1.59,4.16-4.36,7.93-4.95,8.32-.59.4-8.52,2.97-8.52,2.97,0,0-.31,9.51-.77,22.53,1.6,2.54,8.31,10.75,27.92,10.75,7.9,0,14.03-2.6,18.67-6.03-1.03-2.99-1.94-5.68-2.62-7.84-2.25-7.09-4.36-10.89-6.54-21Z"/>
        </g>
        <g>
          <path class="cls-6" d="m68.8,201.89l.4-8.72s-2.77-2.97-3.96-6.74-9.11-24.97-10.5-31.5c-1.39-6.54-.2-41.61,1.78-50.72,1.98-9.11,27.94-15.85,28.53-17.63.59-1.78,6.74-6.54,7.37-7.58.63-1.04,11.65,5.2,11.65,5.2l-3.96,25.36s1.98,67.96,0,92.33"/>
          <path class="cls-5" d="m89.14,95.23c1.74,4.08,4.01,10.11,4.23,14.32"/>
          <path class="cls-5" d="m87.11,90.79s.39.79.99,2.09"/>
          <path class="cls-5" d="m80.01,110.61s3.92,6.36,4.89,14.93"/>
        </g>
        <g>
          <path class="cls-3" d="m128.93,23.45s-3.13,6.78-8.08,10.17c-4.95,3.39-11.99,6.26-11.99,6.26,0,0,6.26,29.45,9.64,32.84,3.39,3.39,9.38,7.82,14.34,8.08,4.95.26,10.03-5.81,12.63-9.2,2.61-3.39,6.91-15.04,7.96-18.43,1.04-3.39,1.82-16.68,1.82-16.68,0,0-21.11-2.09-26.33-13.03Z"/>
          <path class="cls-5" d="m133.36,58.89s4.17,3.65,5.47,2.61c1.3-1.04,1.04-8.34,1.04-8.34,0,0-.46-5.04-.16-6.26s1.36-2.42,1.36-2.42"/>
          <path class="cls-5" d="m138.51,66.9s-7.27.45-11.97-4.54c0,0,2.12,6.66,4.7,6.97s7.27-2.42,7.27-2.42Z"/>
          <path class="cls-5" d="m134.14,41.96s-5.7-3.62-11.76-.42"/>
          <path class="cls-5" d="m142.75,44.33s6.66-2.57,9.24,1.06"/>
          <ellipse class="cls-13" cx="129.95" cy="47.13" rx="1.29" ry="2.35"/>
          <path class="cls-13" d="m148.28,50.08c0,1.3-.58,2.35-1.29,2.35s-1.29-1.05-1.29-2.35.58-2.35,1.29-2.35,1.29,1.05,1.29,2.35Z"/>
          <path class="cls-5" d="m131.92,49.85s-2.75,2.06-5.27,2.52"/>
          <path class="cls-5" d="m143.63,51.46s1.01,3.23,4.07,3.92"/>
        </g>
        <polygon class="cls-6" points="98.47 43.06 110.47 73.29 123.8 66.25 111.61 36.4 98.47 43.06"/>
        <g>
          <path class="cls-3" d="m107.52,43.21s-13.46,13.63-13.95,16.25c-.49,2.63-1.15,18.55-1.15,19.53s6.89,22.49,6.89,22.49l-6.07,13.13,13.79,10.01,3.28-28.4s1.64-2.79.16-8.04c-1.48-5.25-3.94-13.79-3.94-13.79l4.76-8.04s5.91-3.61,6.57-4.43c.66-.82.66-1.31-.33-1.48-.98-.16-1.97.33-2.46.49-.49.16-7.06,3.45-7.06,3.45l-3.61,2.13,3.78-6.4,7.55-6.07s1.97-.98,1.64-2.13-1.64-1.48-2.46-1.15-6.24,3.94-6.24,3.94l6.24-6.73s0-1.64-.66-2.13c-.66-.49-.98-.16-1.48.16-.49.33-9.36,8.37-9.36,8.37,0,0,6.4-9.03,6.73-9.85s-.98-3.61-2.63-1.31Z"/>
          <polyline class="cls-5" points="108.67 54.7 102.92 59.63 99.97 65.37"/>
          <polyline class="cls-5" points="103.41 54.37 97.5 59.96 95.86 64.39"/>
        </g>
        <path class="cls-6" d="m57.5,164.84s10.11,30.91,13.47,31.9c3.37.99,8.92-1.39,17.44-16.45s17.63-44.18,17.63-44.18l-18.43-12.48-25.96,31.31"/>
        <polygon class="cls-3" points="93.36 109.56 113.97 123.82 106.24 139.87 85.04 123.43 93.36 109.56"/>
      </g>
    </g>
  </g>
</svg>