<?xml version="1.0" encoding="UTF-8"?>
<svg id="Layer_2" data-name="Layer 2" xmlns="http://www.w3.org/2000/svg" xmlns:xlink="http://www.w3.org/1999/xlink" viewBox="0 0 556.81 400.39">
  <defs>
    <style>
      .cls-1, .cls-2, .cls-3 {
        fill: #fff;
      }

      .cls-4 {
        stroke-width: 1.37px;
      }

      .cls-4, .cls-5, .cls-6, .cls-7, .cls-8, .cls-9, .cls-10, .cls-11, .cls-12 {
        fill: none;
      }

      .cls-4, .cls-5, .cls-6, .cls-7, .cls-8, .cls-10, .cls-11, .cls-12 {
        stroke-linecap: round;
        stroke-linejoin: round;
      }

      .cls-4, .cls-6 {
        stroke: #fff;
      }

      .cls-5, .cls-6, .cls-2 {
        stroke-width: 1.09px;
      }

      .cls-5, .cls-7, .cls-8, .cls-10, .cls-11, .cls-12 {
        stroke: #011f30;
      }

      .cls-7 {
        stroke-width: 1.68px;
      }

      .cls-13 {
        fill: #011f30;
      }

      .cls-2, .cls-3 {
        stroke: #1a315d;
        stroke-miterlimit: 10;
      }

      .cls-14 {
        fill: #00bee1;
      }

      .cls-3 {
        stroke-width: .95px;
      }

      .cls-8 {
        stroke-width: 1px;
      }

      .cls-15 {
        fill: #ffd354;
      }

      .cls-10 {
        stroke-width: 1.96px;
      }

      .cls-11 {
        stroke-width: 1.48px;
      }

      .cls-12 {
        stroke-width: 1.86px;
      }

      .cls-16 {
        fill: url(#Motivo_nuevo_2);
      }
    </style>
    <pattern id="Motivo_nuevo_2" data-name="Motivo nuevo 2" x="0" y="0" width="40" height="36" patternTransform="translate(-96.6 -50.06)" patternUnits="userSpaceOnUse" viewBox="0 0 40 36">
      <g>
        <rect class="cls-9" width="40" height="36"/>
        <g>
          <circle class="cls-15" cx="2.89" cy="26.67" r="1.8"/>
          <circle class="cls-15" cx="9.73" cy="26.67" r="1.8"/>
          <path class="cls-15" d="m18.38,26.67c0,.99-.81,1.8-1.8,1.8s-1.8-.81-1.8-1.8.81-1.8,1.8-1.8,1.8.81,1.8,1.8Z"/>
          <path class="cls-15" d="m25.22,26.67c0,.99-.81,1.8-1.8,1.8s-1.8-.81-1.8-1.8.81-1.8,1.8-1.8,1.8.81,1.8,1.8Z"/>
          <path class="cls-15" d="m32.07,26.67c0,.99-.81,1.8-1.8,1.8s-1.8-.81-1.8-1.8.81-1.8,1.8-1.8,1.8.81,1.8,1.8Z"/>
          <path class="cls-15" d="m38.91,26.67c0,.99-.81,1.8-1.8,1.8s-1.8-.81-1.8-1.8.81-1.8,1.8-1.8,1.8.81,1.8,1.8Z"/>
          <circle class="cls-15" cx="2.89" cy="33.33" r="1.8"/>
          <circle class="cls-15" cx="9.73" cy="33.33" r="1.8"/>
          <path class="cls-15" d="m18.38,33.33c0,.99-.81,1.8-1.8,1.8s-1.8-.81-1.8-1.8.81-1.8,1.8-1.8,1.8.81,1.8,1.8Z"/>
          <path class="cls-15" d="m25.22,33.33c0,.99-.81,1.8-1.8,1.8s-1.8-.81-1.8-1.8.81-1.8,1.8-1.8,1.8.81,1.8,1.8Z"/>
          <path class="cls-15" d="m32.07,33.33c0,.99-.81,1.8-1.8,1.8s-1.8-.81-1.8-1.8.81-1.8,1.8-1.8,1.8.81,1.8,1.8Z"/>
          <path class="cls-15" d="m38.91,33.33c0,.99-.81,1.8-1.8,1.8s-1.8-.81-1.8-1.8.81-1.8,1.8-1.8,1.8.81,1.8,1.8Z"/>
        </g>
        <g>
          <path class="cls-15" d="m4.69,14.67c0,.99-.81,1.8-1.8,1.8s-1.8-.81-1.8-1.8.81-1.8,1.8-1.8,1.8.81,1.8,1.8Z"/>
          <path class="cls-15" d="m11.53,14.67c0,.99-.81,1.8-1.8,1.8s-1.8-.81-1.8-1.8.81-1.8,1.8-1.8,1.8.81,1.8,1.8Z"/>
          <path class="cls-15" d="m18.38,14.67c0,.99-.81,1.8-1.8,1.8s-1.8-.81-1.8-1.8.81-1.8,1.8-1.8,1.8.81,1.8,1.8Z"/>
          <path class="cls-15" d="m25.22,14.67c0,.99-.81,1.8-1.8,1.8s-1.8-.81-1.8-1.8.81-1.8,1.8-1.8,1.8.81,1.8,1.8Z"/>
          <path class="cls-15" d="m32.07,14.67c0,.99-.81,1.8-1.8,1.8s-1.8-.81-1.8-1.8.81-1.8,1.8-1.8,1.8.81,1.8,1.8Z"/>
          <path class="cls-15" d="m38.91,14.67c0,.99-.81,1.8-1.8,1.8s-1.8-.81-1.8-1.8.81-1.8,1.8-1.8,1.8.81,1.8,1.8Z"/>
          <path class="cls-15" d="m4.69,21.33c0,.99-.81,1.8-1.8,1.8s-1.8-.81-1.8-1.8.81-1.8,1.8-1.8,1.8.81,1.8,1.8Z"/>
          <path class="cls-15" d="m11.53,21.33c0,.99-.81,1.8-1.8,1.8s-1.8-.81-1.8-1.8.81-1.8,1.8-1.8,1.8.81,1.8,1.8Z"/>
          <path class="cls-15" d="m18.38,21.33c0,.99-.81,1.8-1.8,1.8s-1.8-.81-1.8-1.8.81-1.8,1.8-1.8,1.8.81,1.8,1.8Z"/>
          <path class="cls-15" d="m25.22,21.33c0,.99-.81,1.8-1.8,1.8s-1.8-.81-1.8-1.8.81-1.8,1.8-1.8,1.8.81,1.8,1.8Z"/>
          <path class="cls-15" d="m32.07,21.33c0,.99-.81,1.8-1.8,1.8s-1.8-.81-1.8-1.8.81-1.8,1.8-1.8,1.8.81,1.8,1.8Z"/>
          <path class="cls-15" d="m38.91,21.33c0,.99-.81,1.8-1.8,1.8s-1.8-.81-1.8-1.8.81-1.8,1.8-1.8,1.8.81,1.8,1.8Z"/>
        </g>
        <g>
          <path class="cls-15" d="m4.69,2.67c0,.99-.81,1.8-1.8,1.8s-1.8-.81-1.8-1.8.81-1.8,1.8-1.8,1.8.81,1.8,1.8Z"/>
          <path class="cls-15" d="m11.53,2.67c0,.99-.81,1.8-1.8,1.8s-1.8-.81-1.8-1.8.81-1.8,1.8-1.8,1.8.81,1.8,1.8Z"/>
          <path class="cls-15" d="m18.38,2.67c0,.99-.81,1.8-1.8,1.8s-1.8-.81-1.8-1.8.81-1.8,1.8-1.8,1.8.81,1.8,1.8Z"/>
          <path class="cls-15" d="m25.22,2.67c0,.99-.81,1.8-1.8,1.8s-1.8-.81-1.8-1.8.81-1.8,1.8-1.8,1.8.81,1.8,1.8Z"/>
          <path class="cls-15" d="m32.07,2.67c0,.99-.81,1.8-1.8,1.8s-1.8-.81-1.8-1.8.81-1.8,1.8-1.8,1.8.81,1.8,1.8Z"/>
          <path class="cls-15" d="m38.91,2.67c0,.99-.81,1.8-1.8,1.8s-1.8-.81-1.8-1.8.81-1.8,1.8-1.8,1.8.81,1.8,1.8Z"/>
          <path class="cls-15" d="m4.69,9.33c0,.99-.81,1.8-1.8,1.8s-1.8-.81-1.8-1.8.81-1.8,1.8-1.8,1.8.81,1.8,1.8Z"/>
          <path class="cls-15" d="m11.53,9.33c0,.99-.81,1.8-1.8,1.8s-1.8-.81-1.8-1.8.81-1.8,1.8-1.8,1.8.81,1.8,1.8Z"/>
          <path class="cls-15" d="m18.38,9.33c0,.99-.81,1.8-1.8,1.8s-1.8-.81-1.8-1.8.81-1.8,1.8-1.8,1.8.81,1.8,1.8Z"/>
          <path class="cls-15" d="m25.22,9.33c0,.99-.81,1.8-1.8,1.8s-1.8-.81-1.8-1.8.81-1.8,1.8-1.8,1.8.81,1.8,1.8Z"/>
          <path class="cls-15" d="m32.07,9.33c0,.99-.81,1.8-1.8,1.8s-1.8-.81-1.8-1.8.81-1.8,1.8-1.8,1.8.81,1.8,1.8Z"/>
          <path class="cls-15" d="m38.91,9.33c0,.99-.81,1.8-1.8,1.8s-1.8-.81-1.8-1.8.81-1.8,1.8-1.8,1.8.81,1.8,1.8Z"/>
        </g>
      </g>
    </pattern>
  </defs>
  <g id="OBJECTS">
    <g>
      <g>
        <g>
          <g>
            <path class="cls-15" d="m489.93,259.37s-4.18,6.55-6,6c-1.78-.53,3.74-12.61,3.99-13.16,0,0,0,0,0,0-.5.47-13.1,12.26-14.35,12.35-1.27.09,7.26-16.52,7.27-16.54,0,0,0,0,0,0-.02.02-14.18,11.82-15.91,11.64-1.73-.18,5-9.82,5-9.82l-4.69.59c-.26.03-.5.11-.73.22-.73.38-2.47,1.22-3.03,1.01-.73-.27-.09-.82-.09-.82,0,0-18.54,3.45-33.63,1.64-15.09-1.82-33.09-4.09-33.09-4.09,0,0-5.27,19-7.54,33.54-2.27,14.54-3.64,59.27-3.64,59.27h112.63s2.91-17.91,1.27-31.63c-1.64-13.73-4.09-43.18-7.45-50.18Z"/>
            <g>
              <line class="cls-6" x1="479.11" y1="260.28" x2="479.11" y2="340.18"/>
              <line class="cls-6" x1="387.75" y1="330.09" x2="387.75" y2="336.38"/>
              <line class="cls-6" x1="391.3" y1="332.27" x2="391.3" y2="336.09"/>
            </g>
          </g>
          <path class="cls-13" d="m395.12,248.33c-1.87,7.5-3.39,15.07-4.71,22.66-1.3,7.6-2.44,15.23-3.31,22.9-.87,7.67-1.59,15.36-2.04,23.08-.55,7.71-.81,15.45-1.13,23.2h0c-.01.31-.27.54-.57.53-.28-.01-.5-.24-.52-.51-.47-7.76-.73-15.55-.55-23.34.12-7.79.62-15.58,1.43-23.33.81-7.76,1.91-15.5,3.58-23.13.85-3.81,1.75-7.61,2.88-11.36,1.11-3.75,2.35-7.46,3.9-11.06.12-.28.44-.41.72-.29.25.11.38.38.31.63h0Z"/>
          <path class="cls-13" d="m490.41,259.39c1.85,6.49,3.38,13.08,4.57,19.74.59,3.33,1.15,6.66,1.6,10.01.43,3.35.82,6.71,1.12,10.08.3,3.37.56,6.74.7,10.12.1,1.69.12,3.38.14,5.07.03,1.69.05,3.38,0,5.08-.08,6.77-.6,13.54-1.71,20.22-.05.3-.33.5-.63.45-.29-.05-.48-.32-.45-.6.76-6.66,1.02-13.37.97-20.07.01-1.67-.05-3.35-.12-5.02l-.09-2.51-.15-2.51c-.16-3.35-.45-6.69-.77-10.02-.33-3.34-.74-6.66-1.19-9.99-.46-3.32-.93-6.64-1.47-9.95-1.09-6.62-2.3-13.23-3.57-19.84-.06-.3.13-.58.43-.64.28-.05.55.12.63.39Z"/>
        </g>
        <g>
          <g>
            <g>
              <path class="cls-1" d="m422.52,94.26l3.89,12.95s8.93,4.36,12.34,4.5c0,0,11.18-8.73,12.2-16.91l-2.11-6.41-9.07.14-8.32-40.77-27.07.48-3.75-8.45-1.36,8.73-16.84,7.5s5.59,17.45,6.89,20.04c1.3,2.59,5.66,13.7,10.98,16.5,5.32,2.8,18.48,3.07,22.23,1.7Z"/>
              <path class="cls-13" d="m382.77,54.94c1.6,5.84,3.53,11.61,5.71,17.25,1.1,2.82,2.29,5.6,3.64,8.29,1.34,2.69,2.8,5.33,4.58,7.69,1.77,2.34,3.88,4.52,6.59,5.16,2.87.8,5.82,1.24,8.79,1.36,2.96.1,5.94-.17,8.85-.8,2.88-.65,5.78-1.63,8.31-3.08l.04-.02c.26-.15.59-.06.74.2.14.25.07.56-.17.72-2.64,1.78-5.54,2.92-8.56,3.7-3.01.79-6.14,1.13-9.26,1.04-3.11-.09-6.23-.51-9.22-1.38l-.57-.15-.6-.23-.6-.23-.55-.3c-.37-.2-.73-.41-1.05-.66-.33-.24-.67-.47-.96-.75-1.24-1.05-2.26-2.26-3.19-3.52-3.69-5.06-6.1-10.77-8.26-16.49-2.14-5.74-3.86-11.6-5.32-17.54-.07-.29.11-.59.4-.66.29-.07.58.1.66.39h0Z"/>
              <line class="cls-5" x1="422.57" y1="94.29" x2="426.66" y2="107.47"/>
              <line class="cls-5" x1="451.2" y1="94.56" x2="448.2" y2="86.92"/>
            </g>
            <g>
              <line class="cls-10" x1="374.12" y1="62.15" x2="383.32" y2="59.84"/>
              <g>
                <path class="cls-13" d="m403.23,60.84c.81,1.17,1.17,2.66,1.02,4.11-.09.72-.29,1.45-.63,2.1-.34.65-.74,1.23-1,1.83-.26.6-.33,1.21-.09,1.74.22.53.65,1,1.17,1.33,1.03.72,2.48.76,3.89.95.02,0,.04.03.04.05,0,.02-.02.03-.04.04-1.37.3-2.91.46-4.35-.28-.68-.39-1.28-1-1.54-1.8-.28-.81-.08-1.7.28-2.35.35-.67.8-1.22,1.14-1.81.35-.57.58-1.22.7-1.88.25-1.33.04-2.78-.65-4-.01-.02,0-.05.02-.06.02-.01.05,0,.06.01Z"/>
                <path class="cls-13" d="m409.42,75.25c2.14-.5,4.17-1.39,5.98-2.57.91-.59,1.7-1.33,2.54-1.99.84-.67,1.64-1.39,2.51-2.12.02-.02.05-.01.06,0,.01.01.01.03,0,.05-.48,1.03-1.18,1.93-1.98,2.73-.8.8-1.79,1.39-2.77,1.93-1.96,1.1-4.13,1.8-6.33,2.05-.02,0-.05-.01-.05-.04,0-.02.01-.04.03-.05Z"/>
                <path class="cls-13" d="m416.02,75.63c.42-.19.76-.47,1.01-.77.13-.16.18-.37.34-.47.16-.12.34-.22.65-.33.03-.01.07,0,.08.03.14.31.09.6-.02.84-.11.25-.39.37-.61.49-.45.26-.97.36-1.44.3-.03,0-.04-.03-.04-.05,0-.02.01-.03.03-.04Z"/>
                <g>
                  <path class="cls-13" d="m420.19,59.14c.53,1.65-1.18,1.19-3.23,1.85-2.05.66-3.66,2.2-4.19.55-.53-1.65.69-3.52,2.74-4.19,2.05-.66,4.14.13,4.68,1.78Z"/>
                  <path class="cls-13" d="m419.12,59.58c.72-.38,1.37-.88,1.86-1.46.24-.3.35-.65.56-.93.21-.29.37-.61.66-1,.01-.02.05-.03.07-.02,0,0,.02.01.02.02.21.43.22.93.06,1.37-.15.45-.53.78-.87,1.06-.7.56-1.5.89-2.33,1.04-.02,0-.05-.01-.05-.04,0-.02,0-.04.03-.05Z"/>
                </g>
                <g>
                  <path class="cls-13" d="m390.03,65.83c.21,1.72,1.57.58,3.71.32s4.25.45,4.03-1.27c-.21-1.72-2.12-2.9-4.25-2.63-2.14.26-3.7,1.87-3.49,3.59Z"/>
                  <path class="cls-13" d="m391.2,65.87c-.81.22-1.68.26-2.55.04-.43-.11-.9-.24-1.23-.59-.33-.34-.54-.8-.53-1.27,0-.03.02-.05.05-.05,0,0,.02,0,.03,0,.42.23.7.45,1.02.63.31.16.56.44.9.61.68.32,1.49.5,2.3.54.02,0,.05.02.05.04,0,.02-.02.04-.03.04Z"/>
                </g>
                <path class="cls-13" d="m385.29,56.56c.33-.87.81-1.65,1.36-2.42.57-.75,1.26-1.45,2.11-1.99.83-.54,1.87-1.13,3-.95.27.05.54.11.8.19.25.12.49.23.71.38.46.26.8.72,1.07,1.17.04.06.02.14-.05.18-.01,0-.03.01-.04.02h-.02c-1.08.19-1.81.16-2.51.34-.65.16-1.37.03-2.13.29-.73.27-1.45.69-2.14,1.18-.7.49-1.36,1.08-1.97,1.72h0c-.04.05-.12.05-.16,0-.03-.03-.04-.08-.03-.12Z"/>
                <path class="cls-13" d="m418.65,49.32c-.83-.32-1.67-.59-2.51-.73-.84-.16-1.67-.23-2.44-.17-.8.08-1.39.51-2.05.64-.7.14-1.35.47-2.41.76h-.02c-.07.02-.14-.02-.16-.09,0-.02,0-.03,0-.05.05-.52.16-1.08.47-1.51.14-.23.31-.44.49-.65.2-.18.42-.35.64-.51.94-.64,2.13-.54,3.12-.41,1.01.13,1.92.48,2.76.91.82.46,1.6.97,2.26,1.61.05.04.05.12,0,.16-.03.03-.08.04-.12.03h0Z"/>
              </g>
              <g>
                <path class="cls-10" d="m374.68,58.67c4.52-2.32,16.61-7.5,27.43-2.92.64.27,1.09.84,1.21,1.52.48,2.84,1.31,10.55-3.41,13.24-5.82,3.32-16.56,3.84-19.78.22-2.23-2.51-4.86-6.84-6.27-9.27-.58-1-.21-2.27.82-2.79Z"/>
                <path class="cls-10" d="m433.11,46.79c-5.06-.47-18.21-.76-26.54,7.53-.49.49-.7,1.19-.56,1.86.61,2.81,2.73,10.28,8.1,11.01,6.64.91,16.8-2.62,18.43-7.18,1.13-3.16,1.95-8.16,2.35-10.94.16-1.14-.66-2.18-1.8-2.29Z"/>
              </g>
              <path class="cls-10" d="m434.79,47.97l14.72-1.69c1.39-.16,2.79.09,4.02.69"/>
              <line class="cls-10" x1="402.99" y1="56.6" x2="406.02" y2="55.95"/>
            </g>
          </g>
          <g>
            <path class="cls-13" d="m392.84,83.65l3.45,15.27s19.27,3.09,27.27-1.82l-1-2.82s-11.77,2.23-19.61-.02c-7.84-2.25-9.82-10.7-9.82-10.7"/>
            <g>
              <path class="cls-13" d="m379.76,58.25l19.51-9.48,1.49-8.83,3.62,8.56,26.93-.48,8.28,40.86s25.52.72,34.87-10.04c0,0-12.4-64.63-35.75-74.16-23.35-9.54-54.9-5.26-60.38,19.84-5.48,25.11,1.43,33.72,1.43,33.72Z"/>
              <g>
                <path class="cls-3" d="m446.31,48.7s7.58-5.91,11.52,1.01-.17,16.95-8.08,21.04l-3.44-22.05Z"/>
                <line class="cls-6" x1="445.84" y1="43.47" x2="450.75" y2="74.29"/>
              </g>
              <g>
                <path class="cls-6" d="m405.92,34.5c.82,3.45,1.64,6.91,2.46,10.36"/>
                <path class="cls-6" d="m411.2,36.93c.84,2.63,1.68,5.26,2.51,7.89"/>
                <path class="cls-6" d="m394.63,44.01c.09,1.64.17,3.27.26,4.91"/>
                <path class="cls-6" d="m390.21,40.47v9.82"/>
                <path class="cls-6" d="m469.3,77.02c.09-1.73.18-3.45.27-5.18"/>
              </g>
            </g>
          </g>
        </g>
        <g>
          <g>
            <path class="cls-1" d="m493.02,233.07s-19.43,3.75-21.34,5.52c-1.91,1.77-10.64,11.25-10.02,12.61s11.93-7.57,11.93-7.57c0,0-10.16,14.66-8.93,16.02,1.23,1.36,17.04-12.89,17.04-12.89,0,0-9.89,16.29-8.45,17.66,1.43,1.36,15.41-13.91,15.41-13.91,0,0-7.16,13.16-5.18,14.86,1.98,1.7,11.32-13.64,11.32-13.64l.55-1.02,2.32-.68,2.59-2.59-7.23-14.39Z"/>
            <path class="cls-13" d="m493.42,233.71c-4.41,1.1-8.83,2.12-13.25,3.15l-6.63,1.55c-.27-.03-.7.43-1.11.76-.41.37-.81.75-1.21,1.15-.8.79-1.58,1.6-2.36,2.42-1.54,1.65-3.05,3.34-4.46,5.09-.7.87-1.4,1.77-1.96,2.68-.14.22-.26.46-.34.65l-.04.12s0,.01,0-.02c0-.13-.1-.24-.21-.32-.03-.02-.07-.03-.1-.03h-.02s-.02-.02-.03-.01c.08,0,.35-.09.57-.19.23-.1.47-.23.71-.36,1.92-1.07,3.77-2.41,5.62-3.71,1.84-1.32,3.66-2.67,5.46-4.05h.01c.24-.19.58-.15.76.09.15.2.15.46,0,.65h0c-1.98,2.81-3.92,5.66-5.77,8.57-.92,1.45-1.82,2.92-2.63,4.42-.4.75-.79,1.51-1.05,2.26-.06.19-.11.37-.13.52-.01.07,0,.14,0,.15.01.03-.04-.11-.15-.15-.14-.02.09-.01.23-.09.16-.06.34-.15.52-.25,1.42-.81,2.79-1.89,4.13-2.95,1.34-1.07,2.66-2.18,3.96-3.3,2.61-2.25,5.17-4.56,7.7-6.9.22-.2.57-.19.77.03.17.18.19.45.07.65-1.79,3.03-3.53,6.1-5.17,9.21-.82,1.56-1.61,3.12-2.32,4.72-.35.8-.69,1.6-.96,2.41-.13.4-.25.81-.3,1.18-.03.17-.02.37,0,.39.01.02-.05-.07-.11-.09-.01-.03-.01,0,.05-.02.25-.05.64-.27.97-.5.35-.23.69-.49,1.02-.76.67-.54,1.32-1.13,1.96-1.72,1.27-1.2,2.51-2.45,3.72-3.72,2.43-2.54,4.79-5.16,7.09-7.82.2-.23.54-.25.77-.05.19.17.24.44.13.66-1.28,2.57-2.5,5.19-3.59,7.84-.54,1.33-1.06,2.67-1.47,4.02-.2.67-.38,1.36-.46,2.01-.04.32-.05.66.02.83.02.1.04.05,0,.06,0,0,.03-.01.05,0,.05-.01.1-.03.16-.03.49-.16,1.06-.62,1.55-1.08.5-.48.97-1,1.43-1.54.91-1.09,1.76-2.24,2.59-3.41,1.64-2.35,3.18-4.79,4.64-7.26l-.06.14c.11-.37.22-.68.46-1.04.12-.17.28-.39.63-.52l.42-.15c.56-.22,1.1-.49,1.63-.8,1.04-.63,2-1.41,2.87-2.28.21-.21.56-.21.77,0s.21.56,0,.77h0c-.92.92-1.95,1.77-3.08,2.45-.57.34-1.17.64-1.79.88l-.47.17s-.02.01-.08.1c-.12.17-.23.46-.3.7h0c-.01.06-.03.1-.05.14-1.48,2.51-3.03,4.95-4.69,7.34-.84,1.19-1.7,2.36-2.65,3.49-.48.56-.97,1.11-1.52,1.63-.56.51-1.11,1.04-2,1.34-.12.03-.25.05-.37.07-.16,0-.33-.01-.49-.06-.37-.14-.61-.48-.67-.73-.16-.53-.11-.92-.07-1.32.1-.78.29-1.5.5-2.21.43-1.41.96-2.77,1.51-4.12,1.11-2.69,2.33-5.31,3.63-7.92l.9.6c-2.32,2.67-4.69,5.3-7.13,7.86-1.22,1.28-2.47,2.54-3.77,3.76-.65.61-1.31,1.21-2.02,1.77-.35.28-.71.56-1.1.82-.4.25-.77.52-1.39.66-.15.03-.38.03-.6-.03-.28-.08-.49-.36-.54-.55-.14-.4-.09-.66-.07-.92.07-.51.2-.95.34-1.39.29-.87.64-1.69,1-2.51.73-1.63,1.53-3.21,2.35-4.78,1.65-3.13,3.39-6.21,5.19-9.26l.84.68c-2.54,2.35-5.11,4.66-7.73,6.93-1.31,1.13-2.64,2.25-3.99,3.33-1.37,1.08-2.71,2.16-4.29,3.06-.2.11-.41.21-.65.31-.26.06-.46.24-1.03.08-.32-.11-.5-.47-.51-.65-.04-.2-.02-.36,0-.5.04-.28.11-.51.18-.73.31-.88.71-1.66,1.12-2.43.83-1.54,1.74-3.02,2.67-4.49,1.86-2.93,3.8-5.78,5.8-8.61h0s.78.74.78.74c-1.78,1.43-3.58,2.83-5.41,4.19-1.84,1.36-3.68,2.69-5.72,3.86-.26.14-.53.28-.81.41-.3.12-.56.26-1.05.31-.08,0-.16,0-.25-.02-.04,0-.08-.01-.12-.02-.06-.02-.13-.05-.19-.09-.27-.14-.39-.39-.44-.66-.01-.17,0-.3.03-.44l.09-.28c.13-.34.28-.61.44-.87.63-1.03,1.33-1.93,2.04-2.84,1.43-1.8,2.94-3.51,4.49-5.19.78-.84,1.56-1.67,2.38-2.48.41-.41.82-.81,1.26-1.2.22-.2.44-.39.69-.59.12-.1.26-.2.43-.3.1-.06.32-.15.37-.15l.21-.05,6.67-1.47c4.45-.98,8.89-1.98,13.35-2.89.3-.06.58.13.64.43.06.29-.12.57-.4.64Z"/>
          </g>
          <g>
            <path class="cls-13" d="m325.57,238.55l17.45,21.82s40.18-10,52.54-20l-.91,8s22.27,3.27,30.18,4.18c7.91.91,32.45-.36,36.54-1.73,0,0,6.84-9.75,11.18-13,.36-.27,10.73-2.45,10.73-2.45,0,0-3.09-5-6.64-8,0,0-3.45-13.27-3-23.45.45-10.18.27-23.73,1-25.73.73-2,7-22.45,9.54-27l19.27,24,19.36,23.54-30.63,31.82,8.82,17.73,23.36-15.27s24.36-16.36,28.27-24.36c3.91-8-3.45-22.27-3.45-22.27,0,0-13.36-28-18.27-35.91-4.91-7.91-14.64-25.91-24.54-35.09-9.91-9.18-16.54-10.82-28-11.54-11.45-.73-14.27,1.18-14.27,1.18,0,0-6.09-9.18-12.73-10.27,0,0-2,9.45-12.54,16.91,0,0-10.45-1.36-17.09-9.27,0,0-4.91,3.82-4.27,12.54,0,0-22.54,8.64-29,16.45,0,0-3.82,5.64-6.27,14.09-2.45,8.45-15.27,71.27-15.27,71.27l-41.36,21.82Z"/>
            <g>
              <path class="cls-1" d="m437.6,118.92l-13.48-4.57.65-.25-4.18,7.45v.02c-.16.26-.48.35-.74.2-.09-.05-.17-.13-.21-.22h0c-.49-.74-.94-1.49-1.41-2.25-.39-.8-.79-1.6-1.12-2.44-.59-1.7-1.05-3.5-1.04-5.38.02-1.86.39-3.77,1.27-5.45.89-1.67,2.18-3.1,3.92-3.93l.14-.07c.21-.1.46-.02.57.17h0c1.08,1.2,2.2,2.37,3.49,3.35,1.25,1.02,2.62,1.89,4.05,2.64,1.43.76,2.93,1.39,4.47,1.88,1.53.49,3.14.86,4.7,1.03l-.36.1c1.39-1.05,2.73-2.25,3.98-3.49,1.25-1.25,2.43-2.59,3.51-3.99,1.09-1.39,2.03-2.89,2.88-4.44.84-1.55,1.47-3.2,1.97-4.87v-.03c.09-.28.39-.43.66-.35h0c1.79.55,3.4,1.34,4.94,2.3,1.54.96,2.95,2.11,4.2,3.42,1.25,1.31,2.37,2.76,3.22,4.37.92,1.57,1.51,3.3,2.02,5.03.08.28-.08.58-.36.67-.09.03-.19.03-.28,0h-.03c-2.49-.61-5.07-1.01-7.64-1.18-2.56-.15-5.17-.1-7.58.61-1.2.35-2.32.91-3.21,1.71-.41.4-.84.92-1.27,1.42-.44.49-.88.99-1.34,1.46-.92.95-1.88,1.87-2.9,2.72-.51.43-1.04.84-1.58,1.23-.27.19-.55.38-.84.56l-.44.27-.23.13-.12.06-.06.03s-.17.09-.27.09Zm-.06-1.09c-.06-.02-.22.06-.16.03l.05-.03.1-.05.2-.11.4-.24c.27-.17.53-.35.79-.53.52-.37,1.03-.76,1.51-1.17.98-.82,1.92-1.71,2.81-2.64.45-.46.88-.94,1.31-1.42.42-.49.82-.98,1.35-1.5,1.05-.96,2.33-1.58,3.64-1.96,2.62-.77,5.33-.8,7.96-.65,2.65.18,5.25.58,7.84,1.21l-.66.67c-.5-1.65-1.05-3.29-1.92-4.78-.81-1.52-1.86-2.9-3.05-4.14-1.19-1.25-2.53-2.34-4-3.25-1.45-.91-3.05-1.68-4.64-2.17l.67-.38c-.53,1.76-1.19,3.49-2.06,5.1-.88,1.6-1.85,3.16-2.97,4.59-1.11,1.44-2.32,2.81-3.6,4.09-1.29,1.28-2.63,2.49-4.11,3.61h0c-.11.08-.23.11-.35.1-1.73-.18-3.34-.57-4.95-1.08-1.6-.51-3.16-1.16-4.65-1.95-1.49-.78-2.92-1.69-4.22-2.75-1.34-1.02-2.51-2.25-3.64-3.5h0s.72.1.72.1c-1.05,1.2-1.95,2.56-2.57,3.98-.64,1.41-1.01,2.95-1.06,4.53v1.19c.03.4.1.8.14,1.2.04.81.33,1.59.47,2.39.22.79.52,1.57.76,2.37.33.77.67,1.54.97,2.34h0s-.95,0-.95,0l4.18-7.45c.13-.23.41-.33.65-.25l13.06,4.52Z"/>
              <path class="cls-1" d="m394.1,247.93c1.2-9.48,2.21-19,3.07-28.51.84-9.51,1.61-19.06,1.64-28.58.03-2.38-.06-4.75-.21-7.11-.13-1.17-.19-2.34-.37-3.52l-.54-3.53c-.75-4.71-1.61-9.43-2.19-14.21-.58-4.78-.91-9.63-.52-14.5.48-4.84,1.78-9.72,4.43-13.85.16-.25.5-.33.75-.17.24.15.32.46.2.7h0c-2.08,4.22-3.24,8.79-3.64,13.47-.39,4.68-.1,9.43.45,14.14.55,4.72,1.39,9.42,2.12,14.16l.53,3.56c.18,1.19.24,2.42.36,3.62.14,2.42.23,4.83.18,7.23-.07,9.62-.88,19.17-1.77,28.71-.93,9.53-2.11,19.04-3.42,28.53-.04.3-.32.51-.61.47-.3-.04-.5-.32-.47-.61Z"/>
              <path class="cls-1" d="m463.56,104.37c4.52-.54,9.06-.94,13.62-1.02,4.55-.04,9.19.08,13.67,1.45.56.16,1.11.39,1.67.62.54.24,1.03.51,1.55.77,1.02.53,2.02,1.09,3.01,1.67,1.97,1.17,3.87,2.45,5.69,3.84,3.64,2.78,6.96,5.99,9.84,9.56,1.44,1.77,2.77,3.68,4,5.57l3.72,5.7c2.45,3.82,4.86,7.67,7.22,11.54,4.71,7.76,9.25,15.63,13.48,23.67,2.11,4.02,4.14,8.09,6.04,12.22,1.9,4.13,3.65,8.34,5.1,12.68.71,2.17,1.37,4.37,1.79,6.64.42,2.26.72,4.6.29,7-.02.3-.16.59-.24.89-.1.29-.16.61-.32.86-.27.54-.54,1.09-.88,1.56l-.49.74-.54.69c-.35.47-.72.91-1.11,1.33-1.53,1.73-3.16,3.33-4.86,4.85-6.81,6.08-14.17,11.42-21.61,16.63-7.46,5.18-15.04,10.17-22.75,14.97h-.01c-.29.19-.68.1-.86-.19l-.02-.04-9.11-17.55c-.13-.24-.08-.53.11-.72l30.94-31.85-.04.83-44.85-55.05c-.22-.27-.18-.66.09-.88.27-.22.66-.18.88.09l44.85,55.05c.2.25.18.6-.04.83l-30.94,31.85.11-.72,9.11,17.55-.88-.24h.01c7.68-4.8,15.26-9.78,22.69-14.95,7.41-5.19,14.76-10.53,21.48-16.53,1.68-1.5,3.28-3.08,4.76-4.75.37-.41.73-.84,1.06-1.28l.51-.65.45-.68c.32-.45.55-.92.79-1.4.14-.23.17-.49.26-.73.07-.25.18-.48.2-.75.37-2.09.11-4.33-.3-6.51-.41-2.19-1.06-4.35-1.75-6.48-2.88-8.53-6.89-16.69-11.06-24.71-4.21-8.01-8.74-15.86-13.45-23.59-2.35-3.87-4.76-7.71-7.21-11.51l-3.71-5.69c-1.24-1.91-2.51-3.73-3.93-5.47-2.82-3.48-6.06-6.62-9.63-9.34-1.78-1.36-3.64-2.62-5.57-3.76-.97-.57-1.95-1.11-2.94-1.63-.49-.26-1-.53-1.49-.75-.5-.2-.99-.41-1.52-.56-4.21-1.3-8.78-1.45-13.26-1.41-4.5.07-9.01.46-13.49.99-.34.04-.65-.2-.69-.54-.04-.34.2-.65.54-.69Z"/>
              <path class="cls-1" d="m438.08,118.57c-3.27,10.08-5.69,20.5-6.82,31-.57,5.26-.74,10.53-.34,15.78.41,5.27,1.04,10.55,1.76,15.83,1.45,10.55,3.11,21.12,4.01,31.78.98,10.65,1.21,21.4.42,32.08-.02.3-.28.53-.58.5-.29-.02-.52-.28-.5-.57.41-10.63-.05-21.26-1.16-31.84-1.1-10.58-2.77-21.09-4.28-31.67-.74-5.29-1.46-10.6-1.82-15.97-.38-5.39-.16-10.82.47-16.16,1.33-10.69,4.01-21.13,7.83-31.16.11-.28.42-.42.7-.32.27.1.41.4.32.68v.02Z"/>
              <path class="cls-6" d="m479.02,145.47s-11.09,18.91-11.82,40.72c-.73,21.82,5.82,52.18,5.82,52.18"/>
              <path class="cls-6" d="m482.29,106.56s-7.27,6.36-6.91,21.27"/>
              <path class="cls-6" d="m526.47,198.6c-1.39.09-2.78.18-4.18.26.73-1.45,1.23-2.88,1.96-4.33"/>
              <line class="cls-6" x1="339.48" y1="255.37" x2="395.93" y2="233.28"/>
              <path class="cls-6" d="m395.39,243.64s46.36,7.91,69,3.27"/>
            </g>
          </g>
        </g>
      </g>
      <g>
        <g>
          <path class="cls-13" d="m356.87,340.18c16.62-.33,33.24-.54,49.85-.67,16.62-.19,33.24-.21,49.85-.26,16.62-.06,33.24-.09,49.85.06,16.62.17,33.24.37,49.85.87.3,0,.54.26.53.56,0,.29-.24.52-.53.53-16.62.49-33.24.7-49.85.87-16.62.15-33.24.13-49.85.06-16.62-.05-33.24-.07-49.85-.26-16.62-.13-33.24-.34-49.85-.67-.3,0-.54-.25-.53-.56,0-.29.24-.53.53-.53Z"/>
          <line class="cls-5" x1="177.77" y1="340.72" x2="205.99" y2="340.72"/>
          <path class="cls-13" d="m.51,340.18c1.66-.13,3.33-.21,4.99-.29,1.66-.09,3.33-.17,4.99-.23,3.33-.12,6.66-.22,9.99-.27,3.33-.07,6.66-.08,9.99-.09,3.33,0,6.66.12,9.99.88.3.07.49.37.42.67-.05.22-.22.37-.42.42-3.33.76-6.66.89-9.99.88-3.33-.02-6.66-.03-9.99-.09-3.33-.05-6.66-.14-9.99-.26-1.66-.05-3.33-.14-4.99-.23-1.66-.08-3.33-.17-4.99-.29-.3-.02-.53-.29-.5-.59.02-.27.24-.48.5-.5Z"/>
        </g>
        <g>
          <path class="cls-1" d="m411.98,361.72s.41-1.43-2.66-1.91-13.7-1.16-19.29-.61c-5.59.55-8.31.88-8.38,2.01-.07,1.13-.07,4.47-.07,6.92s2.18,24.95,3.75,30l1.36,1.02s15.14,2.39,21.68-1.5c6.54-3.89,0,0,0,0,0,0,1.91-3.48,2.05-10.5.14-7.02,1.57-25.43,1.57-25.43"/>
          <g>
            <path class="cls-13" d="m411.65,367.57c1.18-1.14,2.6-2.09,4.31-2.57.85-.22,1.8-.31,2.74-.12.94.17,1.84.61,2.56,1.21.69.59,1.34,1.37,1.7,2.22.38.84.6,1.7.73,2.56.24,1.72.13,3.42-.19,5.07-.66,3.28-2.19,6.36-4.45,8.81-2.22,2.49-5.36,4.12-8.58,4.55-.2.03-.39-.12-.42-.32-.03-.19.1-.37.28-.41,3.01-.77,5.65-2.5,7.57-4.84,1.93-2.32,3.15-5.21,3.69-8.15.24-1.47.32-2.98.11-4.4-.11-.71-.3-1.39-.58-1.99-.28-.61-.66-1.08-1.15-1.54-.98-.85-2.23-1.19-3.64-.98-1.4.2-2.82.81-4.21,1.52h0c-.19.1-.41.03-.51-.16-.08-.15-.04-.33.07-.44Z"/>
            <path class="cls-13" d="m412.44,361.22c-.16,4.99-.39,9.98-.69,14.96-.31,4.98-.66,9.97-1.31,14.94-.17,1.24-.35,2.48-.62,3.72-.13.62-.29,1.24-.48,1.86-.13.32-.21.62-.41.95l-.13.24c-.07.09-.15.17-.23.25-.17.2-.32.22-.47.32-1.23.62-2.47.86-3.72,1.13-1.25.22-2.49.41-3.75.52-2.51.25-5.02.34-7.54.25-2.52-.11-5.06-.35-7.53-1.21h0c-.18-.06-.3-.21-.34-.38v-.02c-1.21-6.19-2.25-12.41-3.04-18.66-.41-3.13-.73-6.27-.93-9.42-.19-3.15-.32-6.32.03-9.5.02-.2.21-.35.41-.33.2.02.35.21.33.41h0c-.32,3.09-.16,6.24.06,9.36.23,3.12.58,6.25,1.01,9.35.85,6.22,1.94,12.42,3.2,18.56l-.34-.4h0c2.24.8,4.73,1.07,7.18,1.18,2.46.1,4.94.03,7.4-.2,1.23-.1,2.45-.28,3.66-.49,1.19-.24,2.43-.5,3.43-1,.11-.06.29-.12.3-.19.03-.03.05-.06.09-.09l.09-.17c.14-.2.22-.51.33-.77.18-.57.33-1.16.46-1.76.26-1.2.45-2.43.63-3.65.67-4.92,1.05-9.89,1.39-14.86.33-4.97.58-9.95.77-14.93,0-.21.18-.37.39-.36.21,0,.37.18.36.39Z"/>
            <path class="cls-13" d="m382.06,361.21c-.05-.06.17.2.42.3.26.13.55.23.85.32.6.18,1.23.32,1.86.43,1.27.23,2.56.37,3.85.49,2.59.22,5.2.31,7.8.3,2.61,0,5.21-.12,7.8-.34,1.29-.12,2.58-.26,3.85-.49.63-.12,1.26-.25,1.86-.43.3-.09.59-.19.84-.32.25-.09.46-.36.39-.25.06.11-.14-.16-.39-.26-.25-.13-.54-.23-.84-.33-.6-.19-1.22-.33-1.85-.45-1.27-.24-2.56-.4-3.85-.53-2.59-.25-5.2-.35-7.81-.37-2.61,0-5.22.06-7.81.31-1.29.13-2.59.28-3.86.52-.63.12-1.26.27-1.86.45-.3.1-.59.2-.85.33-.25.1-.47.37-.42.31Zm-.84,0c.01-.38.23-.59.39-.73.17-.15.33-.23.5-.32.33-.16.65-.27.98-.38.65-.19,1.3-.33,1.96-.45,1.31-.23,2.62-.38,3.93-.51,2.62-.23,5.25-.34,7.88-.36,2.63,0,5.26.07,7.89.3,1.31.12,2.63.27,3.94.5.65.12,1.31.26,1.96.46.33.1.66.22.99.38.17.09.33.18.51.33.16.14.39.36.4.77-.01.41-.24.63-.4.77-.17.15-.34.24-.51.33-.33.17-.66.28-.99.39-.65.2-1.31.35-1.96.47-1.31.25-2.62.41-3.94.54-2.63.26-5.26.33-7.89.33-2.63-.01-5.26-.11-7.89-.37-1.31-.13-2.62-.3-3.93-.54-.65-.13-1.31-.27-1.96-.48-.33-.11-.65-.22-.98-.39-.16-.09-.33-.18-.5-.33-.15-.14-.37-.35-.38-.73Z"/>
          </g>
        </g>
      </g>
      <g>
        <g>
          <path class="cls-14" d="m229.72,354.09l-12.34-6.41-15.75.14-.34,6.61,25.09,24h125.31l-.14-5.86,12.27-70.43,1.43-11.11s-.2-5.8-7.29-6.27h-110.31s-6.41-.75-8.04,5.73c-1.64,6.48-9.89,63.61-9.89,63.61Z"/>
          <g>
            <path class="cls-1" d="m246.77,283.65l102.05.34,6.38.02c1.08.01,2.08-.01,3.23.03,1.19.06,2.37.4,3.41.97,2.1,1.14,3.62,3.25,4.04,5.6.1.59.14,1.18.12,1.78-.04.6-.13,1.18-.22,1.68l-.55,3.14-4.37,25.13-8.74,50.27c-.05.27-.28.45-.54.45h-125.08c-.3,0-.55-.24-.55-.55,0-.03,0-.06,0-.09l7.06-45.85,3.53-22.92,1.76-11.46.22-1.43c.09-.54.22-1.1.42-1.63.39-1.06.99-2.04,1.76-2.86,1.54-1.66,3.79-2.63,6.06-2.65Zm0,2.52c-1.59-.01-3.19.64-4.3,1.81-.56.58-1,1.27-1.29,2.02-.15.38-.24.76-.32,1.17l-.24,1.43-1.94,11.43-3.88,22.87-7.76,45.73-.54-.63h125.08s-.54.45-.54.45l8.37-50.33,4.19-25.17.52-3.15c.1-.55.16-1.02.19-1.48.01-.47-.02-.94-.1-1.4-.34-1.84-1.56-3.5-3.21-4.38-.82-.44-1.74-.7-2.67-.74-.97-.04-2.1,0-3.14,0l-6.38.02-102.05.34Z"/>
            <polyline class="cls-6" points="217.78 347.61 201.4 347.81 226.49 372.54 230.49 347.45 230.33 347.45"/>
            <polyline class="cls-6" points="201.4 347.81 201.4 354.54 226.58 378.45 351.57 378.45 351.57 372.54"/>
            <line class="cls-6" x1="226.49" y1="372.54" x2="226.49" y2="378.72"/>
            <rect class="cls-6" x="321.21" y="365.54" width="26.18" height="4.36"/>
            <circle class="cls-6" cx="302.39" cy="334.18" r="8.73" transform="translate(-94.43 547.83) rotate(-76.16)"/>
            <path class="cls-6" d="m230.13,368.27c.45-1.45.91-2.91,1.36-4.36"/>
            <path class="cls-6" d="m232.58,369.09c.45-1.45.91-2.91,1.36-4.36"/>
            <line class="cls-6" x1="350.66" y1="288.09" x2="358.07" y2="288.09"/>
            <line class="cls-6" x1="353.94" y1="290.82" x2="358.87" y2="290.82"/>
          </g>
        </g>
        <g>
          <g>
            <g>
              <g>
                <path class="cls-1" d="m244.4,190.46v18.18s8.91,9.91,18.18,11.18l-10.73,16.82,12,8.64,10.09-8.45-7.64-17.36s5.45-.64,7.27-8.18l-.27-7.73s9.82-.09,14.64-2c4.82-1.91,11.82-8.27,15.36-20.45s4.64-16,4.64-16c0,0-11.18-2.55-17.27-19.91,0,0-14.91,19.09-38.82,14.91,0,0-12.91-7.82-18.09-5.64-5.18,2.18-5.45,9.18-5.18,11.09.27,1.91,5.91,12.73,11.18,16.09,5.27,3.36,4.64,8.82,4.64,8.82Z"/>
                <g>
                  <path class="cls-5" d="m232.85,154.87s-6.68,5.05-3.27,13.36c3.41,8.32,9,13.5,12.82,14.86"/>
                  <path class="cls-13" d="m262.42,199.82c2.61,1.34,5.57,2.19,8.51,2.69,2.96.5,5.99.6,8.98.28,2.98-.32,5.95-1.05,8.7-2.15,1.34-.61,2.6-1.42,3.76-2.35,1.15-.95,2.18-2.03,3.14-3.18,1.9-2.32,3.44-4.93,4.75-7.65,1.31-2.72,2.4-5.55,3.34-8.43,1.88-5.76,3.17-11.71,4.14-17.7.05-.28.31-.48.6-.43.28.05.48.31.43.6h0c-.99,6.03-2.31,12.02-4.23,17.84-.96,2.91-2.07,5.78-3.41,8.54-1.34,2.76-2.93,5.43-4.89,7.83-1,1.19-2.07,2.31-3.28,3.3-1.22.98-2.54,1.82-3.97,2.47-2.91,1.14-5.89,1.91-8.97,2.25-3.07.34-6.19.26-9.24-.24-3.05-.51-6.03-1.33-8.86-2.76-.26-.13-.36-.44-.23-.7.13-.26.44-.36.7-.23h0s.03.02.03.02Z"/>
                  <line class="cls-5" x1="244.44" y1="189.1" x2="244.44" y2="208.73"/>
                  <line class="cls-5" x1="273.35" y1="203.55" x2="273.35" y2="211.6"/>
                </g>
              </g>
              <g>
                <path class="cls-13" d="m283.67,174.98c-.41,1.34-.31,2.8.23,4.05.26.63.63,1.2,1.09,1.69.46.49,1.02.94,1.51,1.52.49.56.88,1.38.78,2.23-.08.84-.54,1.56-1.12,2.09-1.25,1.04-2.78,1.21-4.19,1.21-.02,0-.05-.02-.05-.05,0-.02.01-.04.03-.04,1.33-.49,2.73-.85,3.59-1.77.43-.44.76-.99.86-1.56.11-.57-.08-1.15-.47-1.68-.39-.53-.91-1.01-1.38-1.57-.48-.57-.83-1.23-1.07-1.91-.46-1.39-.43-2.91.11-4.23,0-.02.04-.03.06-.02.02,0,.03.03.03.05Z"/>
                <path class="cls-13" d="m280.67,190.44c-2.2.24-4.47.01-6.63-.63-1.07-.32-2.16-.68-3.12-1.29-.96-.6-1.84-1.33-2.53-2.23-.02-.02-.01-.05,0-.06.01-.01.03-.01.05,0,1,.52,1.94,1.05,2.9,1.52.97.47,1.9,1.01,2.91,1.39,2.02.77,4.19,1.2,6.39,1.22.02,0,.04.02.04.05,0,.02-.02.04-.04.04Z"/>
                <path class="cls-13" d="m274.31,192.25c-.45.16-.98.17-1.47.02-.24-.07-.54-.12-.7-.35-.16-.21-.28-.48-.2-.82,0-.03.04-.05.07-.05.33.04.52.11.71.18.18.07.27.26.43.39.32.24.71.44,1.16.54.02,0,.04.03.04.05,0,.02-.02.03-.03.03Z"/>
                <g>
                  <path class="cls-13" d="m266.66,176.96c-.16,1.72,1.41.9,3.55,1.11,2.14.21,4.05,1.36,4.21-.37.16-1.72-1.44-3.29-3.58-3.49-2.14-.21-4.02,1.03-4.18,2.75Z"/>
                  <path class="cls-13" d="m267.79,177.25c-.84.04-1.7-.11-2.5-.51-.39-.2-.83-.43-1.07-.84-.25-.4-.35-.89-.24-1.36,0-.03.03-.04.06-.04,0,0,.02,0,.02.01.36.32.58.59.86.83.27.23.45.55.75.79.6.46,1.34.81,2.13,1.03.02,0,.04.03.04.05,0,.02-.02.03-.04.04Z"/>
                </g>
                <g>
                  <path class="cls-13" d="m297.55,176.96c.16,1.72-1.41.9-3.55,1.11-2.14.21-4.05,1.36-4.21-.37-.17-1.72,1.44-3.29,3.58-3.49,2.14-.21,4.02,1.03,4.18,2.75Z"/>
                  <path class="cls-13" d="m296.42,177.16c.79-.21,1.53-.57,2.13-1.03.3-.24.48-.56.75-.79.27-.24.49-.51.86-.83.02-.02.05-.02.07,0,0,0,.01.02.01.02.11.46.01.96-.24,1.36-.25.41-.68.64-1.07.84-.8.4-1.66.55-2.5.51-.02,0-.04-.02-.04-.05,0-.02.02-.04.04-.04Z"/>
                </g>
                <path class="cls-13" d="m300.01,167.04c-.74-.49-1.5-.93-2.3-1.26-.78-.33-1.58-.59-2.35-.69-.79-.09-1.47.2-2.14.18-.72-.02-1.42.16-2.52.22h-.02c-.07,0-.13-.05-.14-.12,0-.02,0-.03,0-.05.16-.5.39-1.02.79-1.37.19-.19.4-.36.61-.53.23-.13.48-.25.74-.36,1.06-.42,2.2-.07,3.13.27.95.35,1.77.88,2.5,1.49.7.63,1.35,1.29,1.86,2.06.03.05.02.12-.03.16-.04.03-.09.02-.13,0h0Z"/>
                <path class="cls-13" d="m265.87,166.88c.51-.78,1.15-1.43,1.86-2.06.72-.61,1.54-1.14,2.5-1.49.93-.34,2.07-.69,3.13-.27.25.11.5.23.74.36.22.17.43.33.61.53.39.35.63.87.79,1.37.02.07-.02.14-.08.17-.02,0-.03,0-.05,0h-.02c-1.1-.05-1.81-.24-2.52-.22-.67.02-1.35-.27-2.14-.18-.77.1-1.56.36-2.35.69-.79.32-1.56.76-2.3,1.26h0c-.05.04-.12.02-.16-.03-.03-.04-.02-.09,0-.13Z"/>
              </g>
            </g>
            <g>
              <path class="cls-13" d="m317.19,175.25c-1.37-3.6-3.53-9.64-6.21-13.68.69-2.68,1.49-6.6,1.86-11.38.71-9.08-5.4-43.6-48.88-39.72.33-.53.63-1.07.86-1.64,2.18-5.41.02-12.21-4.88-15.38s-11.99-2.34-16.02,1.87c-2.87,2.98-4.12,7.32-3.75,11.44.23,2.59,1.12,5.21,2.97,7.04,1.03,1.03,2.25,1.76,3.57,2.28-17.84,12.46-15.68,41.21-15.68,41.21,5.88-6.4,14.22,1.26,15.02,2.03-2.36,4.17-4.12,10.09-5.26,13.65-1.63,5.07-1.82,11.04,1.38,15.3,1.96,2.62,5.04,4.3,8.26,4.89s5.9-.11,9.01-1.17c-4.36-2.12-8.95-4.45-11.44-8.61-2.51-4.19-2.37-9.55-.78-14.16.7-2.04,1.67-3.96,2.76-5.82.18-.29.35-.58.51-.85.41-.67.84-1.32,1.28-1.97,14.39,3.32,30.52-3,38.79-15.24,1.7,4.68,3.38,9.68,6.47,13.59,2.48,3.14,6.01,5.68,9.88,6.41,1.44,2.06,2.72,4.21,3.66,6.54,1.84,4.52,2.27,9.87-.02,14.18-2.27,4.28-6.73,6.86-10.96,9.21,3.16.89,5.87,1.44,9.06.68,3.19-.76,6.17-2.61,7.99-5.33,2.96-4.43,2.45-10.38.55-15.35Z"/>
              <g>
                <path class="cls-6" d="m248.14,152.67c14.63,3.8,31.08-.38,42.1-10.72"/>
                <path class="cls-6" d="m253.75,142.94c9.65,3.17,20.43,2.74,29.8-1.17"/>
                <path class="cls-6" d="m293.38,142.29c2.61,5.24,6.86,9.66,11.99,12.48"/>
                <path class="cls-6" d="m292.96,138.46c1.68,1.41,3.55,2.59,5.54,3.53"/>
                <path class="cls-6" d="m247.57,115.25c4.82-2.22,10-3.67,15.28-4.27"/>
              </g>
            </g>
          </g>
          <g>
            <g>
              <path class="cls-13" d="m239.76,210.73s-2.55,4.91-2.18,10.91,19.77,48.22,19.77,48.22l5.5,12.41,9.86-26.13,8.14-21.82s2.27-13.68,1.23-18.59c-1.05-4.91-.41-4.14-.41-4.14l17.09,7.91s15.77,7.36,18.95,10.41c3.18,3.05,11.68,13.59,13.5,15.86,1.82,2.27,13.64,17.18,13.64,17.18l15.23,19.86,9.36,13.23s4.36,6.09,2.41,11.54c-1.95,5.45-8.77,16.73-9.59,17.64-.82.91-2.82,3.27-2.82,3.27l2-14.04,3.73-22.36s-1-5.27-5.23-7.05-42.18-.05-42.18-.05l-9-16.45-.45,16.45h-61.09s-6.18.64-7.09,4.82c-.91,4.18-10.54,64.9-10.54,64.9l-28.09-17.18-13.09-9.36,29.91-32.63s-.45-4.91-2.27-5.36c-1.82-.45-12.27-.64-12.27-.64,0,0-.36-5-1-5.27-.64-.27-1.55-.36-1.55-.36l-4.55-2.91,15.64-5.82s2.36-5.64,1.73-6.09-27.82,6-27.82,6c0,0,13.64-39.72,17.45-44.45,3.82-4.73,28.45-17.91,36.09-19.91Z"/>
              <g>
                <path class="cls-1" d="m212.7,305.04c3.86,2.39,7.68,4.86,11.48,7.34l11.43,7.43c.25.16.32.5.16.75-.16.25-.5.32-.75.16l-11.48-7.34c-3.83-2.44-7.65-4.9-11.43-7.43-.25-.17-.32-.51-.15-.76.16-.24.49-.31.74-.16Z"/>
                <path class="cls-1" d="m237.17,261.04c-1.65,3.96-3.27,7.93-4.96,11.88-1.67,3.95-3.35,7.9-5.06,11.83-1.71,3.94-3.39,7.88-5.15,11.79-1.73,3.93-3.54,7.82-5.42,11.67-.13.27-.46.38-.73.25-.26-.12-.37-.43-.27-.69,1.55-4,3.17-7.98,4.87-11.91,1.67-3.95,3.42-7.87,5.15-11.79,1.72-3.93,3.47-7.85,5.23-11.76,1.74-3.92,3.55-7.81,5.34-11.71.13-.27.45-.39.72-.27.27.12.39.44.28.71Z"/>
                <line class="cls-6" x1="214.85" y1="299.61" x2="216.29" y2="307.45"/>
                <path class="cls-1" d="m281.88,211.23c6.24,2.69,12.43,5.51,18.55,8.45,3.06,1.49,6.1,3.01,9.1,4.61,1.49.82,2.99,1.64,4.45,2.53,1.46.89,2.91,1.84,4.22,2.99,2.51,2.41,4.64,5.02,6.88,7.59,2.19,2.6,4.36,5.21,6.51,7.84,4.29,5.27,8.54,10.57,12.72,15.92,4.19,5.35,8.33,10.73,12.4,16.17,4.07,5.44,8.11,10.9,11.89,16.57.47.71.92,1.44,1.38,2.16.45.73.93,1.43,1.32,2.21.39.78.88,1.48,1.15,2.38.28.86.41,1.77.43,2.66.04,1.79-.32,3.52-.83,5.18-.51,1.66-1.19,3.25-1.95,4.79-1.52,3.08-3.35,5.98-5.28,8.79-.97,1.4-1.97,2.78-2.98,4.15l-1.51,2.05-.73,1.02c-.11.17-.23.34-.33.51-.05.08-.1.17-.13.23-.02.04-.03.06-.03.08-.03,0,.08.02-.08-.32.17.25.1.59-.15.76s-.59.1-.76-.15c-.1-.15-.11-.42-.1-.44,0-.07.03-.16.04-.19.03-.09.06-.16.09-.22.06-.12.12-.22.18-.32.12-.2.24-.38.37-.56l.75-1.05,1.51-2.05c1.01-1.36,2-2.73,2.96-4.12,1.92-2.78,3.72-5.64,5.21-8.65.74-1.5,1.39-3.05,1.89-4.63.49-1.58.82-3.22.78-4.83-.02-.81-.13-1.6-.38-2.35-.22-.74-.7-1.46-1.07-2.2-.36-.74-.84-1.44-1.29-2.16-.45-.71-.89-1.43-1.36-2.13-3.75-5.63-7.78-11.09-11.84-16.52-4.06-5.43-8.2-10.81-12.38-16.15-4.17-5.35-8.41-10.65-12.69-15.91-2.14-2.63-4.31-5.24-6.49-7.83-2.22-2.54-4.39-5.2-6.78-7.5-1.23-1.09-2.63-2-4.07-2.88-1.44-.88-2.92-1.7-4.4-2.51-2.98-1.6-6.02-3.1-9.07-4.58-6.12-2.92-12.3-5.71-18.53-8.38-.28-.12-.41-.44-.29-.71s.44-.41.71-.29h0Z"/>
                <path class="cls-1" d="m305.2,261.24c1.23,1.86,2.42,3.73,3.58,5.63,1.17,1.89,2.31,3.8,3.43,5.72,2.24,3.84,4.43,7.71,6.2,11.81.12.28,0,.6-.29.72-.24.1-.51.02-.66-.18-2.63-3.62-4.85-7.47-7.01-11.35-1.08-1.94-2.15-3.89-3.18-5.86-1.05-1.96-2.06-3.94-3.03-5.95-.13-.27-.02-.6.25-.73.25-.12.54-.03.69.19Z"/>
                <path class="cls-6" d="m308.72,268.73c-.05,7-.29,9.65-.7,16.64"/>
                <path class="cls-6" d="m299.37,265.23c3.29,1.98,6.57,3.95,9.86,5.93"/>
                <path class="cls-6" d="m232.57,269.81c2.55-1.45,5.09-2.91,7.64-4.36"/>
                <path class="cls-6" d="m237.95,211.85c-8.43,5.95-15.26,14.15-19.59,23.52-1.19,2.58-2.19,5.61-.99,8.18,1.24,2.66,4.36,3.83,7.22,4.51,4.23,1.01,8.57,1.52,12.91,1.53-3.03,1.83-3.94,6.88-1.97,9.82,1.97,2.94,5.25,4.65,8.26,6.51,7.28,4.48,13.65,10.43,18.63,17.38"/>
                <path class="cls-6" d="m281.84,213.23c7.26,5.94,14.15,11.71,18.05,20.24,1.14,2.49,1.92,5.46.7,7.91-1.19,2.37-3.92,3.54-6.52,4.08s-5.33.64-7.74,1.76c3.58.79,6.18,5.67,6.36,9.33.18,3.66-1.62,7.2-4.18,9.82-2.56,2.62-5.82,4.43-9.12,6.02-6.32,3.05-13.49,5.96-16.58,12.26"/>
                <path class="cls-6" d="m220.96,288.3c.75-1.81,1.5-3.62,2.26-5.42"/>
                <path class="cls-6" d="m220.04,283.73c.61-1.62,1.54-3.11,2.73-4.36"/>
                <path class="cls-6" d="m304.78,242c.12-4.63,2.04-9.2,5.27-12.52"/>
                <path class="cls-6" d="m209.96,228.89c1.45.73,2.91,1.45,4.36,2.18"/>
              </g>
            </g>
            <g>
              <path class="cls-15" d="m262.65,219.98s-11.04-2.11-17.66-11.18l-4.84,1.16s-5.86,12.95,1.09,24.48l4.7,11.11,16.77,36.2,12.68-33.27,5.79-16.29s2.59-13.36.14-22.36l-7.16.07s-2.25,8.11-7.29,9.61l7.02,17.25-9.61,8.66-12.34-8.93,10.7-16.5Z"/>
              <g>
                <path class="cls-1" d="m274.37,210.25c.07-.03.14-.11.16-.17l-.03.09-.06.2-.13.4-.28.79c-.19.52-.4,1.03-.62,1.54-.44,1.02-.95,2.01-1.57,2.95-.61.94-1.32,1.83-2.22,2.57-.88.74-1.98,1.29-3.18,1.48h0s.44-.76.44-.76l3.34,7.52-1.02.07,1.76-6.2c.08-.29.38-.46.67-.38.13.04.24.12.31.23l8.88,13.98-.99.17c.44-2.05.95-4.1,1.3-6.14.35-2.05.53-4.12.6-6.2.14-4.15-.26-8.33-1.22-12.37l.51.42-1.75-.06-1.64-.02c-1.08-.02-2.17-.06-3.28-.11Zm-.67-.86c1.23-.05,2.49-.09,3.74-.11.62,0,1.27-.02,1.87,0l1.76.06c.25,0,.45.19.51.42.99,4.14,1.39,8.41,1.25,12.66-.07,2.12-.26,4.25-.62,6.34-.36,2.11-.87,4.14-1.31,6.2-.06.29-.35.48-.65.42-.15-.03-.27-.13-.35-.24l-8.88-13.98.98-.14-1.76,6.2c-.08.29-.38.46-.67.38-.16-.05-.29-.16-.35-.3l-3.34-7.52c-.12-.27,0-.59.28-.72.03-.02.07-.03.1-.03h.06s0-.01,0-.01c.97-.08,1.88-.52,2.67-1.15.81-.62,1.45-1.46,2.02-2.34.57-.88,1.05-1.83,1.46-2.81.2-.49.4-.99.56-1.49l.24-.76.11-.38.05-.19.03-.11c.04-.13.12-.28.21-.37Z"/>
                <line class="cls-6" x1="264.08" y1="245.28" x2="264.08" y2="273.46"/>
                <path class="cls-6" d="m261.21,249.5c0,.7-.57,1.27-1.27,1.27s-1.27-.57-1.27-1.27.57-1.27,1.27-1.27,1.27.57,1.27,1.27Z"/>
                <path class="cls-6" d="m261.21,255.28c0,.7-.57,1.27-1.27,1.27s-1.27-.57-1.27-1.27.57-1.27,1.27-1.27,1.27.57,1.27,1.27Z"/>
                <path class="cls-6" d="m261.21,261.05c0,.7-.57,1.27-1.27,1.27s-1.27-.57-1.27-1.27.57-1.27,1.27-1.27,1.27.57,1.27,1.27Z"/>
                <path class="cls-1" d="m244.68,208.01c.11.03.25.15.29.21l.03.03.06.06.12.12.24.24.47.48.98.94c.65.63,1.31,1.24,1.99,1.83,1.36,1.18,2.75,2.32,4.24,3.31,2.94,2.01,6.15,3.63,9.65,4.14h0s.02,0,.02,0c.3.03.52.29.49.59,0,.1-.04.19-.09.26l-4.91,7.09c-.17.25-.51.31-.76.14-.06-.04-.11-.1-.15-.15l-3.95-6.14.87.07-12.09,13.64c-.2.23-.54.25-.77.05-.05-.05-.1-.11-.13-.17l-2-4.05-.02-.04c-.82-2.04-1.43-4.18-1.77-6.36-.35-2.18-.4-4.41-.19-6.61.21-2.2.74-4.37,1.49-6.44.17-.52.41-1.02.61-1.54l.04-.1h0s0-.02,0-.02c.7-.61.2-.17.36-.31h.03s.05-.02.05-.02l.21-.06.42-.12.84-.23c1.12-.3,2.23-.59,3.34-.86Zm-.34,1.04c-.98.32-1.94.62-2.9.91l-.73.21-.36.1-.18.05h-.05s-.02.02-.02.02c.15-.14-.35.3.34-.3h0s0,.02,0,.02l-.04.09c-.19.49-.42.97-.59,1.48-.72,1.99-1.23,4.06-1.43,6.17-.43,4.22.29,8.51,1.89,12.45l-.02-.04,2,4.05-.9-.12,12.09-13.64c.2-.23.54-.25.77-.05.04.03.07.07.1.11l3.95,6.14h-.91s4.91-7.11,4.91-7.11l.42.85h0c-.96.02-1.91-.09-2.86-.25-.94-.2-1.86-.47-2.76-.8-1.79-.67-3.46-1.61-5.01-2.67-1.53-1.1-3-2.28-4.33-3.6-.66-.66-1.31-1.34-1.92-2.04l-.89-1.09-.43-.56-.21-.29-.1-.15-.05-.07-.03-.04s.14.13.23.14Z"/>
              </g>
            </g>
          </g>
        </g>
      </g>
      <g>
        <g>
          <g>
            <path class="cls-1" d="m92.32,224.37c-2.64-2.45-6.89-7.3-10.09-15.28l.09-1.91s-17.18,4.82-22.18,6.55c-5,1.73-18,5-20.45,11s-8.09,32.54-9.73,50c-1.64,17.45-3.36,49.36-3.36,49.36,0,0,.09,4.82,5.09,9.73,5,4.91,17.45,12.64,28.27,15.36s24.63,5.64,34.63,6.18c10,.55,21.36.36,21.36.36,0,0-1.36-13.36-.91-17.09l7.09-8.18s3.64-2.18,4.55-2.27,1.55-.27,1.55-.27c0,0,5.45-1.36,6.91-4.09,1.45-2.73.82-5.91,1.64-6.18.82-.27,3.64-.09,3.64-.09l17.18-21.54,5.32-6.55,2.86-.55s-2.73-17.64-7.18-29.91c-4.45-12.27-11.91-26.63-14.27-28.54-2.36-1.91-32.91-20.27-32.91-20.27,0,0-4.18,16.27-12.82,16.18h-1.16c-1.9,0-3.72-.7-5.11-1.99Z"/>
            <path class="cls-16" d="m92.32,224.37c-2.64-2.45-6.89-7.3-10.09-15.28l.09-1.91s-17.18,4.82-22.18,6.55c-5,1.73-18,5-20.45,11s-8.09,32.54-9.73,50c-1.64,17.45-3.36,49.36-3.36,49.36,0,0,.09,4.82,5.09,9.73,5,4.91,17.45,12.64,28.27,15.36s24.63,5.64,34.63,6.18c10,.55,21.36.36,21.36.36,0,0-1.36-13.36-.91-17.09l7.09-8.18s3.64-2.18,4.55-2.27,1.55-.27,1.55-.27c0,0,5.45-1.36,6.91-4.09,1.45-2.73.82-5.91,1.64-6.18.82-.27,3.64-.09,3.64-.09l17.18-21.54,5.32-6.55,2.86-.55s-2.73-17.64-7.18-29.91c-4.45-12.27-11.91-26.63-14.27-28.54-2.36-1.91-32.91-20.27-32.91-20.27,0,0-4.18,16.27-12.82,16.18h-1.16c-1.9,0-3.72-.7-5.11-1.99Z"/>
          </g>
          <g>
            <g>
              <path class="cls-14" d="m95.14,226.26s-3.89,5.93-6.48,8.04l3.75,12.27s-10.5,59.45-10.7,63.95c0,0,1.3,7.36,2.39,9.2l12.14,3.34s5.11-4.5,6.2-8.73l-2.52-40.57-2.05-26.52s5.39-6.34,6-13.02l-4.02-7.77s-1.84.82-4.7-.2Z"/>
              <g>
                <path class="cls-13" d="m89.21,234.16l3.91,12.42-.53-.5h0c.34.12.79.21,1.2.27.42.05.85.09,1.28.11.86.03,1.72,0,2.58-.09l-.47.2h0c.83-.82,1.64-1.8,2.33-2.8.7-1.01,1.3-2.08,1.81-3.19.52-1.11.91-2.27,1.19-3.45.31-1.18.39-2.39.43-3.6v-.05c.02-.41.36-.73.77-.71.41.02.73.36.71.77-.05,1.32-.14,2.65-.48,3.94-.3,1.29-.73,2.54-1.29,3.73-.55,1.19-1.2,2.33-1.95,3.41-.76,1.08-1.55,2.08-2.52,3.05h0s-.06.05-.06.05c-.12.1-.27.15-.42.15-.9-.02-1.8-.04-2.71-.09l-1.36-.1c-.47-.04-.89-.07-1.42-.14h0c-.26-.06-.45-.26-.52-.49h0s-3.91-12.43-3.91-12.43c-.12-.39.09-.81.49-.93.39-.12.81.09.93.49Z"/>
                <path class="cls-14" d="m92.51,246.81s-11.19,60.9-10.92,64.35c.27,3.45,2.64,8.76,2.64,8.76l12.27,2.99s6-5.27,6-9.18-4.74-66.61-4.74-66.61"/>
              </g>
            </g>
            <g>
              <path class="cls-13" d="m111.34,209.8c7.32,4.21,14.56,8.53,21.73,12.99,3.58,2.24,7.15,4.49,10.62,6.94.89.61,1.76,1.42,2.43,2.25.72.83,1.33,1.71,1.94,2.6,1.19,1.79,2.22,3.65,3.2,5.54,3.85,7.58,6.78,15.54,9.32,23.61,2.49,8.08,4.54,16.33,5.44,24.78.03.28-.17.52-.45.55-.27.03-.52-.17-.55-.44h0c-.47-4.17-1.28-8.3-2.25-12.38-.98-4.08-2.09-8.14-3.36-12.15-2.55-8-5.5-15.92-9.32-23.37-.96-1.86-1.99-3.68-3.14-5.4-1.17-1.7-2.41-3.37-4.04-4.5-3.4-2.44-6.95-4.71-10.51-6.96-7.13-4.49-14.35-8.84-21.56-13.21-.24-.14-.31-.45-.17-.69.14-.23.44-.31.68-.18Z"/>
              <path class="cls-13" d="m132.45,261.25c.34,5.58.5,11.15.52,16.73.03,5.58-.02,11.16-.25,16.74-.27,5.58-.64,11.15-1.31,16.71-.65,5.55-1.53,11.09-2.99,16.51-.07.27-.35.43-.61.35-.26-.07-.41-.33-.36-.59v-.02s.86-4.06.86-4.06c.28-1.35.45-2.73.69-4.1.25-1.36.42-2.74.6-4.12.17-1.38.38-2.75.49-4.13.62-5.52.9-11.07,1.16-16.62.28-5.55.38-11.11.4-16.68.02-2.78-.01-5.56-.05-8.34-.02-2.78-.06-5.57-.16-8.34-.01-.28.2-.51.48-.52.27-.01.5.2.52.47Z"/>
              <line class="cls-8" x1="133.59" y1="311.54" x2="153.82" y2="300.81"/>
              <path class="cls-11" d="m106.32,263.14h22.23s1.5,32.04-10.23,32.59c-11.73.55-12-32.59-12-32.59Z"/>
              <line class="cls-11" x1="107" y1="268.18" x2="128.54" y2="268.18"/>
              <g>
                <line class="cls-5" x1="122.17" y1="330.62" x2="60.23" y2="313.04"/>
                <path class="cls-13" d="m72.86,251.9c-.71,5.6-1.37,11.21-2.12,16.8l-2.23,16.79-2.29,16.78c-.82,5.58-1.62,11.17-2.72,16.72-.06.3-.35.49-.64.43-.27-.05-.46-.31-.44-.58.46-5.64,1.22-11.23,1.96-16.82l2.39-16.77,2.45-16.76c.81-5.59,1.71-11.16,2.56-16.74.05-.3.32-.5.62-.46.29.04.5.32.46.61Z"/>
                <g>
                  <path class="cls-13" d="m82.52,207.63c-9.92,2.8-19.8,5.86-29.38,9.57-2.4.93-4.75,1.96-7.06,3.05l-1.7.87c-.61.31-1.05.53-1.46.92-.84.76-1.53,1.8-2.12,2.88-1.18,2.19-2.04,4.6-2.79,7.04-.75,2.44-1.37,4.93-1.94,7.44-2.21,10.04-3.57,20.29-4.73,30.54-1.13,10.26-1.99,20.55-2.68,30.85-.34,5.15-.64,10.31-.89,15.46-.12,2.58-.24,5.16-.32,7.73-.28,2.45.9,4.67,2.35,6.7,1.48,2.01,3.31,3.79,5.27,5.4,1.97,1.61,4.08,3.06,6.27,4.37,4.38,2.63,9.08,4.75,13.89,6.53,9.64,3.53,19.77,5.71,29.98,7,10.22,1.28,20.55,1.66,30.85,1.41.3,0,.55.23.56.53,0,.3-.23.55-.53.56-10.35.31-20.74-.02-31.04-1.25-10.29-1.25-20.52-3.36-30.3-6.94-4.88-1.79-9.65-3.94-14.14-6.62-2.24-1.34-4.41-2.82-6.44-4.48-2.03-1.66-3.94-3.51-5.53-5.66-.79-1.07-1.49-2.24-2.01-3.51-.26-.64-.46-1.31-.57-2.02-.06-.35-.09-.71-.09-1.08,0-.36.01-.66.02-.99.08-2.59.19-5.17.31-7.76.24-5.17.53-10.33.87-15.49.67-10.32,1.51-20.63,2.63-30.92,1.15-10.28,2.48-20.56,4.7-30.72.57-2.54,1.2-5.06,1.96-7.56.77-2.5,1.64-4.98,2.91-7.35.65-1.18,1.39-2.34,2.46-3.32.27-.24.57-.47.9-.67.34-.21.6-.31.9-.48l1.75-.89c2.37-1.1,4.76-2.14,7.19-3.06,4.84-1.88,9.77-3.51,14.72-5.02,4.95-1.51,9.95-2.87,14.98-4.12.29-.07.59.1.66.4.07.29-.1.58-.38.66h0Z"/>
                  <path class="cls-5" d="m101.68,336.63s-4.09,12.41-.95,19.09"/>
                </g>
                <path class="cls-12" d="m58.62,317.87c1.82-1,3.13-2.6,4.95-3.6"/>
              </g>
              <path class="cls-6" d="m59.14,216.37c1.63-.57,3.25-1.14,4.88-1.72"/>
              <path class="cls-7" d="m60.82,218.42c1.54-.48,3.08-.95,4.62-1.43"/>
              <path class="cls-11" d="m138.22,229.73c.55.45,1.09.91,1.64,1.36"/>
            </g>
            <path class="cls-6" d="m108.77,228.64c1.36-1,2.73-2,4.09-3"/>
            <g>
              <path class="cls-13" d="m81.97,209.34c-1.88,1-3.75,2.07-5.55,3.19-1.79,1.13-3.64,2.29-5.05,3.74-.13.19-.34.37-.42.55l-.14.26c.02.06-.02.07,0,.18.06.36.29.85.55,1.28.52.88,1.16,1.73,1.82,2.56,1.32,1.66,2.76,3.24,4.22,4.81,1.46,1.56,2.96,3.09,4.49,4.58.77.74,1.54,1.48,2.33,2.19.78.69,1.62,1.46,2.4,1.96.15.11.6-.01,1-.28.41-.25.8-.59,1.18-.94.76-.71,1.46-1.51,2.14-2.32,1.36-1.63,2.63-3.36,3.82-5.12h0c.13-.2.4-.25.6-.12.19.13.25.4.12.59-1.19,1.81-2.43,3.57-3.79,5.27-.69.84-1.4,1.66-2.21,2.43-.41.38-.83.75-1.33,1.07-.25.16-.53.3-.85.4-.32.09-.77.13-1.16-.08-1.04-.65-1.78-1.36-2.61-2.08-.81-.72-1.59-1.46-2.37-2.2-1.55-1.5-3.07-3.02-4.55-4.59-1.48-1.57-2.91-3.19-4.26-4.89-.67-.86-1.32-1.73-1.89-2.7-.27-.5-.55-.98-.67-1.68-.04-.15,0-.41.04-.62l.23-.45c.15-.31.37-.48.55-.73,1.61-1.62,3.45-2.74,5.29-3.89,1.86-1.11,3.75-2.14,5.67-3.13.21-.11.47-.02.58.19.11.21.03.46-.18.57h0Z"/>
              <path class="cls-13" d="m100.05,226.23l2.61,4.84,1.27,2.39c.14.21.46.36.77.34.16,0,.29-.04.45-.13l.6-.32c3.19-1.7,6.15-3.86,8.63-6.46,1.23-1.3,2.33-2.73,3.22-4.28.44-.78.83-1.58,1.16-2.41.16-.42.32-.83.45-1.26.07-.21.13-.43.19-.64l.09-.32c.03-.1.03-.12.02-.18,0-.11-.06-.22-.15-.32-.05-.05-.1-.09-.17-.13l-.29-.16-1.2-.67-2.4-1.35-4.78-2.73c-.15-.08-.2-.27-.12-.42.08-.15.27-.2.41-.12l4.88,2.54,2.43,1.29,1.21.65.31.17c.13.08.26.17.37.29.23.23.4.54.43.89.02.16,0,.38-.04.5l-.09.34c-.06.23-.11.46-.18.68-.13.45-.28.9-.45,1.34-.34.88-.75,1.73-1.21,2.55-.93,1.64-2.07,3.14-3.34,4.51-2.57,2.73-5.66,4.89-8.95,6.61l-.63.31c-.24.13-.57.22-.87.22-.6.01-1.23-.25-1.59-.81l-1.25-2.5-2.39-4.95c-.07-.15,0-.34.14-.41.15-.07.33-.01.41.13Z"/>
            </g>
          </g>
        </g>
        <g>
          <g>
            <path class="cls-1" d="m171.36,288.91l9.27-12.54s31.5-8.18,32.72-7.09-1.23,5.86-1.23,5.86l-17.18,5.73s5.45,1.91,6,3c0,0,1.5.14,1.91,1.09.41.95.82,4.91.82,4.91l-32.32-.95Z"/>
            <g>
              <path class="cls-5" d="m194.98,289.17c1.1-.62,1.96-1.41,2.21-2.24.67-2.21,4.62-4.11,5.51-2.12.47,1.04.63,3.01.68,4.64"/>
              <path class="cls-13" d="m170.94,288.24l6.33-8.53,1.59-2.12.4-.53c.03-.06.23-.26.36-.38.16-.16.24-.18.37-.27.47-.29.89-.47,1.32-.66,1.71-.71,3.42-1.22,5.13-1.73,6.86-1.99,13.8-3.5,20.8-4.87,1.76-.33,3.49-.66,5.32-.88.22-.03.47-.05.72-.07.12-.01.29,0,.43-.01.05,0,.04,0,.14,0,.1.01.2.03.29.05.21.05.37.13.48.23.56.44.61.88.71,1.23.06.34.06.64.05.91-.08,1.09-.36,2.01-.75,2.93-.2.46-.42.9-.75,1.35-.17.23-.34.45-.61.68-.23.22-.63.41-.81.48-.89.39-1.71.69-2.56.99-1.68.6-3.37,1.17-5.05,1.74-3.37,1.1-6.79,2.14-10.14,3.19-1.53.51-2.93,1.44-3.96,2.72-.51.64-.94,1.35-1.25,2.12-.3.76-.57,1.62-.6,2.35v.05c-.01.3-.26.54-.56.53-.3,0-.53-.26-.53-.55.05-3.88,2.68-7.46,6.35-8.78l10.06-3.49c1.67-.58,3.34-1.16,4.99-1.77.82-.3,1.66-.62,2.39-.95.22-.11.24-.1.33-.18.07-.06.18-.19.27-.32.2-.27.37-.62.52-.98.3-.71.52-1.52.55-2.2,0-.17,0-.31-.02-.42-.01-.07-.07-.1.1.08.04.01.1.06.19.1.04.02.09.02.13.02.04,0-.02,0-.03,0h-.24c-.2.02-.39.03-.61.06-1.69.2-3.45.51-5.18.82-6.94,1.29-13.87,2.81-20.69,4.57-1.69.46-3.4.94-4.98,1.55-.39.15-.79.32-1.07.5-.05.04-.19.1-.17.11-.03.05-.02-.03-.11.1l-.41.52-1.67,2.08-6.7,8.29c-.19.23-.53.27-.77.08-.23-.18-.27-.51-.1-.75h0Z"/>
              <path class="cls-2" d="m195.66,280.95s4.21,1.38,5.71,3.01"/>
            </g>
          </g>
          <g>
            <g>
              <path class="cls-13" d="m140.4,317.14l22.5-27.68s4.36-.95,7.36-.82c3,.14,45.13,1.91,45.13,1.91,0,0,3.82,2.32,2.73,4.36s-6.54,7.64-6.54,7.64l-41.18,45.54-21.27.41.64-1.68s4.45-.77,5-1.27c.55-.5,1.45-3.77,1.45-3.77,0,0,2.32-1.77,1.5-4.59,0,0-2.68-1.32-5.27-1.45-2.59-.14-8.86-.27-8.86-.27l12.04-2.36s3.64-1.14,2.91-3.32c-.73-2.18-2-2.09-2-2.09l-16.18-.41s1.59-2.09,1.77-3.77-.23-3.55-.23-3.55l-1.5-2.82Z"/>
              <g>
                <g>
                  <path class="cls-1" d="m148.79,347.94l11.6-.04,5.8-.02h2.87c.35-.03.7-.14.99-.33.15-.09.28-.21.4-.34l.48-.53,15.48-17.28,15.51-17.26,7.75-8.63,3.88-4.31,1.94-2.16.97-1.08.24-.27.15-.2c.09-.14.18-.28.22-.44.23-.61.09-1.35-.34-1.86-.21-.26-.49-.45-.79-.56-.33-.11-.57-.13-1.12-.12h-5.8s-11.6.02-11.6.02l-23.2.03h-5.8s-1.45,0-1.45,0h-.36s-.3,0-.3,0c-.16.01-.32.04-.47.09-.3.1-.58.28-.79.52l-.86,1.09-7.18,9.11c-4.78,6.08-9.56,12.16-14.42,18.18-.24.29-.67.34-.96.1-.29-.23-.34-.65-.12-.94,4.65-6.18,9.38-12.3,14.11-18.42l7.09-9.18.44-.57.22-.29c.07-.09.15-.2.27-.33.43-.48.98-.86,1.6-1.06.31-.1.63-.17.95-.19.18,0,.32,0,.42,0h.36s1.45,0,1.45,0h5.8s23.2.04,23.2.04h11.6s5.8.02,5.8.02c.41-.01,1.16,0,1.74.23.6.22,1.15.61,1.55,1.1.81.98,1.08,2.38.63,3.59-.1.31-.26.58-.44.85l-.29.37-.24.27-.97,1.08-1.94,2.15-3.89,4.3-7.77,8.61-15.55,17.22-15.58,17.2-.49.54c-.21.22-.45.42-.71.59-.52.33-1.13.52-1.74.54h-2.93s-5.8-.03-5.8-.03l-11.6-.04c-.38,0-.68-.31-.68-.69,0-.38.31-.68.68-.68Z"/>
                  <circle class="cls-4" cx="174.23" cy="320.64" r="5.39"/>
                  <path class="cls-4" d="m140.4,317.66l21.13-26.49c1.2-1.51,3.05-2.37,4.98-2.32l47.71,1.16c2.69.07,4.13,2.66,3.63,5.31"/>
                </g>
                <path class="cls-6" d="m206.71,302.57c1.27-1.46,2.54-2.91,3.82-4.37"/>
                <path class="cls-6" d="m201.49,304.18c1.09-1.27,2.18-2.55,3.27-3.82"/>
              </g>
            </g>
            <g>
              <path class="cls-1" d="m114.77,338.68l9.41-9.82s9.54-1.64,11.45-5.32c0,0,.95-6.68,3.27-6.14s5.05,3.41,1.5,9.54l16.91.55s2.86,3.14-.27,4.91c-3.14,1.77-14.45,3.14-14.45,3.14,0,0,13.91.55,14.73,1.09s.68,3.14-.95,4.5c0,0,0,3.41-2.05,4.36s-4.5,1.5-4.5,1.5c0,0-1.91,2.73-3.82,3.41-1.91.68-6.95,5.05-7.77,5.05s-20.32.82-21.82.55-1.64-17.32-1.64-17.32Z"/>
              <path class="cls-13" d="m114.41,338.3c.05-.1.19-.28.21-.3l.12-.14.23-.28.47-.56.95-1.11c.64-.74,1.28-1.47,1.94-2.19,1.32-1.44,2.64-2.87,4.13-4.2.38-.33.74-.66,1.22-.96.19-.15.52-.3.85-.42l.7-.16c.93-.22,1.86-.46,2.78-.74,1.82-.55,3.64-1.2,5.22-2.16.77-.48,1.5-1.06,1.9-1.75.19-.34.29-.7.27-1.06-.02-.49-.02-1.03.03-1.54.11-1.04.41-2.1,1.07-3.02.34-.45.8-.86,1.38-1.1.58-.24,1.27-.25,1.84-.03,1.13.44,1.9,1.33,2.36,2.3.47.97.67,2.03.68,3.07.02,2.08-.75,4.18-2.21,5.69h0s-.39-.9-.39-.9c3.19.02,6.37.08,9.56.15,1.59.04,3.19.11,4.79.22.8.06,1.59.12,2.42.29.11.03.2.04.33.09l.18.07c.08.05.18.14.23.19l.35.49c.24.33.46.69.63,1.09.37.74.43,1.88-.23,2.57-.61.69-1.41,1.01-2.19,1.28-1.59.46-3.13.7-4.7,1.02-3.13.61-6.26,1.17-9.41,1.74h0s-.07-1.06-.07-1.06c3.53.05,7.05.16,10.58.46.88.08,1.77.17,2.65.31.44.07.89.15,1.34.26.23.06.46.13.7.22.24.14.5.12.82.66.37,1.06.26,2,.03,2.95-.13.47-.31.92-.57,1.35-.27.42-.64.85-1.2,1.09l.33-.46c-.08.87-.26,1.67-.58,2.49-.33.79-.84,1.64-1.78,2.07-.21.11-.5.17-.7.21l-.58.11c-.38.08-.77.16-1.15.26-.76.19-1.52.41-2.25.66l.35-.44c-.22,1.32-.99,2.43-2.1,3.09-.28.16-.56.29-.86.4-.26.11-.48.18-.72.31-.48.23-.95.51-1.42.8-1.88,1.18-3.67,2.55-5.71,3.65-.52.27-1.04.53-1.66.69-.61.16-1.19.19-1.76.25-1.13.09-2.26.15-3.39.2-2.25.09-4.5.14-6.76.17-2.25.02-4.5.03-6.77-.05-.57-.02-1.13-.04-1.71-.1-.29-.02-.58-.05-.93-.13-.08.04-.59-.25-.63-.41-.15-.2-.18-.33-.26-.5-.4-1.2-.48-2.31-.61-3.45-.21-2.26-.28-4.52-.33-6.77l-.04-3.38v-1.69s0-.84,0-.84v-.42s0-.21,0-.21v-.11s0-.05,0-.05c0-.05.01-.16.03-.23Zm1,.37s.03-.11.03-.13v.05s0,.1,0,.1v.21s0,.42,0,.42v.84s0,1.68,0,1.68l.04,3.36c.05,2.24.12,4.48.33,6.69.11,1.09.23,2.24.54,3.17.04.08.09.23.12.24l.02.04s-.01-.02-.03-.03c-.07-.02,0,0,.06.01.2.04.47.07.74.09.54.05,1.1.07,1.65.09,2.23.07,4.47.07,6.72.05,2.24-.03,4.49-.08,6.72-.17,1.12-.04,2.24-.11,3.34-.19.55-.05,1.1-.09,1.58-.22.47-.12.96-.36,1.44-.6,1.92-1.04,3.71-2.4,5.64-3.61.49-.3.98-.6,1.52-.86.25-.14.57-.25.83-.35.23-.08.46-.19.67-.31.83-.47,1.43-1.4,1.59-2.3v-.04c.04-.19.18-.35.35-.41.79-.27,1.56-.49,2.35-.69.39-.1.79-.19,1.19-.27l.6-.12c.19-.05.3-.07.45-.13.54-.24.95-.84,1.23-1.51.27-.67.44-1.44.51-2.16.02-.21.15-.38.33-.46.52-.22.95-.99,1.14-1.73.21-.74.24-1.64.02-2.25.11.13-.09-.05-.23-.09-.17-.07-.36-.12-.56-.17-.4-.1-.82-.18-1.24-.24-.85-.13-1.72-.22-2.58-.3-3.48-.3-6.99-.4-10.49-.46h-.02c-.29,0-.53-.25-.52-.54,0-.27.21-.49.47-.52h0c3.15-.36,6.31-.81,9.43-1.35,1.55-.3,3.16-.55,4.63-.95.72-.23,1.44-.56,1.89-1.08.47-.51.44-1.24.13-1.91-.15-.33-.35-.66-.57-.97l-.35-.48s0,.02,0,0l-.1-.04c-.06-.03-.17-.04-.25-.07-.73-.15-1.53-.2-2.32-.26-1.58-.1-3.17-.12-4.75-.13-3.18-.03-6.36.05-9.53.15-.29,0-.54-.22-.55-.51,0-.13.04-.26.12-.35l.03-.04h0c1.23-1.31,1.88-3.14,1.84-4.94-.02-.9-.21-1.79-.59-2.57-.36-.78-1-1.42-1.69-1.69-.68-.25-1.37.07-1.86.72-.47.67-.73,1.53-.82,2.42-.04.45-.03.88-.01,1.37.04.61-.14,1.23-.43,1.73-.59,1.01-1.46,1.65-2.31,2.2-1.75,1.07-3.63,1.74-5.51,2.31-.95.28-1.9.52-2.86.74l-.72.16c-.12.07-.25.09-.45.24-.35.21-.72.54-1.07.84-1.42,1.25-2.75,2.66-4.06,4.08l-1.96,2.14-.97,1.08-.48.54-.24.27-.12.14c-.06.08,0-.01-.03-.02Z"/>
            </g>
          </g>
        </g>
        <g>
          <g>
            <g>
              <path class="cls-1" d="m113.27,200.69l-2.32,10.5s-5.45,15.95-13.09,15.27c-7.64-.68-13.37-12.55-15.54-18-.27-.68,7.91-29.86,7.91-29.86,0,0-8.04.95-12.27-6.14-4.23-7.09-2.86-16.5-.55-19.23,0,0,8.73-3.82,11.04.14,2.32,3.95,4.91,7.36,7.23,5.45,2.32-1.91,4.77-9.14,9.27-10.77,4.5-1.64,28.36-3.27,30.54-6.55,2.18-3.27,2.73-3.55,2.73-3.55,0,0,6.41,4.36,8.04,7.64,1.64,3.27,5.73,12.41,7.91,12.95,2.18.55.41,6.95.41,6.95,0,0-7.77,24-13.36,32.04,0,0-4.77,7.5-10.09,7.36s-17.86-4.23-17.86-4.23Z"/>
              <g>
                <path class="cls-13" d="m103.32,194.63c3.09,1.75,6.31,3.3,9.56,4.76,3.25,1.44,6.58,2.72,9.98,3.65.85.24,1.71.41,2.57.62.86.16,1.73.29,2.59.42.86.04,1.73.18,2.59.14l1.28-.05c.44,0,.77-.14,1.16-.2,1.5-.49,2.87-1.58,4.07-2.8,1.21-1.23,2.27-2.64,3.26-4.1,3.91-5.89,6.76-12.49,9.29-19.15,1.25-3.34,2.37-6.73,3.4-10.14.51-1.71.98-3.43,1.4-5.15.41-1.72.79-3.48.94-5.19v-.02c.03-.3.29-.52.59-.49.3.03.52.29.5.58-.14,1.86-.5,3.62-.88,5.39-.4,1.76-.84,3.51-1.33,5.24-.96,3.47-2.11,6.88-3.34,10.26-2.52,6.73-5.35,13.4-9.34,19.5-1.01,1.51-2.1,2.99-3.4,4.32-1.29,1.32-2.78,2.58-4.7,3.22-.49.1-1.02.25-1.48.25l-1.4.04c-.94.04-1.85-.12-2.77-.17-.91-.14-1.81-.29-2.71-.47-.88-.22-1.78-.41-2.65-.66-3.5-.99-6.87-2.33-10.15-3.82-3.29-1.49-6.46-3.19-9.57-5.03-.26-.15-.34-.49-.19-.75.15-.26.48-.34.74-.2h.01Z"/>
                <path class="cls-13" d="m78.41,152.18c-1.4,2.52-2.27,5.42-2.56,8.29-.23,2.89.12,5.82,1.28,8.47,1.14,2.63,2.78,5.12,5.11,6.74,2.27,1.64,5.22,2.47,8.03,2.25h.02c.3-.05.58.16.62.45.01.08,0,.16-.01.23l-8.32,30.36-.02-.34c1.78,4.34,4,8.61,6.91,12.28,1.46,1.81,3.15,3.5,5.17,4.51,1.01.5,2.1.78,3.19.75,1.1-.02,2.18-.35,3.16-.89,1.97-1.09,3.52-2.91,4.82-4.84,1.3-1.94,2.35-4.06,3.26-6.23.45-1.09.87-2.19,1.24-3.31.36-1.09.64-2.28.97-3.42l1.88-6.9c.08-.29.38-.46.67-.38.29.08.46.38.38.67l-1.88,6.9c-.33,1.16-.59,2.29-.98,3.47-.38,1.15-.8,2.28-1.26,3.39-.93,2.22-2.01,4.4-3.36,6.42-1.36,2-2.98,3.95-5.2,5.18-1.1.61-2.37,1-3.66,1.02-1.29.03-2.57-.31-3.7-.87-2.26-1.14-4.02-2.93-5.54-4.81-3.02-3.82-5.24-8.11-7.08-12.57-.04-.11-.05-.22-.02-.33h0s8.32-30.37,8.32-30.37l.63.68h0c-3.18.57-6.46-.22-9.14-2.01-2.69-1.8-4.54-4.54-5.72-7.43-.62-1.45-.99-3-1.22-4.55-.21-1.56-.18-3.15-.01-4.7.41-3.11,1.42-6.08,3.14-8.74.16-.25.5-.33.75-.16.24.16.32.47.18.72l-.02.04Z"/>
              </g>
            </g>
            <g>
              <path class="cls-13" d="m90.99,158.34c.87,1.38,1.94,2.74,3.56,2.52,1.62-.22,2.95-1.41,3.88-2.74s1.57-2.86,2.48-4.21c3.15-4.7,9.05-6.75,14.66-7.48,5.61-.73,11.37-.45,16.84-1.91,2.59-.69,5.45-2.22,5.74-4.88,4.01,2.13,6.78,6.3,8.64,10.44s3.95,8.57,7.93,10.76l-1.14,9.36s5.64-5.45,7.45-16.91c1.82-11.45-5.27-49.27-43.63-43.63,0,0-19.45-9.09-33.09,6.55-13.64,15.64-7.27,38.36-7.27,38.36,0,0,8.07-5.52,13.94,3.79Z"/>
              <g>
                <path class="cls-6" d="m124.08,114.62c4.27,4.44,8.1,9.3,11.4,14.5"/>
                <path class="cls-6" d="m95.67,148.72c-.05-1.95,1.17-3.76,2.75-4.89,1.58-1.13,3.5-1.7,5.38-2.17,6.01-1.51,12.2-2.3,18.39-2.35,2.98-.02,6.53-.16,8.11-2.68"/>
                <path class="cls-6" d="m95.94,138.56c.74-1.87,2.63-3.02,4.53-3.68,4.13-1.44,8.63-1.16,13-1.38,4.37-.22,9.04-1.11,12.08-4.25"/>
                <path class="cls-6" d="m78.5,149.56v-5.18"/>
                <path class="cls-6" d="m80.95,148.74c.09-1.73.18-3.45.27-5.18"/>
              </g>
            </g>
          </g>
          <g>
            <path class="cls-13" d="m126.16,185.02c-2.24-.06-4.48-.58-6.55-1.52-1.03-.47-2.08-.97-2.95-1.71-.88-.73-1.66-1.58-2.23-2.57-.01-.02,0-.05.02-.06.02,0,.04,0,.05,0,.93.65,1.8,1.31,2.71,1.91.91.6,1.77,1.26,2.73,1.78,1.92,1.04,4.04,1.76,6.24,2.07.02,0,.04.03.04.05,0,.02-.02.04-.05.04Z"/>
            <path class="cls-13" d="m119.55,185.98c-.47.1-1,.04-1.48-.18-.23-.11-.52-.2-.66-.44-.13-.24-.21-.52-.09-.84.01-.03.05-.05.08-.04.32.09.51.18.68.28.17.09.24.3.38.45.29.28.65.53,1.09.69.02,0,.04.04.03.06,0,.02-.02.03-.03.03Z"/>
            <path class="cls-13" d="m113.93,169.65c-.4,1.7,1.29,1.09,3.41,1.59,2.12.49,3.87,1.9,4.27.19.4-1.7-1-3.49-3.12-3.98-2.12-.49-4.16.49-4.55,2.2Z"/>
            <path class="cls-13" d="m144.87,173.77c-.06,1.75-1.53.72-3.7.64-2.17-.08-4.24.82-4.17-.93.06-1.75,1.88-3.1,4.06-3.02,2.17.08,3.89,1.56,3.82,3.31Z"/>
            <path class="cls-13" d="m148.66,164.15c-.67-.59-1.38-1.14-2.13-1.57-.74-.44-1.5-.8-2.26-1-.78-.2-1.5,0-2.17-.11-.71-.11-1.45-.03-2.55-.12h-.02c-.07,0-.13-.07-.12-.15,0-.02,0-.03.01-.05.23-.48.53-.97.97-1.27.21-.17.45-.31.69-.45.25-.1.52-.19.79-.26.27-.09.55-.07.83-.07.28,0,.55.04.81.14.53.15,1,.41,1.46.63.91.48,1.66,1.12,2.3,1.83.62.73,1.18,1.47,1.58,2.32.03.06,0,.13-.05.16-.04.02-.09.01-.13-.02h0Z"/>
            <path class="cls-13" d="m114.49,159.44c.61-.71,1.34-1.28,2.13-1.82.8-.51,1.7-.94,2.7-1.16.5-.09,1.02-.22,1.57-.23.27-.02.55,0,.82.08.27.08.54.13.78.29.24.14.47.29.69.46.19.2.38.39.54.61.35.4.51.96.61,1.48.01.07-.03.14-.11.15-.02,0-.03,0-.05,0h-.02c-1.09-.2-1.78-.48-2.5-.56-.68-.07-1.31-.45-2.12-.46-.78,0-1.61.15-2.44.38-.84.22-1.66.56-2.47.95h0c-.06.03-.13,0-.16-.05-.02-.04-.01-.09.02-.13Z"/>
            <path class="cls-13" d="m133.19,169.48c-.19,1.3.19,2.49.5,3.73.32,1.22.67,2.57.42,4-.28,1.42-1.22,2.68-2.49,3.31-1.26.65-2.79.6-3.93-.03,1.28.22,2.54-.07,3.51-.71.95-.65,1.65-1.67,1.85-2.77.23-1.12,0-2.35-.18-3.63-.18-1.26-.28-2.7.33-3.89Z"/>
          </g>
        </g>
      </g>
    </g>
  </g>
</svg>