<?xml version="1.0" encoding="UTF-8"?>
<svg id="Layer_2" data-name="Layer 2" xmlns="http://www.w3.org/2000/svg" viewBox="0 0 345.75 435.53">
  <defs>
    <style>
      .cls-1 {
        fill: #fff;
      }

      .cls-2 {
        fill: #535a74;
      }

      .cls-3 {
        fill: #f3806e;
      }

      .cls-4 {
        fill: #ffcd42;
      }

      .cls-5 {
        fill: #f2e3df;
      }

      .cls-6 {
        fill: #f05f53;
      }

      .cls-7 {
        fill: #f7953f;
      }
    </style>
  </defs>
  <g id="OBJECTS">
    <g>
      <g>
        <path class="cls-4" d="m176.79,332.05c16.43-.19,22.76-.86,24.09,1.48,1.33,2.33,1.93,10.34,1.29,13.44s-22.96,3.23-28.96,1.23-8.67-10-8.67-10l12.67-5"/>
        <path class="cls-4" d="m115.52,183.67c20.7-3.47,171.03-4.14,182.03-.14s11.33,14.67,3,20c-8.33,5.33-166.67,3.67-180.67,2.67s-21.67-13.67-21.67-13.67l17.3-8.86Z"/>
        <path class="cls-3" d="m71.89,207.19c-4.66-1.05,84.67,119.67,90.33,122.33,5.67,2.67,34,1,38.33.67,4.33-.33,88.67-119.67,88.33-122.67-.33-3-200.67,3.33-217-.33Z"/>
        <path class="cls-6" d="m175.36,277.37c-26.1-16.63-47.24-40.92-60.21-69-22.35.06-39.01-.22-43.25-1.17-4.66-1.05,84.67,119.67,90.33,122.33,5.67,2.67,34,1,38.33.67,1.46-.11,11.94-13.66,25.21-31.71-17.83-4.16-34.97-11.28-50.41-21.12Z"/>
        <path class="cls-7" d="m50.78,192.06c2.4-4.47,8.06-5.86,13.09-6.62,17.08-2.57,34.45-3.17,51.66-1.77-2.99,3.46-3.1,8.71-1.46,12.98s4.74,7.79,7.78,11.21c-15.87.52-31.73,1.04-47.6,1.56-5.94.19-12.2.32-17.44-2.49-5.24-2.8-8.83-9.63-6.02-14.87Z"/>
        <path class="cls-7" d="m177.45,352.15c-3.8.08-7.66.15-11.35-.77s-7.26-2.97-9.18-6.25c-1.92-3.28-1.79-7.89.93-10.55,2.34-2.29,5.92-2.71,9.18-2.55,3.27.16,6.59.76,9.77.02,1.62,4.91,5.81,8.63,10.47,10.86,4.67,2.23,9.83,3.15,14.92,4.06,0,1.79-1.42,3.33-3.07,4.05-1.65.71-3.49.76-5.28.8-5.46.11-10.92.23-16.39.34Z"/>
        <path class="cls-2" d="m295,182.39c-4.07-.49-23.41-.74-57.48-.74-63.1,0-161.07.9-175.04,1.3-8.28.24-11.9,6.23-11.82,12.08.08,6,4.29,12.34,11.86,12.08.68-.03,1.81-.05,3.4-.06,13.28,19.16,52.6,75.53,69.92,96.38,1.06,1.28,2.96,3.85,5.17,6.83,7.1,9.61,13.25,17.73,16.19,19.56-.53,5.87-.99,15.32,1.11,18.48,2.34,3.51,21.07,3.79,26.75,3.79,8.06,0,15.14-.46,16.84-1.1,2.85-1.07,2.08-12.09,1.06-20.43,3.68-2.28,11.7-11.59,14.17-15.01,6.6-9.11,13.31-18.03,19.79-26.65,10.86-14.44,22.09-29.36,32.7-45.1,1.85-2.75,3.74-5.51,5.63-8.27,6.37-9.32,12.91-18.9,18.59-28.78.74-.07,1.35-.14,1.82-.22,8.94-1.46,12.02-6.96,11.92-11.62-.11-5.35-4.56-11.57-12.58-12.53Zm-58.88,105.92c-6.49,8.63-13.2,17.55-19.8,26.67-3.7,5.11-12.68,14.87-14.65,15.11-2.59.31-8.5.5-15.81.5h0c-11.74,0-25.45-.49-27.76-1.41-2.63-1.04-10.84-12.15-16.28-19.51-2.21-2.99-4.13-5.58-5.2-6.88-17.13-20.63-55.85-76.09-69.48-95.75,1.2,0,2.6,0,4.23,0,10.54,0,29.15.13,50.7.28,31.88.23,71.55.51,104.9.51h0c35.5,0,57.1-.32,65.67-.96-5.57,9.61-11.97,18.99-18.21,28.12-1.89,2.77-3.78,5.52-5.63,8.28-10.59,15.72-21.81,30.63-32.67,45.06Zm-76.98,59.44c-1.89-2.84-1.48-11.74-.97-17.51,3.42.92,16.48,1.34,27.68,1.34h0c7.35,0,13.31-.19,15.93-.5.06,0,.14-.03.21-.05,1.06,8.97,1.5,18.3-.45,19.03-1.57.59-8.66,1.03-16.49,1.03-14.17,0-24.59-1.34-25.92-3.34Zm67.82-140.93c-33.34,0-73.02-.28-104.89-.51-21.55-.15-40.17-.28-50.71-.28-4.67,0-7.58.03-8.88.08-6.97.29-10.74-5.45-10.82-11.1-.08-5.35,3.25-10.85,10.85-11.06,13.96-.4,111.92-1.3,175.01-1.3,33.55,0,53.39.25,57.36.73,7.46.9,11.6,6.63,11.7,11.56.09,4.24-2.78,9.25-11.08,10.61-5.23.85-27.65,1.27-68.54,1.27Z"/>
        <path class="cls-2" d="m64.11,192.37c-.16-.61-1.2-.5-1.13.15.2,1.96.81,3.9,1.68,5.66.35.7,1.3.18,1.18-.5-.32-1.83-1.27-3.51-1.73-5.31Z"/>
        <path class="cls-2" d="m104.85,197.35c-.4-1.97-.82-4.01-1.81-5.78-.31-.55-1.26-.17-1.03.43.72,1.9.72,4.02,1.64,5.85.35.7,1.34.19,1.2-.51Z"/>
        <path class="cls-2" d="m142.49,190.03c-.14-.68-1.27-.53-1.22.16.16,2.33-.25,4.82.7,7.01.28.64,1.28.29,1.27-.34-.04-2.26-.29-4.62-.75-6.83Z"/>
        <path class="cls-2" d="m180.92,190.83c-.29-.34-.9-.07-.88.36.05,1.05.24,2.09.27,3.15.03,1.04-.06,2.04.14,3.07.16.8,1.34.73,1.54,0,.54-1.98.3-4.96-1.07-6.58Z"/>
        <path class="cls-2" d="m214.83,194.8c.05-.98.06-2.02-.45-2.89-.3-.52-1.03-.26-1.07.29-.13,1.85-.87,4.39.3,6.02.37.51,1.36.41,1.31-.35-.07-1.03-.14-2.03-.09-3.07Z"/>
        <path class="cls-2" d="m245.57,191.15c-1.02,2.04-1.97,4.39-1.78,6.71.07.89,1.17,1,1.5.2.82-2.02.93-4.27,1.66-6.34.28-.8-.99-1.33-1.37-.58Z"/>
        <path class="cls-2" d="m277.53,191c-.29,2.03-1.51,3.83-1.63,5.86-.03.55.76.9,1.12.46,1.36-1.65,1.92-4.03,1.92-6.13,0-.78-1.29-1.01-1.4-.19Z"/>
        <path class="cls-2" d="m298.6,192.19c-.17,1.53-.86,2.71-1.58,4.02-.36.65.44,1.19.98.75,1.38-1.12,1.79-3.07,1.85-4.77.03-.82-1.16-.78-1.24,0Z"/>
        <path class="cls-2" d="m70.61,200.09c-.53-1.37-1.11-2.75-1.72-4.09-.18-.4-.86-.11-.71.3.51,1.37.79,2.92,1.7,4.1.25.32.91.15.73-.31Z"/>
        <path class="cls-2" d="m99.26,190.98c-.21-.44-.96-.13-.79.33.28.77.56,1.57,1.14,2.16.27.27.76,0,.65-.38-.22-.75-.67-1.41-1-2.12Z"/>
        <path class="cls-2" d="m148.59,196.31c-.2-.37-.79-.2-.79.21,0,.81.15,1.66.3,2.46.11.57.86.35.92-.12.11-.84-.02-1.79-.44-2.55Z"/>
        <path class="cls-2" d="m211.13,189.46c-.06-.24-.41-.23-.47,0-.39,1.33-.66,3.01-.52,4.4.05.44.72.61.83.11.17-.81.21-1.61.25-2.43.03-.71.1-1.39-.08-2.08Z"/>
        <path class="cls-2" d="m241.74,196.39c-.16.91-.53,1.76-.69,2.66-.11.59.62.91.96.41.59-.85.69-1.92.72-2.93.01-.56-.89-.7-.99-.13Z"/>
        <path class="cls-2" d="m282.3,190.53c-.08.75-.39,1.47-.59,2.19-.14.51.51.89.88.51.73-.74.91-1.69.88-2.71-.03-.77-1.09-.74-1.17,0Z"/>
        <path class="cls-2" d="m283.55,209.65c-1.59.09-2.71,1.69-3.49,2.92-.39.63.55,1.13.97.57.39-.52.81-1,1.29-1.42.49-.44,1.1-.71,1.6-1.15.35-.3.08-.95-.38-.92Z"/>
        <path class="cls-2" d="m286.55,211.42c-.92-.06-1.62.45-2.13,1.17-.36.5.45,1.12.85.65.37-.45.86-.75,1.4-.95.47-.17.39-.84-.12-.87Z"/>
        <path class="cls-2" d="m79.17,209.97c-.35.54-.71,1.07-1.05,1.62-.32.52-.65.98-.7,1.6-.03.36.42.58.71.4.53-.33.77-.86,1.05-1.39.31-.62.57-1.24.81-1.89.18-.5-.55-.75-.81-.34Z"/>
        <path class="cls-2" d="m80.59,213.69c-.05.25-.18.45-.23.69-.07.32.16.73.53.7.65-.06,1.03-.58.99-1.22-.04-.7-1.15-.94-1.29-.17Z"/>
        <path class="cls-2" d="m163.75,343.89c-1.71-3.22-2.07-6.47-.76-9.91.18-.47-.6-.8-.81-.34-1.66,3.48-1.93,7.86.62,10.99.46.56,1.27-.15.96-.74Z"/>
        <path class="cls-2" d="m166.34,333.74c-.37.66-.73,1.36-.74,2.12,0,.34.44.35.55.07.26-.65.38-1.35.63-2.01.1-.26-.31-.43-.45-.19Z"/>
        <path class="cls-2" d="m171.4,335.73c-.75,2.1-.97,4.45-.32,6.6.16.52.99.44.97-.13-.11-2.14-.32-4.1.33-6.2.19-.63-.76-.87-.97-.27Z"/>
        <path class="cls-2" d="m182.84,336.86c-.03-.36-.53-.36-.56,0-.05.47-.15.96-.04,1.42.08.31.55.31.63,0,.12-.46.01-.95-.04-1.42Z"/>
        <path class="cls-2" d="m187.04,334.91c-.41-.58-1.38-.05-.97.57.99,1.51,1.58,3.07,1.91,4.84.32,1.78.05,3.59.35,5.37.1.57,1.02.55,1.13,0,.74-3.59-.31-7.82-2.41-10.77Z"/>
        <path class="cls-2" d="m193.4,344.56c-.01-.45-.03-.91-.04-1.36-.02-.6-.92-.6-.94,0-.01.39-.03.78-.04,1.17-.01.43-.07.88.1,1.28.17.4.65.4.81,0,.15-.35.12-.72.11-1.08Z"/>
        <path class="cls-2" d="m197.96,336.41c-.12-.54-.89-.3-.81.22.41,2.63.04,5.26.29,7.89.06.58.83.57.89,0,.29-2.7.22-5.45-.37-8.11Z"/>
        <path class="cls-2" d="m176.9,345.43c-.28-.69-.51-1.49-.57-2.24-.04-.56-.89-.58-.89,0,0,1.01.24,1.79.86,2.59.22.28.74-.02.61-.35Z"/>
        <path class="cls-1" d="m164.2,321.48c-3.44-5.15-5.95-10.83-9.38-15.97-.49-.73-1.64-.08-1.19.7,3.1,5.37,5.08,11.61,9.4,16.18.58.61,1.66-.19,1.18-.91Z"/>
        <path class="cls-1" d="m168.32,321.1c-.59-.51-1.46.35-.86.86.12.1.21.23.27.37.18.44.85.54.99,0,.14-.49-.02-.9-.4-1.23Z"/>
        <path class="cls-1" d="m171.02,314.73c-.34-1.04-.82-2.01-1.19-3.04-.27-.76-1.48-.44-1.22.34.39,1.14.82,2.24,1.6,3.17.31.37.95-.02.8-.47Z"/>
        <path class="cls-1" d="m176.19,294.15c-.33-.77-1.66-.21-1.35.57,3.39,8.54,1.37,17.65,3.59,26.35.22.88,1.69.72,1.61-.22-.77-8.86-.29-18.4-3.85-26.71Z"/>
        <path class="cls-1" d="m185.18,315.02c-.11-.72-1.33-.55-1.27.17.08,1,.09,2.01.51,2.94.19.41.91.32.99-.13.16-1-.08-1.99-.23-2.98Z"/>
        <path class="cls-1" d="m188.37,304.91c-.08-.15-.15-.35-.12-.52.19-1.06-1.42-1.23-1.43-.19,0,.65.23,1.14.78,1.49.5.32,1.02-.29.77-.77Z"/>
        <path class="cls-1" d="m198.48,290.53c-.29,11.95-5.97,22.38-7.52,34-.15,1.09,1.49,1.17,1.82.25,3.77-10.75,7.3-22.77,7.18-34.25-.01-.95-1.45-.95-1.48,0Z"/>
        <path class="cls-1" d="m203.9,312.53c-.13.98-.35,1.93-.61,2.88-.26.93-.69,1.81-.73,2.79-.02.55.77.93,1.14.47,1.28-1.56,1.41-4.2,1.52-6.14.05-.87-1.2-.81-1.31,0Z"/>
        <path class="cls-1" d="m209.8,299.19c-.04.9-.32,1.91-.73,2.72-.27.54.41,1.13.87.67.95-.96,1.34-2.04,1.36-3.39.01-.97-1.46-.96-1.5,0Z"/>
        <path class="cls-1" d="m160.79,304.04c-.69-2.26-1.49-4.45-2.29-6.68-.27-.76-1.44-.46-1.22.34.65,2.38,1.33,4.59,2.44,6.79.3.6,1.26.18,1.07-.45Z"/>
        <path class="cls-1" d="m263.63,186.86c-.09-.94-1.42-.96-1.48,0-.14,2.35-.45,4.66-.85,6.99-.34,1.95-.94,3.94-.56,5.9.18.9,1.36.7,1.63,0,.68-1.75.65-3.78.89-5.64.32-2.42.59-4.81.36-7.25Z"/>
        <path class="cls-1" d="m267.54,191.68c-.11-.76-1.42-.58-1.34.18.1.86-.05,1.67-.24,2.5-.15.67.75,1.07,1.11.47.58-.98.63-2.05.46-3.16Z"/>
        <path class="cls-1" d="m290.23,190.53c-.01-.88-1.32-.87-1.36,0-.05,1.31-.36,2.55-.55,3.84-.09.63.7,1.06,1.07.45.79-1.29.86-2.82.84-4.3Z"/>
        <path class="cls-1" d="m227.4,193.38c.17-1.96.62-3.89.81-5.85.07-.75-1.11-.88-1.29-.17-.83,3.23-3.6,10.41-.12,12.89.65.46,1.35-.3,1.22-.94-.4-2.08-.8-3.77-.62-5.93Z"/>
        <path class="cls-1" d="m199.15,186.53c0-.77-1.16-.77-1.2,0-.21,4.5-1.56,8.88-1.8,13.33-.04.87,1.16.92,1.43.19,1.49-4.08,1.61-9.22,1.56-13.53Z"/>
        <path class="cls-1" d="m193.13,187.19c-.14,1.08-.29,2.16-.48,3.24-.16.92-.51,1.83-.4,2.76.08.65.81.86,1.2.33.65-.87.7-2.04.85-3.08.15-1.08.26-2.16.36-3.24.09-.99-1.4-.95-1.52,0Z"/>
        <path class="cls-1" d="m164.95,193.19c-.01-.94-1.44-.94-1.45,0-.02,1.28-.15,2.58.09,3.84.12.63,1.15.63,1.27,0,.24-1.26.11-2.57.09-3.84Z"/>
        <path class="cls-1" d="m127.45,198.37c-.77-2.02-1.4-3.73-1.53-5.93-.11-1.85.07-3.73.1-5.58.01-.61-.9-.6-.94,0-.23,3.83-1.2,8.64,1.3,11.96.36.48,1.33.22,1.07-.45Z"/>
        <path class="cls-1" d="m131.13,191.19c.07-.75-1.06-.72-1.15,0-.18,1.43-.16,2.94.45,4.27.21.46,1.05.25.98-.27-.17-1.35-.41-2.63-.29-4Z"/>
        <path class="cls-1" d="m192.49,336.36c-.06-.3-.15-.6-.19-.91-.05-.31-.03-.61-.06-.92-.06-.63-.91-.98-1.27-.34-.53.96-.28,2.24.61,2.88.48.35,1.01-.22.91-.7Z"/>
        <path class="cls-1" d="m194.01,333.59c-.28-.52-1.19-.16-.96.41.72,1.83.68,3.75,1.01,5.66.08.49.91.5.99,0,.33-2.06-.06-4.23-1.04-6.07Z"/>
      </g>
      <path class="cls-1" d="m222.39,240.03c-7,0-80.67-.5-83.33,0-2.67.5,1.83,3.17,2.17,4.17.33,1-3.5,2.83-3.33,4,.17,1.17,3.33.83,3.67,1.83.33,1-4.17,3.17-2.83,4.33,1.33,1.17,3.83-.83,4,.83.17,1.67-3,2.5-2,4s82,.17,83.17-.67c1.17-.83-.17-2.83-1.33-3.5-1.17-.67,1.67-2.17,2-3.33.33-1.17-2.83-1.5-3-2.5-.17-1,2.83-1,3-2.5.17-1.5-2.17-1.33-2.67-2.33s3-2.17,3.17-3.33c.17-1.17,0-1-2.67-1Z"/>
      <g>
        <path class="cls-4" d="m34.43,167.35c-9.15-3.67-18.08-7.89-26.72-12.64-2.68-1.48-5.49-3.16-6.84-5.9-2.18-4.43.19-9.64,2.53-13.99,3.17-5.89,6.33-11.78,9.5-17.67,2.67,5.39,3.64,11.43,5.47,17.15,1.83,5.72,4.87,11.5,10.15,14.36,5.92,3.2,13.25,2,19.6-.22,6.36-2.22,12.52-5.38,19.22-5.96-1.62,6.51-5.54,12.16-9.38,17.66-2.63,3.76-5.57,7.76-9.95,9.16-4.45,1.42-9.24-.2-13.58-1.94Z"/>
        <path class="cls-7" d="m66.44,145.36c-2.22,3.69-4.78,7.17-8.39,9.43-4.78,3-11.98,2.96-15.29-1.62,1.36,2.54.1,5.94-2.29,7.55-2.39,1.61-5.57,1.67-8.32.82-2.76-.84-5.19-2.48-7.56-4.12-3.53-2.44-7.23-5.19-8.61-9.25-1.24-3.65.55-8.47,4.03-9.52-.09-.2-.17-.39-.26-.59-4.27-1.12-8.53-2.89-11.07-6.43-.8-1.11-1.31-2.43-1.55-3.79-1.25,2.32-2.5,4.65-3.75,6.97-2.34,4.35-4.71,9.57-2.53,13.99,1.35,2.75,4.16,4.43,6.84,5.9,8.64,4.75,17.57,8.98,26.72,12.64,4.33,1.74,9.13,3.36,13.58,1.94,4.37-1.4,7.31-5.39,9.95-9.16,3.26-4.66,6.57-9.45,8.49-14.77Z"/>
        <path class="cls-5" d="m42.09,150.36c-4.98,1.32-10.41-.67-14.27-4.09-3.85-3.43-6.35-8.11-8.35-12.86-1.98-4.71-3.56-9.58-4.71-14.56-.34-1.48-.65-3.05-.23-4.51.42-1.46,1.8-2.77,3.31-2.58,3.72,13.21,13.08,24.72,25.26,31.05,1.16.6,2.43,1.26,2.92,2.47.9,2.25-1.58,4.46-3.93,5.08Z"/>
        <path class="cls-2" d="m50.72,171.86c4.8-.76,16.54-25.61,18.68-30.23.09-.15.16-.3.2-.44,0,0,0,0,0-.01,0,0,0-.01,0-.02,0-.03.03-.07.03-.1,0-.01,0-.03,0-.04,0-.02,0-.05,0-.07.04-.45-.18-.95-.71-1.59-5.52-6.68-45.71-28.61-52.43-28.61-.28,0-.51.04-.7.1,0,0,0,0-.01,0,0,0,0,0,0,0,0,0-.02,0-.03,0-.03.01-.05.04-.08.05-.02.01-.05.02-.07.04-.51.27-.84.88-.99,1.83-3.52,6.85-14.86,29.41-13.68,33.54h0c.46,5.33,41.83,25.86,48.63,25.86.52,0,.9-.11,1.15-.33Zm-1.15-.67c-7.65,0-47.27-20.75-47.63-24.95-.07-.84.22-1.59.88-2.32,2.76-3,11.2-4.46,18.9-4.64,2.24,4.65,4.79,8.54,7.37,10.3,1.86,1.27,4.74,1.92,8.57,1.92h0c1.43,0,2.95-.09,4.51-.26,4.56,8.17,8.95,18.3,7.9,19.86,0,0-.1.08-.5.08Zm-6.33-20.07c9.18-1.15,19.73-4.7,24.22-7.71-5.13,10.8-12.88,25.31-16.28,27.26.26-3.43-3.77-12.23-7.94-19.56Zm24.94-11.13c.53.64.5.88.49.88-.56,2.94-18.79,9.63-31.01,9.63-3.62,0-6.32-.59-8.01-1.74-7.53-5.15-14.87-29-14.08-35.61.09-.75.29-1.26.55-1.36.06-.02.18-.05.39-.05,6.35,0,46.43,21.91,51.66,28.24Zm-53.62-24.87c.31,5.32,3.02,15.19,6.7,23.18-7.26.22-15.84,1.56-19.03,4.81,1.57-5.84,7.35-18.21,12.32-27.99Z"/>
        <path class="cls-2" d="m45.67,166.45c-.81-.21-1.62-.1-2.45-.05-.59.04-.59.88,0,.91.82.05,1.64.16,2.45-.05.4-.1.4-.71,0-.81Z"/>
        <path class="cls-2" d="m46.78,168.15c-.39.15-.82.26-1.23.27-.56.02-.56.84,0,.87.58.03,1.05-.08,1.53-.43.32-.24.14-.87-.3-.71Z"/>
        <path class="cls-2" d="m49.46,151.84c-1.02.19-2,.71-3,1-.45.13-.26.81.19.7,1.01-.24,2.22-.45,3.09-1.04.35-.24.13-.74-.28-.66Z"/>
        <path class="cls-2" d="m50.38,153.23c-.32.24-.67.45-1.02.63-.39.19-.11.87.3.71.47-.19.81-.41,1.14-.8.23-.27-.08-.78-.41-.53Z"/>
        <path class="cls-2" d="m15.36,134.01c-1.16-.4-2.29.29-2.87,1.29-.26.46.34.91.72.55.62-.58,1.35-.69,2.15-.8.57-.08.45-.89,0-1.04Z"/>
        <path class="cls-2" d="m15.89,135.84c-.46-.04-.82.09-1.2.35-.41.28-.05.9.39.67.28-.15.6-.24.9-.33.4-.11.29-.66-.09-.69Z"/>
      </g>
      <g>
        <path class="cls-3" d="m122.45,53.92c-.24-2.9-3.57-5.11-6.33-4.2-1.23-2.63-1.12-5.65-1.4-8.54-.28-2.89-1.15-6.02-3.59-7.59-2.44-1.57-6.6-.19-6.58,2.71-2.7-.55-5.4-1.1-8.1-1.65.94-3.34-2.25-7.11-5.7-6.74-3.45.37-5.76,4.74-4.12,7.8-3.84.34-7.98.81-10.81,3.42-2.83,2.61-3.1,8.17.41,9.76,1.17,1.85-.95,4.05-2.94,4.99-1.98.94-4.47,2.12-4.45,4.31.02,1.85,1.94,3.09,3.73,3.58,1.79.48,3.78.63,5.2,1.81,1.75,1.46,2.05,4.13,1.34,6.29-.72,2.16-2.25,3.94-3.75,5.66.61,1.86,3.21,2.13,5.03,1.43,1.83-.7,3.47-2.02,5.42-2.15,2.43-.17,4.55,1.53,6.37,3.15,1.82,1.62,3.88,3.36,6.31,3.32,2.44-.05,4.67-3.15,3.03-4.95,2.04-1.55,4.79-1.66,7.34-1.88,2.56-.21,5.36-.73,6.94-2.75,1.58-2.02.64-5.85-1.93-5.9,1-2.23,2.01-4.46,3.01-6.69,2.88.45,5.8-2.27,5.56-5.18Zm-13.86,5.68c-1.34,3.29-3.89,6.07-7.07,7.67-2.44,1.23-5.35,1.76-7.94.91-2.94-.97-5.07-3.53-6.71-6.16-1.26-2.04-2.35-4.23-2.77-6.59-.42-2.36-.13-4.92,1.19-6.92,1.94-2.95,5.79-4.2,9.3-3.86,3.51.35,6.75,2.04,9.72,3.94,1.88,1.2,3.79,2.6,4.63,4.67.82,2.01.46,4.33-.35,6.35Z"/>
        <path class="cls-4" d="m71.31,69.43c-1.02-1.75-3.78-2.14-5.25-.74-1.56-1.28-2.41-3.22-3.45-4.95-1.04-1.73-2.54-3.44-4.54-3.7s-4.21,1.86-3.32,3.68c-1.86.47-3.73.93-5.59,1.4-.41-2.38-3.55-3.8-5.61-2.53s-2.19,4.72-.25,6.15c-2.31,1.37-4.78,2.91-5.77,5.4-1,2.5.51,6.07,3.19,6.02,1.29.81.62,2.84-.35,4.02-.97,1.18-2.18,2.68-1.5,4.05.57,1.16,2.15,1.36,3.42,1.13,1.27-.23,2.56-.74,3.82-.42,1.54.39,2.53,1.98,2.73,3.56.2,1.58-.23,3.16-.66,4.69.94.99,2.66.38,3.6-.61.94-.99,1.58-2.31,2.76-2.98,1.48-.84,3.32-.41,4.95.07s3.45.95,4.97.19c1.52-.76,1.99-3.38.42-4.03.82-1.59,2.51-2.49,4.05-3.39,1.54-.9,3.15-2.07,3.54-3.82.39-1.75-1.36-3.87-2.99-3.13-.04-1.71-.08-3.41-.12-5.12,1.94-.58,2.97-3.17,1.94-4.93Zm-7.01,7.74c.15,2.47-.62,4.99-2.14,6.95-1.17,1.51-2.83,2.72-4.72,2.96-2.14.28-4.25-.69-6.07-1.86-1.41-.9-2.75-1.95-3.73-3.31s-1.56-3.05-1.33-4.71c.33-2.44,2.38-4.39,4.69-5.23,2.31-.84,4.86-.75,7.3-.45,1.54.19,3.16.5,4.31,1.54,1.12,1.02,1.6,2.59,1.69,4.1Z"/>
        <path class="cls-6" d="m104.72,65.06c-.97.87-2.04,1.61-3.2,2.2-2.44,1.23-5.35,1.76-7.94.91-2.94-.97-5.07-3.53-6.71-6.16-1.26-2.04-2.35-4.23-2.77-6.59-.07-.37-.11-.74-.14-1.11-3.95-4.43-6.69-9.91-7.56-15.65-.2.15-.4.29-.59.46-2.83,2.61-3.1,8.17.41,9.76,1.17,1.85-.95,4.05-2.94,4.99-1.98.94-4.47,2.12-4.45,4.31.02,1.85,1.94,3.09,3.73,3.58,1.79.48,3.78.63,5.2,1.81,1.75,1.46,2.05,4.13,1.34,6.29-.72,2.16-2.25,3.94-3.75,5.66.61,1.86,3.21,2.13,5.03,1.43,1.83-.7,3.47-2.02,5.42-2.15,2.43-.17,4.55,1.53,6.37,3.15,1.82,1.62,3.88,3.36,6.31,3.32,2.44-.05,4.67-3.15,3.03-4.95,2.04-1.55,4.79-1.66,7.34-1.88,2.56-.21,5.36-.73,6.94-2.75,1.58-2.02.64-5.85-1.93-5.9.07-.16.14-.32.21-.47-3.14.26-6.28.18-9.37-.25Z"/>
        <path class="cls-7" d="m67.79,87.1c-2.71.06-5.43-.21-8.07-.82-.71.41-1.47.7-2.28.8-2.14.28-4.25-.69-6.07-1.86-1.41-.9-2.75-1.95-3.73-3.31-.49-.69-.89-1.46-1.12-2.27-2.77-2.33-5.15-5.12-7.02-8.22-.84.78-1.54,1.66-1.97,2.73-1,2.5.51,6.07,3.19,6.02,1.29.81.62,2.84-.35,4.02-.97,1.19-2.18,2.68-1.5,4.05.57,1.16,2.15,1.36,3.42,1.13,1.27-.23,2.56-.74,3.82-.42,1.54.39,2.53,1.98,2.73,3.56.2,1.58-.23,3.16-.66,4.69.94.99,2.66.38,3.6-.61.94-.99,1.58-2.31,2.76-2.98,1.48-.84,3.32-.41,4.95.07s3.45.95,4.97.19c1.52-.76,1.99-3.38.42-4.03.62-1.2,1.73-2.01,2.91-2.72Z"/>
        <path class="cls-2" d="m72.38,63.42c.69.13,1.89.19,3.66.19h.12c.5,1.74,1.1,3.47,1.76,5.02-.27.29-.51.55-.73.76-1.59,1.59-2.05,3.59-1.26,5.5.89,2.16,3.23,3.72,5.56,3.72,1.05,0,2.06-.32,2.94-.91.36-.25.84-.65,1.46-1.23,1.9.85,3.97,1.41,6.17,1.66,0,.14,0,.27,0,.39,0,3.6,2.63,5.21,5.23,5.21,2.37,0,5.19-1.39,5.76-4.45.1-.52.16-1.35.18-2.53,1.51-.56,2.98-1.26,4.38-2.11.95.75,1.55,1.21,1.86,1.4.4.26.93.39,1.57.39h0c2.58,0,6.55-2.16,7.61-4.84.45-1.13.59-2.84-1.27-4.58-.32-.3-.68-.63-1.05-.97,1.04-1.73,1.82-3.57,2.31-5.48.43-.06.76-.11.95-.15,2.11-.47,4.11-4.77,3.74-8.07-.27-2.49-1.85-3.92-4.31-3.92h-.22c-.24.01-.5.02-.76.03-.7-1.97-1.66-3.82-2.87-5.52.25-.33.43-.58.53-.73.84-1.31.2-3.74-.8-5.56-1.34-2.45-3.24-3.91-5.09-3.91-1.12,0-2.18.52-3.15,1.55-.27.29-.57.62-.88.96-1.74-.79-3.59-1.38-5.5-1.75-.09-.69-.16-1.16-.21-1.41-.47-2.1-4.36-3.79-7.27-3.79-1.55,0-2.81.45-3.63,1.29-.77.79-1.13,1.9-1.09,3.28,0,.3.02.62.04.95-2.59.63-4.85,1.63-6.72,2.99-.86-.59-1.78-.89-2.75-.89-1.94,0-3.85,1.26-4.88,3.2-1,1.89-.92,4.01.21,5.67.25.37.66.86,1.26,1.49-.46,1.85-.7,3.9-.71,6.1-.53.03-1,.04-1.37.04-3.51,0-4.98,2.5-5.18,4.65-.24,2.63,1.22,5.74,4.42,6.34Zm-3.43-6.25c.17-1.81,1.36-3.74,4.19-3.74.5,0,1.15-.02,1.9-.07.27-.01.48-.24.47-.5-.02-2.4.23-4.61.74-6.58.04-.17,0-.34-.12-.47-.65-.69-1.11-1.22-1.35-1.57-.93-1.36-.99-3.06-.15-4.64.85-1.62,2.42-2.67,3.99-2.67.86,0,1.68.31,2.45.91.18.14.43.14.61,0,1.91-1.46,4.27-2.51,7.04-3.13.24-.05.4-.27.39-.51-.02-.47-.04-.93-.06-1.35-.04-1.1.24-1.96.81-2.56.79-.82,2.02-.99,2.91-.99,2.9,0,6,1.69,6.29,3,.04.18.11.62.24,1.68.03.22.19.39.41.43,2.08.37,4.09,1.01,5.96,1.89.2.09.44.05.59-.12.39-.44.77-.85,1.11-1.22.77-.82,1.58-1.24,2.42-1.24,1.73,0,3.31,1.75,4.21,3.39.98,1.79,1.34,3.75.83,4.54-.12.18-.36.52-.7.96-.14.18-.14.42,0,.6,1.33,1.8,2.36,3.79,3.08,5.91.07.21.29.37.5.34.39-.02.77-.03,1.12-.04h.19c1.98,0,3.1,1.01,3.32,3.02.32,2.92-1.49,6.66-2.97,6.99-.21.05-.63.11-1.2.18-.21.03-.37.18-.42.38-.49,2.05-1.33,4.03-2.49,5.87-.13.21-.09.48.09.64.49.44.95.85,1.35,1.23,1.16,1.09,1.51,2.26,1.02,3.48-.9,2.27-4.42,4.21-6.68,4.21-.44,0-.8-.08-1.04-.23-.2-.13-.72-.5-2.04-1.56-.17-.13-.4-.15-.58-.03-1.52.95-3.14,1.73-4.81,2.32-.2.07-.33.25-.33.46-.02,1.28-.07,2.19-.17,2.71-.47,2.5-2.81,3.63-4.78,3.63s-4.23-1.1-4.23-4.21c0-.25,0-.54-.02-.86,0-.25-.2-.46-.45-.48-2.36-.23-4.58-.82-6.59-1.76-.07-.03-.14-.05-.21-.05-.13,0-.25.05-.34.14-.7.66-1.23,1.12-1.58,1.36-.72.49-1.51.74-2.37.74-1.94,0-3.89-1.31-4.64-3.11-.64-1.53-.26-3.1,1.04-4.41.28-.28.6-.62.97-1.03.13-.15.17-.36.09-.54-.74-1.7-1.41-3.62-1.94-5.56-.06-.22-.26-.37-.48-.37h-.49c-1.69,0-2.86-.06-3.48-.17-2.62-.49-3.82-3.08-3.61-5.27Z"/>
        <path class="cls-2" d="m95.7,68.32c4.25,0,8.29-1.99,11.1-5.46,2.9-3.58,3.43-8.23,1.43-12.43-2.26-4.74-7.17-7.62-12.83-7.44-4.45.15-7.62,1.66-9.41,4.5-3.02,4.79-1.2,12.07.36,15.62,1.38,3.17,5.05,5.21,9.35,5.21Zm-8.86-20.3c1.6-2.54,4.5-3.9,8.6-4.03.16,0,.33,0,.49,0,5.01,0,9.38,2.64,11.4,6.88,1.83,3.85,1.35,8.1-1.3,11.37-2.62,3.24-6.38,5.09-10.33,5.09s-7.21-1.81-8.43-4.61c-1.47-3.37-3.22-10.26-.43-14.69Z"/>
        <path class="cls-2" d="m36.7,80.75c.45.21,1.26.47,2.47.78.03,1.22.14,2.43.3,3.56-.2.13-.39.24-.55.34-1.59.93-2.26,2.49-1.81,4.17.51,1.87,2.27,3.28,4.1,3.28.44,0,.88-.08,1.3-.23.28-.1.66-.28,1.15-.54,1.11.88,2.37,1.59,3.76,2.14-.01.05-.02.09-.03.14-.41,1.58.08,2.65.57,3.27.75.96,2.01,1.54,3.37,1.54,1.67,0,3.06-.84,3.72-2.25.16-.33.34-.87.55-1.62,1.07-.11,2.15-.33,3.19-.63.48.64.8,1.04.97,1.21.56.6,1.53.72,2.25.72,1.88,0,4.36-.87,5.25-2.49.37-.68.63-1.78-.26-3.19-.15-.23-.31-.49-.48-.75.97-.96,1.79-2.04,2.44-3.2.27.03.48.05.64.05,1.65,0,3.84-2.74,4.11-5.14.2-1.81-.72-3.08-2.54-3.49-.13-.03-.28-.06-.42-.09-.13-1.41-.45-2.79-.95-4.11.19-.15.33-.27.41-.35.99-.92.87-3.28.18-5.03-1.02-2.59-3.07-3.51-5.13-2.21-.21.14-.44.28-.68.44-1.01-.81-2.12-1.5-3.3-2.07.05-.43.08-.74.09-.91.03-.78-.53-1.54-1.01-2.03-1-1.04-2.87-2.16-4.6-2.16-1.57,0-2.64.91-3.01,2.57-.04.17-.08.35-.12.54-1.84,0-3.48.26-4.96.83-.7-.76-1.61-1.18-2.6-1.18-1.35,0-2.7.74-3.54,1.93-.77,1.09-.96,2.41-.52,3.61.1.29.29.68.57,1.19-.61,1.14-1.12,2.44-1.5,3.87-.31-.07-.58-.13-.8-.19-2.25-.58-4.2.67-4.7,2.91-.36,1.63.15,3.81,2.14,4.75Zm-1.16-4.53c.25-1.1,1.06-2.28,2.6-2.28.28,0,.57.04.88.12.34.09.79.19,1.32.29.26.05.52-.11.58-.37.41-1.63.96-3.09,1.66-4.33.08-.15.09-.33,0-.49-.32-.58-.53-1.01-.63-1.29-.33-.9-.18-1.86.4-2.7.64-.91,1.71-1.5,2.72-1.5.81,0,1.52.37,2.05,1.08.14.18.38.25.59.16,1.54-.65,3.31-.95,5.31-.88.23,0,.46-.16.51-.4.07-.33.13-.64.2-.93.27-1.2.94-1.79,2.04-1.79,1.37,0,2.99.93,3.88,1.85.47.49.74.97.73,1.3,0,.19-.05.6-.13,1.18-.03.22.09.43.29.52,1.34.62,2.59,1.4,3.7,2.33.17.14.41.16.6.03.34-.23.67-.44.97-.63.47-.3.92-.45,1.34-.45,1.32,0,2.07,1.53,2.33,2.18.66,1.67.58,3.46.07,3.93-.11.1-.34.28-.64.52-.18.14-.24.37-.16.58.58,1.45.94,2.98,1.04,4.54.02.22.18.41.4.45.27.06.53.11.77.17,1.32.3,1.91,1.1,1.77,2.4-.22,1.97-2.07,4.25-3.13,4.25h0c-.15,0-.45-.04-.84-.09-.21-.02-.41.08-.5.26-.69,1.3-1.6,2.49-2.71,3.53-.18.17-.21.44-.07.64.26.38.49.75.7,1.08.51.8.58,1.53.23,2.17-.68,1.23-2.76,1.97-4.38,1.97-.72,0-1.29-.15-1.52-.4-.11-.12-.39-.46-1.11-1.41-.13-.17-.35-.24-.55-.18-1.2.38-2.43.62-3.66.72-.21.02-.38.16-.44.37-.24.87-.43,1.47-.59,1.79-.49,1.05-1.54,1.68-2.81,1.68-1.04,0-2.03-.44-2.58-1.15-.5-.64-.63-1.48-.39-2.41.04-.17.09-.37.14-.59.05-.25-.08-.49-.32-.58-1.56-.57-2.95-1.36-4.15-2.34-.09-.08-.21-.12-.32-.12-.08,0-.17.02-.24.06-.58.32-1.02.54-1.3.64-1.67.61-3.61-.59-4.1-2.37-.34-1.24.15-2.35,1.35-3.05.24-.14.53-.32.86-.54.16-.11.25-.3.22-.5-.2-1.29-.32-2.71-.34-4.12,0-.23-.16-.42-.38-.48-1.33-.34-2.23-.61-2.66-.81-1.49-.7-1.87-2.37-1.59-3.62Z"/>
        <path class="cls-2" d="m54.26,88.56c2.21,0,4.36-.73,6.22-2.1,2.67-1.98,3.9-5.25,3.21-8.54-.77-3.65-3.66-6.46-7.53-7.33-3.43-.77-6.11-.09-7.87,1.98-2.31,2.71-2.56,7.26-2.06,10.34.52,3.22,3.97,5.65,8.04,5.65Zm-.7-17.28c.73,0,1.53.1,2.37.29,3.49.78,6.08,3.3,6.77,6.56.62,2.95-.43,5.76-2.82,7.53-1.69,1.25-3.63,1.91-5.62,1.91-3.52,0-6.62-2.11-7.05-4.81-.37-2.31-.4-6.91,1.84-9.53,1.09-1.28,2.61-1.93,4.52-1.93Z"/>
        <path class="cls-2" d="m96.67,72.49c-.94.55-1.14,1.76-.62,2.67.23.41.98.38,1.07-.14.12-.71.16-1.43.2-2.16.02-.33-.38-.53-.65-.37Z"/>
        <path class="cls-2" d="m83.89,69.22c-1.18.11-2.12.89-1.94,2.15.06.45.78.63,1.06.28.36-.46.67-.97,1.21-1.22.57-.27.3-1.26-.33-1.2Z"/>
        <path class="cls-2" d="m80.55,55.94c-.6.03-1.28.08-1.84.3-.62.24-.6.99,0,1.24.75.31,1.67,0,2.25-.54.36-.34.1-1.03-.41-1Z"/>
        <path class="cls-2" d="m82.17,43.39c-.71-.35-1.42-.94-1.91-1.56-.32-.4-1.05.03-.86.5.19.49.44,1.04.86,1.38.44.36.93.57,1.49.68.58.11,1.02-.71.42-1.01Z"/>
        <path class="cls-2" d="m93.94,35.8c-.41-.39-1.04,0-.92.54.19.85.53,1.64.55,2.52.02.84,1.24.82,1.29,0,.07-1.1-.09-2.27-.92-3.06Z"/>
        <path class="cls-2" d="m108.48,40.62c-.29.41-.61.83-.98,1.19-.5.49.25,1.22.76.76.51-.46.86-.94,1.07-1.59.17-.54-.57-.77-.86-.36Z"/>
        <path class="cls-2" d="m115.04,53.98c-.66-.19-1.32-.23-1.99-.36-.61-.12-1.09.77-.45,1.07.81.38,1.55.6,2.45.37.55-.14.53-.94,0-1.08Z"/>
        <path class="cls-2" d="m111.64,68.44c-.21-.24-.34-.48-.63-.64-.26-.15-.42-.34-.55-.6-.37-.7-1.37-.2-1.22.51.09.45.29.85.58,1.2.38.47.81.59,1.4.55.53-.03.78-.62.42-1.02Z"/>
        <path class="cls-2" d="m51.44,91.53c-.06-.7-1.06-.72-1.1,0-.04.68-.29,1.32-.31,2-.02.58.69.65.98.27.48-.63.49-1.51.43-2.27Z"/>
        <path class="cls-2" d="m44,85.78c-.82-.18-1.66-.2-2.38.31-.38.27-.3,1,.26.96.73-.05,1.4-.3,2.12-.43.42-.08.41-.75,0-.84Z"/>
        <path class="cls-2" d="m41.89,77.31c-.78-.08-1.54-.29-2.33-.33-.58-.03-.71.74-.28,1.03.84.55,1.79.55,2.76.39.66-.11.43-1.03-.15-1.08Z"/>
        <path class="cls-2" d="m46.1,67.87c-.64-.84-1.29-1.7-2.25-2.19-.49-.25-1.16.28-.8.8.57.83,1.35,1.44,2.06,2.15.49.5,1.44-.19.99-.77Z"/>
        <path class="cls-2" d="m56.8,64.61c-.31.48-.42,1-.44,1.56-.02.49-.03,1.1.22,1.53.18.3.55.19.66-.09.17-.4.14-.88.22-1.3.1-.49.22-.96.25-1.47.03-.51-.67-.64-.92-.25Z"/>
        <path class="cls-2" d="m66.22,71.34c-.46.01-1.34.35-1.58.85-.01.01-.03.03-.04.04-.23.23-.08.74.29.7.03,0,.07,0,.1-.01.5.08,1.29-.42,1.59-.7.33-.3.08-.89-.36-.88Z"/>
        <path class="cls-2" d="m66.22,83.94c-.64.02-.82,1.01-.16,1.15.39.08.56.37.88.57.29.17.71.02.79-.32.22-.93-.72-1.42-1.52-1.4Z"/>
        <path class="cls-2" d="m61.41,92.55c-.37-.83-1.14-1.47-1.74-2.15-.48-.55-1.44.18-1.01.78.55.78,1.08,1.7,1.92,2.2.57.34,1.07-.31.83-.83Z"/>
      </g>
      <g>
        <path class="cls-3" d="m123.33,146.13c-3.19-1.39-7.3-.17-9.22,2.73-1.92,2.9-1.44,7.16,1.08,9.56,4.9-1.87,8.33-7.05,8.14-12.29Z"/>
        <path class="cls-5" d="m78.83,106.7c2.52,15.1,12.07,28.88,25.32,36.54,2.25,1.3,4.62,2.45,6.56,4.17s3.45,4.17,3.3,6.76c-.17,3.02-2.57,5.55-5.33,6.78-2.77,1.23-5.87,1.41-8.89,1.57-3.82.2-7.64.41-11.46.61-1.67.09-3.54.12-4.79-1-.81-.73-1.2-1.81-1.54-2.84-4.68-14.05-7.64-28.67-8.78-43.44-.16-2.11-.27-4.31.58-6.24.86-1.93,2.99-3.46,5.03-2.91Z"/>
        <path class="cls-2" d="m124.97,145.92c-.28-1.9-1.84-12.24-3.68-22.46-4.18-23.16-5.66-23.17-6.56-23.16-1.3.11-11.52,1.25-21.79,2.81-19.91,3.04-19.93,4.64-19.94,5.41-.02,1.65,2.13,15.94,4.43,28.84,4.8,26.83,6.4,27.21,7,27.35.2.05.48.07.84.07,4.97,0,26.39-4.46,28.7-4.94.12.05.25.08.39.08h0c2.47,0,9.58-9.5,10.62-13.46,0,0,0,0,0,0,0-.01.01-.03.01-.05.01-.05,0-.1,0-.14,0-.02,0-.03,0-.05,0,0,0-.01,0-.02,0-.1-.01-.2-.04-.29Zm-40.26,17.85c-2.63-1.71-10.75-52.15-10.71-55.2.95-2.39,32.96-6.59,40.74-7.28,1.83.92,6.02,23.09,9.12,43.91-.27-.05-.58-.08-.96-.08-2.81,0-9.81,1.53-10.68,3.17-.89,1.67-.33,8.25,1,10.7-4.03.84-23.39,4.8-27.93,4.8-.35,0-.53-.02-.57-.03Zm29.66-4.83h0c-1.21-1.03-2.16-8.55-1.29-10.17.49-.91,6.43-2.64,9.8-2.64.71,0,1.02.09,1.13.14-1.06,3.92-8.01,12.67-9.64,12.67Z"/>
        <path class="cls-2" d="m108.65,153.78c-1.62.72-2.93,2.11-4.09,3.42-.4.45.23,1.09.66.66,1.25-1.23,2.68-2.19,4.01-3.33.45-.38-.12-.96-.58-.75Z"/>
        <path class="cls-2" d="m108.67,156.5c-.3.21-.55.42-.81.67-.46.46.25,1.17.71.71.26-.26.47-.51.67-.81.24-.34-.24-.82-.58-.58Z"/>
        <path class="cls-2" d="m111.25,116.23c-5.4-2.37-9.18,2.74-14.46,2.82-5.49.08-7.53-3.27-11.91,1.47-.41.44.22,1.07.66.66,4.21-3.89,7.76-.68,12.49-.6,4.66.08,7.63-3.9,12.65-3.04.75.13,1.37-.97.56-1.33Z"/>
        <path class="cls-2" d="m111.71,122.89c-5.95,1.71-9.87,5.7-16.52,5.07-5.08-.48-8.94-.59-12.88,2.99-.28.26.1.77.41.53,5.37-4.14,10.42-1.88,16.48-1.93,4.27-.04,9.55-3.25,13.02-5.46.62-.39.23-1.41-.51-1.2Z"/>
        <path class="cls-2" d="m113.89,132.55c-5.33-.23-9.78,3.88-15.08,4.48-4.8.55-8.64.27-12.82,3.11-.48.33-.04,1.11.46.79,4.67-2.97,8.95-1.93,14.02-2.72,4.75-.73,8.92-3.26,13.59-4.39.73-.18.54-1.23-.17-1.27Z"/>
        <path class="cls-2" d="m114.05,140.91c-8.52,1.71-17.95,2.41-25.4,7.22-.51.33-.04,1.13.47.81,7.94-4.91,16.88-3.62,25.27-6.78.77-.29.48-1.41-.34-1.24Z"/>
      </g>
      <g>
        <path class="cls-4" d="m113.4,392.71c-2.15,10.69,1.2,22.39,8.98,30.15,7.78,7.77,19.85,11.24,30.58,8.46,10.44-2.7,18.86-10.86,23.52-20.43,2.25-4.63,3.74-9.76,3.23-14.86-.73-7.37-5.56-13.82-11.35-18.57-10.82-8.86-26.87-12.73-39.31-6.25-8.19,4.27-13.85,12.56-15.64,21.49Z"/>
        <path class="cls-7" d="m173.16,416.53c-13.86,2.96-29.27-1.76-38.82-12.3-4.67-5.15-8.02-11.69-8.56-18.62-.39-5.1.88-10.39,3.7-14.61-.15.07-.29.14-.44.22-8.19,4.27-13.85,12.56-15.64,21.49-2.15,10.69,1.2,22.39,8.98,30.15,7.78,7.77,19.85,11.24,30.58,8.46,8.31-2.15,15.33-7.76,20.2-14.79Z"/>
        <path class="cls-2" d="m142.54,364.88c-23.44.77-33.83,18.88-33.56,35.38.29,17.53,12.52,35.28,35.35,35.28.29,0,.58,0,.88,0,23.74-.46,36.37-19.71,36.2-37.6-.16-16.89-12.22-33.88-38.87-33.04Zm1.79,69.66c-23.22,0-34.08-17.78-34.35-34.29-.26-16.03,9.82-33.62,32.59-34.36.66-.02,1.3-.03,1.95-.03,26.26,0,35.75,17.28,35.89,32.08.17,17.41-12.12,36.15-35.22,36.59-.29,0-.57,0-.86,0Z"/>
        <path class="cls-2" d="m144.68,372.78c-.51,0-1.01,0-1.53.03-18.18.6-26.23,14.64-26.02,27.43.22,13.59,9.71,27.36,27.41,27.36h0c.23,0,.45,0,.67,0,18.41-.35,28.2-15.29,28.07-29.16-.12-12.77-9.02-25.66-28.6-25.66Zm-.14,53.82c-17.85,0-26.2-13.68-26.41-26.38-.2-12.32,7.55-25.84,25.06-26.41.51-.02,1.01-.03,1.5-.03,20.2,0,27.5,13.29,27.6,24.67.13,13.39-9.32,27.81-27.09,28.15-.22,0-.48-.02-.66,0Z"/>
        <path class="cls-2" d="m120.16,379.56c-.19-.08-.4-.13-.46-.33-.15-.44-.83-.5-.95,0-.19.81.41,1.61,1.28,1.32.4-.13.59-.78.13-.99Z"/>
        <path class="cls-2" d="m116.52,389.85c-.41-.29-.89-.43-1.31-.71-.59-.39-1.33.54-.77.99.53.43,1.08.83,1.78.8.61-.02.77-.76.3-1.09Z"/>
        <path class="cls-2" d="m116.22,403.8c-.8.01-1.54.19-2.33.25-.67.06-.94,1.15-.17,1.27,1.02.15,1.92.15,2.79-.47.43-.31.31-1.06-.28-1.05Z"/>
        <path class="cls-2" d="m119.05,416.73c-.27.09-.54.27-.83.26-.82-.02-.93,1.14-.19,1.38.77.25,1.58-.02,1.82-.84.13-.46-.33-.97-.81-.81Z"/>
        <path class="cls-2" d="m129.41,426.42c-.41.86-1.05,1.59-1.41,2.46-.25.6.57.86.96.56.77-.6,1.15-1.7,1.46-2.59.2-.59-.74-.99-1.01-.42Z"/>
        <path class="cls-2" d="m146.9,430.69c-.09-.87-1.27-.87-1.36,0-.07.73-.27,1.5.23,2.11.2.25.69.25.89,0,.5-.62.31-1.38.23-2.11Z"/>
        <path class="cls-2" d="m161.36,426.03c-.42-.25-.94-.12-1.28.19-.28.26-.23.67,0,.94.48.58,1.5.83,1.81-.03.14-.4-.19-.91-.53-1.11Z"/>
        <path class="cls-2" d="m169.79,418.87c-.14-.59-.77-.77-1.26-1.03-.57-.3-1.27.49-.72.94.22.18.43.36.65.54.32.26.52.33.93.27.32-.05.48-.44.41-.72Z"/>
        <path class="cls-2" d="m176.84,404.86c-.47-.22-.97-.3-1.45-.48-.72-.27-1.16.86-.51,1.22.56.31,1.19.54,1.82.31.42-.15.63-.82.14-1.05Z"/>
        <path class="cls-2" d="m178.36,392.51c-.43-.12-.8-.2-1.24-.12-.48.08-.94.22-1.4.37-.78.26-.46,1.36.34,1.22.36-.06.72-.11,1.08-.13.46-.03.8-.13,1.23-.29.49-.18.54-.89,0-1.04Z"/>
        <path class="cls-2" d="m170.25,379.51c-.47.31-.87.68-1.39.91-.83.37-.11,1.58.71,1.21.61-.28,1.21-.68,1.49-1.31.22-.5-.27-1.18-.82-.82Z"/>
        <path class="cls-2" d="m160.17,371.31c-.73.58-.93,1.49-.99,2.38-.06.92,1.32.89,1.41,0,.06-.64.34-1.24.48-1.86.13-.56-.49-.85-.9-.52Z"/>
        <path class="cls-2" d="m147.98,369.45c-.23-.42-.94-.24-.92.25.03.62.17,1.21.27,1.82.1.64,1.17.49,1.13-.15-.05-.68-.14-1.31-.48-1.92Z"/>
        <path class="cls-2" d="m137.1,371.71c-.23-.48-.52-.82-.95-1.13-.43-.31-.97.29-.71.71.18.29.37.59.5.91.35.85,1.56.34,1.16-.49Z"/>
        <path class="cls-2" d="m129.37,373.55c-.49-.51-.99-.84-1.67-1.05-.64-.2-.9.66-.42,1.01.4.29.8.64,1.13,1.01.59.65,1.57-.33.96-.96Z"/>
        <path class="cls-1" d="m158.27,403.85c-1.16-3.87-5.27-5.21-9.2-5.94-.27-4.38-.58-8.75-.93-13.12,2.07.52,3.96,1.27,5.3,2.02.86.49,1.92-.77,1.09-1.42-1.98-1.54-4.23-2.7-6.61-3.39-.03-.32-.05-.65-.08-.97-.07-.8-1.18-.8-1.24,0-.02.21-.02.41-.03.62-1.74-.37-3.52-.49-5.29-.31,0-.21,0-.43.02-.64.04-.82-1.3-1.02-1.45-.2-.06.36-.1.72-.15,1.07-1.07.21-2.13.53-3.16.98-5.72,2.47-6.74,10.97-1.78,14.61,1.48,1.08,3.12,1.74,4.84,2.21,0,.26.02.52.03.78.18,5.46-.07,11.02.38,16.49-1.11-.33-2.21-.8-3.28-1.4-1.76-.97-3.19,1.2-2.03,2.63,1.68,2.07,3.75,3.24,5.96,3.71.1.56.19,1.13.32,1.68.24,1.07,1.79.77,1.84-.25.02-.4.02-.8.04-1.2,1.51.02,3.05-.26,4.55-.77.18.99.4,1.97.69,2.94.37,1.23,2.34,1.03,2.28-.31-.06-1.29-.12-2.58-.18-3.87,5.7-3.17,9.96-9.64,8.06-15.97Zm-22.41-16.2c.78-1.47,2.02-2.4,3.5-2.94-.25,3.67-.09,7.36.09,11.04-3.3-1.42-5.8-3.9-3.59-8.11Zm5.36-3.38c1.65-.24,3.47-.14,5.23.16-.1,4.36.2,8.74.39,13.11-.87-.13-1.7-.25-2.45-.38-.85-.15-1.78-.35-2.71-.61-.28-4.09-.49-8.19-.46-12.28Zm1.7,32.89c-.07-5.75-.55-11.5-.99-17.25,1.67.32,3.37.55,5.02.88.02.97.03,1.93.02,2.9-.04,4.22-.35,8.61-.09,12.9-1.3.46-2.64.64-3.97.57Zm7.07-2.29c-.21-4.51-.44-9.01-.7-13.52,1.61.47,3.13,1.11,4.47,2.15,3.96,3.07-.97,9.14-3.76,11.37Z"/>
        <g>
          <path class="cls-1" d="m126.18,399.26s-.05,0-.12-.01c.04,0,.08,0,.1.01,0,0,.01,0,.02,0Z"/>
          <path class="cls-1" d="m128.7,399.71c-.53-.34-1.2-.31-1.81-.37-.24-.02-.47-.05-.71-.08,0,0,0,0-.02,0,0,0-.02,0-.02,0-.1-.01-.19-.02-.29-.03.1.01.16.02.21.02-.05,0-.11-.01-.14-.02-1.4-.24-2.8.59-2.8,2.13s1.41,2.44,2.8,2.13c.45-.1.89-.24,1.33-.4.59-.21,1.36-.38,1.77-.88.67-.81.6-1.91-.32-2.51Z"/>
        </g>
        <path class="cls-1" d="m128.95,393.43c-.49-.49-1.04-.78-1.73-.8-.71-.02-1.19.7-1.03,1.35.27,1.11,1.71,2.15,2.87,1.91.41-.09.71-.52.71-.93,0-.62-.4-1.1-.82-1.52Z"/>
        <path class="cls-1" d="m131.4,408.05c-.59-.17-1.26.18-1.75.5-.56.37-1.21.86-1.31,1.57-.09.6.23,1.13.88,1.16.73.03,1.33-.44,1.8-.94.39-.41.92-1.03.86-1.64-.03-.3-.18-.56-.49-.64Z"/>
        <path class="cls-1" d="m165.61,398.78c-1.17-.56-2.65-.46-3.76.24-1,.63-1,2.05,0,2.68,1.11.7,2.59.8,3.76.24,1.2-.58,1.2-2.59,0-3.16Z"/>
        <path class="cls-1" d="m162.12,392.86c-1.04-.28-1.78.65-2.32,1.39-.52.7.5,1.7,1.2,1.2.64-.45,1.48-.7,1.73-1.53.13-.45-.16-.94-.61-1.07Z"/>
        <path class="cls-1" d="m164.51,407.36c-.22-.48-.61-.93-.97-1.31-.71-.76-1.97.22-1.44,1.11.43.71.59,1.55,1.16,2.17.44.47,1.36.26,1.49-.39.13-.62.01-1.01-.24-1.57Z"/>
      </g>
      <g>
        <path class="cls-4" d="m248.21,395.6c.45-1.92-.72-3.92-2.35-5.03-1.63-1.1-3.63-1.49-5.57-1.79-13.53-2.08-27.33-1.27-40.99-.44-2.95.18-6.6.89-7.38,3.74-.54,1.96.73,4.05,2.45,5.12,1.72,1.08,3.8,1.37,5.81,1.64,13.85,1.85,28,3.68,41.72,1.01,2.64-.52,5.71-1.63,6.33-4.26Z"/>
        <path class="cls-4" d="m249.21,408.89c.45-1.36-.72-2.78-2.35-3.56-1.63-.78-3.63-1.05-5.57-1.27-13.53-1.48-27.33-.9-40.99-.31-2.95.13-6.6.63-7.38,2.65-.54,1.39.73,2.87,2.45,3.63,1.72.76,3.8.97,5.81,1.16,13.85,1.31,28,2.61,41.72.72,2.64-.37,5.71-1.16,6.33-3.02Z"/>
        <path class="cls-4" d="m249.21,421.89c.45-1.36-.72-2.78-2.35-3.56-1.63-.78-3.63-1.05-5.57-1.27-13.53-1.48-27.33-.9-40.99-.31-2.95.13-6.6.63-7.38,2.65-.54,1.39.73,2.87,2.45,3.63,1.72.76,3.8.97,5.81,1.16,13.85,1.31,28,2.61,41.72.72,2.64-.37,5.71-1.16,6.33-3.02Z"/>
        <path class="cls-7" d="m241.89,399.85c1.79-.35,3.78-.98,5.07-2.16-16.38,4.47-34.83,1.01-48.35-9.3-2.81.25-5.97,1.06-6.69,3.69-.54,1.96.73,4.05,2.45,5.12,1.72,1.08,3.8,1.37,5.81,1.64,13.85,1.84,28,3.68,41.72,1.01Z"/>
        <path class="cls-7" d="m226.81,410.77c-9.1-.51-18.27-2.53-26.17-7.03-.11,0-.23,0-.34.01-2.95.13-6.6.63-7.38,2.65-.54,1.39.73,2.87,2.45,3.63,1.72.76,3.8.97,5.81,1.16,13.85,1.31,28,2.61,41.72.72,2.05-.28,4.36-.83,5.57-1.92-7.21.7-14.43,1.19-21.65.79Z"/>
        <path class="cls-7" d="m247.16,422.85c-14.26,2.09-29.11-.18-42.15-6.3-1.58.06-3.15.13-4.72.2-2.95.13-6.6.63-7.38,2.65-.54,1.39.73,2.87,2.45,3.63,1.72.76,3.8.97,5.81,1.16,13.85,1.31,28,2.61,41.72.72,1.12-.15,2.31-.39,3.36-.74.31-.43.62-.86.91-1.31Z"/>
        <path class="cls-2" d="m250.53,410.47c.4-3-.42-7.06-1.64-8.97.86-.75,1.42-1.97,1.64-3.63.49-3.67-.85-8.94-2.51-9.89-1.83-1.05-28.15-1.6-41.75-1.6-4.74,0-10.93.06-13.51.33-1.35.14-2.39,1.06-3.02,2.66-1.34,3.4-.59,9.27.63,11.43-.24.34-.45.73-.63,1.17-1.34,3.4-.59,9.27.63,11.43-.24.34-.45.73-.63,1.17-1.46,3.68-.45,10.3.94,11.91,1.45,1.68,25.3,1.81,32.57,1.81h0c10.52,0,22.11-.26,24.29-.84,1.63-.43,2.66-1.94,2.98-4.36.4-3-.42-7.06-1.64-8.97.86-.75,1.42-1.97,1.64-3.64Zm-.99,12.47c-.18,1.38-.72,3.12-2.24,3.53-1.79.48-11.68.81-24.04.81-17.08,0-30.76-.64-31.82-1.46-1.09-1.26-2.12-7.47-.77-10.89.12-.31.26-.58.41-.82,3.42,1.45,25.27,1.57,32.18,1.57h0c10.51,0,22.11-.26,24.29-.84.18-.05.35-.11.51-.19.95,1.5,1.88,5.24,1.48,8.3Zm-2.24-9.08c-1.79.48-11.68.81-24.04.81-17.08,0-30.76-.64-31.82-1.46-1.09-1.26-2.12-7.47-.77-10.89.12-.31.26-.58.41-.82,3.42,1.45,25.26,1.57,32.17,1.57h0c10.52,0,22.11-.26,24.3-.84.18-.05.35-.11.51-.19.95,1.5,1.88,5.24,1.48,8.3-.18,1.38-.72,3.12-2.24,3.53Zm-56.63-24.14c.49-1.25,1.23-1.93,2.2-2.03,1.98-.21,6.75-.32,13.41-.32,16.79,0,39.81.71,41.25,1.47,1.09.63,2.5,5.26,2.02,8.9-.18,1.38-.72,3.12-2.24,3.52-1.79.48-11.68.81-24.04.81h0c-17.07,0-30.76-.64-31.81-1.46-1.09-1.26-2.12-7.47-.77-10.89Z"/>
        <path class="cls-2" d="m195.47,393.48c-.06-1.09-.02-2.19-.09-3.28-.04-.64-.94-.63-.98,0-.13,1.82-.8,4.68.38,6.26.3.4.93.28.96-.26.04-.91-.22-1.81-.27-2.72Z"/>
        <path class="cls-2" d="m196.99,393.19c.03.35-.15.55-.23.87-.08.33.23.72.59.59.62-.22.83-.85.77-1.46-.07-.71-1.18-.73-1.12,0Z"/>
        <path class="cls-2" d="m210.74,392.19c-.01-.66-1.02-.66-1.03,0,0,.43-.03.81.18,1.2.14.25.53.25.67,0,.22-.39.19-.76.18-1.2Z"/>
        <path class="cls-2" d="m215.43,390.04c-.24-.67-1.31-.4-1.08.3.53,1.63.59,3.34,1.07,4.98.16.55.94.42.97-.13.09-1.74-.36-3.53-.95-5.15Z"/>
        <path class="cls-2" d="m224.5,392.36c-.11-.71-1.3-.54-1.24.17.06.67.09,1.38.47,1.96.31.48,1.06.3,1.07-.29.01-.62-.2-1.22-.3-1.83Z"/>
        <path class="cls-2" d="m240,391.53c0-.58-.84-.56-.89,0-.13,1.48-.53,3.26.35,4.58.32.48.99.17.9-.38-.23-1.42-.34-2.76-.36-4.2Z"/>
        <path class="cls-2" d="m243.48,393.53c0,.42,0,.77.13,1.17.2.6,1.02.6,1.22,0,.13-.4.14-.75.13-1.17-.02-.95-1.46-.95-1.48,0Z"/>
        <path class="cls-2" d="m206.42,406.71c-.19-.7-1.19-.4-1.06.29.18.98.08,2.04.39,2.98.16.47.79.47.95,0,.35-1.04,0-2.26-.28-3.28Z"/>
        <path class="cls-2" d="m209.05,406.19c-.02-.63-.96-.63-.98,0-.02.49-.07.97.06,1.45.11.43.75.43.86,0,.13-.48.08-.96.06-1.45Z"/>
        <path class="cls-2" d="m197.8,406.19c-.01-.74-1.13-.74-1.15,0,0,.48-.02.96-.03,1.44,0,.47.08.89.18,1.35.09.42.75.42.84,0,.1-.46.19-.88.18-1.35,0-.48-.02-.96-.03-1.44Z"/>
        <path class="cls-2" d="m228.69,405.86c0,.61.06,1.17.15,1.77.06.37.68.37.75,0,.1-.6.16-1.16.15-1.77-.01-.68-1.04-.68-1.05,0Z"/>
        <path class="cls-2" d="m236.54,408.43c-.17-.96-.29-1.93-.36-2.91-.06-.79-1.27-.81-1.24,0,.06,1.66.06,3.78.78,5.3.27.57,1.05.23,1.09-.3.05-.71-.14-1.4-.27-2.09Z"/>
        <path class="cls-2" d="m242.57,407.66c-.18-.38-.25-.91-.19-1.33.09-.62-.81-.92-.97-.27-.21.82-.06,1.48.54,2.08.34.34.81-.09.63-.48Z"/>
        <path class="cls-2" d="m216.94,420.53c-.03-.5-.74-.5-.77,0-.04.61-.18,1.28.07,1.85.1.24.52.24.63,0,.25-.57.11-1.24.07-1.85Z"/>
        <path class="cls-2" d="m219.06,418.39c-.53,1.25-.84,2.57-.61,3.93.07.43.82.44.88,0,.18-1.24.29-2.46.72-3.65.23-.64-.74-.87-.99-.27Z"/>
        <path class="cls-2" d="m205.09,419.4c-.21.82-.47,1.74-.3,2.58.09.46.72.38.86,0,.25-.73.22-1.56.37-2.32.11-.6-.77-.86-.93-.26Z"/>
        <path class="cls-2" d="m199.93,417.19c-.05-.47-.76-.49-.75,0,.04,1.72.26,3.66.97,5.24.19.41.93.22.87-.24-.23-1.7-.92-3.28-1.09-5Z"/>
        <path class="cls-2" d="m196.68,419.19c0-.59-.91-.59-.91,0,0,.6-.05,1.19.07,1.77.08.38.69.38.77,0,.12-.59.08-1.18.07-1.77Z"/>
        <path class="cls-2" d="m231.71,418.73c-.08-.58-.99-.42-.99.13,0,.65.01,1.38.41,1.92.27.37.92.28.92-.25,0-.62-.26-1.19-.34-1.8Z"/>
        <path class="cls-2" d="m236.32,421.74c-.28-1.45-.97-2.7-.96-4.21,0-.61-.9-.6-.94,0-.09,1.53.27,3.25,1.08,4.56.28.44.91.14.81-.34Z"/>
        <path class="cls-2" d="m243.08,419.53c0-.68-1.05-.68-1.05,0,0,.7-.11,1.44.08,2.12.12.45.79.45.9,0,.18-.68.09-1.43.08-2.12Z"/>
        <path class="cls-2" d="m246.22,419.74c-.41,0-.81.36-.79.79.02.27-.01.59-.09.85-.11.38.29.85.69.69.7-.28,1.05-.77.97-1.54-.05-.43-.32-.79-.79-.79Z"/>
        <path class="cls-1" d="m203.77,392.37c-.11-.64-1.17-.49-1.13.15.02.31.06.61.1.91.04.32.29.7.42.98.19.39.88.21.83-.22-.07-.62-.12-1.21-.22-1.82Z"/>
        <path class="cls-1" d="m207.06,389.53c-.05-1.08-1.72-1.09-1.69,0,.04,1.41.22,2.77.92,4.01.41.73,1.34.19,1.24-.52-.16-1.16-.42-2.31-.48-3.49Z"/>
        <path class="cls-1" d="m230.09,390.86c-.07-.68-1.09-.71-1.08,0,.04,1.65.17,3.24.74,4.79.18.48.97.45.94-.13-.06-1.58-.44-3.09-.61-4.67Z"/>
        <path class="cls-1" d="m235.12,394.53c-.03-.73-1.1-.73-1.12,0-.02.61-.1,1.21.07,1.8.14.49.86.49.99,0,.16-.59.09-1.2.07-1.8Z"/>
        <path class="cls-1" d="m217.49,405.36c-.19-.8-1.31-.44-1.2.33.26,1.84.36,3.92.99,5.67.25.69,1.17.54,1.24-.17.21-1.91-.6-3.99-1.03-5.83Z"/>
        <path class="cls-1" d="m221.9,407.19c-.03.4,0,.76.13,1.15.18.52.88.52,1.06,0,.13-.38.15-.74.13-1.15-.06-.85-1.26-.85-1.31,0Z"/>
        <path class="cls-1" d="m213.04,420.39c-.11-.59-.42-1.11-.56-1.69-.19-.78-1.3-.44-1.18.32.13.77.36,1.46,1,1.94.39.29.81-.19.74-.57Z"/>
        <path class="cls-1" d="m227.23,422.61c-.1-.57-.09-1.17-.07-1.75.03-.8-1.14-.77-1.22,0-.11,1.1-.2,2.67.44,3.63.33.49,1.06.3,1.09-.3.03-.54-.15-1.06-.24-1.59Z"/>
        <path class="cls-1" d="m228.05,420.67c.05.32.09.64.14.96.05.37.69.37.75,0,.05-.32.09-.64.14-.96.12-.85-1.14-.85-1.02,0Z"/>
      </g>
      <g>
        <path class="cls-3" d="m186.91,115.03c.82-1.53,1.66-3.19,1.45-4.92-.23-1.87-1.64-3.34-2.97-4.66-6.02-5.99-12.04-11.97-18.07-17.96-.63-.62-1.35-1.29-2.23-1.29-1.3-.01-2.12,1.35-2.68,2.52-7.13,15.19-14.26,30.38-21.39,45.58,10,.47,20.03.31,30.01-.48,1.9-.15,3.88-.35,5.48-1.39,1.66-1.08,2.66-2.9,3.59-4.64,2.27-4.25,4.54-8.5,6.81-12.75Z"/>
        <path class="cls-7" d="m147.71,97.11c-2.64,5.91-5.29,11.83-7.93,17.74-2.92-2.56-4.7-6.64-3.75-10.4.95-3.76,7.98-8.5,11.68-7.34Z"/>
        <path class="cls-7" d="m211.16,133.87c-.12-1.36-.99-2.98-2.34-2.79-.68.09-1.2.62-1.65,1.14-2.74,3.18-4.8,6.94-5.98,10.97,2.59.41,5.34-.43,7.26-2.22s2.94-4.48,2.71-7.09Z"/>
        <path class="cls-4" d="m175.66,161.75c2.09,1.38,4.86,2.02,7.12.93,2.34-1.13,3.52-3.73,4.52-6.13,1.44-3.46,2.84-7.57.88-10.76-1.42-2.31-4.17-3.36-6.73-4.26-2.71,3.87-5.14,7.95-7.25,12.18-.76,1.52-1.49,3.22-1.08,4.87.34,1.35,1.39,2.41,2.55,3.18Z"/>
        <path class="cls-6" d="m147.94,119.55c-2.31,4.91-4.61,9.83-6.92,14.74,10,.47,20.03.31,30.01-.48,1.9-.15,3.88-.35,5.48-1.39,1.66-1.08,2.66-2.9,3.59-4.64.46-.86.92-1.72,1.38-2.58-11.39,1.72-23.37-.25-33.54-5.64Z"/>
        <path class="cls-7" d="m180.09,143.55c.66,3.1,1.59,6.13,3.32,8.76,1.03,1.56,2.42,2.95,4,3.97,1.4-3.4,2.68-7.39.77-10.5-1.42-2.31-4.17-3.36-6.73-4.26-.47.66-.91,1.34-1.36,2.02Z"/>
        <path class="cls-5" d="m178.22,135.06c-.91-2.54-.33-5.38.64-7.9,1.7-4.43,4.58-8.41,8.26-11.41-1.25,9.33,4.49,19.15,13.22,22.64.5,2.78-2.21,5.31-5.01,5.69-2.8.38-5.56-.75-8.16-1.85-3.63-1.54-7.62-3.46-8.96-7.17Z"/>
        <path class="cls-5" d="m146.22,120.79c.32.58.05,1.29-.23,1.89-1.76,3.82-3.52,7.65-5.28,11.47-.53,1.15-1.17,2.41-2.35,2.87-1.42.56-3.09-.34-3.86-1.66-.77-1.32-.85-2.92-.78-4.45.22-5.41,1.91-10.75,4.84-15.3,2.3,1.5,4.61,2.99,6.91,4.49.29.19.58.38.75.68Z"/>
        <path class="cls-5" d="m175.97,145.81c2.51-1.1,4.27-3.74,4.31-6.48-1.1-.79-2.62-.97-3.87-.45-.66,2.24-.82,4.62-.44,6.93Z"/>
        <path class="cls-2" d="m172.29,160.27c2.38,2.77,7.61,5.14,10.22,5.14h0c.15,0,.3,0,.44-.02,2.53-.29,6.18-11.93,8.17-19.03,1.73.66,3.26,1.07,4.33,1.07h0c.24,0,.45-.02.65-.06,1.22-.25,3.06-2.19,5.02-4.89,1.12.74,2.49,1.37,3.93,1.37,1.98,0,3.63-1.17,4.91-3.46,3.07-5.53.44-9.27-1.3-10.95,1.34-2.94,2.17-5.41,2.03-6.56-.5-4.32-16.5-12.57-19.97-12.57-.2,0-.37.02-.52.07-.08.02-.16.07-.23.1-6.57-7.87-18.2-20.54-24.61-25.99.11-.2.21-.39.29-.54.78-1.35.82-2.75.14-3.94-.81-1.41-2.6-2.35-4.43-2.35-1.54,0-2.83.64-3.64,1.81-.86,1.24-4.66,8.5-9.08,17.3-.88-.23-1.88-.4-2.93-.4-3.62,0-6.62,1.99-8.67,5.75-1.53,2.8-1.82,5.41-.88,7.74.8,1.99,2.36,3.45,3.86,4.47-4.25,8.91-7.66,16.56-7.97,18.59-.18,1.19.14,2.31.93,3.23,1.01,1.18,2.72,1.91,4.45,1.91h0c2.11,0,3.83-1.06,4.61-2.84.13-.29.35-.78.63-1.42,8.14.53,24.24,1.23,33.99,1.64-.06.59-.06,1.05.04,1.34.02.06.05.13.09.2-2.18,1.98-4.91,4.72-5.7,6.66-.24.58-.21,1.17.08,1.77.62,1.27,2.41,2.38,4.23,3.22-2.18,3.49-4.1,6.91-4.33,8.46-.15,1,.26,2.07,1.22,3.19Zm-.23-3.04c.37-2.41,5.65-10.55,9.39-15.97,2.61,1.76,5.87,3.54,8.73,4.73-2.68,9.54-5.86,18.23-7.35,18.41-2.19.24-7.5-2.12-9.79-4.78-.52-.61-1.12-1.52-.99-2.39Zm-.04-13.22c.71-1.73,3.24-4.27,5.33-6.18.69.85,1.86,1.84,3.29,2.86-1.23,1.78-3,4.4-4.69,7.07-1.74-.8-3.38-1.78-3.88-2.8-.17-.34-.18-.64-.05-.95Zm5.64-7.55c-.84-2.59,7.19-23.32,12.85-25.15.02,0,.08-.02.21-.02,3.45,0,18.56,8.14,18.97,11.69.48,4.13-10.48,22.73-13.8,23.41-.13.03-.28.04-.45.04h0c-4.08,0-16.89-7.17-17.79-9.97Zm-43.91-.97c-.6-.69-.84-1.53-.7-2.43.73-4.83,23.01-49.43,25.5-53.04.83-1.2,2.12-1.38,2.81-1.38,1.47,0,2.93.76,3.57,1.85.51.88.46,1.89-.14,2.94-3.04,5.32-21.86,47.28-23.65,51.37-.63,1.43-1.97,2.24-3.7,2.24-1.45,0-2.87-.6-3.69-1.56Zm4.17-32.91c1.89-3.47,4.51-5.23,7.79-5.23.87,0,1.71.13,2.47.32-2.54,5.06-5.25,10.57-7.71,15.72-1.34-.93-2.7-2.22-3.38-3.93-.82-2.05-.54-4.36.83-6.89Zm27.03-17.32c6.11,5.27,17.69,17.9,24.18,25.64-5,3.27-11.13,17.51-12.29,23.53-9.59-.4-25.48-1.1-33.71-1.62,4.14-9.27,17.81-39.68,21.83-47.55Zm44.14,54.63c-1.09,1.96-2.44,2.95-4.03,2.95-1.19,0-2.37-.54-3.35-1.18,2.33-3.34,4.77-7.6,6.52-11.29,1.53,1.56,3.51,4.77.87,9.52Z"/>
        <path class="cls-2" d="m192.41,136.67c-1.84-2.17-5.41-2.96-8.01-3.78-.7-.22-1.19.9-.51,1.2,1.3.57,2.58,1.16,3.84,1.79,1.32.66,2.55,1.55,3.96,2.02.76.25,1.16-.71.72-1.23Z"/>
        <path class="cls-2" d="m195.27,130.77c-1.64-2.17-4.68-2.72-7.19-3.3-.96-.22-1.29,1.11-.4,1.45,1.22.46,2.42.94,3.59,1.53,1.02.52,1.98,1.14,3.06,1.55.65.25,1.37-.65.94-1.22Z"/>
        <path class="cls-2" d="m199.89,125.52c-2.35-2.37-5.92-3.38-8.66-5.26-.65-.45-1.41.56-.84,1.09,2.44,2.26,5.46,4.57,8.57,5.76.92.35,1.55-.95.92-1.59Z"/>
        <path class="cls-2" d="m173.41,127.66c-2.29.87-4.69,1.79-6.74,3.16-.47.31-.06,1,.44.75,2.26-1.12,4.93-1.24,6.84-2.98.39-.36-.01-1.12-.54-.92Z"/>
        <path class="cls-2" d="m174.89,130.37c-1.32.06-2.5.68-3.59,1.38-.56.36-.07,1.19.52.89,1.07-.55,2.23-.87,3.32-1.35.45-.2.22-.94-.25-.92Z"/>
        <path class="cls-2" d="m139.71,130.64c-1-.21-2.03-.31-3.02-.61-.58-.17-.88.63-.4.94,1.04.68,2.18,1.03,3.41.77.55-.11.55-.99,0-1.11Z"/>
        <path class="cls-2" d="m144.55,120.64c-.78-.36-1.59-.54-2.32-1.03-.64-.43-1.42.58-.82,1.07.79.65,1.76,1.27,2.81,1.16.56-.06.97-.9.33-1.2Z"/>
        <path class="cls-2" d="m149.97,110.45c-.5-.46-1.14-.63-1.75-.89-.72-.31-1.42-.69-2.1-1.09-.44-.26-.97.38-.55.72.58.47,1.17.91,1.79,1.32.66.44,1.38.93,2.2.94.5,0,.79-.65.41-1Z"/>
        <path class="cls-2" d="m153.71,100.91c-.69-.99-2.02-1.18-3.15-1.28-.64-.06-.75.94-.15,1.1.98.26,1.81.89,2.82,1.02.42.05.71-.52.49-.85Z"/>
        <path class="cls-2" d="m156.83,92.39c-.41-.24-.87-.29-1.33-.4-.48-.11-.93-.32-1.36-.56-.48-.27-1.07.42-.61.79.81.65,2.08,1.52,3.17,1.17.45-.14.56-.76.13-1.01Z"/>
        <path class="cls-2" d="m162.72,85.7c-.89-1.12-2.32-1.73-3.65-2.16-.77-.25-1.13.83-.52,1.24,1.12.76,2.23,1.58,3.49,2.09.73.3,1.06-.7.68-1.18Z"/>
        <path class="cls-2" d="m182.33,144.14c-.59-.12-1.17-.01-1.77.04-.44.04-.44.64,0,.68.6.06,1.18.17,1.77.04.38-.08.38-.69,0-.77Z"/>
        <path class="cls-2" d="m184.41,145.66c-1.67.44-3.28,1.04-4.99,1.37-.57.11-.44,1.07.14,1.01,1.82-.19,3.66-.47,5.28-1.37.55-.31.17-1.16-.42-1.01Z"/>
        <path class="cls-2" d="m205.58,140.32c-.23-.36-.44-.5-.84-.65-.37-.14-.79-.18-1.18-.22-.5-.05-.51.65-.11.81.3.12.58.26.86.42.32.18.55.24.91.26.31.02.52-.36.35-.62Z"/>
        <path class="cls-2" d="m206.87,137.88c-.31-.35-.69-.51-1.1-.72-.41-.21-.89.34-.51.66.38.33.7.64,1.18.8.45.15.71-.43.43-.74Z"/>
        <path class="cls-2" d="m207.47,133.44c-.54-.34-1.01.5-.5.85.42.29.64.7.87,1.13.21.38.82.21.81-.22-.02-.78-.55-1.36-1.19-1.76Z"/>
        <path class="cls-1" d="m172.45,96.76c-1.52-1.5-3.46-3.51-5.41-4.41-.73-.33-1.7.21-1.43,1.1.52,1.72,2.08,3.21,3.2,4.56,1.4,1.68,2.37,3.79,3.93,5.31.97.95,2.79.3,2.74-1.14-.07-2.22-1.52-3.94-3.04-5.43Z"/>
        <path class="cls-1" d="m177.65,105.76c-1.07-.87-2.46.47-1.52,1.52.52.6.92,1.3,1.42,1.92.52.65,1.69.12,1.64-.68-.08-1.15-.65-2.04-1.53-2.76Z"/>
      </g>
      <g>
        <path class="cls-4" d="m165.53,4.88c-9.45-3.02-20.62-2-28.13,4.48-7.51,6.48-9.89,18.91-3.72,26.68,3.22,4.06,8.12,6.39,12.02,9.82,2.39,2.1,4.41,4.61,6.96,6.5,2.56,1.89,5.91,3.1,8.92,2.1,4.08-1.36,5.89-6,8.97-9,2.57-2.52,6.08-3.89,8.76-6.3,5.56-4.99,6.46-13.91,3.23-20.64-3.24-6.73-9.89-11.37-17-13.64Z"/>
        <path class="cls-7" d="m169.02,36.69c-9.38-.38-19.12-3.27-25.48-10.17-4.28-4.64-6.49-11.36-5.71-17.5-.14.12-.29.22-.43.34-7.51,6.48-9.89,18.91-3.72,26.68,3.22,4.06,8.12,6.39,12.02,9.82,2.39,2.1,4.41,4.61,6.96,6.5,2.56,1.89,5.91,3.1,8.92,2.1,4.08-1.36,5.89-6,8.97-9,2.57-2.52,6.08-3.89,8.76-6.3,1.3-1.17,2.34-2.56,3.13-4.08-4.29,1.32-8.97,1.79-13.42,1.61Z"/>
        <path class="cls-5" d="m151.59,60.29c-.25-1.2-.13-2.54.59-3.53.72-1,2.11-1.54,3.24-1.06.19,3.6,2.11,7.06,5.06,9.14-3.48,1.55-8.11-.81-8.89-4.54Z"/>
        <path class="cls-2" d="m148.64,46.5c.23,1.15.92,4.35,1.98,6.44-.08,2.2-.1,9.22,2.6,11.38.59.47,1.34.86,2.2,1.17.64,2.06,1.96,4.31,4.69,4.31.1,0,.2,0,.31,0,1.17-.07,2.1-.55,2.77-1.42.59-.76.9-1.73,1.06-2.71.84-.27,1.56-.62,2.11-1.04,2.79-2.17,1.83-10.57,1.69-11.73.24-2.26.29-5.64.29-6.77,8.52-2.49,13.82-8.35,14.93-16.55,1.31-9.69-3.81-20.36-12.19-25.39-4.56-2.73-9.73-4.18-14.97-4.18-10.3,0-21.7,6.01-23.93,19.43-1.59,9.56,1.37,15.84,4.14,19.42,3.62,4.69,8.72,7.18,12.32,7.64Zm-15.48-26.9c2.14-12.85,13.07-18.6,22.95-18.6,5.06,0,10.05,1.4,14.46,4.04,8.05,4.83,12.97,15.09,11.71,24.4-1.07,7.89-6.24,13.52-14.57,15.83-.22.06-.37.26-.37.48,0,.04,0,4.48-.29,7.1-.09.84-3.29,1.75-8.28,1.75-3.47,0-5.89-.46-6.41-.88-1.35-1.13-2.49-5.98-2.81-7.75-.04-.22-.22-.39-.45-.41-3.41-.31-8.44-2.69-12-7.3-2.65-3.43-5.48-9.45-3.95-18.65Zm32.59,44.24c-1.15.89-3.24,1.42-5.6,1.42-2.6,0-4.96-.64-6.3-1.72-1.81-1.45-2.23-6.09-2.25-9.19.04.04.08.09.12.12.99.82,4.29,1.12,7.04,1.12,1.69,0,6.44-.13,8.4-1.43.26,3.01.32,8.31-1.43,9.67Zm-5.39,4.96c-1.99.11-3.12-1.36-3.74-2.95,1.09.26,2.28.41,3.53.41,1.07,0,2.09-.11,3.02-.31-.15.68-.38,1.32-.77,1.82-.5.64-1.16.98-2.04,1.03Z"/>
        <path class="cls-2" d="m156.74,61.05c-.11-.44-.38-.81-.57-1.22-.24-.52-.41-1.07-.46-1.64-.06-.61-.93-.63-.96,0-.06,1.15.16,2.78,1.21,3.47.41.27.9-.17.79-.61Z"/>
        <path class="cls-2" d="m159.41,58.22c-.32-.63-1.28-.18-1.11.47.19.76.34,1.62.85,2.24.36.43.93.03.98-.41.1-.78-.37-1.63-.71-2.31Z"/>
        <path class="cls-2" d="m163.51,58.19c0-.8-1.24-.8-1.24,0,0,.72-.04,1.43.11,2.14.11.5.91.5,1.02,0,.15-.71.11-1.42.11-2.14Z"/>
        <path class="cls-2" d="m162.22,49.65c-.63-.01-1.1.41-1.54.81-.48.44-.87.94-1.15,1.52-.2.42.29.82.64.5.4-.37.81-.74,1.26-1.05.45-.31.94-.5,1.25-.97.23-.35-.07-.8-.47-.81Z"/>
        <path class="cls-2" d="m163.55,51.75c-.47-.05-.86.08-1.26.33-.56.35-.06,1.23.52.89.27-.15.57-.26.86-.35.5-.16.37-.82-.12-.88Z"/>
        <path class="cls-1" d="m145.68,31.4c-.49-.56-1.39.16-1.01.78,2.7,4.39,5.19,8.63,7.41,13.29.29.61,1.1.15,1.01-.42-.84-5.03-4.11-9.88-7.41-13.64Z"/>
        <path class="cls-1" d="m161.47,29.77c-.41.89-1.11.93-2.09.13-.19-.4-.74-.4-1.03-.13-.9.81-1.32,1.86-1.82,2.91-.71-1.02-1.22-2.15-2.01-3.12-.19-.23-.6-.15-.74.1-.46.85-.75,1.72-1.02,2.66-.86,3.02-2.83.08-3.78-1.36-.35-.54-1.19-.06-.87.51.91,1.66,2.02,2.95,3.63,3.95.27.17.63.1.85-.11,1.3-1.26,1.25-2.83,1.72-4.4.65,1.03,1.09,2.16,1.82,3.14.26.35.73.38.98,0,.59-.88.95-1.88,1.58-2.71,1.18,1.56,2.97,1.2,3.76-.97.2-.54-.63-1.05-1-.58Z"/>
        <path class="cls-1" d="m167.34,28.54c-2.79,4.1-5.61,10.14-4.58,15.2.16.77,1.44.8,1.58,0,.44-2.53.73-5.03,1.44-7.51.71-2.47,1.83-4.8,2.71-7.21.26-.71-.78-1.05-1.16-.49Z"/>
        <path class="cls-1" d="m139.55,28.93c-.96.04-1.75.91-2.36,1.57-.39.41.12,1.15.62.81.34-.23.69-.44,1.05-.63.41-.22.81-.36,1.11-.72.31-.37.14-1.04-.42-1.02Z"/>
        <path class="cls-1" d="m139.04,23.21c-.45.08-.81.35-1.29.28-.92-.14-1.34,1.19-.39,1.42.87.22,1.98.17,2.45-.7.3-.55-.19-1.11-.77-1Z"/>
        <path class="cls-1" d="m144.27,15.11c-.61-.92-1.79-1.2-2.81-1.44-1.14-.27-1.53,1.31-.47,1.72.85.33,1.64.95,2.57.97.61.02,1.07-.73.72-1.25Z"/>
        <path class="cls-1" d="m147.23,8.27c-.58-.39-1.27.37-.93.93.22.36.43.71.55,1.11.14.47.11.95.3,1.41.23.56,1.05.83,1.39.18.68-1.27-.23-2.9-1.31-3.64Z"/>
        <path class="cls-1" d="m155.89,6.34c-.19-.74-1.45-.6-1.36.18.12,1.05.05,2.17.39,3.17.2.59,1.1.66,1.27,0,.28-1.11-.03-2.27-.3-3.36Z"/>
        <path class="cls-1" d="m162.99,7.53c-.08-.99-1.5-1-1.55,0-.04.9-.26,1.77-.24,2.67.02.68.91.93,1.27.34.56-.92.6-1.96.52-3.01Z"/>
        <path class="cls-1" d="m169.31,9.86c-.52,1.11-1.33,1.99-1.95,3.03-.31.53.31,1.14.83.83,1.23-.73,1.87-2.05,2.34-3.35.26-.71-.9-1.2-1.22-.51Z"/>
        <path class="cls-1" d="m174.43,16.08c-1.16.57-2.46,1.03-3.42,1.91-.62.57.05,1.38.74,1.27,1.27-.19,2.47-1.01,3.59-1.62,1.03-.56.12-2.07-.91-1.56Z"/>
        <path class="cls-1" d="m175.89,23.87c-.62.06-1.27.13-1.72.6-.35.36-.08.91.39.94.51.04,1.01-.17,1.51-.25.73-.11.56-1.36-.17-1.29Z"/>
        <path class="cls-1" d="m175.89,29.97c-.42.02-.8.04-1.19.19-.69.26-.69,1.15,0,1.4.4.15.77.17,1.19.19,1.15.06,1.15-1.85,0-1.78Z"/>
        <path class="cls-1" d="m175.5,38.17c-.29-.46-.62-.9-.98-1.31-.34-.4-.51-.94-.97-1.23-.35-.22-.86-.01-.96.39-.15.6.22,1.22.49,1.74.32.61.82,1.1,1.44,1.38.6.28,1.4-.32.98-.98Z"/>
      </g>
      <g>
        <path class="cls-5" d="m268.05,89.55c-.53-4.53.18-9.33,2.73-13.11,2.55-3.78,7.13-6.32,11.65-5.73-2.77,8.47.15,18.51,7.04,24.17,6.89,5.66,17.3,6.58,25.08,2.21-3.61,10.2-15.31,16.63-25.97,14.73-10.65-1.89-19.28-11.53-20.53-22.28Z"/>
        <path class="cls-4" d="m301.21,80.71c-1.74-1.65-4.48-1.48-6.84-1.07-5.1.9-10.09,2.49-14.77,4.7,1.75,4,3.9,7.82,6.41,11.4.96,1.37,2.11,2.8,3.73,3.21,2.01.51,4.04-.7,5.61-2.05,2.52-2.17,4.6-4.86,6.06-7.84,1.31-2.68,1.97-6.29-.2-8.34Z"/>
        <path class="cls-7" d="m294.44,90.57c-5.26-.16-10.44-2.16-14.5-5.5,1.69,3.73,3.71,7.31,6.07,10.66.96,1.37,2.11,2.8,3.73,3.21,2.01.51,4.04-.7,5.61-2.05,2.3-1.98,4.22-4.39,5.65-7.06-2.14.55-4.35.81-6.56.74Z"/>
        <path class="cls-2" d="m293.85,113.1h0c4.11,0,8-1.41,11.58-4.19,9.71-7.55,11.04-19.71,8.05-28.41-3.22-9.38-10.9-15.2-20.04-15.2-5.71,0-11.78,2.17-18.04,6.46-6.41,4.39-8.54,11.92-5.84,20.66,3.15,10.17,13.09,20.68,24.28,20.69Zm-.4-46.8c8.71,0,16.02,5.56,19.1,14.52,2.87,8.37,1.59,20.05-7.72,27.3-3.4,2.64-7.08,3.98-10.97,3.98h0c-10.73,0-20.28-10.16-23.33-19.98-2.57-8.29-.58-15.41,5.45-19.54,6.08-4.17,11.96-6.28,17.47-6.28Z"/>
        <path class="cls-2" d="m291.08,101.01c.11.03.22.05.34.05,2.11,0,7.33-5.8,10.41-10.78,1.78-2.88,3.68-6.78,2.59-8.97-1.08-2.17-5.12-2.62-8.32-2.62-6.45,0-14.77,1.92-15.83,4.4-.43,1.01-.09,2.68,1.05,5.11,2.22,4.75,7.65,12.18,9.77,12.81Zm-9.9-17.53c.79-1.84,8.46-3.79,14.92-3.79,4.06,0,6.77.75,7.43,2.07.68,1.36-.25,4.28-2.54,7.99-3.28,5.31-8.17,10.31-9.56,10.31h-.05c-1.57-.47-6.74-7.14-9.15-12.28-1.36-2.9-1.18-3.97-1.04-4.3Z"/>
        <g>
          <path class="cls-2" d="m296.2,105.4s0,0,0,0c.11-.06.06-.05,0,0Z"/>
          <path class="cls-2" d="m296.86,105.34c-.3-.22-.61-.03-.76.23,0,0,0-.02-.02-.03.03-.07.08-.12.12-.15-.13.07-.27.17-.33.3-.12.25-.24.49-.35.73-.27.56-.58,1.12-.57,1.76,0,.51.67.83,1.04.43.46-.49.67-1.1.92-1.72.21-.51.51-1.16-.05-1.56Z"/>
        </g>
        <path class="cls-2" d="m298.73,107.19c-.04.5-.27,1.03-.5,1.48-.16.31.19.75.51.51.7-.5.96-1.14.97-1.99.01-.64-.94-.62-.98,0Z"/>
        <path class="cls-2" d="m292.65,68.74c-.17-.46-.85-.4-.87.12-.01.37-.15.76-.31,1.08-.25.51.34.97.77.6.56-.48.67-1.12.41-1.8Z"/>
        <path class="cls-2" d="m294.53,69.17c-.34.33-.46.67-.37,1.13.08.42.68.36.79,0,.06-.18.14-.3.29-.42.5-.39-.23-1.17-.71-.71Z"/>
        <path class="cls-2" d="m276.94,80.71c-.24.15-.52.28-.71.49-.16.17-.2.5,0,.66.51.41,1.21.21,1.48-.38.21-.48-.25-1.1-.77-.77Z"/>
        <path class="cls-2" d="m291.93,103.66c-.22-.7-1.21-.7-1.42,0-.15.48-.13.97.24,1.34.26.26.69.26.94,0,.37-.37.39-.86.24-1.34Z"/>
        <path class="cls-2" d="m307.55,78.2c-.91-.03-1.36.86-1.37,1.66-.01.83,1.12.9,1.38.19.13-.37.48-.62.62-1.01.15-.42-.23-.82-.63-.83Z"/>
        <path class="cls-1" d="m294.07,86.49c-1.34-.11-2.67-.1-4.01-.08-.24,0-.43.07-.59.17-.34.07-.65.41-.51.78,0,.03.02.05.03.07,0,.32.13.65.39.88.38.78.83,1.51,1.34,2.22.38.53,1,.61,1.5.19.91-.75,1.76-1.58,2.62-2.38.75-.69.11-1.78-.77-1.86Z"/>
      </g>
      <g>
        <path class="cls-5" d="m237.87,67.82c2.32.66,4.81,1.38,6.34,3.24,1.53,1.86,1.38,5.26-.87,6.15,2.99-1.09,6.44.34,8.62,2.66,2.18,2.32,3.37,5.38,4.51,8.36,1.87-8.27,2.98-16.72,3.33-25.19-19.73-5.7-40.08-9.26-60.57-10.6,12.32,6.41,25.29,11.57,38.65,15.38Z"/>
        <path class="cls-3" d="m253.64,69.34c-22.35-6.79-44.7-13.58-67.06-20.36,13.8,12.22,29.48,22.3,46.32,29.78,1.81.8,3.72,1.59,5.69,1.48,6.32-.37,8.97-9.08,15.04-10.9Z"/>
        <path class="cls-3" d="m260.59,50.49c-21.66-.19-43.32-.37-64.99-.56,15.34,3.59,30.68,7.17,46.02,10.76,4.07.95,8.21,1.91,12.37,1.6,4.16-.31,8.43-2.09,10.74-5.57.91-1.37,1.45-3.23.55-4.6-.95-1.45-2.97-1.61-4.7-1.62Z"/>
        <path class="cls-6" d="m245.04,66.73c-4.59,3.16-9.94,5.23-15.48,5.91-3.14.38-6.32.31-9.44-.17,4.18,2.27,8.44,4.37,12.78,6.3,1.81.8,3.72,1.59,5.69,1.48,6.32-.37,8.97-9.08,15.04-10.9-2.87-.87-5.73-1.74-8.6-2.61Z"/>
        <path class="cls-6" d="m260.59,50.49c-4.06-.03-8.11-.07-12.17-.1.08.57.15,1.15.21,1.73.3,3.29.06,6.7-.92,9.84,2.09.33,4.19.49,6.29.34,4.16-.31,8.43-2.09,10.74-5.57.91-1.37,1.45-3.23.55-4.6-.95-1.45-2.97-1.61-4.7-1.62Z"/>
        <path class="cls-2" d="m181.55,46.46s-.04,0-.07,0c-.02,0-.04,0-.06.01-.02,0-.04.01-.05.02-.02,0-.03.02-.05.03-.02.01-.04.02-.06.03-.01,0-.03.02-.04.03-.02.01-.03.03-.04.05-.02.02-.03.04-.04.06,0,.01-.02.03-.03.04,0,0-.01.01-.02.02,0,.01,0,.02,0,.04,0,.01-.01.02-.02.03,0,.01,0,.02,0,.03,0,.01,0,.02-.01.03,0,0,0,.02,0,.02,0,.01,0,.02,0,.03,0,0,0,.01,0,.02,0,0,0,0,0,.01,0,.02,0,.05,0,.07,0,.02,0,.04,0,.05,0,.02.01.03.02.05,0,.02.02.04.03.06,0,0,0,.01,0,.02,0,0,0,0,0,0,0,0,0,0,0,0,0,0,0,0,0,0,0,0,0,.01.01.01,0,0,.01.01.02.02,2.13,2.76,52.25,34.79,55.24,35.28.07.01.15.02.23.02h0c.72,0,1.96-.58,3.44-1.49,8.87,5.03,15.35,8.64,16.08,8.88.02,0,.04,0,.05,0,.01,0,.02,0,.03.01.02,0,.04,0,.06,0,.05,0,.1.03.15.03h0c.26,0,.5-.12.66-.34.38-.49.4-1.85.2-3.66.89-6.2,2.62-18.55,2.79-21.37,2.91-1.15,8.28-9.41,8.28-11.51,0-.79,0-1.76-43.64-4.37-21.34-1.28-42.96-2.31-43.17-2.32,0,0-.02,0-.03,0Zm55.03,35.11c-2.43-.48-43.75-26.78-52.87-33.47,26.96,7.9,65.21,19.56,69.05,21.93-2.58,2.4-13.72,11.54-16.12,11.54h-.07Zm16.58-10.56c2.11,8.08,3.82,16.67,3.23,17.97-1.02-.43-6.96-3.75-15.34-8.5,4.32-2.82,10.13-7.7,12.12-9.47Zm.78-.99c0-.05.02-.11,0-.15-.15-.58-.42-1.65-36.5-12.7-6.75-2.07-13.52-4.11-19.33-5.84,21.36,4.96,56.09,12.93,61,13.45-.17,2.49-1.39,11.38-2.29,17.78-.83-4.6-2.23-10.1-2.88-12.53Zm5.62-6.22l-.04.5h0v-.5c-3.35,0-55.44-12.11-72.49-16.09,32.54,1.61,76.82,4.23,80.35,5.65-.36,2.35-5.79,10.1-7.82,10.44Z"/>
        <path class="cls-2" d="m235.4,74.73c-.34,1.11-1,2.3-1.04,3.47-.02.58.69.65.98.27.7-.92.83-2.36,1.03-3.47.12-.63-.78-.9-.97-.27Z"/>
        <path class="cls-2" d="m237.4,76.39c-.08.5-.28.96-.32,1.47-.04.52.62.56.87.24.34-.45.39-1.02.43-1.57.05-.56-.9-.69-.99-.13Z"/>
        <path class="cls-2" d="m256.55,59.1c-.13-.43-.72-.24-.66.18.11.73.03,1.51-.01,2.24-.03.41.54.42.67.09.33-.85.26-1.65,0-2.51Z"/>
        <path class="cls-2" d="m258.68,58.53c-.07.56-.21,1.1-.22,1.67,0,.43.57.57.79.21.35-.58.44-1.22.51-1.88.07-.7-.99-.67-1.08,0Z"/>
        <path class="cls-2" d="m251.45,76.48c-.41-.3-1.35,0-1.64.48-.07.02-.14.07-.18.17,0,0,0,.01,0,.02-.04.12.03.25.13.31.06.03.12.05.18.05.48.28,1.42,0,1.68-.42.14-.22.03-.47-.16-.61Z"/>
        <path class="cls-2" d="m251.12,78.48c-1.12.29-2.09.81-3.12,1.32-.46.23-.13,1.02.35.84,1.08-.42,2.12-.78,3.08-1.43.37-.25.15-.84-.31-.73Z"/>
        <path class="cls-1" d="m216.52,65.35c-3.7-2.73-7.84-5.4-12.03-7.28-.61-.27-1.15.6-.53.91,4.21,2.14,7.69,5.79,12.11,7.44.67.25.94-.71.45-1.07Z"/>
        <path class="cls-1" d="m221.42,68.86c-.46-.28-.83-.62-1.16-1.04-.41-.53-1.26.28-.75.75.48.44,1,.76,1.6,1,.42.17.66-.49.3-.71Z"/>
      </g>
      <g>
        <path class="cls-3" d="m285.89,130.19c-8.58,6.35,4.33,28.33,7.67,31,3.33,2.67,8.33-.33,10.67.67,2.33,1-2.33,7.67,2,8.33,4.33.67,8.33-8.33,8.33-8.33,0,0,25.67-6,29-9.67,3.33-3.67-.67-29-5.33-33.33-4.67-4.33-43.33,4.67-52.33,11.33Z"/>
        <path class="cls-6" d="m343.55,152.19c.74-.81,1.11-2.68,1.21-5.14-7.75,1.51-15.67,2.19-23.56,1.99-8.12-.21-16.41-1.4-23.59-5.2-5.38-2.85-10.08-7.38-12.6-12.85-6.72,7.2,5.34,27.64,8.54,30.2,3.33,2.67,8.33-.33,10.67.67,2.33,1-2.33,7.67,2,8.33,4.33.67,8.33-8.33,8.33-8.33,0,0,25.67-6,29-9.67Z"/>
        <path class="cls-2" d="m337.11,114.99c-1.2-.95-3.62-1.43-7.2-1.43-13.04,0-42.14,7.18-46.43,15.86-3.97,8.05,4.28,30.38,8.31,34.35,1.17,1.15,2.75,1.7,4.84,1.7,1.39,0,2.82-.24,4.07-.46,1.72-.29,3.25-.47,3.65-.06.55.58.3,1.61.03,2.7-.35,1.42-.78,3.18.81,4.17.24.15.52.23.81.23,1.75,0,3.88-2.67,6.48-6.17.83-1.12,1.87-2.51,2.16-2.65.24-.05,24.73-6.06,29.28-8.84,1.02-.62,1.6-2.35,1.78-5.28.56-9.35-3.55-30.14-8.59-34.12Zm7.59,34.06c-.21,3.46-.98,4.29-1.3,4.49-4.1,2.51-26.68,8.19-28.98,8.72-.53.12-1.14.88-2.73,3.03-1.6,2.16-4.29,5.77-5.68,5.77-.11,0-.2-.03-.28-.08-.92-.57-.75-1.55-.37-3.09.31-1.25.66-2.66-.28-3.63-.38-.39-.94-.57-1.77-.57-.78,0-1.75.17-2.78.34-1.22.21-2.6.44-3.91.44-1.81,0-3.17-.46-4.14-1.42-3.81-3.74-11.84-25.64-8.11-33.19,3.9-7.89,31.25-15.31,45.53-15.31,4.16,0,5.87.66,6.58,1.22,4.43,3.5,8.81,23.41,8.21,33.28Z"/>
        <path class="cls-1" d="m303.11,151.24c-1.38,0-2.53,1.15-2.53,2.53s1.15,2.53,2.53,2.53,2.53-1.15,2.53-2.53-1.15-2.53-2.53-2.53Z"/>
        <path class="cls-1" d="m320.17,149.43c-.26-.94-.94-1.52-1.78-1.79-.25-.09-.5-.14-.76-.15-.03,0-.05,0-.08-.01,0,0,0,0,0,0-.58,0-1.17.23-1.71.67-.76.62-1.04,1.75-.79,2.67.38,1.39,1.86,2.23,3.25,1.85,1.39-.38,2.23-1.86,1.85-3.25Z"/>
        <path class="cls-1" d="m330.36,143.8c-1.47,0-2.71,1.23-2.71,2.71s1.23,2.71,2.71,2.71,2.71-1.23,2.71-2.71-1.23-2.71-2.71-2.71Z"/>
        <path class="cls-2" d="m288.89,129.19c.03-.25-.31-.42-.51-.29-.96.64-1.46,2.01-1.87,3.05-.46,1.18-.8,2.7-.09,3.84.26.41,1.03.28.98-.27-.11-1.15-.06-2.14.28-3.25.32-1.04,1.06-2.01,1.2-3.08Z"/>
        <path class="cls-2" d="m289,135.37c-.15.72-.32,1.41-.31,2.15,0,.62.84.69,1.04.14.25-.7.31-1.41.4-2.14.08-.64-1-.78-1.13-.15Z"/>
        <path class="cls-2" d="m338.81,146.11c-.7.88-1.35,1.76-1.98,2.7-.66.98-1.44,2.1-1.65,3.28-.07.38.35.65.65.38.85-.78,1.48-1.83,2.2-2.73.75-.94,1.33-1.92,1.76-3.05.2-.54-.62-1.02-.98-.57Z"/>
        <path class="cls-2" d="m340.72,150.39c-.11-.49-.9-.5-.99,0-.08.4-.21.77-.44,1.12-.52.77.86,1.53,1.21.71.26-.62.37-1.16.22-1.83Z"/>
        <path class="cls-1" d="m325.55,123.34c-2.51-.03-4.94.78-7.35,1.39-2.37.6-4.78,1.17-7.04,2.13-.73.31-.34,1.47.39,1.44,2.47-.09,4.94-.54,7.38-.92,2.48-.38,4.97-.66,7.21-1.83,1.07-.56.54-2.19-.6-2.21Z"/>
        <path class="cls-1" d="m334.44,124.06c-1.02-.34-2.16-.26-3.22-.4-.99-.13-1.15,1.46-.23,1.7,1.11.29,2.32.62,3.45.3.82-.23.76-1.35,0-1.6Z"/>
      </g>
      <g>
        <path class="cls-5" d="m229.71,150.26c-7.36-3.94-12.5-11.75-13.22-20.07-.72-8.32,3.01-16.89,9.58-22.03-.13,9.14,3.69,18.27,10.29,24.59s15.88,9.75,25.01,9.23c-3.07,5.19-8.3,9.02-14.14,10.5-5.84,1.48-12.22.63-17.53-2.22Z"/>
        <path class="cls-4" d="m226.44,117.56c-1.57,2.41-2.55,5.2-2.83,8.06-.87,8.88,5.89,17.84,14.66,19.45,8.77,1.61,18.27-4.37,20.61-12.98,2.34-8.61-2.83-18.57-11.21-21.62-7.57-2.75-16.84.34-21.23,7.09Z"/>
        <path class="cls-3" d="m213.67,166.35c-.89,1.79-1.75,3.93-.85,5.72.89,1.76,3.24,2.38,5.13,1.83s3.4-1.98,4.68-3.48c4.46-5.23,7.2-11.9,7.69-18.76-1.88-1.21-3.77-2.42-5.65-3.63-4.14,5.81-7.82,11.94-11,18.32Z"/>
        <path class="cls-7" d="m242.02,139.19c-8.49-4.39-14.04-13.7-14.4-23.19-.42.5-.82,1.01-1.18,1.56-1.57,2.41-2.55,5.2-2.83,8.06-.87,8.88,5.89,17.84,14.66,19.45,4.68.86,9.55-.46,13.45-3.16-3.37-.28-6.68-1.16-9.7-2.73Z"/>
        <path class="cls-6" d="m224.67,148.03c-.51.71-.99,1.45-1.48,2.17,1.04,3.9,2.47,7.69,4.28,11.31.1.19.2.38.3.58,1.41-3.31,2.3-6.84,2.56-10.42-1.88-1.21-3.77-2.42-5.65-3.63Z"/>
        <path class="cls-2" d="m218.02,174.66c1.31,0,2.53-.39,3.53-1.12,3.07-2.27,8.35-15.38,11-22.37,3.74,1.27,7.31,1.92,10.64,1.92h0c9.71,0,17.23-5.45,21.15-15.36,2.59-6.54.85-16.33-4.24-23.81-5.69-8.38-14.31-12.07-23.56-9.95-12.34,2.82-19.88,10.56-20.68,21.22-.6,8.04,2.75,16.12,8.31,21.2-3.77,5.02-11.47,15.59-12.85,19.93-.61,1.9-.3,3.81.85,5.39,1.31,1.79,3.61,2.95,5.86,2.95Zm-5.75-8.04c1.32-4.13,8.91-14.57,12.67-19.58,1.7,1.43,3.58,2.59,5.61,3.39.36.14.71.27,1.06.4-2.63,6.91-7.81,19.8-10.65,21.91-.82.61-1.83.93-2.93.93-1.94,0-3.92-1-5.05-2.54-.68-.93-1.35-2.46-.7-4.5Zm4.59-41.36c.77-10.19,8.02-17.6,19.91-20.32,1.67-.38,3.33-.58,4.93-.58,6.9,0,13.15,3.59,17.58,10.11,4.91,7.23,6.61,16.64,4.14,22.88-3.76,9.5-10.94,14.73-20.22,14.73h0c-3.79,0-7.92-.87-12.28-2.58-8.64-3.4-14.81-14.05-14.05-24.24Z"/>
        <path class="cls-2" d="m233.31,144.48c3.27,1.29,6.38,1.94,9.24,1.94h0c7.12,0,12.62-4,15.5-11.25,1.9-4.79.62-11.96-3.09-17.43-4.17-6.13-10.48-8.84-17.26-7.28-9.03,2.07-14.55,7.73-15.13,15.54-.59,7.89,4.03,15.84,10.75,18.49Zm-9.76-18.41c.55-7.34,5.79-12.68,14.36-14.64,1.2-.28,2.4-.41,3.55-.41,4.97,0,9.47,2.59,12.66,7.29,3.49,5.13,4.75,12.07,2.99,16.5-2.71,6.85-7.89,10.62-14.57,10.62-2.74,0-5.72-.63-8.88-1.87-6.23-2.45-10.67-10.13-10.12-17.48Z"/>
        <path class="cls-2" d="m249.39,136.26c-3.43,1.39-5.99,4.79-10.06,3.54-.44-.13-.74.56-.32.75,4.01,1.82,7.88-.76,10.98-3.25.47-.38-.04-1.27-.6-1.04Z"/>
        <path class="cls-2" d="m252.82,131.03c-.17-.53-1.11-.66-1.2,0-.03.24-.11.44-.28.62-.71.71.46,1.85,1.09,1.09.43-.52.6-1.05.39-1.71Z"/>
        <path class="cls-2" d="m226.43,151.42c-.75.21-1.4.74-2.08,1.1-.42.22-.12.82.31.73.77-.17,1.7-.42,2.22-1.06.27-.34.03-.89-.44-.76Z"/>
        <path class="cls-2" d="m226.1,154.74c-.16.06-.37.18-.54.2-.73.09-.78,1.17,0,1.17.54,0,.99-.24,1.12-.79.07-.32-.22-.72-.58-.58Z"/>
        <path class="cls-2" d="m223.63,139.42c-.33.22-.68.44-1.02.63-.55.3-.17,1.25.43,1.03.57-.21.93-.47,1.3-.95.32-.41-.29-.98-.71-.71Z"/>
        <path class="cls-2" d="m221.68,128.74c-.59-.16-1.19-.08-1.79-.05-.65.03-.65.98,0,1.01.6.03,1.2.11,1.79-.05.45-.12.45-.78,0-.9Z"/>
        <path class="cls-2" d="m223.13,117.37c-.16-.52-.48-.96-1.02-1.14-.46-.15-.91,0-1.06.49-.06.21.03.49.24.58.36.17.61.47.96.74.43.33,1.02-.21.88-.68Z"/>
        <path class="cls-2" d="m232.06,110.05c-.14-.81-.87-1.4-1.45-1.92-.54-.48-1.21.23-.78.78.47.59.8,1.32,1.46,1.73.43.27.85-.17.77-.6Z"/>
        <path class="cls-2" d="m245.3,106.19c-.03-.97-1.47-.97-1.5,0-.03.82-.16,1.72.14,2.5.23.6.99.6,1.22,0,.3-.78.17-1.68.14-2.5Z"/>
        <path class="cls-2" d="m255.97,113.09c-.32.21-.56.42-.79.72-.43.55.21,1.19.76.76.31-.24.51-.47.72-.79.28-.42-.27-.97-.69-.69Z"/>
        <path class="cls-2" d="m262.55,125.64c-.53-.05-1.17.1-1.6.43-.31.24-.38.88.13.96.59.09,1.25-.03,1.75-.37.48-.32.27-.98-.28-1.03Z"/>
        <path class="cls-2" d="m260.71,135.55c-.7.22-.6,1.35.18,1.31.27-.01.37.05.49.29.21.42,1,.36,1.07-.14.16-1.11-.67-1.8-1.74-1.47Z"/>
        <path class="cls-2" d="m253.99,144.31c-.55-.15-.95.17-1.23.62-.31.5.37,1.03.79.66.1.18.21.3.4.39.32.17.65,0,.77-.32.21-.52-.2-1.21-.74-1.36Z"/>
        <path class="cls-2" d="m244.7,149.06c-.23-.57-1.12-.37-.95.26.15.55.15,1.13.34,1.66.15.41.81.5.93,0,.15-.67-.07-1.3-.32-1.93Z"/>
        <path class="cls-2" d="m235.87,147.34c-.27.69-.65,1.33-.91,2.02-.23.62.61.99,1.04.6.66-.6.99-1.41,1.25-2.25.28-.9-1.05-1.21-1.38-.38Z"/>
        <path class="cls-1" d="m237.55,114.3c-2.85-.37-6.24,2.74-7.87,4.78-1.49,1.86-3.19,5.55-1.35,7.67.35.4.97.23,1.23-.16.57-.85.6-1.89,1.02-2.81.52-1.15,1.46-2.1,2.39-2.93,1.8-1.61,4.46-2.27,5.92-4.2.8-1.07-.33-2.21-1.35-2.35Z"/>
        <path class="cls-1" d="m246.08,115.69c-.63-1.22-2.27-1.2-3.36-.68-.94.45-.41,1.78.5,1.83.28.02.56.03.83.09.04.01.51.19.44.18.25.05.48.06.73.07.8.04,1.19-.86.86-1.5Z"/>
      </g>
      <path class="cls-1" d="m145.96,222.54c-.22-.64-.96-1.01-1.53-1.3-.78-.39-1.46-1-2.38-.99-.56,0-1.15.61-.92,1.2.41,1.01,1.26,1.36,2.23,1.72.73.27,1.81.5,2.44-.05.15-.13.22-.39.15-.58Z"/>
      <path class="cls-1" d="m147.63,220.45c-.44-.54-.43-1.25-.88-1.78-.29-.34-.97-.26-1.16.15-.54,1.17.44,2.19,1.48,2.59.59.23.88-.57.56-.96Z"/>
      <path class="cls-1" d="m219.05,218.12c-1.18.02-1.51,1.46-1.56,2.4-.05.87,1.15.91,1.43.19.24-.62.96-1.15.87-1.86-.05-.39-.3-.75-.74-.74Z"/>
      <path class="cls-1" d="m223.89,220.33c-.65-.07-1.19.27-1.77.53-.69.3-1.37.59-2.08.84-.69.24-.63,1.45.18,1.36.7-.08,1.4-.19,2.1-.33.75-.15,1.67-.31,2.18-.92.51-.61.15-1.4-.61-1.48Z"/>
      <path class="cls-1" d="m154.97,279.42c-.59.23-1.06.71-1.57,1.07-.6.43-1.34.87-1.32,1.7,0,.44.36.81.81.81.79,0,1.25-.67,1.73-1.21.41-.47.99-1.01,1.08-1.65.05-.39-.25-.91-.73-.73Z"/>
      <path class="cls-1" d="m157.4,281.18c-.19.73-.61,1.41-.42,2.17.09.39.55.53.88.36.85-.45.84-1.5.88-2.35.03-.77-1.14-.92-1.34-.18Z"/>
      <path class="cls-1" d="m209.65,281.08c-.07-.71.02-1.58-.41-2.19-.28-.4-.77-.38-1.05,0-.47.65-.48,1.69-.58,2.47-.12.91.02,1.78.63,2.49.58.68,1.47.05,1.56-.65.09-.7-.07-1.42-.15-2.11Z"/>
      <path class="cls-1" d="m211.71,278.04c-.56-.5-1.54.15-1.09.84.54.81,1.45,2.34,2.62,2.01.29-.08.55-.37.52-.69-.08-1.04-1.35-1.53-2.06-2.16Z"/>
      <path class="cls-4" d="m43.63,183.23s-.04-.05-.06-.08c-.05-.52-.15-1.06-.23-1.52-.23-1.33-.4-2.67-.61-4.01-.16-1.05-1.6-.65-1.7.23-.13,1.07-.06,2.15.04,3.22,0,.06.01.13.02.19-.64-.31-1.3-.57-1.94-.87-1.88-.89-3.71-2.09-5.68-2.73-.93-.3-1.38.85-.87,1.49,1.17,1.45,2.98,2.36,4.56,3.3.89.53,1.81,1.19,2.77,1.72-.88.64-1.78,1.14-2.39,2.08-.47.71.14,1.89,1.03,1.8,1.59-.17,3.91-1.51,4.73-3.19.47-.38.7-1.11.34-1.63Z"/>
      <path class="cls-4" d="m141.55,153.98c-1,.37-1.84,1.09-2.6,1.94-.14-1.8-.61-3.67-.92-5.27-.43-2.22-1.09-5.18-3.03-6.56-.71-.51-1.42.32-1.31,1.01.42,2.55,1.35,4.92,1.65,7.54.18,1.63.11,3.46.55,5.08-1.53-1.04-3.15-2.03-4.89-1.3-.82.34-.73,1.49.21,1.57,2,.15,3.73,2.29,5.22,3.45.62.48,1.46.62,2.06,0,1.5-1.55,3.6-3.64,4.47-5.61.39-.89-.26-2.27-1.42-1.84Z"/>
      <path class="cls-4" d="m271.84,145.53c-.03-.97-1.24-1.26-1.77-.48-2.04,3.02-3.3,6.71-5.15,9.89-1.79,3.09-3.82,6-5.25,9.27-.88-1.24-.79-3.8-1.14-4.95-.27-.9-1.79-1.05-1.97,0-.4,2.37-.21,6.2,1.85,7.86,2.06,1.66,6.58,1.17,8.29-.77.54-.62.39-1.74-.51-1.94-1.05-.23-2.22.18-3.35.44,1.97-2.53,3.53-5.34,5.04-8.17,1.73-3.25,4.06-7.37,3.95-11.15Z"/>
      <path class="cls-4" d="m147.32,71.09c-.41-.5-1.11-.34-1.54,0-.74.59-.88,1.37-1.31,2.18-.45.85-1.07,1.66-1.81,2.3,0-.02.01-.03.01-.04.36-2.83-.61-5.53-1.39-8.22-.88-2.99-1.46-5.92-1.96-8.99-.12-.76-1.42-.77-1.54,0-.39,2.51.01,4.93.49,7.4.65,3.34,1.26,6.84,2.19,10.11.03.1.08.18.12.26-1.24-.6-2.75-2.24-3.65-2.46-.78-.18-1.66.7-1.12,1.46.78,1.11,2.17,1.98,3.24,2.79,1.19.89,2.39,1.37,3.84.81,2.24-.87,6.42-5.16,4.43-7.61Z"/>
      <path class="cls-4" d="m68.67,108.55c-.26-1.01-1.59-1.1-2.12-.28-.89,1.39-1.03,3.12-1.68,4.66-.8-1.32-1.7-2.6-2.47-3.93-.81-1.41-1.64-3.99-3.14-4.78-.54-.28-1.07.08-1.13.65-.16,1.66,1.45,3.93,2.17,5.37.75,1.5,1.52,3.17,2.6,4.51-1.3.05-2.9-1.02-4.17-1.2-.86-.12-1.2,1-.36,1.31,2.42.91,4.77,3.72,7.34,1.38,1.8-1.64,3.59-5.2,2.96-7.67Z"/>
      <path class="cls-4" d="m216.96,98.58c-1.16.19-2.54,1.07-3.8,1.11,1.07-2.41,1.39-5.11,1.89-7.68.53-2.71,1.39-5.39,1.64-8.15.08-.83-1.1-1.03-1.48-.4-1.45,2.37-2.03,5.18-2.74,7.84-.63,2.33-1.42,4.72-1.71,7.14-.77-.84-1.41-1.91-2.1-2.67-.4-.44-1.23.02-1.02.59.72,1.97,1.8,4.17,3.66,5.29,2.06,1.23,5.11.18,6.62-1.42.72-.76-.02-1.8-.96-1.65Z"/>
      <path class="cls-4" d="m328.85,99.78c-1.25-.41-2.59-.18-3.91-.09.92-1.42,1.54-3.08,2.2-4.61.86-1.97,1.58-4.04,1.54-6.21-.01-.9-1.33-1.09-1.57-.21-.57,2.09-1.31,4.01-2.31,5.93-.77,1.47-1.83,2.94-2.19,4.59-.71-.8-1.04-2.27-1.54-2.95-.37-.5-1.07-.31-1.14.31-.2,1.83.77,4.43,2.49,5.31,1.67.85,4.73.73,6.42.11,1.04-.38,1.1-1.81,0-2.17Z"/>
      <path class="cls-4" d="m155.73,350.37c-.59.64-.94,1.47-1.48,2.15-.56.7-1.52,1.35-1.43,2.34.03.41.31.73.74.74,1.1.03,1.7-1.09,2.23-1.9.53-.82,1.13-1.84,1.13-2.84,0-.58-.76-.94-1.18-.49Z"/>
      <path class="cls-4" d="m159.37,354.23c-.28.59-.67,1.11-.99,1.67-.35.62.42,1.11.92.71.62-.5.92-1.18,1.16-1.92.2-.64-.8-1.08-1.09-.46Z"/>
      <path class="cls-4" d="m171.28,356.19c-.11-.92-1.36-.95-1.45,0-.13,1.36-.61,2.65-.71,4-.05.66.89,1.05,1.32.55,1.09-1.26,1.04-2.98.85-4.55Z"/>
      <path class="cls-4" d="m181.05,356.53c-.07-1.06-1.65-1.08-1.66,0-.1,5.97-.34,12.35.53,18.27.18,1.23,1.85.75,1.98-.27.76-5.83-.45-12.15-.84-18Z"/>
      <path class="cls-4" d="m189.29,359.53c0-.97-1.38-.93-1.48,0-.13,1.25-.54,2.6-.26,3.85.13.58.99.68,1.26.17.64-1.19.49-2.71.47-4.02Z"/>
      <path class="cls-4" d="m205.41,375.36c-2.51-5.61-4.54-11.51-7.56-16.87-.48-.84-1.66-.1-1.27.75,2.56,5.6,3.58,12.01,7.11,17.13.74,1.07,2.24.16,1.72-1.01Z"/>
      <path class="cls-4" d="m208.96,360.76c-1.17-1.53-2.38-2.99-3.52-4.56-.4-.55-1.44-.24-1.18.5.68,1.96,1.69,4.14,3.52,5.23.69.41,1.71-.46,1.17-1.17Z"/>
      <path class="cls-4" d="m214.81,367.37c-.42-1.07-1.35-1.82-2.12-2.64-.51-.55-1.5.19-1.05.81.65.89,1.27,1.99,2.27,2.52.43.23,1.11-.15.9-.69Z"/>
      <path class="cls-4" d="m150.98,348.78c-2.32,1.15-4.68,2.84-6.55,4.63-.52.5.16,1.42.78,1.01,2.16-1.41,4.54-3.04,6.35-4.88.4-.4-.1-.99-.58-.75Z"/>
      <path class="cls-4" d="m217.06,357.02c-2.74-2.25-5.99-4.22-9.37-5.34-.59-.2-.89.65-.41.96,2.9,1.88,5.82,3.95,8.91,5.5.69.34,1.53-.58.87-1.12Z"/>
      <path class="cls-2" d="m32.73,97.56c-.35-.08-.66-.1-.96-.08-.11-.31-.23-.62-.4-.9-.23-.39-.94-.36-1.03.13-.06.33-.07.66-.06.99-.66.11-1.34.16-1.93.5-.25.14-.26.53,0,.67.64.35,1.34.31,2.05.32h0c.07.8-.01,1.56.75,2.03.28.18.73.14.95-.12.58-.67.34-1.31.12-2.07.22-.06.43-.14.65-.25.51-.26.38-1.07-.16-1.2Z"/>
      <path class="cls-2" d="m37.35,100.41c-.3-.09-.62-.1-.94-.09-.06-.37-.09-.75-.08-1.12.02-.48-.76-.6-.85-.12-.07.39-.15.86-.15,1.33-.14.02-.29.04-.43.05-.51.05-.51.75,0,.8.17.02.35.04.52.06.1.38.27.71.57.94.23.18.64,0,.69-.28.04-.21.03-.39,0-.58.23,0,.46-.03.68-.09.45-.13.45-.78,0-.9Z"/>
      <path class="cls-2" d="m188.54,18.24c-.35-.08-.66-.1-.96-.08-.11-.31-.23-.62-.4-.9-.23-.39-.94-.36-1.03.13-.06.33-.07.66-.06.99-.66.11-1.34.16-1.93.5-.25.14-.26.53,0,.67.64.35,1.34.31,2.05.32h0c.07.8-.01,1.56.75,2.03.28.18.73.14.95-.12.58-.67.34-1.31.12-2.07.22-.06.43-.14.65-.25.51-.26.38-1.07-.16-1.2Z"/>
      <path class="cls-2" d="m197.59,103.56c-.35-.08-.66-.1-.96-.08-.11-.31-.23-.62-.4-.9-.23-.39-.94-.36-1.03.13-.06.33-.07.66-.06.99-.66.11-1.34.16-1.93.5-.25.14-.26.53,0,.67.64.35,1.34.31,2.05.32h0c.07.8-.01,1.56.75,2.03.28.18.73.14.95-.12.58-.67.34-1.31.12-2.07.22-.06.43-.14.65-.25.51-.26.38-1.07-.16-1.2Z"/>
      <path class="cls-2" d="m29.72,170.07c-.35-.08-.66-.1-.96-.08-.11-.31-.23-.62-.4-.9-.23-.39-.94-.36-1.03.13-.06.33-.07.66-.06.99-.66.11-1.34.16-1.93.5-.25.14-.26.53,0,.67.64.35,1.34.31,2.05.32h0c.07.8-.01,1.56.75,2.03.28.18.73.14.95-.12.58-.67.34-1.31.12-2.07.22-.06.43-.14.65-.25.51-.26.38-1.07-.16-1.2Z"/>
      <path class="cls-2" d="m286.87,160.24c-.35-.08-.66-.1-.96-.08-.11-.31-.23-.62-.4-.9-.23-.39-.94-.36-1.03.13-.06.33-.07.66-.06.99-.66.11-1.34.16-1.93.5-.25.14-.26.53,0,.67.64.35,1.34.31,2.05.32h0c.07.8-.01,1.56.75,2.03.28.18.73.14.95-.12.58-.67.34-1.31.12-2.07.22-.06.43-.14.65-.25.51-.26.38-1.07-.16-1.2Z"/>
      <path class="cls-2" d="m119.85,163.28c-.35-.08-.66-.1-.96-.08-.11-.31-.23-.62-.4-.9-.23-.39-.94-.36-1.03.13-.06.33-.07.66-.06.99-.66.11-1.34.16-1.93.5-.25.14-.26.53,0,.67.64.35,1.34.31,2.05.32h0c.07.8-.01,1.56.75,2.03.28.18.73.14.95-.12.58-.67.34-1.31.12-2.07.22-.06.43-.14.65-.25.51-.26.38-1.07-.16-1.2Z"/>
      <path class="cls-2" d="m202.15,39.28c-.3-.09-.62-.1-.94-.09-.06-.37-.09-.75-.08-1.12.02-.48-.76-.6-.85-.12-.07.39-.15.86-.15,1.33-.14.02-.29.04-.43.05-.51.05-.51.75,0,.8.17.02.35.04.52.06.1.38.27.71.57.94.23.18.64,0,.69-.28.04-.21.03-.39,0-.58.23,0,.46-.03.68-.09.45-.13.45-.78,0-.9Z"/>
      <path class="cls-2" d="m193.25,107.52c-.3-.09-.62-.1-.94-.09-.06-.37-.09-.75-.08-1.12.02-.48-.76-.6-.85-.12-.07.39-.15.86-.15,1.33-.14.02-.29.04-.43.05-.51.05-.51.75,0,.8.17.02.35.04.52.06.1.38.27.71.57.94.23.18.64,0,.69-.28.04-.21.03-.39,0-.58.23,0,.46-.03.68-.09.45-.13.45-.78,0-.9Z"/>
      <path class="cls-2" d="m107.35,27.68c-.3-.09-.62-.1-.94-.09-.06-.37-.09-.75-.08-1.12.02-.48-.76-.6-.85-.12-.07.39-.15.86-.15,1.33-.14.02-.29.04-.43.05-.51.05-.51.75,0,.8.17.02.35.04.52.06.1.38.27.71.57.94.23.18.64,0,.69-.28.04-.21.03-.39,0-.58.23,0,.46-.03.68-.09.45-.13.45-.78,0-.9Z"/>
      <path class="cls-2" d="m290.83,166.95c-.3-.09-.62-.1-.94-.09-.06-.37-.09-.75-.08-1.12.02-.48-.76-.6-.85-.12-.07.39-.15.86-.15,1.33-.14.02-.29.04-.43.05-.51.05-.51.75,0,.8.17.02.35.04.52.06.1.38.27.71.57.94.23.18.64,0,.69-.28.04-.21.03-.39,0-.58.23,0,.46-.03.68-.09.45-.13.45-.78,0-.9Z"/>
      <path class="cls-2" d="m196.35,152.81c-.3-.09-.62-.1-.94-.09-.06-.37-.09-.75-.08-1.12.02-.48-.76-.6-.85-.12-.07.39-.15.86-.15,1.33-.14.02-.29.04-.43.05-.51.05-.51.75,0,.8.17.02.35.04.52.06.1.38.27.71.57.94.23.18.64,0,.69-.28.04-.21.03-.39,0-.58.23,0,.46-.03.68-.09.45-.13.45-.78,0-.9Z"/>
      <path class="cls-3" d="m68.48,167.93c-.64-.64-1.46-.95-2.23-1.41-.8-.48-1.24-1.18-1.93-1.76-.38-.32-1.1-.15-1.06.44.06.97.8,1.85,1.49,2.49.8.75,1.82,1.49,2.91,1.66.78.12,1.47-.77.82-1.41Z"/>
      <path class="cls-3" d="m77.22,171.95c-1.65-.81-3.44-.94-5.01-1.99-.61-.41-1.37.56-.8,1.03,1.46,1.2,3.51,2.35,5.46,2.2.61-.05.98-.93.34-1.24Z"/>
      <path class="cls-3" d="m90.42,173.13c-1.79-.31-3.55.29-5.34.01-.94-.15-1.34,1.15-.4,1.45,1.85.59,3.88.61,5.74.01.66-.21.79-1.33,0-1.47Z"/>
      <path class="cls-3" d="m100.35,169.13c-.73.21-1.36.39-2.01.79-.62.38-1.19.85-1.74,1.32-.78.66.22,1.86,1.07,1.38.57-.32,1.16-.59,1.73-.9.67-.36,1.16-.79,1.7-1.32.55-.53,0-1.48-.74-1.27Z"/>
      <path class="cls-3" d="m186.33,86.37c-1.85.46-3.94,2.08-4.53,3.95-.2.63.59,1.29,1.15.89.69-.49,1.27-1.13,1.95-1.64.77-.58,1.56-1.09,2.25-1.77.63-.61-.02-1.63-.83-1.43Z"/>
      <path class="cls-3" d="m195.35,80.13c-.79.15-1.51.31-2.22.72-.67.4-1.3.86-1.92,1.34-.85.67.26,2.08,1.15,1.49.59-.38,1.19-.72,1.82-1.03.63-.31,1.17-.73,1.75-1.13.73-.49.27-1.56-.59-1.39Z"/>
      <path class="cls-3" d="m206.81,76.27c-1.86-.3-3.72.14-5.54.55-1.38.31-.77,2.3.57,2.08,1.65-.27,3.38-.27,4.97-.78.83-.26,1-1.69,0-1.85Z"/>
      <path class="cls-3" d="m272.64,107.32c-.14-.65-1.14-.79-1.44-.19-.38.77-.59,1.62-.9,2.42-.3.81-.58,1.69-.23,2.53.28.68,1.08.82,1.52.2.51-.71.63-1.62.82-2.45.19-.83.4-1.66.22-2.51Z"/>
      <path class="cls-3" d="m275,121.98c-.45-1.81-1.71-3.46-2.47-5.16-.35-.79-1.6-.22-1.37.58.52,1.81,1.11,4.01,2.48,5.37.58.58,1.55,0,1.35-.79Z"/>
      <path class="cls-3" d="m277.41,128.67c-.54-.65-1.6.19-1.16.89.39.62.96,1.45,1.81,1.24.25-.06.5-.34.46-.61-.09-.7-.69-1.02-1.11-1.52Z"/>
      <path class="cls-3" d="m247.43,155.87c-.26-.38-.85-.44-1.09,0-.41.74-.34,1.61-.47,2.43-.15.97-.55,1.9-.54,2.89,0,.78.97,1.18,1.52.63.78-.79.92-1.84,1.02-2.91.09-.94.11-2.24-.44-3.04Z"/>
      <path class="cls-3" d="m243.42,166.39c-.82,1.1-1.65,2.23-1.97,3.59-.17.73.78,1.41,1.33.78.91-1.03,1.5-2.27,2.24-3.43.66-1.03-.9-1.87-1.6-.93Z"/>
      <path class="cls-3" d="m240.63,172.83c-.42-.24-.84-.06-1.11.29-.51.66-1.29,1.04-1.97,1.51-.55.38-.33,1.17.33,1.22,1.32.11,2.35-.89,3.03-1.91.24-.37.07-.89-.29-1.11Z"/>
      <path class="cls-3" d="m157.29,153.99c-.72-2.79-1.87-5.57-2.84-8.29-.22-.6-1.15-.53-1.15.16.01,2.97,1.06,6.19,2.59,8.72.45.74,1.61.25,1.39-.59Z"/>
      <path class="cls-3" d="m167.9,169.26c-2.14-1.52-4.61-2.82-6.03-5.11-.51-.83-1.74-.1-1.3.76,1.44,2.8,3.9,4.57,6.8,5.62.79.29,1.13-.84.53-1.26Z"/>
      <path class="cls-3" d="m181.74,172.54c-2.08-.4-4.08-.24-6.18-.13-1.01.05-1.01,1.52,0,1.57,2.1.11,4.1.27,6.18-.13.65-.12.65-1.19,0-1.31Z"/>
      <path class="cls-3" d="m195.02,170.11c-1.78.48-3.61,1.09-5.46,1.14-1.23.04-1.19,1.76,0,1.88,2.24.21,4.24-.3,6.06-1.6.69-.49.3-1.65-.6-1.41Z"/>
      <path class="cls-3" d="m202.76,167.11c-.44-.08-.73-.07-1.14.12-.37.17-.7.43-1.02.68-.77.62.24,1.9,1.05,1.36.49-.32,1.02-.46,1.44-.87.4-.38.24-1.18-.34-1.29Z"/>
      <path class="cls-3" d="m57.98,45.96c-1.38,1.46-1.85,3.94-1.79,5.91.02.65.97,1,1.29.35.42-.83.65-1.76.91-2.65.28-.95.68-1.86.94-2.82.2-.77-.78-1.39-1.35-.79Z"/>
      <path class="cls-3" d="m64.68,33.99c-1.61,1.31-2.33,3.62-3.16,5.46-.42.93.91,1.76,1.4.82.93-1.8,2.11-3.52,2.96-5.36.37-.8-.52-1.48-1.2-.92Z"/>
      <path class="cls-3" d="m77.46,23.13c-2.29,1.1-4.2,2.87-5.82,4.82-.67.8.4,1.92,1.16,1.16,1.75-1.73,3.85-3.02,5.68-4.65.76-.67-.21-1.72-1.02-1.33Z"/>
      <path class="cls-3" d="m95.04,15.19c-2.89.61-5.51,1.78-8.15,3.1-.68.34-.2,1.38.51,1.2,2.85-.75,5.53-1.75,8.17-3.04.74-.36.2-1.42-.53-1.26Z"/>
      <path class="cls-3" d="m110.22,12.8c-2.49-.22-5.18.54-7.67.76-.82.07-.8,1.17,0,1.27,2.46.29,5.52.31,7.86-.6.77-.3.64-1.35-.19-1.43Z"/>
      <path class="cls-3" d="m126.11,15.31c-1.5-1.18-3.36-1.41-5.22-1.31-1.11.06-1.12,1.72,0,1.73,1.56.02,2.97.47,4.46.89.71.2,1.41-.81.76-1.31Z"/>
      <path class="cls-3" d="m107.38,92.22c-1.56.63-2.81,1.63-3.97,2.83-.62.64.3,1.52.96.96,1.12-.94,2.37-1.69,3.52-2.57.54-.42.25-1.53-.51-1.22Z"/>
      <path class="cls-3" d="m117.89,87.84c-1.22-.1-2.35.42-3.37,1.05-.82.51-.1,1.69.75,1.28.9-.44,1.88-.62,2.81-.97.74-.28.61-1.29-.18-1.36Z"/>
      <path class="cls-3" d="m131.07,85.85c-1.42-.29-2.75-.2-4.19-.08-.98.08-.98,1.45,0,1.52,1.43.11,2.77.21,4.19-.08.67-.14.67-1.22,0-1.36Z"/>
      <path class="cls-3" d="m145.28,86.18c-1.59-.95-3.3-.69-5.06-.52-1.1.1-1.14,1.7,0,1.73,1.56.04,3.11.19,4.67.25.8.03,1.05-1.07.4-1.46Z"/>
      <path class="cls-3" d="m241.89,39.81c-2.15.11-4.18.99-6.18,1.73-.67.25-.63,1.42.18,1.33,2.18-.23,4.43-.66,6.36-1.73.61-.34.35-1.37-.36-1.33Z"/>
      <path class="cls-3" d="m255.55,40.64c-1.55-1.04-3.54-1-5.33-.78-.83.1-.88,1.31,0,1.34,1.7.05,3.32.42,5,.64.69.09.8-.88.33-1.2Z"/>
      <path class="cls-3" d="m269.33,43.77c-2.24-1.04-4.65-1.49-7.11-1.68-.89-.07-1.02,1.28-.21,1.52,2.28.66,4.5,1.52,6.87,1.8.86.1,1.21-1.28.44-1.64Z"/>
      <path class="cls-3" d="m280.27,48.77c-.92-1.35-2.72-1.78-4.18-2.33-.84-.31-1.32.97-.6,1.41,1.21.73,2.46,1.79,3.84,2.13.66.16,1.37-.59.94-1.22Z"/>
      <path class="cls-3" d="m287.75,54.02c-.66-1.23-2.33-1.76-3.57-2.21-1.16-.42-1.94,1.45-.84,1.99.51.25,1.01.53,1.5.84.58.36,1.1.75,1.78.85.85.12,1.57-.63,1.12-1.46Z"/>
      <path class="cls-3" d="m294.54,61.35c-.6-1.65-2.3-2.49-3.99-2.56-.82-.03-1.02,1.32-.2,1.45,1.34.22,2.09,1.18,3.19,1.88.48.31,1.2-.2,1-.77Z"/>
      <path class="cls-3" d="m312.23,177.3c-.7.39-1.29.95-1.91,1.46-.72.58-1.51,1.04-2.09,1.77-.27.34-.04.93.46.78.86-.25,1.59-.71,2.34-1.18.82-.51,1.63-1.07,2.09-1.94.3-.57-.3-1.21-.88-.88Z"/>
      <path class="cls-3" d="m317.41,173.05c-.67.55-1.17,1.27-1.75,1.92-.68.76.43,1.89,1.13,1.13.62-.69,1.3-1.37,1.69-2.22.33-.71-.46-1.32-1.07-.82Z"/>
      <path class="cls-3" d="m323.15,166.17c-1.17.63-1.53,2.11-1.47,3.35.06,1.12,1.68,1.12,1.73,0,.05-.92.58-1.62.9-2.45.27-.7-.61-1.2-1.17-.9Z"/>
      <path class="cls-3" d="m196.11,12.36c-1.91-1.27-4.9-.67-7.02-.31-.59.1-.38.92.13.97,1.09.11,2.19.17,3.29.28,1.08.11,2.12.5,3.21.5.8,0,1.02-1.03.39-1.44Z"/>
      <path class="cls-3" d="m212.78,16.96c-1.76-1.69-4.03-2.22-6.38-2.59-.86-.13-1.2,1.01-.36,1.31,1.99.71,3.85,1.7,5.78,2.53.78.34,1.67-.58.97-1.25Z"/>
      <path class="cls-3" d="m226.16,25.77c-.3-2.15-2.31-3.43-4.2-4.09-.98-.34-1.49,1.09-.68,1.61,1.36.87,2.26,2.19,3.26,3.43.27.34.83.35,1.18.15.41-.24.51-.66.45-1.1Z"/>
      <path class="cls-3" d="m229.3,34.87c-.27-.72-1.3-.44-1.15.32.24,1.2.33,2.62,1.01,3.67.35.54,1.21.34,1.22-.33.03-1.26-.65-2.5-1.08-3.66Z"/>
      <g>
        <path class="cls-2" d="m310.89,216.98c-5.31-.68-11.34-.16-16.67.41-1.04.11-1.04,1.5,0,1.62,5.32.58,11.35,1.09,16.67.41,1.57-.2,1.57-2.24,0-2.44Z"/>
        <path class="cls-2" d="m313.44,226.74c-1.83-.33-3.7-.15-5.55-.08-1.12.04-1.12,1.69,0,1.73,1.85.07,3.72.25,5.55-.08.79-.14.79-1.44,0-1.58Z"/>
        <path class="cls-2" d="m298.55,244.09c-5.19-.69-10.78-.02-16,.22-.71.03-.71,1.07,0,1.1,5.22.24,10.81.91,16,.22.99-.13.99-1.42,0-1.55Z"/>
        <path class="cls-2" d="m274.85,257.8c-.96-.3-1.96-.34-2.96-.43-1.92-.17-1.92,3.15,0,2.98,1-.09,1.99-.13,2.96-.43,1.05-.32,1.05-1.8,0-2.12Z"/>
        <path class="cls-2" d="m300.55,272.41c-13.73-.78-27.58-.32-41.33-.38-1.92,0-1.92,2.98,0,2.98,13.75-.06,27.6.4,41.33-.38,1.43-.08,1.43-2.15,0-2.23Z"/>
        <path class="cls-2" d="m309.55,261.59c-2.11-.06-4.22-.12-6.33-.18-1.44-.04-1.44,2.27,0,2.23,2.11-.06,4.22-.12,6.33-.18,1.21-.03,1.21-1.84,0-1.88Z"/>
        <path class="cls-2" d="m277.89,288.17c-3.41-.41-6.9-.09-10.33.02-1.28.04-1.28,1.95,0,1.99,3.43.11,6.92.43,10.33.02,1.31-.16,1.31-1.88,0-2.04Z"/>
        <path class="cls-2" d="m270.89,297.95c-9.17-.65-18.49-.02-27.67.2-.92.02-.92,1.41,0,1.43,9.18.22,18.5.85,27.67.2,1.18-.08,1.18-1.74,0-1.83Z"/>
        <path class="cls-2" d="m234.8,311.65c-1.61-.32-3.23-.32-4.85-.55-2.4-.35-2.4,3.22,0,2.87,1.61-.24,3.24-.23,4.85-.55.88-.17.88-1.59,0-1.76Z"/>
        <path class="cls-2" d="m272.55,319.17c-7.5-.68-15.15-.16-22.67-.06-.97.01-.97,1.49,0,1.5,7.52.1,15.17.62,22.67-.06.89-.08.89-1.3,0-1.38Z"/>
        <path class="cls-2" d="m247.22,331.49c-8.2-.39-16.46-.03-24.67.06-.83,0-.83,1.28,0,1.29,8.21.09,16.46.45,24.67.06.91-.04.91-1.36,0-1.41Z"/>
        <path class="cls-2" d="m231.78,325.37c-5.13-.7-10.75-.11-15.89.3-.68.05-.68,1,0,1.05,5.14.41,10.77,1,15.89.3.82-.11.82-1.54,0-1.65Z"/>
        <path class="cls-2" d="m257.41,338.18c-1.83-.3-3.67-.1-5.52,0-.88.05-.88,1.31,0,1.36,1.85.1,3.69.3,5.52,0,.67-.11.67-1.24,0-1.36Z"/>
        <path class="cls-2" d="m230.05,343.26c-2.58-.4-5.23-.19-7.83-.16-.98.01-.98,1.51,0,1.52,2.6.03,5.26.23,7.83-.16.6-.09.6-1.11,0-1.2Z"/>
      </g>
      <g>
        <path class="cls-2" d="m47.02,216.98c5.31-.68,11.34-.16,16.67.41,1.04.11,1.04,1.5,0,1.62-5.32.58-11.35,1.09-16.67.41-1.57-.2-1.57-2.24,0-2.44Z"/>
        <path class="cls-2" d="m44.47,226.74c1.83-.33,3.7-.15,5.55-.08,1.12.04,1.12,1.69,0,1.73-1.85.07-3.72.25-5.55-.08-.79-.14-.79-1.44,0-1.58Z"/>
        <path class="cls-2" d="m59.35,244.09c5.19-.69,10.78-.02,16,.22.71.03.71,1.07,0,1.1-5.22.24-10.81.91-16,.22-.99-.13-.99-1.42,0-1.55Z"/>
        <path class="cls-2" d="m83.06,257.8c.96-.3,1.96-.34,2.96-.43,1.92-.17,1.92,3.15,0,2.98-1-.09-1.99-.13-2.96-.43-1.05-.32-1.05-1.8,0-2.12Z"/>
        <path class="cls-2" d="m57.35,272.41c13.73-.78,27.58-.32,41.33-.38,1.92,0,1.92,2.98,0,2.98-13.75-.06-27.6.4-41.33-.38-1.43-.08-1.43-2.15,0-2.23Z"/>
        <path class="cls-2" d="m48.35,261.59c2.11-.06,4.22-.12,6.33-.18,1.44-.04,1.44,2.27,0,2.23-2.11-.06-4.22-.12-6.33-.18-1.21-.03-1.21-1.84,0-1.88Z"/>
        <path class="cls-2" d="m80.02,288.17c3.41-.41,6.9-.09,10.33.02,1.28.04,1.28,1.95,0,1.99-3.43.11-6.92.43-10.33.02-1.31-.16-1.31-1.88,0-2.04Z"/>
        <path class="cls-2" d="m87.02,297.95c9.17-.65,18.49-.02,27.67.2.92.02.92,1.41,0,1.43-9.18.22-18.5.85-27.67.2-1.18-.08-1.18-1.74,0-1.83Z"/>
        <path class="cls-2" d="m123.11,311.65c1.61-.32,3.23-.32,4.85-.55,2.4-.35,2.4,3.22,0,2.87-1.61-.24-3.24-.23-4.85-.55-.88-.17-.88-1.59,0-1.76Z"/>
        <path class="cls-2" d="m85.35,319.17c7.5-.68,15.15-.16,22.67-.06.97.01.97,1.49,0,1.5-7.52.1-15.17.62-22.67-.06-.89-.08-.89-1.3,0-1.38Z"/>
        <path class="cls-2" d="m110.69,331.49c8.2-.39,16.46-.03,24.67.06.83,0,.83,1.28,0,1.29-8.21.09-16.46.45-24.67.06-.91-.04-.91-1.36,0-1.41Z"/>
        <path class="cls-2" d="m126.13,325.37c5.13-.7,10.75-.11,15.89.3.68.05.68,1,0,1.05-5.14.41-10.77,1-15.89.3-.82-.11-.82-1.54,0-1.65Z"/>
        <path class="cls-2" d="m100.5,338.18c1.83-.3,3.67-.1,5.52,0,.88.05.88,1.31,0,1.36-1.85.1-3.69.3-5.52,0-.67-.11-.67-1.24,0-1.36Z"/>
        <path class="cls-2" d="m127.85,343.26c2.58-.4,5.23-.19,7.83-.16.98.01.98,1.51,0,1.52-2.6.03-5.26.23-7.83-.16-.6-.09-.6-1.11,0-1.2Z"/>
      </g>
    </g>
  </g>
</svg>